<svg width="26" height="25" viewBox="0 0 26 25" fill="none" xmlns="http://www.w3.org/2000/svg">
<path d="M8.69637 20.13C8.69637 20.2334 8.57581 20.3161 8.42379 20.3161C8.25081 20.3316 8.13024 20.2489 8.13024 20.13C8.13024 20.0266 8.25081 19.9439 8.40282 19.9439C8.56008 19.9284 8.69637 20.0111 8.69637 20.13ZM7.06613 19.8974C7.02944 20.0008 7.13427 20.1197 7.29153 20.1507C7.42782 20.2024 7.58508 20.1507 7.61653 20.0473C7.64798 19.9439 7.54839 19.825 7.39113 19.7785C7.25484 19.7423 7.10282 19.794 7.06613 19.8974ZM9.38306 19.8095C9.23105 19.8457 9.12621 19.9439 9.14194 20.0628C9.15766 20.1662 9.29395 20.2334 9.45121 20.1972C9.60323 20.161 9.70806 20.0628 9.69234 19.9594C9.67661 19.8612 9.53508 19.794 9.38306 19.8095ZM12.8323 6.10352e-05C5.56169 6.10352e-05 0 5.44353 0 12.6136C0 18.3466 3.65887 23.2524 8.88508 24.979C9.55605 25.0979 9.79193 24.6895 9.79193 24.3535C9.79193 24.033 9.77621 22.265 9.77621 21.1794C9.77621 21.1794 6.10685 21.9548 5.33629 19.6389C5.33629 19.6389 4.73871 18.1346 3.87903 17.7469C3.87903 17.7469 2.67863 16.9353 3.9629 16.9508C3.9629 16.9508 5.26815 17.0542 5.98629 18.2845C7.13427 20.2799 9.05806 19.7061 9.80766 19.3649C9.92823 18.5378 10.269 17.964 10.6464 17.6228C7.71613 17.3023 4.75968 16.8836 4.75968 11.9105C4.75968 10.4889 5.15806 9.77555 5.99677 8.86572C5.86048 8.52971 5.41492 7.14428 6.13306 5.35564C7.22863 5.01963 9.75 6.7514 9.75 6.7514C10.7984 6.46191 11.9254 6.312 13.0419 6.312C14.1585 6.312 15.2855 6.46191 16.3339 6.7514C16.3339 6.7514 18.8552 5.01446 19.9508 5.35564C20.669 7.14945 20.2234 8.52971 20.0871 8.86572C20.9258 9.78072 21.4395 10.4941 21.4395 11.9105C21.4395 16.8991 18.352 17.2971 15.4218 17.6228C15.904 18.0312 16.3129 18.8066 16.3129 20.0215C16.3129 21.7636 16.2972 23.9193 16.2972 24.3432C16.2972 24.6792 16.5383 25.0876 17.204 24.9687C22.446 23.2524 26 18.3466 26 12.6136C26 5.44353 20.1028 6.10352e-05 12.8323 6.10352e-05ZM5.09516 17.8296C5.02702 17.8813 5.04274 18.0002 5.13185 18.0984C5.21573 18.1811 5.33629 18.2173 5.40444 18.1501C5.47258 18.0984 5.45685 17.9795 5.36774 17.8813C5.28387 17.7986 5.16331 17.7624 5.09516 17.8296ZM4.52903 17.4109C4.49234 17.4781 4.54476 17.5608 4.6496 17.6125C4.73347 17.6642 4.83831 17.6487 4.875 17.5763C4.91169 17.5091 4.85927 17.4264 4.75444 17.3747C4.6496 17.3437 4.56573 17.3592 4.52903 17.4109ZM6.22742 19.2512C6.14355 19.3184 6.175 19.4735 6.29556 19.5717C6.41613 19.6906 6.56814 19.7061 6.63629 19.6234C6.70444 19.5562 6.67298 19.4011 6.56815 19.3029C6.45282 19.184 6.29556 19.1685 6.22742 19.2512ZM5.62984 18.4913C5.54597 18.543 5.54597 18.6774 5.62984 18.7963C5.71371 18.9152 5.85524 18.9669 5.92339 18.9152C6.00726 18.848 6.00726 18.7136 5.92339 18.5947C5.85 18.4758 5.71371 18.4241 5.62984 18.4913Z" fill="white"/>
</svg>
