<svg width="26" height="25" viewBox="0 0 26 25" fill="none" xmlns="http://www.w3.org/2000/svg">
<path d="M13.0029 6.09038C9.31389 6.09038 6.33832 8.95214 6.33832 12.5001C6.33832 16.048 9.31389 18.9097 13.0029 18.9097C16.6919 18.9097 19.6675 16.048 19.6675 12.5001C19.6675 8.95214 16.6919 6.09038 13.0029 6.09038ZM13.0029 16.6672C10.619 16.6672 8.67005 14.7984 8.67005 12.5001C8.67005 10.2017 10.6132 8.33293 13.0029 8.33293C15.3926 8.33293 17.3358 10.2017 17.3358 12.5001C17.3358 14.7984 15.3868 16.6672 13.0029 16.6672ZM21.4946 5.82819C21.4946 6.65938 20.7986 7.32322 19.9401 7.32322C19.0759 7.32322 18.3856 6.6538 18.3856 5.82819C18.3856 5.00257 19.0817 4.33315 19.9401 4.33315C20.7986 4.33315 21.4946 5.00257 21.4946 5.82819ZM25.9086 7.34554C25.81 5.34286 25.3344 3.5689 23.8089 2.10734C22.2892 0.645771 20.4447 0.188335 18.3624 0.0879222C16.2163 -0.029226 9.78371 -0.029226 7.63759 0.0879222C5.56107 0.182757 3.71656 0.640193 2.19108 2.10176C0.665589 3.56332 0.195761 5.33728 0.0913553 7.33996C-0.0304518 9.404 -0.0304518 15.5905 0.0913553 17.6546C0.189961 19.6573 0.665589 21.4312 2.19108 22.8928C3.71656 24.3544 5.55527 24.8118 7.63759 24.9122C9.78371 25.0293 16.2163 25.0293 18.3624 24.9122C20.4447 24.8174 22.2892 24.3599 23.8089 22.8928C25.3286 21.4312 25.8042 19.6573 25.9086 17.6546C26.0305 15.5905 26.0305 9.40958 25.9086 7.34554ZM23.1361 19.8692C22.6837 20.9626 21.8078 21.805 20.6651 22.2457C18.954 22.8984 14.8938 22.7477 13.0029 22.7477C11.112 22.7477 7.04596 22.8928 5.34066 22.2457C4.20379 21.8106 3.32794 20.9682 2.86972 19.8692C2.19108 18.2236 2.34769 14.3186 2.34769 12.5001C2.34769 10.6815 2.19688 6.77095 2.86972 5.13088C3.32214 4.03749 4.19799 3.19514 5.34066 2.75444C7.05176 2.10176 11.112 2.25238 13.0029 2.25238C14.8938 2.25238 18.9598 2.10734 20.6651 2.75444C21.802 3.18956 22.6779 4.03191 23.1361 5.13088C23.8147 6.77653 23.6581 10.6815 23.6581 12.5001C23.6581 14.3186 23.8147 18.2292 23.1361 19.8692Z" fill="white"/>
</svg>
