<svg width="26" height="25" viewBox="0 0 26 25" fill="none" xmlns="http://www.w3.org/2000/svg">
<path d="M5.81982 25.0001H0.429464V8.30884H5.81982V25.0001ZM3.12174 6.032C1.39808 6.032 0 4.65921 0 3.0018C1.23372e-08 2.20569 0.328897 1.44219 0.914337 0.879251C1.49978 0.316315 2.2938 6.10352e-05 3.12174 6.10352e-05C3.94968 6.10352e-05 4.74371 0.316315 5.32915 0.879251C5.91459 1.44219 6.24348 2.20569 6.24348 3.0018C6.24348 4.65921 4.84482 6.032 3.12174 6.032ZM25.9942 25.0001H20.6154V16.8749C20.6154 14.9385 20.5748 12.4551 17.8129 12.4551C15.0104 12.4551 14.5809 14.559 14.5809 16.7354V25.0001H9.19634V8.30884H14.3662V10.5857H14.4416C15.1612 9.27426 16.9192 7.8903 19.5418 7.8903C24.9971 7.8903 26 11.3446 26 15.8313V25.0001H25.9942Z" fill="white"/>
</svg>
