<svg width="16" height="15" viewBox="0 0 16 15" fill="none" xmlns="http://www.w3.org/2000/svg">
<path d="M8 15C5.77778 15 3.88889 14.2708 2.33333 12.8125C0.777778 11.3542 0 9.58333 0 7.5C0 5.41667 0.777778 3.64583 2.33333 2.1875C3.88889 0.729167 5.77778 0 8 0C8.20741 0 8.41111 0.00694444 8.61111 0.0208333C8.81111 0.0347222 9.00741 0.0555556 9.2 0.0833333C8.59259 0.486111 8.10741 1.01042 7.74445 1.65625C7.38148 2.30208 7.2 3 7.2 3.75C7.2 5 7.66667 6.0625 8.6 6.9375C9.53333 7.8125 10.6667 8.25 12 8.25C12.8148 8.25 13.563 8.07986 14.2444 7.73958C14.9259 7.39931 15.4815 6.94444 15.9111 6.375C15.9407 6.55556 15.963 6.73958 15.9778 6.92708C15.9926 7.11458 16 7.30556 16 7.5C16 9.58333 15.2222 11.3542 13.6667 12.8125C12.1111 14.2708 10.2222 15 8 15ZM8 13.3333C9.3037 13.3333 10.4741 12.9965 11.5111 12.3229C12.5481 11.6493 13.3037 10.7708 13.7778 9.6875C13.4815 9.75694 13.1852 9.8125 12.8889 9.85417C12.5926 9.89583 12.2963 9.91667 12 9.91667C10.1778 9.91667 8.62593 9.31597 7.34444 8.11458C6.06296 6.91319 5.42222 5.45833 5.42222 3.75C5.42222 3.47222 5.44444 3.19444 5.48889 2.91667C5.53333 2.63889 5.59259 2.36111 5.66667 2.08333C4.51111 2.52778 3.57407 3.23611 2.85556 4.20833C2.13704 5.18056 1.77778 6.27778 1.77778 7.5C1.77778 9.11111 2.38519 10.4861 3.6 11.625C4.81482 12.7639 6.28148 13.3333 8 13.3333Z" fill="#FBEEF0"/>
</svg>
