<svg width="16" height="15" viewBox="0 0 16 15" fill="none" xmlns="http://www.w3.org/2000/svg">
<path d="M7.27273 2.72727V0H8.72727V2.72727H7.27273ZM12.1091 4.60227L11.1091 3.66477L13.1455 1.70455L14.1636 2.67614L12.1091 4.60227ZM13.0909 8.18182V6.81818H16V8.18182H13.0909ZM7.27273 15V12.2727H8.72727V15H7.27273ZM3.89091 4.56818L1.81818 2.67614L2.85455 1.72159L4.90909 3.64773L3.89091 4.56818ZM13.1273 13.2955L11.1091 11.3352L12.0909 10.4148L14.1636 12.2898L13.1273 13.2955ZM0 8.18182V6.81818H2.90909V8.18182H0ZM2.85455 13.2955L1.83636 12.3239L3.87273 10.4148L4.4 10.875L4.92727 11.3523L2.85455 13.2955ZM8 11.5909C6.78788 11.5909 5.75758 11.1932 4.90909 10.3977C4.06061 9.60227 3.63636 8.63636 3.63636 7.5C3.63636 6.36364 4.06061 5.39773 4.90909 4.60227C5.75758 3.80682 6.78788 3.40909 8 3.40909C9.21212 3.40909 10.2424 3.80682 11.0909 4.60227C11.9394 5.39773 12.3636 6.36364 12.3636 7.5C12.3636 8.63636 11.9394 9.60227 11.0909 10.3977C10.2424 11.1932 9.21212 11.5909 8 11.5909ZM8 10.2273C8.8 10.2273 9.48485 9.96023 10.0545 9.42614C10.6242 8.89205 10.9091 8.25 10.9091 7.5C10.9091 6.75 10.6242 6.10795 10.0545 5.57386C9.48485 5.03977 8.8 4.77273 8 4.77273C7.2 4.77273 6.51515 5.03977 5.94545 5.57386C5.37576 6.10795 5.09091 6.75 5.09091 7.5C5.09091 8.25 5.37576 8.89205 5.94545 9.42614C6.51515 9.96023 7.2 10.2273 8 10.2273Z" fill="#22162A"/>
</svg>
