<svg width="27" height="25" viewBox="0 0 27 25" fill="none" xmlns="http://www.w3.org/2000/svg">
<path d="M9.04762 25L6.78571 21.1905L2.5 20.2381L2.91667 15.8333L0 12.5L2.91667 9.16667L2.5 4.7619L6.78571 3.80952L9.04762 0L13.0952 1.72619L17.1429 0L19.4048 3.80952L23.6905 4.7619L23.2738 9.16667L26.1905 12.5L23.2738 15.8333L23.6905 20.2381L19.4048 21.1905L17.1429 25L13.0952 23.2738L9.04762 25ZM10.0595 21.9643L13.0952 20.6548L16.1905 21.9643L17.8571 19.1071L21.131 18.3333L20.8333 15L23.0357 12.5L20.8333 9.94048L21.131 6.60714L17.8571 5.89286L16.131 3.03571L13.0952 4.34524L10 3.03571L8.33333 5.89286L5.05952 6.60714L5.35714 9.94048L3.15476 12.5L5.35714 15L5.05952 18.3929L8.33333 19.1071L10.0595 21.9643ZM11.8452 16.7262L18.5714 10L16.9048 8.27381L11.8452 13.3333L9.28571 10.8333L7.61905 12.5L11.8452 16.7262Z" fill="white"/>
</svg>
