<?xml version="1.0" encoding="utf-8"?>
<!-- Generator: Adobe Illustrator 26.1.0, SVG Export Plug-In . SVG Version: 6.00 Build 0)  -->
<svg version="1.1" id="Layer_1" xmlns="http://www.w3.org/2000/svg" xmlns:xlink="http://www.w3.org/1999/xlink" x="0px" y="0px"
	 viewBox="0 0 203.8 62.5" style="enable-background:new 0 0 203.8 62.5;" xml:space="preserve">
<style type="text/css">
	.st0{fill:#22162A;stroke:#22162A;stroke-width:2;stroke-miterlimit:10;}
	.st1{fill:#B0A1C0;stroke:#22162A;stroke-width:2;stroke-miterlimit:10;}
</style>
<g>
	<g>
		<path class="st0" d="M34.9,21.6c1.7-3.8,3.7-6.9,6-9.2c1-1,2-1.8,3.2-2.6c1.2-0.7,2.4-1.2,3.7-1.4c1.3-0.2,2.7-0.1,4.2,0.4
			c1.5,0.5,3,1.4,4.7,2.8c1.3,1.2,2.2,2.4,2.8,3.6c0.6,1.3,0.9,2.6,0.9,3.9c0,1.3-0.2,2.6-0.6,3.9c-0.4,1.3-0.9,2.5-1.5,3.7
			c-1.5,2.7-3.6,5.5-6.3,8.2c2.9,2.4,5.2,4.8,6.8,7.3c0.7,1.1,1.2,2.3,1.7,3.5c0.4,1.2,0.6,2.5,0.6,3.8c0,1.3-0.4,2.7-1,4.1
			c-0.6,1.4-1.6,2.8-3.1,4.1c-1.9,1.8-3.8,2.9-5.6,3.3c-1.8,0.4-3.5,0.3-5.1-0.3c-1.6-0.6-3.1-1.4-4.5-2.7c-1.4-1.2-2.6-2.5-3.7-3.8
			c-1.1-1.3-1.9-2.6-2.6-3.7c-0.7-1.2-1.1-2-1.3-2.6c-1.8,3.9-3.8,7.1-6,9.4c-1,1-2,1.9-3.1,2.6c-1.1,0.7-2.3,1.2-3.6,1.4
			c-1.3,0.2-2.7,0-4.1-0.5c-1.4-0.5-3-1.5-4.5-3c-1.5-1.4-2.5-2.8-3.2-4.2c-0.6-1.4-1-2.8-1-4.2c0-1.4,0.2-2.7,0.6-4
			c0.5-1.3,1-2.5,1.8-3.6c1.6-2.6,4-5.2,7.1-7.6C14.5,32,11.8,29.5,10,27c-0.8-1.1-1.5-2.3-2-3.5c-0.5-1.2-0.7-2.5-0.7-3.9
			c0-1.3,0.4-2.7,1.2-4.1c0.7-1.4,2-2.7,3.7-4.1c1.6-1.2,3.1-2.1,4.6-2.4c1.5-0.4,2.9-0.4,4.3-0.2c1.4,0.3,2.7,0.8,3.9,1.5
			c1.2,0.7,2.3,1.6,3.3,2.5C30.7,15,32.9,17.9,34.9,21.6z"/>
		<path class="st0" d="M68.8,45.7c-0.3-2-0.5-4.1-0.5-6.4c-0.1-2.3-0.1-4.5,0-6.5c0-2.4,0.1-4.7,0.3-7.1c0.2-3,0.8-5.6,1.8-8
			c0.4-1,1-2,1.6-3c0.6-1,1.4-1.8,2.3-2.6c0.9-0.7,1.9-1.4,3.1-1.8c1.2-0.5,2.6-0.7,4.2-0.7c1.9,0.1,3.7,0.7,5.3,1.7
			c0.7,0.4,1.4,1,2.1,1.7c0.7,0.7,1.3,1.5,1.9,2.5c0.6,1,1.1,2.2,1.6,3.5c0.5,1.3,0.8,2.9,1,4.6c0.4,3.4,0.6,6.5,0.6,9.5
			c0,3,0,5.7-0.1,8c-0.1,2.6-0.3,5.1-0.6,7.4c-0.3,2.4-1,4.4-1.9,6.3c-0.4,0.8-0.9,1.5-1.5,2.3c-0.6,0.7-1.3,1.4-2.1,2
			c-0.8,0.6-1.8,1.1-2.8,1.4C84,60.8,82.8,61,81.5,61c-1.5,0-2.8-0.2-4-0.7s-2.2-1-3.1-1.8c-0.9-0.7-1.6-1.5-2.2-2.4
			c-0.6-0.9-1.1-1.8-1.5-2.8C69.7,51,69.1,48.5,68.8,45.7z"/>
		<path class="st0" d="M141,59.7c-1.2,0.4-2.4,0.6-3.6,0.7c-1.1,0.1-2.2,0-3.5-0.1c-1.3-0.2-2.5-0.6-3.8-1.4c-1.4-0.9-2.6-1.9-3.5-3
			c-0.9-1.1-1.6-2.2-2.1-3.3c-0.5-1.1-0.9-2.1-1.1-3c-0.2-0.9-0.3-1.5-0.4-1.8c0,0.3-0.2,0.9-0.4,1.8c-0.2,0.9-0.6,1.9-1.1,3
			c-0.5,1.1-1.2,2.2-2.1,3.3c-0.9,1.1-2.1,2.1-3.5,3c-1.2,0.7-2.5,1.2-3.8,1.4c-1.3,0.2-2.4,0.2-3.5,0.1c-1.2-0.1-2.4-0.3-3.6-0.7
			c-1-0.3-1.8-0.8-2.5-1.3c-0.7-0.6-1.3-1.2-1.7-1.9c-0.5-0.7-0.8-1.4-1.2-2.2c-0.3-0.8-0.5-1.6-0.7-2.3c-0.4-1.8-0.5-3.8-0.4-5.8
			c0.1-3.4,0.5-6.5,1.2-9.4c0.6-2.9,1.4-5.5,2.3-7.8s2-4.5,3.1-6.4c1.1-1.9,2.2-3.6,3.2-5.1c1.6-2.3,3.2-4.1,4.9-5.3
			c1.7-1.2,3.2-2.1,4.6-2.6c1.4-0.6,2.6-0.9,3.5-0.9c0.9-0.1,1.5-0.1,1.6-0.1s0.7,0,1.6,0.1c0.9,0.1,2.1,0.4,3.5,0.9
			c1.4,0.6,3,1.4,4.6,2.6c1.7,1.2,3.3,3,4.9,5.3c1.1,1.5,2.1,3.3,3.2,5.1c1.1,1.9,2.1,4,3,6.4s1.7,5,2.3,7.8c0.6,2.9,1,6,1.2,9.4
			c0.1,2.1,0,4-0.4,5.8c-0.1,0.8-0.4,1.5-0.7,2.3c-0.3,0.8-0.7,1.5-1.2,2.2c-0.5,0.7-1.1,1.3-1.8,1.9C142.8,58.9,142,59.4,141,59.7z
			 M123.4,33.8c-0.8,0-1.5,0.3-2.1,0.9c-0.6,0.6-0.9,1.3-0.8,2.1c0.1,1,0.4,1.7,0.9,2.1c0.5,0.4,1.2,0.6,2,0.6c0.8,0,1.5-0.2,2-0.7
			c0.5-0.5,0.8-1.1,0.8-1.9c0-0.8-0.2-1.5-0.7-2.1C125,34.1,124.3,33.8,123.4,33.8z"/>
		<path class="st0" d="M178.2,9.7c2.9,0,5.4,0.3,7.6,1c2.2,0.7,4.1,1.6,5.7,2.8c1.6,1.2,3,2.5,4.1,3.9c1.1,1.5,2,3,2.7,4.5
			c1.7,3.6,2.6,7.7,2.9,12.2c0,3.4-0.3,6.4-1,9c-0.7,2.6-1.5,4.8-2.6,6.7c-1.1,1.9-2.3,3.5-3.7,4.8c-1.4,1.3-2.8,2.4-4.2,3.2
			c-3.4,2-7.2,3.1-11.5,3.4c-3.3,0-6.1-0.3-8.6-1c-2.4-0.7-4.6-1.6-6.4-2.7c-1.8-1.1-3.4-2.4-4.6-3.9c-1.2-1.5-2.3-3-3.1-4.5
			c-1.9-3.6-3-7.6-3.2-12.2c0-3.7,0.4-7,1.1-9.7c0.7-2.7,1.7-5.1,3-7.1c1.2-2,2.6-3.6,4.1-4.9c1.5-1.3,3.1-2.3,4.8-3.1
			C169.1,10.3,173.4,9.5,178.2,9.7z M177.1,32.8c-0.8,0-1.5,0.3-2.1,0.9c-0.6,0.6-0.9,1.3-0.8,2.1c0.1,1,0.4,1.7,0.9,2.1
			c0.5,0.4,1.2,0.6,2,0.6c0.8,0,1.5-0.2,2-0.7c0.5-0.5,0.8-1.1,0.8-1.9c0-0.8-0.2-1.5-0.7-2.1C178.8,33.1,178.1,32.8,177.1,32.8z"/>
	</g>
	<g>
		<path class="st1" d="M28.9,15.6c1.7-3.8,3.7-6.9,6-9.2c1-1,2-1.8,3.2-2.6c1.2-0.7,2.4-1.2,3.7-1.4c1.3-0.2,2.7-0.1,4.2,0.4
			c1.5,0.5,3,1.4,4.7,2.8C52,6.8,52.9,8,53.5,9.3c0.6,1.3,0.9,2.6,0.9,3.9c0,1.3-0.2,2.6-0.6,3.9c-0.4,1.3-0.9,2.5-1.5,3.7
			c-1.5,2.7-3.6,5.5-6.3,8.2c2.9,2.4,5.2,4.8,6.8,7.3c0.7,1.1,1.2,2.3,1.7,3.5c0.4,1.2,0.6,2.5,0.6,3.8c0,1.3-0.4,2.7-1,4.1
			c-0.6,1.4-1.6,2.8-3.1,4.1c-1.9,1.8-3.8,2.9-5.6,3.3c-1.8,0.4-3.5,0.3-5.1-0.3c-1.6-0.6-3.1-1.4-4.5-2.7c-1.4-1.2-2.6-2.5-3.7-3.8
			c-1.1-1.3-1.9-2.6-2.6-3.7c-0.7-1.2-1.1-2-1.3-2.6c-1.8,3.9-3.8,7.1-6,9.4c-1,1-2,1.9-3.1,2.6c-1.1,0.7-2.3,1.2-3.6,1.4
			c-1.3,0.2-2.7,0-4.1-0.5c-1.4-0.5-3-1.5-4.5-3c-1.5-1.4-2.5-2.8-3.2-4.2c-0.6-1.4-1-2.8-1-4.2c0-1.4,0.2-2.7,0.6-4
			c0.5-1.3,1-2.5,1.8-3.6c1.6-2.6,4-5.2,7.1-7.6C8.5,26,5.8,23.5,4,21c-0.8-1.1-1.5-2.3-2-3.5c-0.5-1.2-0.7-2.5-0.7-3.9
			c0-1.3,0.4-2.7,1.2-4.1c0.7-1.4,2-2.7,3.7-4.1c1.6-1.2,3.1-2.1,4.6-2.4c1.5-0.4,2.9-0.4,4.3-0.2C16.5,3,17.7,3.5,19,4.2
			c1.2,0.7,2.3,1.6,3.3,2.5C24.7,9,26.9,11.9,28.9,15.6z"/>
		<path class="st1" d="M62.8,39.7c-0.3-2-0.5-4.1-0.5-6.4c-0.1-2.3-0.1-4.5,0-6.5c0-2.4,0.1-4.7,0.3-7.1c0.2-3,0.8-5.6,1.8-8
			c0.4-1,1-2,1.6-3c0.6-1,1.4-1.8,2.3-2.6c0.9-0.7,1.9-1.4,3.1-1.8c1.2-0.5,2.6-0.7,4.2-0.7c1.9,0.1,3.7,0.7,5.3,1.7
			c0.7,0.4,1.4,1,2.1,1.7c0.7,0.7,1.3,1.5,1.9,2.5c0.6,1,1.1,2.2,1.6,3.5c0.5,1.3,0.8,2.9,1,4.6c0.4,3.4,0.6,6.5,0.6,9.5
			c0,3,0,5.7-0.1,8c-0.1,2.6-0.3,5.1-0.6,7.4c-0.3,2.4-1,4.4-1.9,6.3c-0.4,0.8-0.9,1.5-1.5,2.3c-0.6,0.7-1.3,1.4-2.1,2
			c-0.8,0.6-1.8,1.1-2.8,1.4C78,54.8,76.8,55,75.5,55c-1.5,0-2.8-0.2-4-0.7s-2.2-1-3.1-1.8c-0.9-0.7-1.6-1.5-2.2-2.4
			c-0.6-0.9-1.1-1.8-1.5-2.8C63.7,45,63.1,42.5,62.8,39.7z"/>
		<path class="st1" d="M135,53.7c-1.2,0.4-2.4,0.6-3.6,0.7c-1.1,0.1-2.2,0-3.5-0.1c-1.3-0.2-2.5-0.6-3.8-1.4c-1.4-0.9-2.6-1.9-3.5-3
			c-0.9-1.1-1.6-2.2-2.1-3.3c-0.5-1.1-0.9-2.1-1.1-3c-0.2-0.9-0.3-1.5-0.4-1.8c0,0.3-0.2,0.9-0.4,1.8c-0.2,0.9-0.6,1.9-1.1,3
			c-0.5,1.1-1.2,2.2-2.1,3.3c-0.9,1.1-2.1,2.1-3.5,3c-1.2,0.7-2.5,1.2-3.8,1.4c-1.3,0.2-2.4,0.2-3.5,0.1c-1.2-0.1-2.4-0.3-3.6-0.7
			c-1-0.3-1.8-0.8-2.5-1.3c-0.7-0.6-1.3-1.2-1.7-1.9c-0.5-0.7-0.8-1.4-1.2-2.2c-0.3-0.8-0.5-1.6-0.7-2.3c-0.4-1.8-0.5-3.8-0.4-5.8
			c0.1-3.4,0.5-6.5,1.2-9.4c0.6-2.9,1.4-5.5,2.3-7.8s2-4.5,3.1-6.4c1.1-1.9,2.2-3.6,3.2-5.1c1.6-2.3,3.2-4.1,4.9-5.3
			c1.7-1.2,3.2-2.1,4.6-2.6c1.4-0.6,2.6-0.9,3.5-0.9c0.9-0.1,1.5-0.1,1.6-0.1s0.7,0,1.6,0.1c0.9,0.1,2.1,0.4,3.5,0.9
			c1.4,0.6,3,1.4,4.6,2.6c1.7,1.2,3.3,3,4.9,5.3c1.1,1.5,2.1,3.3,3.2,5.1c1.1,1.9,2.1,4,3,6.4s1.7,5,2.3,7.8c0.6,2.9,1,6,1.2,9.4
			c0.1,2.1,0,4-0.4,5.8c-0.1,0.8-0.4,1.5-0.7,2.3c-0.3,0.8-0.7,1.5-1.2,2.2c-0.5,0.7-1.1,1.3-1.8,1.9C136.8,52.9,136,53.4,135,53.7z
			 M117.4,27.8c-0.8,0-1.5,0.3-2.1,0.9c-0.6,0.6-0.9,1.3-0.8,2.1c0.1,1,0.4,1.7,0.9,2.1c0.5,0.4,1.2,0.6,2,0.6c0.8,0,1.5-0.2,2-0.7
			c0.5-0.5,0.8-1.1,0.8-1.9c0-0.8-0.2-1.5-0.7-2.1C119,28.1,118.3,27.8,117.4,27.8z"/>
		<path class="st1" d="M172.2,3.7c2.9,0,5.4,0.3,7.6,1c2.2,0.7,4.1,1.6,5.7,2.8c1.6,1.2,3,2.5,4.1,3.9c1.1,1.5,2,3,2.7,4.5
			c1.7,3.6,2.6,7.7,2.9,12.2c0,3.4-0.3,6.4-1,9c-0.7,2.6-1.5,4.8-2.6,6.7c-1.1,1.9-2.3,3.5-3.7,4.8c-1.4,1.3-2.8,2.4-4.2,3.2
			c-3.4,2-7.2,3.1-11.5,3.4c-3.3,0-6.1-0.3-8.6-1c-2.4-0.7-4.6-1.6-6.4-2.7c-1.8-1.1-3.4-2.4-4.6-3.9c-1.2-1.5-2.3-3-3.1-4.5
			c-1.9-3.6-3-7.6-3.2-12.2c0-3.7,0.4-7,1.1-9.7c0.7-2.7,1.7-5.1,3-7.1c1.2-2,2.6-3.6,4.1-4.9c1.5-1.3,3.1-2.3,4.8-3.1
			C163.1,4.3,167.4,3.5,172.2,3.7z M171.1,26.8c-0.8,0-1.5,0.3-2.1,0.9c-0.6,0.6-0.9,1.3-0.8,2.1c0.1,1,0.4,1.7,0.9,2.1
			c0.5,0.4,1.2,0.6,2,0.6c0.8,0,1.5-0.2,2-0.7c0.5-0.5,0.8-1.1,0.8-1.9c0-0.8-0.2-1.5-0.7-2.1C172.8,27.1,172.1,26.8,171.1,26.8z"/>
	</g>
</g>
</svg>
