<?xml version="1.0" encoding="utf-8"?>
<!-- Generator: Adobe Illustrator 26.1.0, SVG Export Plug-In . SVG Version: 6.00 Build 0)  -->
<svg version="1.1" xmlns="http://www.w3.org/2000/svg" xmlns:xlink="http://www.w3.org/1999/xlink" x="0px" y="0px"
	 viewBox="0 0 387.9 378.2" style="enable-background:new 0 0 387.9 378.2;" xml:space="preserve">
<style type="text/css">
	.st0{fill:#FFCFCB;enable-background:new    ;}
	.st1{display:none;}
	.st2{display:inline;fill:#460136;}
	.st3{display:inline;fill:#FE61F5;}
	.st4{display:inline;fill:#470137;}
	.st5{display:inline;fill:#00A0D2;}
	.st6{display:inline;fill:#FFFFFF;}
	.st7{display:inline;}
	.st8{fill:#264DE3;}
	.st9{fill:#E34D26;}
	.st10{fill:#2965F0;}
	.st11{fill:#EAEAEA;}
	.st12{fill:#F06529;}
	.st13{fill:#EAE9E9;}
	.st14{fill:#FEFEFE;}
	.st15{fill:#0E0E0F;}
	.st16{fill:#EAEBEB;}
	.st17{fill:#E2A026;}
	.st18{fill:#EFBD25;}
	.st19{fill:#E9EAEB;}
	.st20{fill:#E3A026;}
	.st21{fill:#EAEBEC;}
	.st22{fill:#001E35;}
	.st23{fill:#30A7FE;}
	.st24{fill:#001E36;}
	.st25{fill:#987F7F;}
	.st26{fill:#330000;}
	.st27{fill:#FE9900;}
	.st28{fill:#49021F;}
	.st29{fill:#C2AAB4;}
	.st30{fill:#FF3366;}
	.st31{fill:#00005B;}
	.st32{fill:#AAAAC8;}
	.st33{fill:#8F88B3;}
	.st34{fill:#9999FF;}
	.st35{fill:#00005A;}
	.st36{fill:#9898FE;}
	.st37{fill:#67D000;}
	.st38{fill:#404136;}
	.st39{fill:#67D100;}
	.st40{fill:#424242;}
	.st41{fill:#444444;}
	.st42{fill:#3F3F3F;}
	.st43{fill:#4C4C4C;}
	.st44{fill:#404040;}
	.st45{fill:#414141;}
</style>
<g id="Layer_6">
	<path class="st0" d="M387.6,63.4c0.1-6.5-1.2-12.7-3.5-18.7C377,26.2,364.4,13,346.3,5c-5.3-2.3-10.8-4-16.6-4.6
		c-2.1-0.2-4.2-0.1-6.2-0.4c-86.3,0-172.7,0-259,0c-0.5,0.3-1.1,0.2-1.6,0.2c-6.1,0-12,1.2-17.7,3.3C33,8,22.7,15.4,14.6,25.7
		C5.4,37.4,0.1,50.7,0.1,65.8c0,82.1,0,164.3,0,246.4c0,2.7,0,5.4,0.4,8c2,14.2,8.2,26.3,17.8,36.7c6.4,7,14.1,12.3,22.8,16.1
		c5.6,2.4,11.3,4.3,17.3,4.8c2,0.2,4.1,0.1,6.1,0.4c86.3,0,172.7,0,259,0c0.3-0.2,0.6-0.2,0.9-0.2c6.5,0.1,12.7-1.2,18.7-3.6
		c18.5-7.1,31.7-19.7,39.6-37.8c2.3-5.3,4-10.8,4.6-16.6c0.2-2.1,0.1-4.2,0.4-6.2c0-83.2,0-166.3,0-249.5
		C387.5,64.1,387.6,63.7,387.6,63.4z"/>
</g>
<g id="xd" class="st1">
	<path class="st2" d="M387.9,64.4c0,83.2,0,166.3,0,249.5c-0.3,2.1-0.2,4.2-0.4,6.2c-0.6,5.8-2.3,11.3-4.6,16.6
		c-8,18.1-21.2,30.7-39.7,37.8c-6,2.3-12.3,3.6-18.7,3.6c-0.3,0-0.6-0.1-0.9,0.2c-86.4,0-172.8,0-259.2,0c-2.1-0.3-4.2-0.2-6.2-0.4
		c-6-0.6-11.6-2.4-17-4.8c-8.7-3.7-16.3-9.1-22.7-15.9C9,347.2,3,335.6,0.6,322.2c-0.4-2.2-0.4-4.4-0.5-6.6c0-0.6,0.2-1.2-0.2-1.7
		C0,230.6,0,147.3,0,64c0.3-1.9,0.2-3.8,0.4-5.8c0.3-4.2,1.4-8.2,2.8-12.1C10.9,25,25.4,10.6,46.6,3C52,1.1,57.5,0.1,63.2,0.2
		c0.4,0,0.8,0.1,1.1-0.2c86.4,0,172.8,0,259.2,0c2.1,0.3,4.2,0.2,6.2,0.4c5.8,0.5,11.3,2.3,16.6,4.6c18.1,8,30.7,21.2,37.8,39.7
		c2.3,6,3.6,12.3,3.6,18.7C387.7,63.7,387.6,64.1,387.9,64.4z"/>
	<path class="st3" d="M330.5,166.1c0,22.2,0,44.4,0,66.6c0,7.9,0.4,15.7,0.9,23.6c0.2,2.6-0.2,3.1-2.6,4.1
		c-17.5,7.1-35.8,10.1-54.6,9.4c-13.6-0.5-26.5-3.9-37.9-11.6c-13.3-9-21.2-21.7-24.1-37.5c-2.2-12.3-2.6-24.7,1.3-36.8
		c7.7-24.2,24.3-39.3,48.7-45.9c10-2.7,20.3-3.4,30.6-2.4c1.4,0.1,1.9-0.2,1.9-1.7c-0.1-16.1,0-32.2,0-48.3c0-2.6,0.2-2.7,2.8-2.7
		c10.2,0,20.5,0,30.7,0c2.4,0,2.6,0.2,2.6,2.6C330.5,112.4,330.5,139.3,330.5,166.1z"/>
	<path class="st3" d="M129.9,203.2c-1.1,2.2-2.1,4.3-3.2,6.4c-9.8,18.5-19.5,37-29.6,55.3c-0.7,1.2-1.5,1.9-2.9,1.9
		c-4.5,0-9,0.1-13.6,0.1c-7.3,0-14.7,0-22,0c-0.7,0-1.5,0.4-1.9-0.3c-0.4-0.8,0-1.6,0.5-2.4c2.3-3.8,4.6-7.6,7-11.4
		c14-23,28-45.9,42-68.9c0.7-1.2,0.8-2,0.1-3.3c-16-26.9-31.9-53.9-47.8-80.8c-1.2-2-0.8-2.7,1.6-2.7c12,0,24,0,36,0
		c1.8,0,3.4,0.4,4.2,2.3c6.6,14.7,14.7,28.6,22.7,42.5c3.3,5.8,6.4,11.8,9.4,17.8c0.2,0.3,0.4,0.6,0.6,1c0.2-0.2,0.4-0.4,0.4-0.5
		c9.7-20.2,21-39.6,31.2-59.6c1.4-2.7,2.9-3.6,5.9-3.5c10.7,0.2,21.3,0.1,32,0.1c0.7,0,1.3,0,1.7,0.6c0.4,0.7,0,1.2-0.3,1.8
		c-15.9,26.2-31.8,52.4-47.7,78.6c-0.5,0.9-0.6,1.5,0,2.4c16.8,27.5,33.6,55,50.3,82.5c0,0,0.1,0.1,0.1,0.1c0.6,0.9,1.3,1.8,0.8,2.8
		c-0.5,0.9-1.7,0.4-2.5,0.4c-12.4,0-24.8,0-37.2,0c-2.6,0-4.2-1-5.4-3.4c-9.8-19.9-20.6-39.3-31.4-58.7
		C130.7,204,130.6,203.5,129.9,203.2z"/>
	<path class="st4" d="M294.5,202.2c0,11.3,0,22.6,0,33.9c0,1.2-0.3,1.8-1.5,1.9c-9.8,1.2-19.6,1.4-28.8-3.1
		c-7-3.4-11.4-9.1-14.1-16.3c-3.3-9-3.7-18.3-1.5-27.5c2.9-12.2,11.4-19.4,22.7-23.6c7-2.6,14.3-2.7,21.6-1.4
		c1.1,0.2,1.4,0.6,1.4,1.8C294.4,179.4,294.5,190.8,294.5,202.2z"/>
</g>
<g id="wp" class="st1">
	<path class="st5" d="M387.6,63.4c0.1-6.5-1.2-12.7-3.5-18.7C377,26.2,364.4,13,346.3,5c-5.3-2.3-10.8-4-16.6-4.6
		c-2.1-0.2-4.2-0.1-6.2-0.4c-86.3,0-172.7,0-259,0c-0.5,0.3-1.1,0.2-1.6,0.2c-6.1,0-12,1.2-17.7,3.3C33,8,22.7,15.4,14.6,25.7
		C5.4,37.4,0.1,50.7,0.1,65.8c0,82.1,0,164.3,0,246.4c0,2.7,0,5.4,0.4,8c2,14.2,8.2,26.3,17.8,36.7c6.4,7,14.1,12.3,22.8,16.1
		c5.6,2.4,11.3,4.3,17.3,4.8c2,0.2,4.1,0.1,6.1,0.4c86.3,0,172.7,0,259,0c0.3-0.2,0.6-0.2,0.9-0.2c6.5,0.1,12.7-1.2,18.7-3.6
		c18.5-7.1,31.7-19.7,39.6-37.8c2.3-5.3,4-10.8,4.6-16.6c0.2-2.1,0.1-4.2,0.4-6.2c0-83.2,0-166.3,0-249.5
		C387.5,64.1,387.6,63.7,387.6,63.4z"/>
	<path class="st5" d="M387.6,63.4c0.1-6.5-1.2-12.7-3.5-18.7C377,26.2,364.4,13,346.3,5c-5.3-2.3-10.8-4-16.6-4.6
		c-2.1-0.2-4.2-0.1-6.2-0.4c-86.3,0-172.7,0-259,0c-0.5,0.3-1.1,0.2-1.6,0.2c-6.1,0-12,1.2-17.7,3.3C33,8,22.7,15.4,14.6,25.7
		C5.4,37.4,0.1,50.7,0.1,65.8c0,82.1,0,164.3,0,246.4c0,2.7,0,5.4,0.4,8c2,14.2,8.2,26.3,17.8,36.7c6.4,7,14.1,12.3,22.8,16.1
		c5.6,2.4,11.3,4.3,17.3,4.8c2,0.2,4.1,0.1,6.1,0.4c86.3,0,172.7,0,259,0c0.3-0.2,0.6-0.2,0.9-0.2c6.5,0.1,12.7-1.2,18.7-3.6
		c18.5-7.1,31.7-19.7,39.6-37.8c2.3-5.3,4-10.8,4.6-16.6c0.2-2.1,0.1-4.2,0.4-6.2c0-83.2,0-166.3,0-249.5
		C387.5,64.1,387.6,63.7,387.6,63.4z"/>
	<path class="st6" d="M194.4,78.4C133,78.3,83.2,127.7,83.1,188.8c-0.1,61.2,49.5,111,110.6,111c61.2,0,110.9-49.6,110.9-110.7
		C304.7,128.2,255.2,78.5,194.4,78.4z M102.5,149.9c2.4,3.1,43.6,114.5,47.2,127.9C107.3,258.5,79.7,202.6,102.5,149.9z
		 M223.2,284.3c-17.7,5.2-35.5,5.8-53.5,1.3c-2.5-0.6-4-1-2.8-4.3c9.5-27.1,18.8-54.2,28.1-81.3c0.1-0.3,0.4-0.5,1-1.1
		c3.1,8.5,6.1,16.8,9.1,25c6.7,18.5,13.4,37,20.3,55.4C226.6,282.2,226.4,283.4,223.2,284.3z M243.2,247.9
		c-5.8-17.3-11.6-34.5-17.3-51.6c-5.5-16.4-10.9-32.8-16.6-49.2c-1.2-3.4-1.2-5.1,3-5c2,0.1,4-0.4,6-0.6c2.7-0.3,4.6-1.6,4.3-4.6
		c-0.2-2.8-2.2-3.6-4.7-3.5c-3.5,0.1-7,0.2-10.5,0.5c-13.1,1.3-26.2,0.2-39.3-0.4c-3-0.1-6.4-0.6-6.7,3.6c-0.3,4.2,3,4.6,6.1,4.5
		c6-0.2,9,2.3,10.8,8.2c3.2,10.5,7.4,20.8,11.2,31.2c0.7,1.9,1.6,3.7,0.9,5.8c-6.9,20.6-13.8,41.1-21.2,63.3
		c-12.3-36.6-24.1-71.8-36.1-107.5c3.5-0.4,6.8-0.8,10-1.1c3-0.2,5.1-1.5,4.9-4.7c-0.3-3-2.6-3.6-5.3-3.5
		c-9.6,0.4-19.2,0.8-28.8,1.1c-0.7,0-1.4-0.1-2.2-0.2c27.4-46.7,100.8-62.8,148.6-19c-10.1,1.2-15.8,6.7-17,16.5
		c-0.7,5.1,1.1,9.8,3.5,14.3c2.6,4.8,5.6,9.5,8.2,14.4c6.1,11.3,8,23.3,4.4,35.8c-4.9,17-10,33.9-15,50.8
		C244.3,247.3,243.8,247.5,243.2,247.9z M244.3,274.6c3.3-9.6,6.4-18.5,9.5-27.5c7.4-21.4,14.7-42.8,22.3-64.1
		c4.5-12.7,6.9-25.6,5.3-40.5C306.1,185.8,291.9,247.5,244.3,274.6z"/>
</g>
<g id="html_css" class="st1">
	<g class="st7">
		<path class="st8" d="M60,136.6c0.4,0,0.8,0,1.2,0c40.1,0,80.1,0,120.2,0c1.5,0,1.4,0,1.3,1.5c-0.8,9.1-1.6,18.2-2.4,27.3
			c-0.9,9.5-1.7,19.1-2.6,28.6c-0.8,8.7-1.5,17.5-2.3,26.2c-0.7,7.9-1.4,15.8-2.2,23.8c-0.5,5.4-1,10.9-1.4,16.3
			c-0.1,1.1-0.4,1.8-1.7,2.1c-15.9,4.3-31.8,8.8-47.7,13.2c-0.7,0.2-1.4,0.2-2.2,0c-16-4.5-32-8.9-48-13.3c-0.7-0.2-1.1-0.4-1.1-1.3
			c-0.7-8.2-1.4-16.4-2.2-24.6c-0.7-7.9-1.4-15.8-2.2-23.8c-0.7-7.9-1.4-15.8-2.1-23.8c-0.7-7.9-1.4-15.8-2.1-23.8
			c-0.6-7.1-1.2-14.1-1.9-21.2c-0.2-2-0.2-4.1-0.6-6.1C60,137.4,60,137,60,136.6z"/>
		<path d="M294.1,102.5c0,0.4-0.1,0.8-0.1,1.2c0,6.9,0,13.9,0,20.8c0,1.2-0.3,1.4-1.4,1.4c-1.8-0.1-3.6-0.1-5.4,0
			c-0.8,0-1.1-0.2-1.1-1c0.1-3.2,0-6.5,0-9.7c0-0.2,0-0.3,0-0.5c-0.1,0-0.1,0-0.2-0.1c-1.7,2.7-3.4,5.3-5.2,8.1
			c-1.8-2.7-3.5-5.4-5.2-8.1c-0.4,0.2-0.2,0.5-0.2,0.8c0,3.2,0,6.4,0,9.6c0,0.7-0.2,1-0.9,0.9c-2-0.1-3.9,0-5.9,0
			c-0.6,0-0.8-0.1-0.8-0.8c0-7.5,0-14.9,0-22.4c0-0.1,0-0.1,0.1-0.2c2.7,0,5.4,0,8,0c0.5,0.2,0.8,0.7,1.1,1.1c1.3,2.2,2.6,4.3,4,6.5
			c1.2-2,2.4-3.9,3.6-5.8c0.4-0.7,0.7-1.4,1.4-1.8C288.6,102.5,291.4,102.5,294.1,102.5z"/>
		<path d="M239.2,102.5c0,0.6,0.1,1.1,0.1,1.7c0,6.9,0,13.8,0,20.6c0,0.8-0.2,1.2-1.1,1.1c-1.9-0.1-3.8-0.1-5.7,0
			c-0.9,0-1.1-0.3-1.1-1.1c0.1-2,0-3.9,0-5.9c0-0.6-0.1-0.8-0.8-0.8c-1.9,0-3.7,0-5.6,0c-0.6,0-0.8,0.2-0.8,0.8c0,2,0,4,0,6
			c0,0.7-0.1,1-1,1c-2-0.1-3.9-0.1-5.9,0c-0.8,0-1-0.2-1-1c0-7.2,0-14.5,0-21.7c0-0.2,0-0.4-0.1-0.7c2.6,0,5.2,0,7.8,0
			c0.4,0.4,0.3,1,0.3,1.5c0,1.6,0,3.2,0,4.8c0,0.8,0.3,1.2,1.2,1.2c1.4,0,2.7,0,4.1,0c0.9,0,1.2-0.4,1.1-1.2c0-1.6,0-3.2,0-4.8
			c0-0.5,0-1,0.3-1.5C234,102.5,236.6,102.5,239.2,102.5z"/>
		<path d="M129.9,102.5c0,2,0,3.9,0,5.9c0,0.7-0.2,0.9-0.9,0.9c-3,0-6,0-9,0c-0.5,0-1-0.1-1,0.7c0,0.8,0.4,0.7,0.9,0.7c3,0,6,0,9,0
			c0.7,0,0.9,0.1,0.9,0.8c0,4.6,0,9.3,0,13.9c0,0.6-0.1,0.8-0.8,0.8c-5.7,0-11.4,0-17.1,0c-0.7,0-0.8-0.2-0.8-0.8c0-1.8,0-3.6,0-5.5
			c0-0.7,0.2-0.9,0.9-0.9c3,0,6,0,9,0c0.5,0,0.9,0.1,0.9-0.7c0-0.8-0.5-0.7-0.9-0.7c-3,0-6,0-9,0c-0.4,0-0.9,0.1-0.9-0.6
			c0-4.9,0.1-9.7,0.1-14.6C117.5,102.5,123.7,102.5,129.9,102.5z"/>
		<path d="M152.2,102.5c0,2,0,3.9,0,5.9c0,0.7-0.2,0.9-0.9,0.9c-3,0-6,0-9,0c-0.5,0-0.9-0.1-0.9,0.7c0,0.8,0.5,0.7,0.9,0.7
			c3,0,6,0,8.9,0c0.8,0,1,0.2,1,1c0,4.5,0,9.1,0,13.6c0,0.7-0.1,1-0.9,1c-5.6,0-11.2,0-16.7,0c-0.7,0-1-0.1-0.9-0.9
			c0.1-1.7,0.1-3.5,0-5.2c0-0.9,0.3-1,1.1-1c2.9,0,5.9,0,8.8,0c0.5,0,1,0.2,1-0.7c0-0.8-0.4-0.7-0.9-0.7c-3,0-6,0-9,0
			c-0.5,0-0.9,0-0.9-0.7c0-4.8,0-9.7,0.1-14.5C139.8,102.5,146,102.5,152.2,102.5z"/>
		<path d="M107.5,102.5c0,2.3,0,4.6,0,6.9c0,0.7-0.2,0.9-0.9,0.9c-3,0-6,0-9,0c-0.7,0-1,0.2-0.9,0.9c0.1,2,0.1,3.9,0,5.9
			c0,0.9,0.3,1,1.1,1c2.9,0,5.9,0,8.8,0c0.7,0,1,0.1,1,0.9c-0.1,2,0,4.1,0,6.1c0,0.6-0.2,0.8-0.7,0.8c-5.7,0-11.4,0-17.2,0
			c-0.5,0-0.7-0.1-0.7-0.7c0-7.5,0-15,0-22.5c0-0.1,0.1-0.1,0.1-0.2C95.2,102.5,101.4,102.5,107.5,102.5z"/>
		<path d="M264.2,102.5c0,2.3,0,4.7,0.1,7c0,0.7-0.3,0.8-0.9,0.8c-1.7,0-3.4,0-5.1,0c-0.8,0-0.9,0.2-0.9,0.9c0,4.5,0,9.1,0,13.6
			c0,0.8-0.2,1.2-1.1,1.1c-1.9-0.1-3.9-0.1-5.8,0c-0.8,0-1-0.3-1-1c0-4.5,0-9.1,0-13.6c0-0.8-0.1-1.1-1-1.1c-1.7,0.1-3.4,0-5.1,0
			c-0.5,0-0.8-0.1-0.7-0.7c0-2.4,0.1-4.7,0.1-7.1C249.9,102.5,257.1,102.5,264.2,102.5z"/>
		<path d="M305.7,102.5c0,4.8,0,9.7,0,14.5c0,1,0.3,1.2,1.2,1.2c3-0.1,5.9,0,8.9,0c0.7,0,0.9,0.2,0.9,0.9c0,2,0,4.1,0,6.1
			c0,0.6-0.2,0.8-0.8,0.8c-5.7,0-11.4,0-17.2,0c-0.9,0-0.8-0.4-0.8-1c0-7.5,0-14.9,0-22.4C300.5,102.5,303.1,102.5,305.7,102.5z"/>
		<path class="st9" d="M266.5,136.6c20,0,40,0,60,0c1.1,0,1.4,0.3,1.3,1.4c-0.5,5.3-1,10.7-1.4,16c-0.5,5.4-1,10.8-1.5,16.2
			c-0.6,6.4-1.1,12.7-1.7,19.1c-0.5,6.1-1.1,12.3-1.6,18.4c-0.6,6.4-1.1,12.7-1.7,19.1c-0.6,6.2-1.1,12.4-1.6,18.7
			c-0.5,5.2-0.9,10.4-1.4,15.7c-0.1,0.7-0.4,1-1.1,1.2c-8.9,2.5-17.8,4.9-26.7,7.4c-7.1,2-14.2,3.9-21.2,5.9c-1,0.3-1.9,0.2-2.9,0
			c-15.8-4.4-31.7-8.8-47.5-13.2c-0.9-0.2-1.2-0.6-1.3-1.5c-0.9-10.4-1.9-20.9-2.8-31.3c-0.9-10.4-1.8-20.9-2.8-31.3
			c-1-11.7-2.1-23.4-3.1-35.1c-0.8-8.5-1.5-17.1-2.3-25.6c-0.1-0.9,0.3-0.8,0.9-0.8c3.6,0,7.3,0,10.9,0
			C233.5,136.6,250,136.6,266.5,136.6z"/>
		<path class="st10" d="M82.9,163.4c-0.4-1.2-0.3-1.3,1-1.3c12,0,24,0,36,0c1.4,0,1.4,0,1.4-1.5c0-4.2,0-8.4,0-12.6
			c0-0.9,0.3-1.1,1.1-1.1c16,0,32,0,48,0c1.2,0,1.2,0.1,1.1,1.3c-0.3,2.1-0.4,4.3-0.6,6.4c-0.3,2.9-0.6,5.9-0.8,8.8
			c-0.2,2-0.3,4-0.5,6c-0.3,3.1-0.6,6.2-0.9,9.3c-0.2,1.9-0.3,3.8-0.5,5.6c-0.3,3.1-0.6,6.2-0.9,9.4c-0.2,2-0.3,4-0.5,6
			c-0.3,3-0.6,5.9-0.9,8.9c-0.2,1.9-0.3,3.8-0.5,5.6c-0.3,3.1-0.6,6.2-0.9,9.4c-0.2,2-0.3,4.1-0.5,6.1c-0.3,3-0.6,6-0.8,9
			c-0.2,1.9-0.3,3.8-0.5,5.7c-0.2,2.9-0.4,5.7-0.7,8.6c-0.1,0.7-0.4,1.1-1.1,1.3c-8.7,2.4-17.4,4.8-26.1,7.2
			c-4.1,1.1-8.2,2.3-12.3,3.4c-1.3,0.4-1.3,0.3-1.3-1c0-4.9,0-9.7,0-14.6c0.1-0.2,0.2-0.4,0.4-0.5c4.7-1.5,9.5-2.7,14.3-4
			c5-1.4,10-2.8,15-4.2c1.4-0.4,1.5-0.6,1.6-2.1c0.3-4.6,0.8-9.2,1.2-13.9c0.3-3.8,0.7-7.5,1-11.3c0.4-4.7,0.8-9.4,1.3-14.1
			c0.4-4.5,0.8-9,1.2-13.4c0.4-4.7,0.8-9.3,1.3-14c0.2-2.6,0.4-5.2,0.7-7.8c0.1-1.3,0-1.5-1.4-1.5c-9.8,0-19.6,0-29.5,0
			c-2.4,0-4.8,0-7.3,0c-3.3,0.1-6.7,0-10,0c-8.7,0-17.4,0-26.1,0C84.3,162.6,83.5,162.7,82.9,163.4z"/>
		<path class="st11" d="M121.6,249.1c-0.1,0.1-0.2,0.1-0.3,0.2c-6.1-1.7-12.1-3.4-18.2-5.1c-4.1-1.1-8.2-2.3-12.3-3.4
			c-0.8-0.2-1-0.6-1.1-1.4c-0.6-7.4-1.3-14.9-2-22.3c-0.1-0.6,0.1-0.8,0.7-0.8c4.6,0,9.3,0,13.9,0c0.9,0,0.8,0.6,0.9,1.1
			c0.3,2.8,0.5,5.6,0.7,8.4c0.2,2.7,0.2,2.7,2.8,3.4c4.9,1.3,9.7,2.6,14.6,3.9c0,0.1,0.1,0.1,0.1,0.2c0.2,0.4,0.2,0.9,0.2,1.3
			c0,4.5,0,9,0,13.6C121.7,248.5,121.7,248.8,121.6,249.1z"/>
		<path class="st11" d="M82.9,163.4c0-0.7-0.1-1.2,1-1.2c12.3,0,24.6,0,36.9,0c0.2,0,0.4,0,0.6,0c0.4,0.4,0.4,1,0.4,1.5
			c0,4.1,0,8.2,0,12.3c0,0.5,0,1-0.3,1.4c-0.3,0.2-0.7,0.1-1,0.1c-11.7,0-23.4,0-35.1,0c-0.5,0-1.1,0.2-1.2-0.6
			C83.7,172.5,83.3,167.9,82.9,163.4z"/>
		<path class="st11" d="M121.4,208.7c-3.8,0-7.6,0-11.4,0c-7.3,0-14.6,0-22,0c-0.8,0-1.1-0.2-1.1-1c-0.4-4.5-0.8-9-1.2-13.5
			c-0.1-0.9,0.4-0.9,1-0.9c11.1,0,22.2,0,33.3,0c0.4,0,0.9,0,1.3,0c0,0.1,0.1,0.1,0.1,0.2c0.2,0.4,0.2,0.9,0.2,1.3
			c0,4.2,0,8.4,0,12.5c0,0.4,0,0.9-0.2,1.3C121.5,208.6,121.4,208.7,121.4,208.7z"/>
		<path class="st10" d="M121.4,233.2c0-8.2,0-16.3,0-24.5c0,0,0-0.1,0-0.1c0.5-0.3,1-0.3,1.5-0.3c5.3,0,10.6,0,15.9,0
			c1.7,0,1.8,0.1,1.7,1.8c-0.5,5.8-1,11.6-1.5,17.4c-0.1,1-0.6,1.5-1.5,1.8c-4.9,1.3-9.8,2.6-14.6,3.9
			C122.3,233.3,121.8,233.5,121.4,233.2L121.4,233.2z"/>
		<path class="st10" d="M84.1,177c0.2,0.7,0.8,0.6,1.3,0.6c8.9,0,17.8,0,26.7,0c3.1,0,6.2,0,9.2,0c0.4-0.4,1-0.4,1.5-0.4
			c6.2,0,12.5,0,18.7,0c1.6,0,1.8,0.3,1.7,1.9c-0.4,4.3-0.7,8.7-1.2,13c-0.2,1.4-0.3,1.6-1.8,1.6c-5.8,0-11.7,0-17.5,0
			c-0.5,0-1,0-1.4-0.3c0,0,0-0.1,0-0.1c0-4.8,0-9.6,0-14.4c0-1-0.3-1.2-1.3-1.2c-11.6,0-23.3,0-34.9,0C84.8,177.7,84,178,84.1,177z"
			/>
		<path class="st12" d="M228,163c-0.4-0.6-0.2-0.9,0.5-0.9c0.3,0,0.5,0,0.8,0c11.9,0,23.9,0,35.8,0c1.1,0,1.4-0.3,1.3-1.4
			c-0.1-4.2,0-8.5,0-12.7c0-0.9,0.3-1.1,1.1-1.1c16,0,32,0,48,0c1,0,1.2,0.4,1.1,1.2c-0.5,4.2-0.8,8.4-1.1,12.6
			c-0.3,3.3-0.6,6.6-0.9,9.9c-0.4,4.5-0.9,9-1.3,13.5c-0.3,2.9-0.4,5.9-0.7,8.8c-0.3,2.8-0.6,5.6-0.9,8.5c-0.2,2.1-0.3,4.2-0.5,6.3
			c-0.3,2.9-0.6,5.9-0.9,8.8c-0.2,1.9-0.3,3.9-0.5,5.9c-0.3,3-0.6,6-0.8,9c-0.2,1.9-0.3,3.8-0.5,5.7c-0.3,3.1-0.6,6.2-0.9,9.3
			c-0.2,2.1-0.4,4.1-0.5,6.2c0,0.9-0.3,1.4-1.3,1.6c-9.2,2.5-18.4,5.1-27.6,7.7c-3.6,1-7.1,2-10.7,3c-1.3,0.4-1.3,0.3-1.3-1
			c0-4.9,0-9.7,0-14.6c0.1-0.2,0.2-0.4,0.4-0.5c4.9-1.5,9.8-2.7,14.7-4.1c4.8-1.3,9.7-2.7,14.5-4c1.6-0.4,1.6-0.6,1.8-2.2
			c0.4-4.6,0.8-9.2,1.2-13.9c0.4-4.5,0.8-9.1,1.2-13.6c0.4-4.5,0.8-9.1,1.2-13.6c0.1-0.9,0.1-1.9,0.2-2.8c0.1-0.6-0.2-0.9-0.8-0.9
			c-0.4,0-0.8,0-1.2,0c-10.4,0-20.9,0-31.3,0c-0.6,0-1.3,0.1-1.9-0.2c-0.1-0.1-0.2-0.2-0.3-0.3c-0.2-0.6-0.2-1.2-0.2-1.8
			c0-3.9,0-7.9,0-11.8c0-1.4-0.1-1.5-1.5-1.5c-6,0-12,0-17.9,0c-0.6,0-1.3,0.1-1.8-0.3c0.1-0.7,0.8-0.6,1.2-0.6c1.7-0.1,3.5,0,5.2,0
			c5,0,10.1,0,15.1,0c7.1-0.1,14.1,0,21.2,0c4.7,0,9.4,0,14.1,0c1.6,0,1.6,0,1.7-1.6c0.4-3.7,0.7-7.5,1-11.2c0.2-1.5,0-1.7-1.5-1.7
			c-11.7,0-23.4,0-35.2,0c-0.4,0-0.9,0-1.3,0c-3.3,0.1-6.7,0-10,0c-8.7,0-17.4,0-26.1,0C229.5,162.7,228.8,162.7,228,163z"/>
		<path class="st13" d="M228,163c0-0.5,0.1-0.8,0.7-0.7c0.1,0,0.2,0,0.3,0c12.3,0,24.6,0,36.9,0c0.2,0,0.4,0,0.6,0
			c0.4,0.4,0.4,1,0.4,1.5c0,4.1,0,8.2,0,12.3c0,0.5,0,1-0.4,1.5c-6.8,0-13.6,0-20.4,0.1c-0.4,0-0.8-0.2-1.2,0.1
			c0.7,1.7,0.5,3.4,0.7,5.2c0.3,2.8,0.5,5.7,0.8,8.5c0.1,1.5,0.2,1.6,1.8,1.6c5.5,0,11.1,0,16.6,0c0.6,0,1.2-0.1,1.7,0.3l0,0.1
			c0.4,0.3,0.4,0.8,0.4,1.2c0,4.3,0,8.6,0,12.9c0,0.4,0,0.7-0.2,1.1c0,0.1-0.1,0.1-0.1,0.2c-2,0-4,0-6,0c-9.1,0-18.1,0-27.2,0
			c-0.8,0-1.1-0.1-1.2-1c-0.7-8.3-1.5-16.6-2.2-25C229.2,176.1,228.6,169.5,228,163z"/>
		<path class="st11" d="M266.7,249.1c-0.1,0.1-0.2,0.1-0.3,0.2c-5.2-1.5-10.5-3-15.7-4.4c-5-1.4-9.9-2.8-14.9-4.1
			c-0.6-0.2-0.9-0.5-0.9-1.1c-0.4-4.6-0.8-9.2-1.2-13.7c-0.3-2.9-0.5-5.8-0.8-8.6c-0.1-0.7,0-0.9,0.8-0.9c4.6,0,9.1,0,13.7,0
			c0.8,0,0.9,0.3,1,1c0.3,3.5,0.6,7,0.9,10.5c0,0.5,0.1,0.8,0.7,1c5.2,1.4,10.5,2.8,15.7,4.2c0.1,0,0.2,0,0.3,0
			c0.2,0.1,0.6,0.1,0.7,0.4c0.2,0.4,0.2,0.8,0.2,1.2c0,4.5,0,9.1,0,13.6C266.8,248.5,266.8,248.8,266.7,249.1z"/>
		<path class="st12" d="M266.5,233.3c-0.2-0.1-0.3-0.2-0.5-0.2c0.8-0.2,0.5-0.8,0.5-1.3c0-7.7,0-15.4,0-23c0,0,0-0.1,0-0.1
			c0.5-0.3,1-0.3,1.5-0.3c5.3,0,10.6,0,15.9,0c1.7,0,1.8,0.1,1.7,1.9c-0.4,5.5-1,10.9-1.4,16.4c-0.2,2.1-0.3,2.3-2.4,2.8
			c-4.3,1.2-8.7,2.4-13,3.5C268,233.2,267.3,233.6,266.5,233.3z"/>
		<path class="st14" d="M121.4,193.3c6.4,0,12.7,0,19.1,0c0.9,0,1.2-0.2,1.3-1.2c0.3-4.5,0.8-9,1.2-13.5c0.1-0.8-0.1-1.1-1-1.1
			c-6.5,0-12.9,0-19.4,0c-0.4,0-0.8,0-1.2-0.1c0-5.1,0-10.1,0-15.2c0.3,0,0.6-0.1,0.9-0.1c12.1,0,24.2,0,36.4,0c1,0,1.3,0.3,1.2,1.2
			c-0.5,5.5-1,10.9-1.5,16.4c-0.5,5.3-0.9,10.7-1.4,16c-0.6,6.3-1.1,12.6-1.7,18.9c-0.5,5.4-1,10.8-1.4,16.2
			c-0.3,2.9-0.5,5.8-0.8,8.8c0,0.6-0.2,0.9-0.8,1.1c-10,2.7-20,5.5-29.9,8.3c-0.2,0-0.4,0.1-0.6,0.1c-0.4-0.3-0.3-0.8-0.3-1.2
			c0-4.9,0-9.7,0-14.6c5.3-1.4,10.7-2.9,16-4.3c0.8-0.2,1.2-0.5,1.2-1.5c0.5-6,1-11.9,1.6-17.9c0.1-0.8-0.1-1-0.9-1
			c-5.6,0-11.2,0-16.7,0c-0.4,0-0.8,0-1.2,0C121.4,203.5,121.4,198.4,121.4,193.3z"/>
		<path class="st14" d="M266.5,233.3c5.3-1.4,10.6-2.9,15.9-4.3c0.9-0.2,1.3-0.5,1.4-1.6c0.5-6,1.1-12,1.6-18.1
			c0.1-0.8-0.4-0.7-0.9-0.7c-5.6,0-11.3,0-16.9,0c-0.4,0-0.7,0-1.1,0c0-5.1,0-10.2,0-15.3c3.4,0,6.8,0,10.3,0c8.1,0,16.2,0,24.3,0
			c1.1,0,1.2,0.3,1.1,1.3c-0.9,9.5-1.8,19-2.6,28.5c-0.5,5.4-1,10.8-1.4,16.2c-0.1,1-0.4,1.4-1.4,1.6c-9.7,2.6-19.4,5.3-29.1,8
			c-0.3,0.1-0.6,0.1-1,0.2c-0.4-0.3-0.3-0.7-0.3-1.1C266.5,243.1,266.5,238.2,266.5,233.3z"/>
		<path class="st14" d="M266.5,177.5c0-5.1,0-10.1,0-15.2c0.3,0,0.7-0.1,1-0.1c12.1,0,24.2,0,36.4,0c0.9,0,1.2,0.2,1.1,1.2
			c-0.4,4.5-0.8,8.9-1.2,13.4c-0.1,1-0.7,0.8-1.3,0.8c-10.6,0-21.1,0-31.7,0C269.4,177.5,267.9,177.5,266.5,177.5z"/>
	</g>
</g>
<g id="js" class="st1">
	<g class="st7">
		<path class="st15" d="M222.5,81.3c0,2.5,0,5,0,7.4c0,0.5-0.2,0.6-0.6,0.6c-3.8,0.1-7.6,0.2-11.5,0.3c-0.3,0-0.6,0-0.9,0
			c0,0.3,0.3,0.5,0.4,0.6c4.2,4.5,8.4,9.1,12.6,13.6c0.3,0.3,0.4,0.6,0.4,1c0,2,0,3.9,0,5.9c0,0.5-0.1,0.6-0.6,0.6
			c-9.1,0-18.1,0-27.2,0c-0.5,0-0.6-0.2-0.6-0.6c0-2.3,0-4.6,0-6.8c0-0.6,0.2-0.6,0.7-0.6c3.2,0,6.5,0,9.7,0c1,0,1.9-0.1,3.1-0.2
			c-0.9-1-1.6-1.9-2.3-2.7c-3.6-3.9-7.1-7.8-10.7-11.7c-0.3-0.4-0.5-0.7-0.5-1.2c0-1.8,0-3.7,0-5.5c0-0.2,0-0.4,0.1-0.7
			C204,81.3,213.3,81.3,222.5,81.3z"/>
		<path class="st15" d="M189.9,81.3c0,0.2,0,0.4,0,0.6c0,9.5,0,19.1,0,28.6c0,0.6-0.1,0.7-0.7,0.7c-7.7,0-15.5,0-23.2,0
			c-0.6,0-0.7-0.1-0.7-0.7c0-3,0-5.9,0-8.9c0-0.5,0.2-0.6,0.7-0.6c4.4,0,8.7,0,13.1,0c0.6,0,0.7-0.2,0.7-0.7c0-6.1,0-12.2,0-18.4
			c0-0.2,0-0.5,0-0.7C183.2,81.3,186.5,81.3,189.9,81.3z"/>
		<path class="st16" d="M114.6,125.9c0.2-0.1,0.3-0.2,0.5-0.1c0.2,0.2,0.2,0.4,0.2,0.6c0.2,4.1,0.6,8.2,1,12.3
			c0.3,3.8,0.7,7.6,1,11.4c0.3,3.8,0.7,7.6,1,11.4c0.3,3.7,0.7,7.5,1,11.2c0.3,3.7,0.6,7.4,1,11.2c0.2,2.7,0.5,5.5,0.7,8.2
			c0.3,3.2,0.6,6.5,0.9,9.7c0.3,3.2,0.6,6.4,0.9,9.6c0.3,3.3,0.6,6.5,0.9,9.8c0.3,3.2,0.6,6.4,0.9,9.6c0.3,3.2,0.6,6.4,0.9,9.6
			c0.3,3.2,0.6,6.4,0.9,9.6c0.2,2.7,0.5,5.4,0.7,8.1c0.2,2.7,0.5,5.5,0.7,8.2c0.2,2.7,0.5,5.3,0.7,8c0.2,2.8,0.5,5.5,0.7,8.3
			c0.1,1.1,0.2,2.3,0.3,3.4c0,0.3,0.1,0.6-0.2,0.9c-0.3-0.6-0.3-1.2-0.4-1.8c-0.2-2.2-0.5-4.4-0.7-6.6c-0.2-1.7-0.3-3.4-0.4-5.1
			c-0.1-1.6-0.3-3.3-0.5-4.9c-0.1-1.2-0.2-2.4-0.3-3.5c-0.2-1.7-0.3-3.4-0.5-5.2c-0.1-1.1-0.2-2.2-0.3-3.3c-0.2-1.8-0.3-3.6-0.5-5.4
			c-0.1-1.2-0.2-2.3-0.3-3.5c-0.2-1.7-0.3-3.5-0.5-5.2c-0.1-1.1-0.2-2.2-0.3-3.3c-0.2-1.9-0.3-3.7-0.5-5.6c-0.1-1.2-0.2-2.3-0.3-3.5
			c-0.2-1.7-0.3-3.5-0.5-5.2c-0.1-1.2-0.2-2.3-0.3-3.5c-0.2-1.8-0.3-3.6-0.5-5.4c-0.1-1.1-0.2-2.2-0.3-3.3c-0.1-1.9-0.3-3.8-0.5-5.6
			c-0.1-1.2-0.2-2.5-0.3-3.7c-0.2-1.7-0.3-3.4-0.5-5.2c-0.1-1.2-0.2-2.4-0.3-3.6c-0.2-1.7-0.3-3.5-0.5-5.2c-0.1-1.2-0.2-2.4-0.3-3.5
			c-0.2-1.8-0.3-3.7-0.5-5.5c-0.1-1.1-0.2-2.2-0.3-3.3c-0.1-1.9-0.3-3.8-0.5-5.6c-0.1-1.2-0.2-2.4-0.3-3.5c-0.2-1.8-0.3-3.6-0.5-5.4
			c-0.1-1.2-0.2-2.3-0.3-3.5c-0.2-1.9-0.3-3.7-0.5-5.6c-0.1-1.2-0.2-2.4-0.3-3.6c-0.2-1.8-0.3-3.7-0.5-5.5c-0.1-1.1-0.2-2.2-0.3-3.3
			c-0.2-1.9-0.4-3.8-0.5-5.7c-0.1-1.3-0.2-2.6-0.3-3.9c-0.1-1.3-0.1-2.5-0.4-3.8C114.6,126.7,114.6,126.3,114.6,125.9z"/>
		<path class="st17" d="M129.1,286.8c0-1.9-0.3-3.8-0.5-5.7c-0.1-1.7-0.3-3.5-0.5-5.2c-0.2-2.3-0.4-4.6-0.6-6.8
			c-0.2-1.7-0.3-3.4-0.4-5.1c-0.2-2.2-0.4-4.5-0.6-6.7c-0.2-1.7-0.3-3.4-0.4-5.1c-0.2-2.2-0.4-4.5-0.6-6.7c-0.2-1.7-0.3-3.4-0.4-5.1
			c-0.2-2.3-0.4-4.6-0.6-6.9c-0.2-2.2-0.4-4.3-0.6-6.5c-0.2-2.3-0.4-4.6-0.6-6.8c-0.2-2.2-0.4-4.3-0.6-6.5c-0.2-2.3-0.4-4.5-0.6-6.8
			c-0.2-1.7-0.3-3.4-0.4-5.1c-0.2-2.3-0.4-4.5-0.6-6.8c-0.2-1.7-0.3-3.4-0.4-5.1c-0.2-2.3-0.4-4.5-0.6-6.8c-0.2-1.7-0.3-3.4-0.4-5.1
			c-0.2-2.3-0.4-4.6-0.6-6.9c-0.2-1.7-0.3-3.4-0.4-5.1c-0.2-2.3-0.4-4.6-0.6-6.9c-0.2-1.7-0.3-3.5-0.4-5.2c-0.2-2.3-0.4-4.6-0.6-6.9
			c-0.2-1.7-0.3-3.5-0.4-5.2c-0.2-2.3-0.4-4.7-0.6-7c-0.2-1.8-0.3-3.6-0.4-5.4c-0.1-1.1-0.1-2.2-0.2-3.2c-0.1-0.7,0.3-0.6,0.8-0.6
			c45.1,0,90.2,0,135.3,0c7.1,0,14.3,0,21.4,0c0.5,0,0.7,0.1,0.7,0.7c0,2.3-0.3,4.5-0.5,6.7c-0.1,1.8-0.3,3.5-0.5,5.3
			c-0.2,2.4-0.4,4.8-0.6,7.2c-0.1,1.7-0.3,3.3-0.4,5c-0.2,2.4-0.4,4.8-0.6,7.2c-0.2,2.2-0.4,4.4-0.6,6.6c-0.2,2.3-0.4,4.6-0.6,6.9
			c-0.2,1.7-0.3,3.4-0.4,5.1c-0.2,2.3-0.4,4.7-0.6,7c-0.1,1.7-0.3,3.4-0.4,5.1c-0.2,2.3-0.4,4.7-0.6,7c-0.1,1.7-0.3,3.4-0.4,5.1
			c-0.2,2.3-0.4,4.7-0.6,7c-0.1,1.7-0.3,3.3-0.4,5c-0.2,2.3-0.4,4.6-0.6,6.8c-0.1,1.7-0.3,3.3-0.4,5c-0.2,2.3-0.4,4.6-0.6,6.9
			c-0.1,1.6-0.3,3.3-0.4,4.9c-0.2,2.3-0.4,4.7-0.6,7c-0.2,2.2-0.4,4.4-0.6,6.5c-0.2,2.3-0.4,4.6-0.6,6.8c-0.1,1.6-0.3,3.3-0.4,4.9
			c-0.2,2.3-0.4,4.5-0.6,6.8c-0.2,2.2-0.4,4.3-0.6,6.5c-0.2,2.7-0.5,5.4-0.8,8.1c-0.1,1.1-0.3,2.2-0.3,3.4c0,0.8-0.3,1.3-1,1.6
			c-2,0.9-4.1,1.5-6.2,2.1c-15.2,4.4-30.4,8.6-45.7,12.7c-4.1,1.1-8.2,2.2-12.3,3.2c-0.4,0.1-0.8,0-1.2-0.1
			c-8.7-2.3-17.4-4.7-26.1-7.2c-12.3-3.5-24.6-6.9-37-10.3C129.3,287.5,129.2,287.2,129.1,286.8z"/>
		<path class="st18" d="M183.2,145.5c3.4,0,6.8,0,10.1,0c0.6,0,0.8-0.2,0.8-0.8c0-2,0-4,0-6c0-0.6,0.2-0.8,0.8-0.8
			c21.1,0,42.1,0,63.2,0c0.5,0,0.7,0.1,0.7,0.7c0,2.2-0.2,4.3-0.4,6.4c-0.1,1.4-0.2,2.7-0.3,4.1c-0.2,1.9-0.4,3.7-0.5,5.6
			c-0.1,1.2-0.2,2.3-0.3,3.5c-0.2,1.9-0.3,3.8-0.5,5.8c-0.1,1.1-0.2,2.2-0.3,3.3c-0.2,1.9-0.4,3.8-0.5,5.8c-0.1,1.2-0.2,2.5-0.3,3.7
			c-0.2,1.7-0.3,3.4-0.5,5.2c-0.1,1.2-0.2,2.4-0.3,3.6c-0.2,1.7-0.3,3.5-0.5,5.2c-0.1,1.2-0.2,2.3-0.3,3.5c-0.2,1.8-0.3,3.6-0.5,5.4
			c-0.1,1.2-0.2,2.3-0.3,3.5c-0.2,1.7-0.3,3.5-0.5,5.2c-0.1,1.1-0.2,2.3-0.3,3.4c-0.2,1.8-0.3,3.6-0.5,5.4c-0.1,1.1-0.2,2.1-0.3,3.2
			c-0.2,1.8-0.3,3.6-0.5,5.4c-0.1,1.2-0.2,2.3-0.3,3.5c-0.2,1.7-0.3,3.4-0.5,5.1c-0.1,1.1-0.2,2.1-0.3,3.2c-0.2,1.8-0.3,3.5-0.5,5.3
			c-0.1,1.6-0.3,3.2-0.4,4.8c-0.2,1.7-0.3,3.3-0.5,5c-0.1,1.1-0.2,2.1-0.3,3.2c-0.2,1.7-0.3,3.4-0.5,5c-0.1,1.1-0.2,2.2-0.3,3.3
			c-0.2,1.6-0.3,3.2-0.5,4.8c-0.1,1.5-0.3,2.9-0.4,4.4c-0.1,0.9-0.2,1.9-0.3,2.8c-0.1,0.5-0.3,0.8-0.8,0.9c-2.6,0.8-5.3,1.6-8,2.4
			c-3.6,1-7.2,2.1-10.8,3.1c-5.8,1.6-11.5,3.2-17.3,4.8c-4.7,1.3-9.5,2.6-14.3,3.9c-0.8,0.2-0.9,0.1-1-0.7c-0.2-2.8,0-5.6-0.2-8.4
			c-0.2-3.4,0-6.8-0.1-10.3c0-0.4-0.1-0.6-0.4-0.7c0.1-0.3,0.4-0.3,0.7-0.4c7.8-1.9,15.4-4.1,23.1-6.2c5.1-1.4,10.2-2.9,15.2-4.5
			c1.9-0.6,1.9-0.6,2.1-2.8c0.2-2.4,0.5-4.8,0.7-7.2c0.3-3,0.6-6,0.9-9c0.2-2.2,0.4-4.4,0.6-6.6c0.2-2.2,0.4-4.5,0.6-6.7
			c0.1-1.7,0.3-3.5,0.5-5.2c0.2-2.2,0.4-4.4,0.6-6.6c0.2-1.7,0.3-3.3,0.4-5c0.1-1.5,0.3-3.1,0.4-4.6c0.2-2.2,0.4-4.5,0.7-6.7
			c0-0.3-0.1-0.4-0.3-0.5c-0.8-0.2-1.7-0.3-2.6-0.3c-1.9,0-3.8-0.2-5.7-0.2c-12.1,0-24.2,0-36.3,0c-0.4,0-0.9,0.1-1.3-0.2
			c-0.3-0.5-0.2-1-0.2-1.5c0-8.4,0-16.7,0-25.1c0-1.2,0-2.5,0-3.7c0-0.4,0-0.7,0.3-1c0.3-0.2,0.6-0.2,1-0.2c1.5,0,3-0.1,4.5,0
			c2.6,0.1,5.2,0.2,7.7,0.3c2.2,0.1,4.4,0.2,6.7,0.4c1,0.1,2.1,0.2,3.1,0.3c0.7,0.1,1,0.4,1.1,1.1c0.3,2.1,0.5,4.3,0.8,6.4
			c0.2,2,0.4,4.1,0.6,6.1c0.1,1.5,0.3,3,0.4,4.5c0,0.1,0,0.2,0.1,0.3c0,0.3,0,0.7,0,1c0,0.3,0.1,0.5,0.3,0.7
			c0.9,0.3,1.8,0.3,2.7,0.3c5.5,0,11.1,0,16.6,0c0.7,0,0.7,0,0.6-0.7c-0.2-1.6-0.4-3.1-0.4-4.7c-0.2-1.7-0.3-3.5-0.5-5.2
			c-0.1-1.2-0.2-2.4-0.3-3.5c-0.1-1.7-0.3-3.4-0.5-5.1c-0.1-1.2-0.2-2.4-0.3-3.6c-0.2-1.8-0.3-3.6-0.5-5.4c-0.1-1.2-0.2-2.4-0.3-3.6
			c-0.1-1.3-0.3-2.6-0.4-3.9c-0.1-1.3-0.2-2.5-0.3-3.7c-0.1-0.8-0.1-1.6-0.2-2.4c-0.1-0.5-0.4-0.7-0.8-0.7c-2.3,0-4.6,0-6.9,0
			c-11.3-0.3-22.5,0-33.8-0.1c-3.6,0-7.2,0-10.7,0C183.9,145.9,183.5,146,183.2,145.5z"/>
		<path class="st19" d="M219.8,186.4c-0.1-1.3-0.3-2.5-0.4-3.8c-0.3-3.4-0.6-6.8-1-10.1c-0.1-1.1-0.3-2.3-0.4-3.4
			c0-0.5-0.3-0.7-0.7-0.7c-1.6-0.3-3.2-0.4-4.8-0.5c-6.1-0.3-12.1-0.6-18.2-0.6c-3.7,0-7.4,0.2-11.1,0.3c-2.1,0-4.2,0.1-6.3,0.2
			c-1.2,0-1.2,0.1-1.4,1.3c-0.4,3.8-0.8,7.6-1.1,11.3c-0.3,3.6-0.7,7.1-1,10.7c-0.2,2-0.4,4-0.6,6.1c-0.1,1.1-0.1,1.1,1,1.1
			c6.2,0,12.4,0,18.6,0c0.4,0,0.8-0.1,1.2,0.2c0.2,0.4,0.2,0.8,0.2,1.2c0,5.7,0,11.4,0,17.1c0,1.3,0,1.3,1.3,1.3
			c7.3,0,14.6,0,21.9,0c0.4,0,0.8,0,1.2,0.1c0.5,0.5,0.5,0.7,0,1c-0.4-0.2-0.9-0.2-1.4-0.2c-7.2,0-14.4,0-21.6,0
			c-0.4,0-0.8,0.1-1.2-0.2c-0.3,0-0.6,0-0.9,0c-14,0-28.1,0-42.1,0c-0.7,0-0.9-0.2-0.8-0.8c0.2-2,0.3-4,0.5-6.1
			c0.1-1.8,0.3-3.6,0.4-5.3c0.2-2.3,0.4-4.7,0.6-7c0.2-1.7,0.3-3.4,0.4-5.1c0.2-2.3,0.4-4.6,0.6-6.9c0.2-2.2,0.4-4.3,0.6-6.5
			c0.2-2.2,0.4-4.5,0.6-6.7c0.2-1.7,0.3-3.3,0.4-5c0.2-2.2,0.4-4.5,0.6-6.7c0.2-2.1,0.4-4.2,0.6-6.3c0.2-2,0.4-4,0.6-6
			c0.1-1.1,0.2-2.3,0.3-3.4c0-0.6,0.3-0.8,0.9-0.9c4.4-0.4,8.7-0.2,13.1-0.3c4.2,0,8.3-0.1,12.5-0.1c0.2,0.1,0.5,0.1,0.7,0.1
			c14.4,0,28.7,0.1,43.1,0.1c3,0,6.1,0.1,9.1,0.1c0.4,0,0.6,0.1,0.6,0.6c0.4,4.8,0.9,9.5,1.3,14.3c0.3,3.7,0.6,7.4,1,11.1
			c0.3,3.7,0.7,7.3,1,11c0,0.1,0,0.3,0,0.4c-0.2,0.1-0.4,0-0.5-0.3c-0.3-1.3-0.3-2.6-0.5-3.9c-0.3-3.2-0.6-6.4-0.9-9.6
			c-0.3-2.7-0.5-5.5-0.7-8.2c-0.2-2.7-0.5-5.4-0.7-8.1c-0.2-1.8-0.3-3.6-0.5-5.4c-0.1-0.9-0.2-1-1.1-1.1c-1.6-0.2-3.1-0.2-4.7-0.2
			c-11.6,0-23.2,0-34.8,0c-1.2,0-1.2,0-1.2,1.2c0,6,0,12,0,18c0,1,0,1,1.1,1.1c2.9,0.1,5.8,0.2,8.7,0.4c1.2,0.1,2.4,0.1,3.6,0.2
			c3.3,0.1,6.7,0.3,10,0.7c0.9,0.1,1,0.3,1.1,1.1c0.3,3.5,0.6,7,0.9,10.5c0.2,1.9,0.3,3.8,0.5,5.7c0,0.2,0,0.3,0,0.5
			C220.1,185.9,220.1,186.2,219.8,186.4z"/>
		<path class="st19" d="M218.3,219.2c0.2-0.3,0.1-0.6,0-0.9c0.6-0.1,0.7,0,0.6,0.5c-0.3,1.7-0.4,3.5-0.6,5.3
			c-0.2,2.3-0.4,4.6-0.6,6.9c-0.4,4.1-0.6,8.1-1.4,12.2c-0.1,0.8-0.5,1.3-1.3,1.6c-2.8,1-5.7,1.8-8.6,2.6c-3.9,1.1-7.8,2.1-11.7,3.1
			c-0.8,0.2-0.9,0.3-0.9,1.2c0,3.1-0.1,6.1,0,9.2c0.1,2.2,0,4.4,0.1,6.6c0,0.8,0.1,1.5,0.2,2.3c0.1,0.7,0.2,0.7,0.9,0.6
			c2.7-0.7,5.5-1.4,8.2-2.2c6.7-1.8,13.5-3.7,20.2-5.6c3.3-0.9,6.5-1.9,9.8-2.8c0.7-0.2,1-0.6,1.1-1.3c0.3-3.2,0.7-6.3,1-9.5
			c0.2-2.6,0.5-5.1,0.7-7.7c0.2-2.7,0.5-5.3,0.7-8c0.2-2.7,0.5-5.5,0.7-8.2c0.2-2.1,0.4-4.3,0.6-6.4c0.2-2.4,0.4-4.7,0.6-7.1
			c0.2-2.6,0.5-5.2,0.7-7.8c0.1-1.3,0.2-2.6,0.4-4c0-0.3,0.1-0.6,0.3-0.8c0.3,0,0.4,0.2,0.4,0.5c-0.5,3.7-0.7,7.3-1.1,11
			c-0.3,3.1-0.6,6.3-0.8,9.4c-0.3,3.7-0.7,7.5-1,11.2c-0.2,2.7-0.5,5.4-0.7,8c-0.3,3.1-0.6,6.2-0.9,9.2c-0.3,2.8-0.6,5.6-0.8,8.4
			c-0.1,0.7-0.2,1.5-0.3,2.2c0,0.5-0.4,0.5-0.7,0.7c-2.5,0.9-5.1,1.6-7.6,2.4c-8.9,2.6-17.8,5.1-26.7,7.4c-2,0.5-4.1,1-6.1,1.6
			c-1.4-0.4-2.8-0.7-4.1-1.1c-11-3-22.1-6.1-33.1-9.3c-0.8-0.2-1.6-0.5-2.5-0.8c-0.5-0.1-0.7-0.4-0.8-0.9c-0.3-1.9-0.6-3.8-0.8-5.8
			c-0.3-2.7-0.6-5.4-0.9-8.1c-0.2-2.1-0.4-4.2-0.6-6.3c-0.2-2.7-0.5-5.4-0.6-8.1c0-0.6,0-1.3-0.1-1.9c0-0.4,0.1-0.5,0.5-0.5
			c1.2,0,2.4,0,3.6,0c5.1,0,10.3,0,15.4,0c0.6,0,0.8,0.2,0.9,0.8c0.2,2.2,0.4,4.3,0.6,6.5c0.2,1.7,0.3,3.4,0.4,5.1
			c0.1,1,0.2,2,0.3,3c0,0.4,0.4,0.4,0.6,0.4c2.9,0.8,5.7,1.6,8.6,2.4c3.8,1,7.7,2.1,11.6,3c0.2,0,0.4,0.1,0.6,0.1
			c0.5,0.2,0.9-0.2,1.4-0.3c6.6-1.5,13.2-3.3,19.7-5.2c0.8-0.2,1.2-0.7,1.3-1.5c0.4-3.6,0.7-7.2,1.1-10.7c0.4-3.9,0.6-7.9,1.2-11.8
			C218,219.8,218,219.4,218.3,219.2z"/>
		<path class="st18" d="M218.3,219.2c-0.4,2-0.5,4-0.7,5.9c-0.1,1.7-0.4,3.4-0.5,5c-0.2,1.8-0.2,3.5-0.4,5.3
			c-0.3,2.7-0.5,5.4-0.9,8.1c-0.1,0.5-0.4,0.6-0.8,0.7c-2.5,0.8-5,1.5-7.6,2.2c-4.2,1.1-8.3,2.3-12.5,3.2c-0.5,0.1-1,0.3-1.5,0.1
			c0.4,0,0.5-0.3,0.5-0.6c0.1-0.4,0.2-0.7,0.1-1.1c-0.1-1.1,0.2-2.2,0.2-3.3c0-8.7,0-17.3,0-26c3.5,0,7,0,10.4,0c4.4,0,8.7,0,13.1,0
			C217.9,218.8,218.3,218.6,218.3,219.2z"/>
		<path class="st14" d="M240.1,199c-0.2,1.9-0.5,3.8-0.7,5.7c-0.2,1.7-0.3,3.3-0.4,5c-0.2,1.7-0.3,3.4-0.5,5.2
			c-0.1,1.2-0.2,2.4-0.3,3.5c-0.2,1.8-0.3,3.5-0.5,5.3c-0.1,1.2-0.2,2.3-0.3,3.5c-0.2,1.9-0.3,3.7-0.5,5.6c-0.1,1.2-0.2,2.3-0.3,3.5
			c-0.2,1.7-0.3,3.5-0.5,5.2c-0.1,1.1-0.2,2.2-0.3,3.3c-0.2,1.7-0.3,3.4-0.5,5.2c-0.1,1.5-0.3,3.1-0.4,4.6c-0.2,1.5-0.4,3-0.5,4.6
			c-0.1,0.4-0.4,0.5-0.7,0.6c-2.8,0.8-5.5,1.6-8.3,2.4c-4,1.1-8,2.2-11.9,3.3c-3.7,1-7.4,2-11.1,3c-2.6,0.7-5.1,1.3-7.7,2
			c-0.5,0.1-0.6-0.1-0.7-0.5c-0.2-1.4-0.2-2.8-0.3-4.3c-0.1-4.8-0.1-9.6-0.1-14.4c0-0.7,0.2-0.9,0.8-1.1c3.1-0.8,6.2-1.6,9.2-2.4
			c3.9-1.1,7.8-2.1,11.6-3.4c0.5-0.2,0.7-0.4,0.8-0.9c0.5-2.3,0.7-4.7,0.9-7.1c0.3-2.5,0.5-5.1,0.7-7.6c0.2-2.4,0.4-4.8,0.7-7.1
			c0.1-1,0.2-1.9,0.4-2.9c0.1-0.5-0.1-0.5-0.4-0.5c-7.9,0-15.8,0-23.7,0c-0.9,0-0.9,0-0.9-0.9c0-6.3,0-12.6,0-18.8
			c0.2-0.2,0.3-0.2,0.5,0c6.6,0,13.3,0,19.9,0c6.2,0,12.5,0,18.7,0.1c2.4,0,4.7,0,7.1,0.3C239.9,198.9,240,198.9,240.1,199z"/>
		<path class="st20" d="M194.1,198.4c-0.2,0-0.4,0-0.5,0c-2.6,0-5.1,0-7.7,0c-4.2,0-8.5,0-12.7,0c-0.5,0-0.8-0.1-0.7-0.7
			c0.2-2.1,0.4-4.3,0.6-6.4c0.2-2.1,0.4-4.1,0.6-6.2c0.2-2.2,0.4-4.3,0.6-6.5c0.2-2,0.4-4,0.6-6.1c0.2-1.5,0.3-3,0.5-4.5
			c0-0.4,0.1-0.5,0.5-0.5c1.2,0,2.4-0.1,3.6-0.2c3.9-0.1,7.9-0.2,11.8-0.3c0.8,0,1.6-0.1,2.4-0.1c0.2,0,0.5-0.1,0.6,0.2
			c-0.2,0.3-0.1,0.5-0.1,0.8c0,9.8,0,19.6,0,29.4C194.1,197.8,194.2,198.1,194.1,198.4z"/>
		<path class="st21" d="M219.8,186.4c0-0.3,0-0.6,0.3-0.7c0.5,0.4,0.3,0.9,0.4,1.4c0.2,0.8,0.2,0.9,1.1,0.9c5.8,0,11.6,0,17.4,0
			c0.9,0,0.9-0.1,0.8-0.9c-0.2-1.1-0.3-2.2-0.4-3.3c0-0.3-0.1-0.5,0.1-0.8c0.1,0,0.2,0.1,0.4,0.1c0.1,1.6,0.3,3.2,0.4,4.8
			c0.2,0.5-0.1,0.7-0.5,0.8c-4.6,0-9.1,0-13.7,0c-1.7,0-3.3,0.1-5-0.1c-0.4,0-0.8-0.1-1.1-0.3c-0.2-0.5-0.1-1.1-0.3-1.7
			C219.8,186.6,219.8,186.5,219.8,186.4z"/>
		<path class="st19" d="M219.8,186.6c0.3,0.5,0.3,1.1,0.3,1.7C219.6,187.8,219.9,187.2,219.8,186.6z"/>
		<path class="st19" d="M239.9,188.8c0.3-0.2,0.6-0.4,0.5-0.8C240.6,188.8,240.6,188.8,239.9,188.8z"/>
		<path class="st14" d="M239.6,183.1c0.1,1.4,0.2,2.8,0.5,4.2c0.2,0.9,0.1,1-0.8,1c-6,0-12,0-18,0c-0.7,0-0.9-0.2-0.9-0.9
			c0-0.6-0.2-1.1-0.3-1.7c-0.2-1.7-0.3-3.4-0.5-5c-0.1-1.2-0.2-2.5-0.3-3.7c-0.2-2-0.3-3.9-0.5-5.9c-0.1-0.8-0.1-1.6-0.1-2.4
			c0-0.4-0.1-0.6-0.5-0.6c-1-0.1-1.9-0.3-2.9-0.3c-2.7-0.1-5.4-0.4-8-0.4c-2-0.1-4.1-0.2-6.1-0.3c-2.1-0.1-4.3-0.2-6.4-0.2
			c-0.3,0-0.5-0.1-0.4-0.4c0-0.1,0-0.2,0-0.3c0-6.4,0-12.8,0-19.2c0-0.6,0.1-0.8,0.8-0.8c12,0,24,0,35.9,0c1.6,0,3.3,0,4.9,0.3
			c0.5,0.1,0.6,0.3,0.6,0.8c0.2,2.5,0.4,5.1,0.6,7.6c0.1,1.8,0.3,3.5,0.4,5.3c0.2,1.7,0.4,3.4,0.5,5.2c0.1,1.2,0.2,2.5,0.3,3.7
			c0.2,1.7,0.4,3.4,0.5,5c0.1,1,0.2,2.1,0.3,3.1c0.2,1.9,0.3,3.8,0.5,5.7C239.6,182.8,239.6,183,239.6,183.1z"/>
	</g>
</g>
<g id="ps_id_ai" class="st1">
	<g class="st7">
		<path class="st22" d="M89.8,235.1c-10,0-20.1,0-30.1,0c-8.1,0-14.9-5.5-16.6-13.4c-0.2-1.1-0.4-2.2-0.4-3.3c0-19.5,0-39,0-58.5
			c0-7.8,5.6-14.7,13.2-16.3c1.2-0.3,2.4-0.4,3.7-0.4c20.1,0,40.2,0,60.2,0c8.3,0,15.3,5.9,16.7,14.1c0.2,0.9,0.2,1.8,0.2,2.7
			c0,19.4,0,38.8,0,58.2c0,8.3-6,15.3-14.1,16.7c-0.9,0.2-1.9,0.2-2.8,0.2C109.9,235.1,99.9,235.1,89.8,235.1z"/>
		<path class="st23" d="M61.7,188.5c0-6.6,0-13.3,0-19.9c0-0.5,0-0.4,0.5-0.4c5.1,0,10.2,0,15.2,0c6.7,0.1,12.4,5.1,13.5,11.7
			c1.2,7-2.9,13.6-9.6,15.8c-1.4,0.4-2.8,0.6-4.2,0.6c-2.1,0-4.2,0-6.4,0c-0.3,0-0.4,0.1-0.4,0.4c0,4,0,8,0,12
			c0,0.3-0.1,0.4-0.4,0.4c-2.6,0-5.2,0-7.9,0c-0.3,0-0.4-0.1-0.4-0.4C61.7,201.9,61.7,195.2,61.7,188.5z"/>
		<path class="st23" d="M116.3,186.7c-1-0.5-2.1-1-3.2-1.3c-1.8-0.6-3.7-1.1-5.7-1c-0.8,0-1.5,0.1-2.2,0.4c-1.4,0.6-1.6,2.1-0.6,3.2
			c0.6,0.6,1.3,0.9,2,1.2c1.3,0.6,2.6,0.9,3.9,1.5c2,0.9,3.8,2,5.3,3.6c1.4,1.6,2.2,3.4,2.2,5.5c0,2.2-0.7,4.1-2,5.8
			c-1.7,2.3-4.1,3.5-6.8,4c-4.6,1-9.1,0.4-13.5-1.5c-0.2-0.1-0.2-0.2-0.2-0.4c0-2.2,0-4.4,0-6.7c0-0.2,0.1-0.2,0.3-0.2
			c2,0.6,4,1.3,6.1,1.6c1.8,0.3,3.5,0.5,5.3,0.2c0.6-0.1,1.2-0.3,1.7-0.8c0.6-0.6,0.7-1.3,0.3-2.1c-0.4-0.8-1.1-1.3-1.9-1.7
			c-1.1-0.6-2.4-1-3.6-1.4c-1.8-0.6-3.4-1.4-4.9-2.6c-4.8-3.8-4.7-11.1,0.3-14.7c1.5-1.1,3.2-1.7,5-2c4-0.7,7.9-0.3,11.7,1.3
			c0.5,0.2,0.5,0.2,0.5,0.7c0,2.3,0,4.5,0,6.8C116.3,186.4,116.3,186.5,116.3,186.7z"/>
		<path class="st24" d="M70.3,182.1c0-2.1,0-4.2,0-6.3c0-0.3,0-0.4,0.3-0.4c1.8,0,3.5,0,5.3,0c3.2,0,5.8,2.2,6.5,5.3
			c0.8,3.9-2.1,7.7-6,7.9c-2,0.1-3.9,0-5.9,0c-0.3,0-0.2-0.1-0.2-0.3C70.3,186.4,70.3,184.3,70.3,182.1z"/>
	</g>
	<g class="st7">
		<path class="st25" d="M329.3,234.9C329.3,234.9,329.3,234.9,329.3,234.9c-21,0.1-41.9,0.1-62.9,0.1c0,0,0-0.1,0-0.1
			c0.1-0.2,0.3-0.2,0.5-0.2c0.2,0,0.4,0,0.5,0c20.3,0,40.5,0,60.8,0C328.6,234.7,329,234.6,329.3,234.9z"/>
		<path class="st25" d="M345.1,219.5L345.1,219.5L345.1,219.5c-0.2-0.1-0.2-0.3-0.3-0.5c0-0.2,0-0.4,0-0.5c0-19.5,0-39.1,0-58.6
			c0-0.3-0.1-0.7,0.2-1c0,0,0.1,0,0.1,0C345.1,179,345.1,199.2,345.1,219.5z"/>
		<path class="st26" d="M345,158.7c0,0.3,0,0.6,0,0.9c0,19.6,0,39.2,0,58.9c0,0.3,0,0.6,0,0.9c-0.5,6-3.4,10.5-8.7,13.5
			c-2.2,1.2-4.5,1.9-7.1,2c-0.2,0-0.3,0-0.5,0c-20.5,0-40.9,0-61.4,0c-0.3,0-0.7,0-1,0c-3.9-0.3-7.3-1.8-10.2-4.5
			c-3.5-3.3-5.3-7.5-5.3-12.3c0-19.4,0-38.7,0-58.1c0-7.9,5.3-14.6,12.9-16.4c1.2-0.3,2.5-0.4,3.8-0.4c20.2,0,40.5,0,60.7,0
			c8.3,0,15.3,6,16.5,14.2C344.9,157.9,344.9,158.3,345,158.7z"/>
		<path class="st27" d="M289.3,198.2c-2.3,0-4.5,0-6.8,0c-0.4,0-0.6,0.1-0.7,0.5c-0.9,2.8-1.8,5.7-2.7,8.5c-0.2,0.7-0.3,0.7-1.1,0.7
			c-2.3,0-4.5,0-6.8,0c-0.9,0-1-0.2-0.7-1c3.3-9.5,6.6-19,9.9-28.5c1-2.8,2-5.6,2.9-8.4c0.3-0.9,0.4-1.8,0.3-2.7
			c0-0.5,0.2-0.6,0.6-0.6c3.2,0,6.5,0,9.7,0c0.4,0,0.6,0.1,0.7,0.5c4.7,13.3,9.4,26.6,14.1,39.8c0.1,0.2,0.1,0.3,0.1,0.5
			c0,0.3-0.1,0.4-0.4,0.5c-0.1,0-0.2,0-0.3,0c-2.6,0-5.2,0-7.9,0c-0.5,0-0.6-0.3-0.8-0.7c-0.8-2.3-1.6-4.5-2.3-6.8
			c-0.2-0.6-0.5-1.3-0.7-1.9c-0.1-0.3-0.2-0.4-0.6-0.4C293.8,198.3,291.6,198.2,289.3,198.2z"/>
		<path class="st27" d="M313.1,192.3c0-5,0-9.9,0-14.9c0-0.7,0-0.8,0.7-0.8c2.4,0,4.9,0,7.3,0c0.6,0,0.7,0.1,0.7,0.7
			c0,10,0,19.9,0,29.9c0,0.7-0.1,0.7-0.7,0.7c-2.4,0-4.8,0-7.3,0c-0.6,0-0.8-0.1-0.8-0.8C313.1,202.3,313.1,197.3,313.1,192.3z"/>
		<path class="st27" d="M317.5,173.4c-3-0.1-4.9-2.1-4.8-5.3c0.1-2.6,2.3-4.7,5.1-4.6c3,0.1,4.8,2.1,4.7,5.3
			C322.4,171.5,320.2,173.5,317.5,173.4z"/>
		<path class="st26" d="M289.2,174c1.5,5.5,3.3,10.9,5,16.3c-3.3,0-6.6,0-9.8,0C285.9,184.8,287.8,179.5,289.2,174z"/>
	</g>
	<g class="st7">
		<path class="st28" d="M241,158.8c0,20.1,0,40.1,0,60.2c-0.1,0.2,0,0.4,0,0.6c0.1,2.3-0.7,4.4-1.7,6.4c-0.8,1.6-1.9,3.1-3.2,4.3
			c-2.5,2.4-5.4,3.9-8.8,4.4c-0.7,0.1-1.4,0.1-2.1,0.1c-20.7,0-41.4,0-62.2,0c-3.9,0-7.2-1.4-10.1-3.9c-3.1-2.6-5-5.9-5.7-9.9
			c-0.1-0.6,0-1.3-0.2-1.9c0-20.2,0-40.3,0-60.5c0.1-0.6,0.1-1.2,0.2-1.9c0.5-2.9,1.7-5.6,3.7-7.8c2.4-2.8,5.4-4.6,8.9-5.5
			c0.8-0.2,1.6-0.2,2.3-0.3c0.2,0,0.4,0.1,0.6,0c20.9,0,41.9,0,62.8,0c0.5,0.1,1.1,0,1.6,0.1c1.5,0.1,2.9,0.6,4.2,1.2
			c2,0.9,3.7,2.1,5.2,3.6c2.2,2.3,3.6,4.9,4.4,8c0.2,0.7,0.2,1.3,0.2,2C240.9,158.3,240.9,158.6,241,158.8z"/>
		<path class="st29" d="M225.2,234.9C225.2,234.9,225.2,234.9,225.2,234.9c-20.8,0.1-41.7,0.1-62.5,0.1c0,0,0-0.1,0-0.1
			c0.3,0,0.7,0,1,0c20.1,0,40.3,0,60.4,0C224.5,234.9,224.9,234.9,225.2,234.9z"/>
		<path class="st30" d="M216.3,183.2c0,5.3,0,10.6,0,15.8c0,2.1,0.1,4.3,0.2,6.4c0,0.5-0.1,0.7-0.5,0.9c-2.2,0.9-4.5,1.5-6.9,1.9
			c-2.1,0.3-4.3,0.5-6.4,0.4c-2.9-0.1-5.7-0.8-8.3-2.3c-3.5-2-5.6-5-6.6-8.9c-0.5-1.9-0.7-3.9-0.5-5.8c0.5-6.4,3.6-11,9.3-13.9
			c1.8-0.9,3.7-1.3,5.6-1.6c1.7-0.2,3.4-0.3,5.1-0.1c0.2,0,0.3,0,0.3-0.3c0-0.1,0-0.2,0-0.4c0-3.7,0-7.4,0-11.1c0-0.1,0-0.3,0-0.4
			c0-0.6,0.1-0.7,0.7-0.7c2.5,0,5,0,7.5,0c0.1,0,0.1,0,0.2,0c0.3,0,0.4,0.1,0.4,0.4c0,0.1,0,0.3,0,0.4
			C216.3,170.5,216.3,176.8,216.3,183.2z"/>
		<path class="st30" d="M181.1,187.5c0,6.5,0,13,0,19.5c0,0.2,0,0.4,0,0.6c0,0.4-0.2,0.5-0.6,0.6c-0.1,0-0.2,0-0.3,0
			c-2.4,0-4.7,0-7.1,0c-0.1,0-0.2,0-0.3,0c-0.4,0-0.5-0.2-0.5-0.5c0-0.1,0-0.2,0-0.4c0-13.3,0-26.5,0-39.8c0-0.1,0-0.2,0-0.3
			c0-0.3,0.2-0.5,0.5-0.5c0.1,0,0.2,0,0.4,0c2.4,0,4.7,0,7.1,0c0.7,0,0.8,0.1,0.8,0.8C181.1,174.2,181.1,180.8,181.1,187.5z"/>
		<path class="st28" d="M207.6,192.3c0,2.7,0,5.4,0,8c0,0.5,0,0.5-0.6,0.6c-0.4,0.1-0.9,0-1.3,0.1c-1,0.1-1.9,0.1-2.9-0.1
			c-1.7-0.3-3.2-0.9-4.3-2.1c-0.9-0.9-1.4-2-1.8-3.2c-0.6-2-0.7-4.1-0.2-6.1c0.5-2.1,1.8-3.6,3.6-4.8c1.9-1.2,4-1.6,6.3-1.4
			c0.3,0,0.6,0.1,0.8,0.1c0.4,0.1,0.4,0.1,0.4,0.5c0,0.3,0,0.7,0,1C207.6,187.4,207.6,189.8,207.6,192.3z"/>
	</g>
</g>
<g id="Layer_7" class="st1">
	<g class="st7">
		<g>
			<path class="st31" d="M187.3,150.3c0,25.8,0,51.6,0,77.4c-0.1,0.4,0,0.8-0.1,1.2c-0.3,3-1.4,5.8-3.1,8.3
				c-3.4,5.1-8.1,8.2-14.1,9.3c-0.9,0.2-1.8,0.2-2.7,0.2c-26.2,0-52.3,0-78.5,0c-4.5,0-8.5-1.6-12.1-4.3c-4.3-3.4-7-7.8-7.9-13.3
				c-0.1-0.6-0.1-1.2-0.1-1.8c-0.1-25.6-0.1-51.2,0-76.8c0-2.4,0.7-4.7,1.7-7c2-4.5,5.2-7.9,9.5-10.1c2.5-1.4,5.2-2.3,8.2-2.2
				c0.1,0,0.3,0.1,0.4-0.1c26.4,0,52.8,0,79.1,0c0.7,0.1,1.5,0,2.2,0.1c3.7,0.6,6.9,2,9.8,4.4c3.7,3,6.2,6.9,7.3,11.6
				c0.2,0.8,0.2,1.7,0.2,2.5C187.3,150,187.2,150.2,187.3,150.3z"/>
			<path class="st32" d="M167.5,246.7c0,0,0,0.1,0,0.1c-26.3,0-52.6,0-78.9,0c0,0,0-0.1,0-0.1c0.5,0,0.9,0,1.4,0
				c25.4,0,50.8,0,76.2,0C166.6,246.7,167.1,246.7,167.5,246.7z"/>
			<path class="st32" d="M68.7,151c0.2-0.2,0-0.5,0.2-0.7c0.1,0.7-0.1,1.3-0.1,2c0,24.4,0,48.8,0,73.1c0,0.7,0.1,1.3,0.1,2
				c-0.2-0.2,0-0.5-0.2-0.7C68.7,201.6,68.7,176.3,68.7,151z"/>
			<path class="st33" d="M187.2,149.8C187.2,149.8,187.3,149.8,187.2,149.8c0.1,0.2,0.1,0.4,0.1,0.6
				C187.1,150.2,187.2,150,187.2,149.8z"/>
			<path class="st34" d="M97,186.7c0-8.3,0-16.7,0-25c0-1,0-1,1-1c3.6-0.1,7.1-0.2,10.7-0.2c2.1,0,4.3-0.1,6.4,0
				c3.2,0.1,6.4,0.7,9.4,2c4,1.8,7,4.6,8.6,8.8c1,2.5,1.4,5.1,1.2,7.8c-0.1,1.8-0.3,3.6-0.9,5.4c-1.3,3.9-3.8,6.7-7.2,8.8
				c-2.1,1.2-4.4,1.9-6.8,2.4c-3.2,0.6-6.5,0.6-9.8,0.5c-0.5,0-1.1,0-1.6-0.1c-0.2,0-0.4,0.1-0.3,0.3c0,0.1,0,0.3,0,0.5
				c0,4.9,0,9.8,0,14.7c0,0.2,0,0.3,0,0.5c0,0.4-0.2,0.6-0.7,0.7c-0.1,0-0.2,0-0.3,0c-2.9,0-5.9,0-8.8,0c-0.1,0-0.2,0-0.2,0
				c-0.6,0-0.7-0.1-0.7-0.7c0-0.2,0-0.4,0-0.6C97,203.2,97,195,97,186.7z"/>
			<path class="st34" d="M151.7,178.5c0.3-0.1,0.4-0.3,0.5-0.5c2.4-2.5,5.1-4.3,8.5-5.1c1.2-0.3,2.4-0.4,3.7-0.5
				c0.6,0,0.8,0.2,0.8,0.8c0,0.8,0,1.6,0,2.4c0,2.2,0,4.4,0,6.5c0,0.1,0,0.3,0,0.4c0,0.6-0.1,0.8-0.8,0.8c-0.4,0-0.8,0-1.1,0
				c-2.9,0.1-5.6,0.7-8.3,1.8c-0.8,0.4-1.6,0.9-2.2,1.5c-0.3,0.2-0.4,0.5-0.4,0.9c0,4.5,0,9,0,13.5c0,3.4,0,6.9,0,10.3
				c0,0.2,0,0.3,0,0.5c0,0.9-0.1,1-1,1c-2.1,0-4.3,0-6.4,0c-1,0-1.9,0-2.9,0c-0.7,0-0.9-0.2-0.9-0.9c0-0.4,0-0.7,0-1.1
				c0-9.5,0-19.1,0-28.6c0-2.1-0.1-4.1-0.1-6.2c0-0.7-0.1-1.3-0.2-2c-0.1-0.6,0.1-0.8,0.7-0.8c2.7,0,5.4,0,8.1,0
				c0.9,0,1.2,0.2,1.5,1.1c0.3,1.1,0.4,2.2,0.5,3.3C151.7,177.9,151.7,178.1,151.7,178.5z"/>
			<path class="st31" d="M111.4,170.3c1.3,0,2.6-0.1,3.8,0c1.5,0.2,2.9,0.5,4.2,1.1c2.2,1,3.5,2.7,4,5.1c0.3,1.7,0.3,3.4-0.3,5
				c-0.6,1.9-2,3.1-3.7,4.1c-1.1,0.6-2.4,0.9-3.6,1.1c-1.3,0.3-2.5,0.4-3.8,0.3c-1.3,0-2.6,0.1-3.8-0.1c-0.5,0-0.4,0-0.4-0.5
				c0-5.2,0-10.4,0-15.6c0-0.5,0-0.5,0.5-0.5C109.3,170.3,110.3,170.3,111.4,170.3z"/>
		</g>
		<g>
			<path class="st35" d="M200.2,228.1c0-26.1,0-52.1,0-78.2c0.2-1.3,0.2-2.6,0.6-3.9c2.6-7.8,7.9-12.7,15.9-14.7
				c1.2-0.3,2.5-0.3,3.7-0.3c26.2,0,52.4,0,78.5,0c5,0,9.3,1.8,13,5c3.3,2.8,5.5,6.4,6.7,10.6c0.4,1.5,0.5,3,0.5,4.5
				c0,25.3,0,50.6,0,75.8c0,5.1-1.9,9.4-5.3,13.2c-2.9,3.2-6.4,5.3-10.6,6.5c-1.1,0.3-2.2,0.2-3.3,0.4c-27,0-54,0-81,0
				c-1.2-0.2-2.5-0.2-3.7-0.6c-7.8-2.5-12.7-7.7-14.8-15.6C200.3,229.9,200.4,229,200.2,228.1z"/>
			<path class="st36" d="M238.7,160.9c2,0,4,0,5.9,0c0.6,0,0.9,0.2,1.1,0.8c5.9,16.6,11.9,33.2,17.8,49.8c0.4,1,0.2,1.2-0.9,1.2
				c-3.1,0-6.3,0-9.4,0c-0.7,0-1.1-0.3-1.3-1c-1.2-3.5-2.4-6.9-3.5-10.4c-0.2-0.6-0.4-0.9-1.2-0.9c-5.6,0-11.3,0-16.9,0
				c-0.6,0-0.8,0.2-1,0.7c-1.1,3.5-2.3,7.1-3.4,10.6c-0.2,0.8-0.6,1.1-1.5,1.1c-2.8,0-5.6,0-8.4,0c-1.2,0-1.3-0.2-0.9-1.3
				c4.5-12.9,9-25.9,13.6-38.8c0.7-2.1,1.4-4.2,2.2-6.3c0.6-1.5,0.9-3,0.8-4.6c0-0.6,0.2-0.8,0.8-0.8
				C234.6,160.9,236.7,160.9,238.7,160.9z"/>
			<path class="st36" d="M298.6,207.1c0,1.1,0,2.3,0,3.4c0,0.8-0.3,1.2-1.1,1.5c-2.5,1-5.1,1.5-7.7,1.7c-3.8,0.3-7.5,0.3-11.2-0.9
				c-5.7-1.8-9.5-5.6-11.4-11.2c-2.3-6.9-1.8-13.6,1.8-20c2.3-4.1,5.7-7,10.3-8.2c3.8-1,7.7-1,11.6,0.2c5.8,1.8,9,6,10.5,11.7
				c0.7,2.8,0.6,5.7,0.4,8.6c-0.2,2,0,1.8-2.2,2c-2.7,0.3-5.4-0.1-8.1-0.1c-4.5,0-9.1,0-13.6,0c-0.6,0-0.8,0.1-0.6,0.7
				c1.1,5,3.9,6.8,8.4,7.6c2.9,0.6,5.8,0.1,8.6-0.4c1.3-0.2,2.5-0.5,3.7-1c0.5-0.2,0.7-0.1,0.7,0.4
				C298.6,204.7,298.6,205.9,298.6,207.1z"/>
			<path class="st31" d="M238.6,170c1.4,5,3.1,9.9,4.6,14.8c0.5,1.7,1.1,3.5,1.7,5.2c0.1,0.4,0.1,0.5-0.4,0.5c-3.8,0-7.7,0-11.5,0
				c-0.8,0-0.4-0.4-0.3-0.7c1.8-5.7,3.6-11.4,5.2-17.1C238.2,171.9,238.4,170.9,238.6,170z"/>
			<path class="st31" d="M283.9,188.7c-2.1,0-4.1,0-6.2,0c-0.3,0-0.6,0.1-0.5-0.4c0.5-2.8,1.8-5.7,5.3-6.6c4.4-1.2,7.9,1,8.9,4.6
				c0.1,0.2,0.1,0.5,0.1,0.7c0.2,1.4,0,1.7-1.4,1.7C288,188.7,286,188.7,283.9,188.7C283.9,188.7,283.9,188.7,283.9,188.7z"/>
		</g>
	</g>
</g>
<g id="Layer_8">
	<path class="st37" d="M96.3,156.4c0-4.2,0-8.5,0-12.7c0-1.7,0.6-2.9,2.1-3.8c7.5-4.3,15-8.6,22.5-13c1.4-0.8,2.7-0.8,4.1,0
		c7.4,4.3,14.9,8.6,22.3,12.9c1.5,0.9,2.1,2,2.1,3.7c0,8.6,0,17.2,0,25.8c0,1.7-0.7,2.9-2.2,3.7c-7.4,4.2-14.8,8.5-22.2,12.8
		c-1.6,0.9-2.9,0.9-4.5,0c-7.4-4.3-14.7-8.6-22.2-12.8c-1.6-0.9-2.3-2.1-2.2-3.9C96.3,165,96.3,160.7,96.3,156.4z"/>
	<path class="st38" d="M25.2,160.8c0-5.8,0-11.7,0-17.5c0-1.8,0.7-2.9,2.2-3.7c7.4-4.2,14.8-8.5,22.2-12.8c1.6-0.9,2.9-0.9,4.5,0
		c7.4,4.3,14.8,8.6,22.2,12.8c1.5,0.9,2.2,2,2.1,3.7c0,11.6,0,23.2-0.1,34.8c0,2.7-0.8,3.1-3.1,1.9c-4.2-2.4-8.3-4.8-12.5-7.1
		c-1.5-0.8-2.2-2-2.1-3.7c0.1-5.2,0-10.3,0-15.5c0-1.7-0.6-2.9-2.1-3.7c-1.7-0.9-3.3-1.9-4.9-2.9c-1.2-0.7-2.4-0.7-3.6,0
		c-1.7,1-3.4,2-5.1,2.9c-1.4,0.8-1.9,1.9-1.9,3.5c0.1,5.2,0,10.3,0,15.5c0,1.9-0.7,3.1-2.3,4c-4.1,2.3-8.1,4.6-12.1,6.9
		c-2.4,1.4-3.2,0.9-3.2-1.8C25.2,172.4,25.2,166.6,25.2,160.8C25.2,160.8,25.2,160.8,25.2,160.8z"/>
	<path class="st38" d="M238.1,156.6c0-4.3,0-8.6,0-12.9c0-1.7,0.7-2.9,2.2-3.7c7.4-4.2,14.7-8.4,22-12.7c1.7-1,3.1-1,4.8,0
		c7.2,4.3,14.4,8.4,21.7,12.6c1.7,1,2.4,2.2,2.4,4.1c-0.1,8.7,0.8,6.5-6,10.7c-2.9,1.8-5.9,3.5-8.9,5.2c-1.9,1.1-2.9,0.6-2.9-1.6
		c0-1.7-0.1-3.4,0-5.2c0-1.1-0.4-1.8-1.3-2.4c-2.1-1.1-4.2-2.4-6.2-3.6c-0.9-0.5-1.7-0.6-2.6,0c-2,1.2-4.1,2.4-6.2,3.6
		c-1,0.5-1.4,1.3-1.4,2.4c0,2.2,0.1,4.4,0,6.6c-0.1,1.5,0.5,2.3,1.8,3.1c7.2,4.1,14.4,8.2,21.6,12.4c0.8,0.5,2,0.8,1.9,2
		c-0.1,1.2-1.2,1.5-2,1.9c-4,2.3-8.1,4.4-12.1,6.7c-1.6,0.9-2.9,0.9-4.5,0c-7.3-4.2-14.7-8.4-22.1-12.6c-1.5-0.9-2.1-2-2.1-3.7
		C238.1,165.2,238.1,160.9,238.1,156.6z"/>
	<path class="st39" d="M324.9,181.2c1.6-0.7,2.7-1.2,3.8-1.8c0.6-0.3,1.1,0,1.5,0.3c1.4,0.8,2.8,1.6,4.1,2.5c1,0.6,1.7,0.5,2.7,0
		c6.7-3.9,13.5-7.8,20.2-11.7c1-0.6,1.5-1.2,1.5-2.4c-0.1-7.9,0-15.7,0-23.6c0-1-0.3-1.7-1.2-2.2c-6.9-4-13.8-8-20.7-12
		c-0.8-0.5-1.4-0.4-2.2,0c-7,4-13.9,8.1-20.9,12.1c-0.7,0.4-1,0.9-1,1.8c0,8.1,0,16.2,0,24.3c0,0.7,0.2,1.3,0.9,1.7
		c1.9,1.1,3.8,2.2,5.8,3.3c2.8,1.5,5.3-0.1,5.2-3.3c-0.2-7.7,0-15.4-0.1-23c0-1.8,0.6-2.1,2.2-2.2c1.8,0,2,0.7,2,2.2
		c-0.1,7.8,0,15.6,0,23.4c0,6.3-4.4,9.3-10.3,6.8c-2.7-1.1-5.1-2.7-7.5-4.2c-1.5-1-2.1-2.5-2.1-4.3c0-8.4,0-16.7,0-25.1
		c0-2.1,0.9-3.7,2.7-4.7c7.2-4.1,14.4-8.3,21.5-12.5c1.9-1.1,3.7-1.1,5.6,0c7.1,4.1,14.2,8.3,21.4,12.4c1.9,1.1,2.9,2.7,2.9,5
		c0,8.2,0,16.5,0,24.7c0,2.2-0.9,3.9-2.9,5c-7.1,4.1-14.3,8.2-21.4,12.4c-1.9,1.1-3.7,1.1-5.6,0
		C330.3,184.4,327.8,182.9,324.9,181.2z"/>
	<path class="st39" d="M342.4,168.9c-2.4,0-4.8-0.2-7-1.2c-2.6-1.1-4.1-3-4.5-5.8c-0.1-0.7-0.4-1.8,0.6-1.8c1.2,0,3-0.9,3.4,0.7
		c0.9,3.4,3.3,3.9,6.1,4.1c1.9,0.1,3.8,0.1,5.7-0.4c1.6-0.4,2.6-1.4,2.6-3.1c0-1.7-1.4-2.1-2.6-2.3c-2-0.4-4-0.7-6-1
		c-1.8-0.3-3.6-0.5-5.4-1.2c-2.2-0.9-3.5-2.4-3.7-4.8c-0.2-2.5,0.6-4.6,2.7-6.1c3.5-2.5,11.8-2.5,15.4,0c2,1.3,2.8,3.3,3.1,5.6
		c0.1,0.4,0,0.7-0.4,1c-1.1,0.7-3.6,0-4-1.2c-0.6-1.6-1.7-2.5-3.3-2.9c-2.3-0.5-4.6-0.5-6.9,0.1c-1.3,0.3-2.2,1.1-2.2,2.6
		c-0.1,1.5,1.1,2,2.3,2.2c2.8,0.5,5.6,0.9,8.3,1.4c1,0.2,1.9,0.4,2.8,0.7c2.2,0.7,3.9,2,4.2,4.6c0.3,2.8-0.4,5.2-2.9,6.9
		C348.1,168.6,345.3,168.9,342.4,168.9z"/>
	<path class="st37" d="M259.4,156.5c0.3-1-0.5-2.4,0.5-3.1c1.4-1,2.9-2.5,4.6-2.4c1.7,0,3.2,1.4,4.6,2.5c1,0.9,0.4,2.3,0.4,3.5
		c0,0.9,0.5,2.1-0.5,2.8c-1.5,1-2.9,2.5-4.6,2.4c-1.7,0-3.2-1.4-4.6-2.5C258.9,158.8,259.7,157.5,259.4,156.5z"/>
	<path class="st38" d="M220.4,136.5c0-11,0-22,0-33c0-2-0.7-3.3-2.5-4.3c-4.1-2.2-8.1-4.5-12.1-6.7c-2.3-1.3-3.1-0.8-3.1,1.8
		c0,6.7,0,13.4,0,20.1c0,4.8,0,9.6,0,14.4c0,1.9-0.6,2.2-2.3,1.3c-1.5-0.8-2.9-1.6-4.3-2.5c-1.6-1.1-3-1-4.6,0
		c-7.4,4.3-14.8,8.6-22.2,12.8c-1.5,0.9-2.1,2-2.1,3.7c0,8.6,0,17.2,0,25.8c0,1.7,0.6,2.8,2,3.6c7.6,4.3,15.1,8.7,22.6,13.1
		c1.4,0.8,2.6,0.8,4,0c7.4-4.3,14.7-8.6,22.2-12.8c1.8-1,2.5-2.3,2.4-4.3C220.4,158.5,220.4,147.5,220.4,136.5z M198.2,164.7
		c-4.6,2.3-4.3,2.3-9,0c-3.5-1.7-4.6-3.9-4.5-7.8c0-3.8,1.1-5.8,4.4-7.7c3.4-2,5.8-2.1,9.2,0c3.2,1.9,5.3,3.8,4,7.8
		C203.8,161,201.6,163,198.2,164.7z"/>
	<g>
		<path class="st40" d="M44.2,251.6c-0.6,0.8-0.4,1.6-0.4,2.5c0,9.7,0,19.3,0,29c0,2,0.4,2.7,2.6,2.7c14.1-0.1,28.2,0,42.3,0.1
			c1,0,1.4-0.6,1.8-1.1c5.5-7.2,11-14.5,16.6-21.6c1.2-1.5,1-2.4-0.1-3.8c-5.2-6.7-10.2-13.5-15.3-20.3c-0.5-0.6-1.8-1.4-0.7-2.3
			c0.9-0.7,1.8,0.2,2.5,1.1c4.8,6.4,9.5,12.9,14.3,19.3c1.9,2.6,1.9,2.6,3.8,0.1c4.8-6.3,9.6-12.6,14.4-19c0.7-1,1.4-2.2,3-1.5
			c0,0.9-0.6,1.6-1.1,2.2c-5.1,6.7-10.1,13.4-15.2,20c-1.2,1.6-1.4,2.7-0.1,4.4c6.2,7.8,12.3,15.8,18.5,23.9c-1.8,1.1-2.6,0-3.5-1.1
			c-5.4-7-10.8-14.1-16.2-21.1c-1.7-2.2-1.7-2.3-3.4-0.1c-5.4,7.1-10.9,14.2-16.3,21.3c-0.7,0.9-1.4,1.5-2.7,1.5
			c-15.2,0-30.4,0-45.6,0c-0.4,0-0.8-0.1-1.1-0.2c-0.6-0.8-0.5-1.8-0.5-2.7c0-21.6,0-43.1,0-64.7c0-3.1,0.1-3.2,3.1-3.2
			c13.3,0,26.6,0,39.9,0c0.9,0,1.9-0.2,2.8,0.5c-0.7,1.2-1.9,0.8-2.8,0.8c-12.4,0-24.8,0-37.1,0c-0.6,0-1.2,0-1.9,0
			c-1.7-0.1-2.6,0.6-2.6,2.4c0,9,0,17.9,0,26.9c0,2,1,2.3,2.6,2.3c11.9,0,23.8,0,35.7,0c0.5,0,0.9-0.1,1.4,0
			c0.8,0.2,2.3-0.5,2.3,0.6c0,1.3-1.5,0.7-2.2,0.7c-12.1,0-24.3,0-36.4,0.1C45.8,251.3,44.9,250.9,44.2,251.6z"/>
		<path class="st41" d="M326.1,288.7c-3.9,0-8.5-0.7-12.6-3.5c-4.8-3.3-6.3-8.3-6.4-13.8c0-0.7,0.2-1.3,1-1.2c0.8,0,1,0.7,1,1.3
			c0.1,2.2,0.5,4.3,1.3,6.3c2.2,5.6,7,7.8,12.4,8.6c4.9,0.7,9.8,0.5,14.4-1.7c4.2-2.1,6.8-5.3,6.7-10.3c-0.1-4.8-3.1-7.5-7.1-9.2
			c-4.2-1.9-8.8-2.5-13.2-3.7c-3-0.8-6-1.6-8.8-3c-7.4-3.6-8-14.6-1.1-19.7c5.3-3.9,11.4-4.2,17.6-3.1c4.7,0.8,8.8,2.6,11.3,7
			c1.2,2.2,1.6,4.5,1.9,6.9c0.1,0.8,0.4,1.9-1,1.9c-1.2,0-1.2-0.9-1.3-1.8c-0.2-4.5-2.1-8.2-6.3-10.2c-6.8-3.2-13.8-3.2-20.4,0.5
			c-3.3,1.9-4.9,5.1-4.6,9.1c0.3,4.1,2.4,6.7,6.3,8.1c5.7,2.1,11.7,3.1,17.5,5.1c4,1.3,8.1,2.7,10,7c3.1,6.7,0.1,14.3-6.9,17.5
			C334.9,288.2,331.3,288.9,326.1,288.7z"/>
		<path class="st42" d="M280.8,288.7c-3.9,0.1-8-0.6-11.8-2.7c-5.6-3.2-7.5-8.4-7.7-14.5c0-0.7,0.1-1.3,0.9-1.3c0.9,0,1,0.6,1,1.3
			c0,2.2,0.5,4.3,1.3,6.4c2.2,5.6,6.9,7.8,12.3,8.6c4.9,0.8,9.8,0.5,14.4-1.6c5.9-2.7,8.5-9,5.9-14.3c-1.8-3.6-5.2-5.3-8.8-6.3
			c-4.5-1.3-9-2.3-13.5-3.6c-2.1-0.6-4.2-1.3-6.1-2.3c-4-1.9-5.5-5.5-5.6-9.7c-0.1-4.7,2.1-8.2,6-10.6c5.1-3,10.6-3.2,16.3-2.3
			c1.8,0.3,3.6,0.9,5.3,1.6c4.9,2.1,8.2,7.6,8.1,12.9c0,0.7-0.1,1.3-0.9,1.3c-0.9,0-1.3-0.4-1.3-1.3c0-2.1-0.5-4.2-1.5-6
			c-2.3-4-5.9-5.8-10.2-6.4c-5.2-0.8-10.3-0.6-14.9,2.2c-3.3,2-4.9,5.1-4.7,9c0.3,4.1,2.3,6.8,6.2,8.2c5.8,2.1,11.9,3.2,17.7,5.1
			c4,1.3,8,2.8,10,7c3.1,6.6,0.1,14.1-6.9,17.3C288.7,288.4,285,288.9,280.8,288.7z"/>
		<path class="st43" d="M44.2,251.6c0.7-1,1.7-0.6,2.6-0.6c11.9,0,23.8,0,35.7,0c0.8,0,1.7,0.3,2.6-0.4c-0.7-0.8-1.6-0.5-2.3-0.5
			c-12.4,0-24.8-0.1-37.2,0c-2.3,0-3-0.7-2.9-2.9c0.1-8.7,0-17.4,0-26.2c0-2.8,0.4-3.2,3.3-3.2c12.9,0,25.9,0,38.8,0
			c0.8,0,1.5,0,2.5,0c-0.7-0.7-1.3-0.4-1.9-0.4c-13.6,0-27.1,0-40.7-0.1c-2.2,0-2.5,0.7-2.5,2.7c0.1,22.5,0,45,0,67.5
			c-1.3-0.2-0.8-1.2-0.8-1.8c0-22.2,0-44.4,0-66.6c0-1.9,0.6-2.6,2.6-2.6c14.1,0.1,28.2,0,42.3,0c0.9,0,2.3-0.4,2.2,1.2
			c-0.1,1.3-1.4,1-2.2,1c-13.2,0-26.5,0.1-39.7,0c-2.3,0-2.9,0.6-2.9,2.9c0.1,8.6,0.1,17.1,0,25.7c0,1.8,0.4,2.4,2.4,2.4
			c12.3-0.1,24.6,0,36.9,0c0.7,0,1.4,0,2.1,0.1c0.6,0.1,1,0.5,0.9,1.1c0,0.6-0.5,0.7-1,0.8c-0.3,0-0.6,0-0.9,0
			C70.8,251.7,57.5,251.7,44.2,251.6z"/>
		<path class="st44" d="M190.4,247.4c2.4-5.1,5.9-8.8,11.2-10.7c2.3-0.8,4.8-1.4,7.3-1.4c0.7,0,1.5-0.2,1.7,0.8
			c0.1,1.1-0.8,1.2-1.6,1.2c-3.1,0.1-6,0.7-8.7,2.2c-6.7,3.7-9.3,9.9-9.7,17c-0.4,9.4-0.2,18.8-0.2,28.2c0,0.6,0,1.2,0,1.9
			c0,0.7-0.4,1-1,0.9c-0.5,0-0.9-0.3-0.9-0.9c0-0.5,0-1.1,0-1.6c0-15.2,0-30.5,0-45.7c0-0.2,0-0.3,0-0.5c0.2-0.9-0.5-2.4,1.1-2.4
			c1.5,0.1,0.9,1.6,0.9,2.5C190.5,241.9,190.4,244.7,190.4,247.4z"/>
		<path class="st40" d="M176.9,248.5c-4.5-12-19.6-17-30.4-10.1c-4.1,2.6-6.8,6.4-9,10.8c-0.3-3.2-0.2-6.3-0.3-9.5
			c0-1.1,0.7-3-1-3.1c-1.8-0.1-1.1,1.9-1.1,3c0,20.8,0,41.6,0,62.4c0,0.5,0,1.1,0,1.6c0,0.7,0.2,1.5,1.1,1.4c0.8,0,0.9-0.7,0.9-1.4
			c0-0.5,0-1.1,0-1.6c0-8,0-16,0-24.1c0-0.9-0.2-1.9,0.5-3c2.7,6.9,7.2,11.6,14.4,13.1c8.9,1.9,17.3-0.4,22.4-8.5
			C180.7,269.8,180.9,259.3,176.9,248.5z M173.5,277.5c-3.4,6.2-8.9,9.4-16.1,9.3c-9.8-0.1-17.4-6.6-19.2-16.3
			c-1.4-7.2-1.3-14.2,1.7-21c3.3-7.6,10.5-12.3,18.3-12.1c8.2,0.3,14.1,4.7,17.1,12.8C178.6,259.6,178.3,268.8,173.5,277.5z"/>
		<path class="st45" d="M215.3,262.5c6.4,0.1,12.8,0,19.2,0c0,0,0,0,0,0c6.4,0,12.8,0,19.2,0c0.9,0,2.1,0.3,2.1-1.1
			c-0.2-6.6-1.3-13-5.7-18.3c-5.3-6.5-12.3-8.7-20.3-7.3c-8.7,1.6-14.1,7.4-17,15.6c-2.1,6.1-2.1,12.3-1,18.6
			c1.9,10.9,8.8,18.7,20.9,18.8c11.4,0.1,19.5-5.8,22-16.7c0.2-0.8,0.7-1.9-0.5-2.1c-1-0.2-1.4,0.8-1.6,1.7
			c-0.2,0.9-0.3,1.8-0.6,2.7c-3.7,10.7-13.7,13.7-23.5,12c-5.5-1-9.6-4.2-12.2-9.2c-2-3.9-2.6-8.1-3.1-12.3
			C213,262.9,213.6,262.5,215.3,262.5z M213.4,258.3c1.1-7.9,4.1-14.6,11.4-18.7c9.8-5.4,22.7-0.6,26.7,9.9c1.1,2.9,1.8,5.8,2,8.8
			c0.1,1.7-0.3,2.3-2.1,2.3c-6-0.1-12,0-18,0c-6,0-12,0-18,0C213.7,260.6,213.1,260.1,213.4,258.3z"/>
	</g>
</g>
</svg>
