<?xml version="1.0" encoding="utf-8"?>
<!-- Generator: Adobe Illustrator 26.1.0, SVG Export Plug-In . SVG Version: 6.00 Build 0)  -->
<svg version="1.1" xmlns="http://www.w3.org/2000/svg" xmlns:xlink="http://www.w3.org/1999/xlink" x="0px" y="0px"
	 viewBox="0 0 387.9 378.2" style="enable-background:new 0 0 387.9 378.2;" xml:space="preserve">
<style type="text/css">
	.st0{fill:#460136;}
	.st1{fill:#FE61F5;}
	.st2{fill:#470137;}
	.st3{display:none;}
	.st4{display:inline;fill:#1D1D1B;}
</style>
<g id="Layer_1">
	<path class="st0" d="M387.9,64.4c0,83.2,0,166.3,0,249.5c-0.3,2.1-0.2,4.2-0.4,6.2c-0.6,5.8-2.3,11.3-4.6,16.6
		c-8,18.1-21.2,30.7-39.7,37.8c-6,2.3-12.3,3.6-18.7,3.6c-0.3,0-0.6-0.1-0.9,0.2c-86.4,0-172.8,0-259.2,0c-2.1-0.3-4.2-0.2-6.2-0.4
		c-6-0.6-11.6-2.4-17-4.8c-8.7-3.7-16.3-9.1-22.7-15.9C9,347.2,3,335.6,0.6,322.2c-0.4-2.2-0.4-4.4-0.5-6.6c0-0.6,0.2-1.2-0.2-1.7
		C0,230.6,0,147.3,0,64c0.3-1.9,0.2-3.8,0.4-5.8c0.3-4.2,1.4-8.2,2.8-12.1C10.9,25,25.4,10.6,46.6,3C52,1.1,57.5,0.1,63.2,0.2
		c0.4,0,0.8,0.1,1.1-0.2c86.4,0,172.8,0,259.2,0c2.1,0.3,4.2,0.2,6.2,0.4c5.8,0.5,11.3,2.3,16.6,4.6c18.1,8,30.7,21.2,37.8,39.7
		c2.3,6,3.6,12.3,3.6,18.7C387.7,63.7,387.6,64.1,387.9,64.4z"/>
	<path class="st1" d="M330.5,166.1c0,22.2,0,44.4,0,66.6c0,7.9,0.4,15.7,0.9,23.6c0.2,2.6-0.2,3.1-2.6,4.1
		c-17.5,7.1-35.8,10.1-54.6,9.4c-13.6-0.5-26.5-3.9-37.9-11.6c-13.3-9-21.2-21.7-24.1-37.5c-2.2-12.3-2.6-24.7,1.3-36.8
		c7.7-24.2,24.3-39.3,48.7-45.9c10-2.7,20.3-3.4,30.6-2.4c1.4,0.1,1.9-0.2,1.9-1.7c-0.1-16.1,0-32.2,0-48.3c0-2.6,0.2-2.7,2.8-2.7
		c10.2,0,20.5,0,30.7,0c2.4,0,2.6,0.2,2.6,2.6C330.5,112.4,330.5,139.3,330.5,166.1z"/>
	<path class="st1" d="M129.9,203.2c-1.1,2.2-2.1,4.3-3.2,6.4c-9.8,18.5-19.5,37-29.6,55.3c-0.7,1.2-1.5,1.9-2.9,1.9
		c-4.5,0-9,0.1-13.6,0.1c-7.3,0-14.7,0-22,0c-0.7,0-1.5,0.4-1.9-0.3c-0.4-0.8,0-1.6,0.5-2.4c2.3-3.8,4.6-7.6,7-11.4
		c14-23,28-45.9,42-68.9c0.7-1.2,0.8-2,0.1-3.3c-16-26.9-31.9-53.9-47.8-80.8c-1.2-2-0.8-2.7,1.6-2.7c12,0,24,0,36,0
		c1.8,0,3.4,0.4,4.2,2.3c6.6,14.7,14.7,28.6,22.7,42.5c3.3,5.8,6.4,11.8,9.4,17.8c0.2,0.3,0.4,0.6,0.6,1c0.2-0.2,0.4-0.4,0.4-0.5
		c9.7-20.2,21-39.6,31.2-59.6c1.4-2.7,2.9-3.6,5.9-3.5c10.7,0.2,21.3,0.1,32,0.1c0.7,0,1.3,0,1.7,0.6c0.4,0.7,0,1.2-0.3,1.8
		c-15.9,26.2-31.8,52.4-47.7,78.6c-0.5,0.9-0.6,1.5,0,2.4c16.8,27.5,33.6,55,50.3,82.5c0,0,0.1,0.1,0.1,0.1c0.6,0.9,1.3,1.8,0.8,2.8
		c-0.5,0.9-1.7,0.4-2.5,0.4c-12.4,0-24.8,0-37.2,0c-2.6,0-4.2-1-5.4-3.4c-9.8-19.9-20.6-39.3-31.4-58.7
		C130.7,204,130.6,203.5,129.9,203.2z"/>
	<path class="st2" d="M294.5,202.2c0,11.3,0,22.6,0,33.9c0,1.2-0.3,1.8-1.5,1.9c-9.8,1.2-19.6,1.4-28.8-3.1
		c-7-3.4-11.4-9.1-14.1-16.3c-3.3-9-3.7-18.3-1.5-27.5c2.9-12.2,11.4-19.4,22.7-23.6c7-2.6,14.3-2.7,21.6-1.4
		c1.1,0.2,1.4,0.6,1.4,1.8C294.4,179.4,294.5,190.8,294.5,202.2z"/>
</g>
<g id="Layer_2" class="st3">
	<path class="st4" d="M387.6,63.4c0.1-6.5-1.2-12.7-3.5-18.7C377,26.2,364.4,13,346.3,5c-5.3-2.3-10.8-4-16.6-4.6
		c-2.1-0.2-4.2-0.1-6.2-0.4c-86.3,0-172.7,0-259,0c-0.5,0.3-1.1,0.2-1.6,0.2c-6.1,0-12,1.2-17.7,3.3C33,8,22.7,15.4,14.6,25.7
		C5.4,37.4,0.1,50.7,0.1,65.8c0,82.1,0,164.3,0,246.4c0,2.7,0,5.4,0.4,8c2,14.2,8.2,26.3,17.8,36.7c6.4,7,14.1,12.3,22.8,16.1
		c5.6,2.4,11.3,4.3,17.3,4.8c2,0.2,4.1,0.1,6.1,0.4c86.3,0,172.7,0,259,0c0.3-0.2,0.6-0.2,0.9-0.2c6.5,0.1,12.7-1.2,18.7-3.6
		c18.5-7.1,31.7-19.7,39.6-37.8c2.3-5.3,4-10.8,4.6-16.6c0.2-2.1,0.1-4.2,0.4-6.2c0-83.2,0-166.3,0-249.5
		C387.5,64.1,387.6,63.7,387.6,63.4z"/>
</g>
</svg>
