<?xml version="1.0" encoding="utf-8"?>
<!-- Generator: Adobe Illustrator 26.1.0, SVG Export Plug-In . SVG Version: 6.00 Build 0)  -->
<svg version="1.1" xmlns="http://www.w3.org/2000/svg" xmlns:xlink="http://www.w3.org/1999/xlink" x="0px" y="0px"
	 viewBox="0 0 378.3 378.2" style="enable-background:new 0 0 378.3 378.2;" xml:space="preserve">
<style type="text/css">
	.st0{display:none;}
	.st1{display:inline;fill:#FFCFCB;enable-background:new    ;}
	.st2{display:inline;fill:#460136;}
	.st3{display:inline;fill:#FE61F5;}
	.st4{display:inline;fill:#470137;}
	.st5{display:inline;fill:#00A0D2;}
	.st6{display:inline;fill:#FFFFFF;}
	.st7{display:inline;}
	.st8{fill:#264DE3;}
	.st9{fill:#E34D26;}
	.st10{fill:#2965F0;}
	.st11{fill:#EAEAEA;}
	.st12{fill:#F06529;}
	.st13{fill:#EAE9E9;}
	.st14{fill:#FEFEFE;}
	.st15{fill:#0E0E0F;}
	.st16{fill:#EAEBEB;}
	.st17{fill:#E2A026;}
	.st18{fill:#EFBD25;}
	.st19{fill:#E9EAEB;}
	.st20{fill:#E3A026;}
	.st21{fill:#EAEBEC;}
	.st22{fill:#001E35;}
	.st23{fill:#30A7FE;}
	.st24{fill:#001E36;}
	.st25{fill:#987F7F;}
	.st26{fill:#330000;}
	.st27{fill:#FE9900;}
	.st28{fill:#49021F;}
	.st29{fill:#C2AAB4;}
	.st30{fill:#FF3366;}
	.st31{fill:#00005B;}
	.st32{fill:#AAAAC8;}
	.st33{fill:#8F88B3;}
	.st34{fill:#9999FF;}
	.st35{fill:#00005A;}
	.st36{fill:#9898FE;}
	.st37{display:inline;fill:#FFE538;}
	.st38{fill:#FFFFFF;}
	.st39{display:inline;fill:#333333;}
	.st40{fill:#FFCFCB;enable-background:new    ;}
	.st41{fill:#FFFFFF;enable-background:new    ;}
	.st42{fill:#D0D9E6;}
	.st43{fill:#FEE438;}
	.st44{fill:#F6E037;}
	.st45{fill:#F8E137;}
	.st46{fill:#FAE237;}
	.st47{fill:#F6DF36;}
	.st48{fill:#020200;}
	.st49{fill:#040401;}
	.st50{fill:#030301;}
	.st51{fill:#FDE538;}
	.st52{fill:#292509;}
	.st53{fill:#2D2A0A;}
	.st54{fill:#1D1A06;}
	.st55{fill:#1B1906;}
	.st56{fill:#171505;}
	.st57{fill:#161405;}
	.st58{fill:#221F07;}
	.st59{fill:#1F1D07;}
	.st60{fill:#1E1B07;}
	.st61{fill:#1C1A06;}
	.st62{fill:#121104;}
	.st63{fill:#111004;}
	.st64{fill:#151305;}
	.st65{fill:#E33819;}
	.st66{fill:#E23818;}
	.st67{fill:#E23919;}
	.st68{fill:#E03A1A;}
	.st69{fill:#9A2A76;}
	.st70{fill:#E34124;}
	.st71{fill:#DA4D35;}
	.st72{fill:#E04427;}
	.st73{fill:#DD5F48;}
	.st74{fill:#E1C1D9;}
	.st75{fill:#DFC0D6;}
	.st76{fill:#F7D6C8;}
	.st77{fill:#F4C4B9;}
	.st78{fill:#E27B68;}
	.st79{fill:#EABAAB;}
	.st80{fill:#AC6391;}
	.st81{fill:#FED3C7;}
	.st82{fill:#F9C5B4;}
	.st83{fill:#DE614C;}
	.st84{fill:#904574;}
	.st85{fill:#F9CBBA;}
	.st86{fill:#CE4632;}
	.st87{fill:#FCD8D2;}
	.st88{fill:#FCBDB3;}
	.st89{fill:#F28C77;}
	.st90{fill:#FED5C5;}
	.st91{fill:#DC7868;}
	.st92{fill:#F6927C;}
	.st93{fill:#F7BCAD;}
	.st94{fill:#F8DCD2;}
	.st95{fill:#FEA893;}
	.st96{fill:#D1472E;}
	.st97{fill:#F4816A;}
	.st98{fill:#D34F42;}
	.st99{fill:#F8E7DE;}
	.st100{fill:#DA9586;}
	.st101{fill:#FEB69E;}
	.st102{fill:#9A2A75;}
	.st103{fill:#EBC8DF;}
	.st104{fill:#BA6A9D;}
	.st105{fill:#EBBFE3;}
	.st106{fill:#F3B4E2;}
	.st107{fill:#A7538A;}
	.st108{fill:#E33818;}
	.st109{fill:#E9836F;}
	.st110{fill:#DD634C;}
	.st111{fill:#E97661;}
	.st112{fill:#FEE9DA;}
	.st113{fill:#B3D600;}
	.st114{fill:#0186C7;}
	.st115{fill:#0185C7;}
	.st116{fill:#E8F59C;}
	.st117{fill:#DCEA8F;}
	.st118{fill:#FDFDFD;}
	.st119{fill:#2FD271;}
	.st120{fill:#2FD371;}
	.st121{fill:#1E1E1E;}
	.st122{fill:#1D1D1D;}
	.st123{fill:#171717;}
	.st124{fill:#FBFBFB;}
	.st125{fill:#1F1F1F;}
	.st126{fill:#FCFCFC;}
	.st127{fill:#E30613;}
	.st128{fill:#E20613;}
	.st129{fill:#E30915;}
	.st130{fill:#E2111A;}
	.st131{display:inline;fill:#FEFEFE;}
	.st132{fill:#FD0000;}
	.st133{fill:#002BD8;}
	.st134{fill:#1B319E;}
	.st135{fill:#FEFDFE;}
	.st136{fill:#FAFCFC;}
	.st137{fill:#FBFCFC;}
	.st138{fill:#FBFCFB;}
	.st139{fill:#FBFCFD;}
	.st140{fill:#FAFBFC;}
	.st141{fill:#FAFCFA;}
	.st142{fill:#FAFCFD;}
	.st143{fill:#FCFCFB;}
	.st144{fill:#062CD2;}
	.st145{fill:#072CD4;}
	.st146{fill:#0D31C8;}
	.st147{fill:#062DD3;}
	.st148{display:inline;fill:#00ACED;}
	.st149{fill:#DF0613;}
</style>
<g id="Layer_6" class="st0">
	<path class="st1" d="M-25,63.4c0.1-6.5-1.2-12.7-3.5-18.7C-35.6,26.2-48.2,13-66.3,5c-5.3-2.3-10.8-4-16.6-4.6
		C-84.9,0.2-87,0.3-89.1,0c-86.3,0-172.7,0-259,0c-0.5,0.3-1.1,0.2-1.6,0.2c-6.1,0-12,1.2-17.7,3.3C-379.6,8-390,15.4-398.1,25.7
		c-9.2,11.7-14.5,25-14.5,40.1c0,82.1,0,164.3,0,246.4c0,2.7,0,5.4,0.4,8c2,14.2,8.2,26.3,17.8,36.7c6.4,7,14.1,12.3,22.8,16.1
		c5.6,2.4,11.3,4.3,17.3,4.8c2,0.2,4.1,0.1,6.1,0.4c86.3,0,172.7,0,259,0c0.3-0.2,0.6-0.2,0.9-0.2c6.5,0.1,12.7-1.2,18.7-3.6
		c18.5-7.1,31.7-19.7,39.6-37.8c2.3-5.3,4-10.8,4.6-16.6c0.2-2.1,0.1-4.2,0.4-6.2c0-83.2,0-166.3,0-249.5
		C-25.1,64.1-25,63.7-25,63.4z"/>
</g>
<g id="xd" class="st0">
	<path class="st2" d="M-24.8,64.4c0,83.2,0,166.3,0,249.5c-0.3,2.1-0.2,4.2-0.4,6.2c-0.6,5.8-2.3,11.3-4.6,16.6
		c-8,18.1-21.2,30.7-39.7,37.8c-6,2.3-12.3,3.6-18.7,3.6c-0.3,0-0.6-0.1-0.9,0.2c-86.4,0-172.8,0-259.2,0c-2.1-0.3-4.2-0.2-6.2-0.4
		c-6-0.6-11.6-2.4-17-4.8c-8.7-3.7-16.3-9.1-22.7-15.9c-9.3-9.9-15.3-21.5-17.7-34.9c-0.4-2.2-0.4-4.4-0.5-6.6
		c0-0.6,0.2-1.2-0.2-1.7c0-83.3,0-166.6,0-249.8c0.3-1.9,0.2-3.8,0.4-5.8c0.3-4.2,1.4-8.2,2.8-12.1C-401.7,25-387.2,10.6-366,3
		c5.3-1.9,10.9-2.9,16.6-2.8c0.4,0,0.8,0.1,1.1-0.2c86.4,0,172.8,0,259.2,0c2.1,0.3,4.2,0.2,6.2,0.4C-77,1-71.6,2.7-66.3,5
		c18.1,8,30.7,21.2,37.8,39.7c2.3,6,3.6,12.3,3.6,18.7C-24.9,63.7-25,64.1-24.8,64.4z"/>
	<path class="st3" d="M-82.1,166.1c0,22.2,0,44.4,0,66.6c0,7.9,0.4,15.7,0.9,23.6c0.2,2.6-0.2,3.1-2.6,4.1
		c-17.5,7.1-35.8,10.1-54.6,9.4c-13.6-0.5-26.5-3.9-37.9-11.6c-13.3-9-21.2-21.7-24.1-37.5c-2.2-12.3-2.6-24.7,1.3-36.8
		c7.7-24.2,24.3-39.3,48.7-45.9c10-2.7,20.3-3.4,30.6-2.4c1.4,0.1,1.9-0.2,1.9-1.7c-0.1-16.1,0-32.2,0-48.3c0-2.6,0.2-2.7,2.8-2.7
		c10.2,0,20.5,0,30.7,0c2.4,0,2.6,0.2,2.6,2.6C-82.1,112.4-82.1,139.3-82.1,166.1z"/>
	<path class="st3" d="M-282.7,203.2c-1.1,2.2-2.1,4.3-3.2,6.4c-9.8,18.5-19.5,37-29.6,55.3c-0.7,1.2-1.5,1.9-2.9,1.9
		c-4.5,0-9,0.1-13.6,0.1c-7.3,0-14.7,0-22,0c-0.7,0-1.5,0.4-1.9-0.3c-0.4-0.8,0-1.6,0.5-2.4c2.3-3.8,4.6-7.6,7-11.4
		c14-23,28-45.9,42-68.9c0.7-1.2,0.8-2,0.1-3.3c-16-26.9-31.9-53.9-47.8-80.8c-1.2-2-0.8-2.7,1.6-2.7c12,0,24,0,36,0
		c1.8,0,3.4,0.4,4.2,2.3c6.6,14.7,14.7,28.6,22.7,42.5c3.3,5.8,6.4,11.8,9.4,17.8c0.2,0.3,0.4,0.6,0.6,1c0.2-0.2,0.4-0.4,0.4-0.5
		c9.7-20.2,21-39.6,31.2-59.6c1.4-2.7,2.9-3.6,5.9-3.5c10.7,0.2,21.3,0.1,32,0.1c0.7,0,1.3,0,1.7,0.6c0.4,0.7,0,1.2-0.3,1.8
		c-15.9,26.2-31.8,52.4-47.7,78.6c-0.5,0.9-0.6,1.5,0,2.4c16.8,27.5,33.6,55,50.3,82.5c0,0,0.1,0.1,0.1,0.1c0.6,0.9,1.3,1.8,0.8,2.8
		c-0.5,0.9-1.7,0.4-2.5,0.4c-12.4,0-24.8,0-37.2,0c-2.6,0-4.2-1-5.4-3.4c-9.8-19.9-20.6-39.3-31.4-58.7
		C-281.9,204-282,203.5-282.7,203.2z"/>
	<path class="st4" d="M-118.2,202.2c0,11.3,0,22.6,0,33.9c0,1.2-0.3,1.8-1.5,1.9c-9.8,1.2-19.6,1.4-28.8-3.1
		c-7-3.4-11.4-9.1-14.1-16.3c-3.3-9-3.7-18.3-1.5-27.5c2.9-12.2,11.4-19.4,22.7-23.6c7-2.6,14.3-2.7,21.6-1.4
		c1.1,0.2,1.4,0.6,1.4,1.8C-118.2,179.4-118.2,190.8-118.2,202.2z"/>
</g>
<g id="wp" class="st0">
	<path class="st5" d="M-25,63.4c0.1-6.5-1.2-12.7-3.5-18.7C-35.6,26.2-48.2,13-66.3,5c-5.3-2.3-10.8-4-16.6-4.6
		C-84.9,0.2-87,0.3-89.1,0c-86.3,0-172.7,0-259,0c-0.5,0.3-1.1,0.2-1.6,0.2c-6.1,0-12,1.2-17.7,3.3C-379.6,8-390,15.4-398.1,25.7
		c-9.2,11.7-14.5,25-14.5,40.1c0,82.1,0,164.3,0,246.4c0,2.7,0,5.4,0.4,8c2,14.2,8.2,26.3,17.8,36.7c6.4,7,14.1,12.3,22.8,16.1
		c5.6,2.4,11.3,4.3,17.3,4.8c2,0.2,4.1,0.1,6.1,0.4c86.3,0,172.7,0,259,0c0.3-0.2,0.6-0.2,0.9-0.2c6.5,0.1,12.7-1.2,18.7-3.6
		c18.5-7.1,31.7-19.7,39.6-37.8c2.3-5.3,4-10.8,4.6-16.6c0.2-2.1,0.1-4.2,0.4-6.2c0-83.2,0-166.3,0-249.5
		C-25.1,64.1-25,63.7-25,63.4z"/>
	<path class="st5" d="M-25,63.4c0.1-6.5-1.2-12.7-3.5-18.7C-35.6,26.2-48.2,13-66.3,5c-5.3-2.3-10.8-4-16.6-4.6
		C-84.9,0.2-87,0.3-89.1,0c-86.3,0-172.7,0-259,0c-0.5,0.3-1.1,0.2-1.6,0.2c-6.1,0-12,1.2-17.7,3.3C-379.6,8-390,15.4-398.1,25.7
		c-9.2,11.7-14.5,25-14.5,40.1c0,82.1,0,164.3,0,246.4c0,2.7,0,5.4,0.4,8c2,14.2,8.2,26.3,17.8,36.7c6.4,7,14.1,12.3,22.8,16.1
		c5.6,2.4,11.3,4.3,17.3,4.8c2,0.2,4.1,0.1,6.1,0.4c86.3,0,172.7,0,259,0c0.3-0.2,0.6-0.2,0.9-0.2c6.5,0.1,12.7-1.2,18.7-3.6
		c18.5-7.1,31.7-19.7,39.6-37.8c2.3-5.3,4-10.8,4.6-16.6c0.2-2.1,0.1-4.2,0.4-6.2c0-83.2,0-166.3,0-249.5
		C-25.1,64.1-25,63.7-25,63.4z"/>
	<path class="st6" d="M-218.3,78.4c-61.3-0.1-111.1,49.3-111.2,110.4c-0.1,61.2,49.5,111,110.6,111c61.2,0,110.9-49.6,110.9-110.7
		C-107.9,128.2-157.4,78.5-218.3,78.4z M-310.1,149.9c2.4,3.1,43.6,114.5,47.2,127.9C-305.3,258.5-332.9,202.6-310.1,149.9z
		 M-189.4,284.3c-17.7,5.2-35.5,5.8-53.5,1.3c-2.5-0.6-4-1-2.8-4.3c9.5-27.1,18.8-54.2,28.1-81.3c0.1-0.3,0.4-0.5,1-1.1
		c3.1,8.5,6.1,16.8,9.1,25c6.7,18.5,13.4,37,20.3,55.4C-186,282.2-186.2,283.4-189.4,284.3z M-169.4,247.9
		c-5.8-17.3-11.6-34.5-17.3-51.6c-5.5-16.4-10.9-32.8-16.6-49.2c-1.2-3.4-1.2-5.1,3-5c2,0.1,4-0.4,6-0.6c2.7-0.3,4.6-1.6,4.3-4.6
		c-0.2-2.8-2.2-3.6-4.7-3.5c-3.5,0.1-7,0.2-10.5,0.5c-13.1,1.3-26.2,0.2-39.3-0.4c-3-0.1-6.4-0.6-6.7,3.6c-0.3,4.2,3,4.6,6.1,4.5
		c6-0.2,9,2.3,10.8,8.2c3.2,10.5,7.4,20.8,11.2,31.2c0.7,1.9,1.6,3.7,0.9,5.8c-6.9,20.6-13.8,41.1-21.2,63.3
		c-12.3-36.6-24.1-71.8-36.1-107.5c3.5-0.4,6.8-0.8,10-1.1c3-0.2,5.1-1.5,4.9-4.7c-0.3-3-2.6-3.6-5.3-3.5
		c-9.6,0.4-19.2,0.8-28.8,1.1c-0.7,0-1.4-0.1-2.2-0.2c27.4-46.7,100.8-62.8,148.6-19c-10.1,1.2-15.8,6.7-17,16.5
		c-0.7,5.1,1.1,9.8,3.5,14.3c2.6,4.8,5.6,9.5,8.2,14.4c6.1,11.3,8,23.3,4.4,35.8c-4.9,17-10,33.9-15,50.8
		C-168.3,247.3-168.8,247.5-169.4,247.9z M-168.4,274.6c3.3-9.6,6.4-18.5,9.5-27.5c7.4-21.4,14.7-42.8,22.3-64.1
		c4.5-12.7,6.9-25.6,5.3-40.5C-106.5,185.8-120.7,247.5-168.4,274.6z"/>
</g>
<g id="html_css" class="st0">
	<g class="st7">
		<path class="st8" d="M-352.6,136.6c0.4,0,0.8,0,1.2,0c40.1,0,80.1,0,120.2,0c1.5,0,1.4,0,1.3,1.5c-0.8,9.1-1.6,18.2-2.4,27.3
			c-0.9,9.5-1.7,19.1-2.6,28.6c-0.8,8.7-1.5,17.5-2.3,26.2c-0.7,7.9-1.4,15.8-2.2,23.8c-0.5,5.4-1,10.9-1.4,16.3
			c-0.1,1.1-0.4,1.8-1.7,2.1c-15.9,4.3-31.8,8.8-47.7,13.2c-0.7,0.2-1.4,0.2-2.2,0c-16-4.5-32-8.9-48-13.3c-0.7-0.2-1.1-0.4-1.1-1.3
			c-0.7-8.2-1.4-16.4-2.2-24.6c-0.7-7.9-1.4-15.8-2.2-23.8c-0.7-7.9-1.4-15.8-2.1-23.8c-0.7-7.9-1.4-15.8-2.1-23.8
			c-0.6-7.1-1.2-14.1-1.9-21.2c-0.2-2-0.2-4.1-0.6-6.1C-352.6,137.4-352.6,137-352.6,136.6z"/>
		<path d="M-118.5,102.5c0,0.4-0.1,0.8-0.1,1.2c0,6.9,0,13.9,0,20.8c0,1.2-0.3,1.4-1.4,1.4c-1.8-0.1-3.6-0.1-5.4,0
			c-0.8,0-1.1-0.2-1.1-1c0.1-3.2,0-6.5,0-9.7c0-0.2,0-0.3,0-0.5c-0.1,0-0.1,0-0.2-0.1c-1.7,2.7-3.4,5.3-5.2,8.1
			c-1.8-2.7-3.5-5.4-5.2-8.1c-0.4,0.2-0.2,0.5-0.2,0.8c0,3.2,0,6.4,0,9.6c0,0.7-0.2,1-0.9,0.9c-2-0.1-3.9,0-5.9,0
			c-0.6,0-0.8-0.1-0.8-0.8c0-7.5,0-14.9,0-22.4c0-0.1,0-0.1,0.1-0.2c2.7,0,5.4,0,8,0c0.5,0.2,0.8,0.7,1.1,1.1c1.3,2.2,2.6,4.3,4,6.5
			c1.2-2,2.4-3.9,3.6-5.8c0.4-0.7,0.7-1.4,1.4-1.8C-124,102.5-121.2,102.5-118.5,102.5z"/>
		<path d="M-173.4,102.5c0,0.6,0.1,1.1,0.1,1.7c0,6.9,0,13.8,0,20.6c0,0.8-0.2,1.2-1.1,1.1c-1.9-0.1-3.8-0.1-5.7,0
			c-0.9,0-1.1-0.3-1.1-1.1c0.1-2,0-3.9,0-5.9c0-0.6-0.1-0.8-0.8-0.8c-1.9,0-3.7,0-5.6,0c-0.6,0-0.8,0.2-0.8,0.8c0,2,0,4,0,6
			c0,0.7-0.1,1-1,1c-2-0.1-3.9-0.1-5.9,0c-0.8,0-1-0.2-1-1c0-7.2,0-14.5,0-21.7c0-0.2,0-0.4-0.1-0.7c2.6,0,5.2,0,7.8,0
			c0.4,0.4,0.3,1,0.3,1.5c0,1.6,0,3.2,0,4.8c0,0.8,0.3,1.2,1.2,1.2c1.4,0,2.7,0,4.1,0c0.9,0,1.2-0.4,1.1-1.2c0-1.6,0-3.2,0-4.8
			c0-0.5,0-1,0.3-1.5C-178.6,102.5-176,102.5-173.4,102.5z"/>
		<path d="M-282.8,102.5c0,2,0,3.9,0,5.9c0,0.7-0.2,0.9-0.9,0.9c-3,0-6,0-9,0c-0.5,0-1-0.1-1,0.7c0,0.8,0.4,0.7,0.9,0.7c3,0,6,0,9,0
			c0.7,0,0.9,0.1,0.9,0.8c0,4.6,0,9.3,0,13.9c0,0.6-0.1,0.8-0.8,0.8c-5.7,0-11.4,0-17.1,0c-0.7,0-0.8-0.2-0.8-0.8c0-1.8,0-3.6,0-5.5
			c0-0.7,0.2-0.9,0.9-0.9c3,0,6,0,9,0c0.5,0,0.9,0.1,0.9-0.7c0-0.8-0.5-0.7-0.9-0.7c-3,0-6,0-9,0c-0.4,0-0.9,0.1-0.9-0.6
			c0-4.9,0.1-9.7,0.1-14.6C-295.1,102.5-288.9,102.5-282.8,102.5z"/>
		<path d="M-260.4,102.5c0,2,0,3.9,0,5.9c0,0.7-0.2,0.9-0.9,0.9c-3,0-6,0-9,0c-0.5,0-0.9-0.1-0.9,0.7c0,0.8,0.5,0.7,0.9,0.7
			c3,0,6,0,8.9,0c0.8,0,1,0.2,1,1c0,4.5,0,9.1,0,13.6c0,0.7-0.1,1-0.9,1c-5.6,0-11.2,0-16.7,0c-0.7,0-1-0.1-0.9-0.9
			c0.1-1.7,0.1-3.5,0-5.2c0-0.9,0.3-1,1.1-1c2.9,0,5.9,0,8.8,0c0.5,0,1,0.2,1-0.7c0-0.8-0.4-0.7-0.9-0.7c-3,0-6,0-9,0
			c-0.5,0-0.9,0-0.9-0.7c0-4.8,0-9.7,0.1-14.5C-272.8,102.5-266.6,102.5-260.4,102.5z"/>
		<path d="M-305.1,102.5c0,2.3,0,4.6,0,6.9c0,0.7-0.2,0.9-0.9,0.9c-3,0-6,0-9,0c-0.7,0-1,0.2-0.9,0.9c0.1,2,0.1,3.9,0,5.9
			c0,0.9,0.3,1,1.1,1c2.9,0,5.9,0,8.8,0c0.7,0,1,0.1,1,0.9c-0.1,2,0,4.1,0,6.1c0,0.6-0.2,0.8-0.7,0.8c-5.7,0-11.4,0-17.2,0
			c-0.5,0-0.7-0.1-0.7-0.7c0-7.5,0-15,0-22.5c0-0.1,0.1-0.1,0.1-0.2C-317.4,102.5-311.2,102.5-305.1,102.5z"/>
		<path d="M-148.4,102.5c0,2.3,0,4.7,0.1,7c0,0.7-0.3,0.8-0.9,0.8c-1.7,0-3.4,0-5.1,0c-0.8,0-0.9,0.2-0.9,0.9c0,4.5,0,9.1,0,13.6
			c0,0.8-0.2,1.2-1.1,1.1c-1.9-0.1-3.9-0.1-5.8,0c-0.8,0-1-0.3-1-1c0-4.5,0-9.1,0-13.6c0-0.8-0.1-1.1-1-1.1c-1.7,0.1-3.4,0-5.1,0
			c-0.5,0-0.8-0.1-0.7-0.7c0-2.4,0.1-4.7,0.1-7.1C-162.7,102.5-155.5,102.5-148.4,102.5z"/>
		<path d="M-106.9,102.5c0,4.8,0,9.7,0,14.5c0,1,0.3,1.2,1.2,1.2c3-0.1,5.9,0,8.9,0c0.7,0,0.9,0.2,0.9,0.9c0,2,0,4.1,0,6.1
			c0,0.6-0.2,0.8-0.8,0.8c-5.7,0-11.4,0-17.2,0c-0.9,0-0.8-0.4-0.8-1c0-7.5,0-14.9,0-22.4C-112.1,102.5-109.5,102.5-106.9,102.5z"/>
		<path class="st9" d="M-146.1,136.6c20,0,40,0,60,0c1.1,0,1.4,0.3,1.3,1.4c-0.5,5.3-1,10.7-1.4,16c-0.5,5.4-1,10.8-1.5,16.2
			c-0.6,6.4-1.1,12.7-1.7,19.1c-0.5,6.1-1.1,12.3-1.6,18.4c-0.6,6.4-1.1,12.7-1.7,19.1c-0.6,6.2-1.1,12.4-1.6,18.7
			c-0.5,5.2-0.9,10.4-1.4,15.7c-0.1,0.7-0.4,1-1.1,1.2c-8.9,2.5-17.8,4.9-26.7,7.4c-7.1,2-14.2,3.9-21.2,5.9c-1,0.3-1.9,0.2-2.9,0
			c-15.8-4.4-31.7-8.8-47.5-13.2c-0.9-0.2-1.2-0.6-1.3-1.5c-0.9-10.4-1.9-20.9-2.8-31.3c-0.9-10.4-1.8-20.9-2.8-31.3
			c-1-11.7-2.1-23.4-3.1-35.1c-0.8-8.5-1.5-17.1-2.3-25.6c-0.1-0.9,0.3-0.8,0.9-0.8c3.6,0,7.3,0,10.9,0
			C-179.1,136.6-162.6,136.6-146.1,136.6z"/>
		<path class="st10" d="M-329.7,163.4c-0.4-1.2-0.3-1.3,1-1.3c12,0,24,0,36,0c1.4,0,1.4,0,1.4-1.5c0-4.2,0-8.4,0-12.6
			c0-0.9,0.3-1.1,1.1-1.1c16,0,32,0,48,0c1.2,0,1.2,0.1,1.1,1.3c-0.3,2.1-0.4,4.3-0.6,6.4c-0.3,2.9-0.6,5.9-0.8,8.8
			c-0.2,2-0.3,4-0.5,6c-0.3,3.1-0.6,6.2-0.9,9.3c-0.2,1.9-0.3,3.8-0.5,5.6c-0.3,3.1-0.6,6.2-0.9,9.4c-0.2,2-0.3,4-0.5,6
			c-0.3,3-0.6,5.9-0.9,8.9c-0.2,1.9-0.3,3.8-0.5,5.6c-0.3,3.1-0.6,6.2-0.9,9.4c-0.2,2-0.3,4.1-0.5,6.1c-0.3,3-0.6,6-0.8,9
			c-0.2,1.9-0.3,3.8-0.5,5.7c-0.2,2.9-0.4,5.7-0.7,8.6c-0.1,0.7-0.4,1.1-1.1,1.3c-8.7,2.4-17.4,4.8-26.1,7.2
			c-4.1,1.1-8.2,2.3-12.3,3.4c-1.3,0.4-1.3,0.3-1.3-1c0-4.9,0-9.7,0-14.6c0.1-0.2,0.2-0.4,0.4-0.5c4.7-1.5,9.5-2.7,14.3-4
			c5-1.4,10-2.8,15-4.2c1.4-0.4,1.5-0.6,1.6-2.1c0.3-4.6,0.8-9.2,1.2-13.9c0.3-3.8,0.7-7.5,1-11.3c0.4-4.7,0.8-9.4,1.3-14.1
			c0.4-4.5,0.8-9,1.2-13.4c0.4-4.7,0.8-9.3,1.3-14c0.2-2.6,0.4-5.2,0.7-7.8c0.1-1.3,0-1.5-1.4-1.5c-9.8,0-19.6,0-29.5,0
			c-2.4,0-4.8,0-7.3,0c-3.3,0.1-6.7,0-10,0c-8.7,0-17.4,0-26.1,0C-328.3,162.6-329.1,162.7-329.7,163.4z"/>
		<path class="st11" d="M-291,249.1c-0.1,0.1-0.2,0.1-0.3,0.2c-6.1-1.7-12.1-3.4-18.2-5.1c-4.1-1.1-8.2-2.3-12.3-3.4
			c-0.8-0.2-1-0.6-1.1-1.4c-0.6-7.4-1.3-14.9-2-22.3c-0.1-0.6,0.1-0.8,0.7-0.8c4.6,0,9.3,0,13.9,0c0.9,0,0.8,0.6,0.9,1.1
			c0.3,2.8,0.5,5.6,0.7,8.4c0.2,2.7,0.2,2.7,2.8,3.4c4.9,1.3,9.7,2.6,14.6,3.9c0,0.1,0.1,0.1,0.1,0.2c0.2,0.4,0.2,0.9,0.2,1.3
			c0,4.5,0,9,0,13.6C-290.9,248.5-290.9,248.8-291,249.1z"/>
		<path class="st11" d="M-329.7,163.4c0-0.7-0.1-1.2,1-1.2c12.3,0,24.6,0,36.9,0c0.2,0,0.4,0,0.6,0c0.4,0.4,0.4,1,0.4,1.5
			c0,4.1,0,8.2,0,12.3c0,0.5,0,1-0.3,1.4c-0.3,0.2-0.7,0.1-1,0.1c-11.7,0-23.4,0-35.1,0c-0.5,0-1.1,0.2-1.2-0.6
			C-328.9,172.5-329.3,167.9-329.7,163.4z"/>
		<path class="st11" d="M-291.2,208.7c-3.8,0-7.6,0-11.4,0c-7.3,0-14.6,0-22,0c-0.8,0-1.1-0.2-1.1-1c-0.4-4.5-0.8-9-1.2-13.5
			c-0.1-0.9,0.4-0.9,1-0.9c11.1,0,22.2,0,33.3,0c0.4,0,0.9,0,1.3,0c0,0.1,0.1,0.1,0.1,0.2c0.2,0.4,0.2,0.9,0.2,1.3
			c0,4.2,0,8.4,0,12.5c0,0.4,0,0.9-0.2,1.3C-291.1,208.6-291.2,208.7-291.2,208.7z"/>
		<path class="st10" d="M-291.2,233.2c0-8.2,0-16.3,0-24.5c0,0,0-0.1,0-0.1c0.5-0.3,1-0.3,1.5-0.3c5.3,0,10.6,0,15.9,0
			c1.7,0,1.8,0.1,1.7,1.8c-0.5,5.8-1,11.6-1.5,17.4c-0.1,1-0.6,1.5-1.5,1.8c-4.9,1.3-9.8,2.6-14.6,3.9
			C-290.3,233.3-290.8,233.5-291.2,233.2L-291.2,233.2z"/>
		<path class="st10" d="M-328.5,177c0.2,0.7,0.8,0.6,1.3,0.6c8.9,0,17.8,0,26.7,0c3.1,0,6.2,0,9.2,0c0.4-0.4,1-0.4,1.5-0.4
			c6.2,0,12.5,0,18.7,0c1.6,0,1.8,0.3,1.7,1.9c-0.4,4.3-0.7,8.7-1.2,13c-0.2,1.4-0.3,1.6-1.8,1.6c-5.8,0-11.7,0-17.5,0
			c-0.5,0-1,0-1.4-0.3c0,0,0-0.1,0-0.1c0-4.8,0-9.6,0-14.4c0-1-0.3-1.2-1.3-1.2c-11.6,0-23.3,0-34.9,0
			C-327.8,177.7-328.6,178-328.5,177z"/>
		<path class="st12" d="M-184.6,163c-0.4-0.6-0.2-0.9,0.5-0.9c0.3,0,0.5,0,0.8,0c11.9,0,23.9,0,35.8,0c1.1,0,1.4-0.3,1.3-1.4
			c-0.1-4.2,0-8.5,0-12.7c0-0.9,0.3-1.1,1.1-1.1c16,0,32,0,48,0c1,0,1.2,0.4,1.1,1.2c-0.5,4.2-0.8,8.4-1.1,12.6
			c-0.3,3.3-0.6,6.6-0.9,9.9c-0.4,4.5-0.9,9-1.3,13.5c-0.3,2.9-0.4,5.9-0.7,8.8c-0.3,2.8-0.6,5.6-0.9,8.5c-0.2,2.1-0.3,4.2-0.5,6.3
			c-0.3,2.9-0.6,5.9-0.9,8.8c-0.2,1.9-0.3,3.9-0.5,5.9c-0.3,3-0.6,6-0.8,9c-0.2,1.9-0.3,3.8-0.5,5.7c-0.3,3.1-0.6,6.2-0.9,9.3
			c-0.2,2.1-0.4,4.1-0.5,6.2c0,0.9-0.3,1.4-1.3,1.6c-9.2,2.5-18.4,5.1-27.6,7.7c-3.6,1-7.1,2-10.7,3c-1.3,0.4-1.3,0.3-1.3-1
			c0-4.9,0-9.7,0-14.6c0.1-0.2,0.2-0.4,0.4-0.5c4.9-1.5,9.8-2.7,14.7-4.1c4.8-1.3,9.7-2.7,14.5-4c1.6-0.4,1.6-0.6,1.8-2.2
			c0.4-4.6,0.8-9.2,1.2-13.9c0.4-4.5,0.8-9.1,1.2-13.6c0.4-4.5,0.8-9.1,1.2-13.6c0.1-0.9,0.1-1.9,0.2-2.8c0.1-0.6-0.2-0.9-0.8-0.9
			c-0.4,0-0.8,0-1.2,0c-10.4,0-20.9,0-31.3,0c-0.6,0-1.3,0.1-1.9-0.2c-0.1-0.1-0.2-0.2-0.3-0.3c-0.2-0.6-0.2-1.2-0.2-1.8
			c0-3.9,0-7.9,0-11.8c0-1.4-0.1-1.5-1.5-1.5c-6,0-12,0-17.9,0c-0.6,0-1.3,0.1-1.8-0.3c0.1-0.7,0.8-0.6,1.2-0.6c1.7-0.1,3.5,0,5.2,0
			c5,0,10.1,0,15.1,0c7.1-0.1,14.1,0,21.2,0c4.7,0,9.4,0,14.1,0c1.6,0,1.6,0,1.7-1.6c0.4-3.7,0.7-7.5,1-11.2c0.2-1.5,0-1.7-1.5-1.7
			c-11.7,0-23.4,0-35.2,0c-0.4,0-0.9,0-1.3,0c-3.3,0.1-6.7,0-10,0c-8.7,0-17.4,0-26.1,0C-183.1,162.7-183.8,162.7-184.6,163z"/>
		<path class="st13" d="M-184.6,163c0-0.5,0.1-0.8,0.7-0.7c0.1,0,0.2,0,0.3,0c12.3,0,24.6,0,36.9,0c0.2,0,0.4,0,0.6,0
			c0.4,0.4,0.4,1,0.4,1.5c0,4.1,0,8.2,0,12.3c0,0.5,0,1-0.4,1.5c-6.8,0-13.6,0-20.4,0.1c-0.4,0-0.8-0.2-1.2,0.1
			c0.7,1.7,0.5,3.4,0.7,5.2c0.3,2.8,0.5,5.7,0.8,8.5c0.1,1.5,0.2,1.6,1.8,1.6c5.5,0,11.1,0,16.6,0c0.6,0,1.2-0.1,1.7,0.3l0,0.1
			c0.4,0.3,0.4,0.8,0.4,1.2c0,4.3,0,8.6,0,12.9c0,0.4,0,0.7-0.2,1.1c0,0.1-0.1,0.1-0.1,0.2c-2,0-4,0-6,0c-9.1,0-18.1,0-27.2,0
			c-0.8,0-1.1-0.1-1.2-1c-0.7-8.3-1.5-16.6-2.2-25C-183.4,176.1-184,169.5-184.6,163z"/>
		<path class="st11" d="M-145.9,249.1c-0.1,0.1-0.2,0.1-0.3,0.2c-5.2-1.5-10.5-3-15.7-4.4c-5-1.4-9.9-2.8-14.9-4.1
			c-0.6-0.2-0.9-0.5-0.9-1.1c-0.4-4.6-0.8-9.2-1.2-13.7c-0.3-2.9-0.5-5.8-0.8-8.6c-0.1-0.7,0-0.9,0.8-0.9c4.6,0,9.1,0,13.7,0
			c0.8,0,0.9,0.3,1,1c0.3,3.5,0.6,7,0.9,10.5c0,0.5,0.1,0.8,0.7,1c5.2,1.4,10.5,2.8,15.7,4.2c0.1,0,0.2,0,0.3,0
			c0.2,0.1,0.6,0.1,0.7,0.4c0.2,0.4,0.2,0.8,0.2,1.2c0,4.5,0,9.1,0,13.6C-145.8,248.5-145.8,248.8-145.9,249.1z"/>
		<path class="st12" d="M-146.1,233.3c-0.2-0.1-0.3-0.2-0.5-0.2c0.8-0.2,0.5-0.8,0.5-1.3c0-7.7,0-15.4,0-23c0,0,0-0.1,0-0.1
			c0.5-0.3,1-0.3,1.5-0.3c5.3,0,10.6,0,15.9,0c1.7,0,1.8,0.1,1.7,1.9c-0.4,5.5-1,10.9-1.4,16.4c-0.2,2.1-0.3,2.3-2.4,2.8
			c-4.3,1.2-8.7,2.4-13,3.5C-144.6,233.2-145.3,233.6-146.1,233.3z"/>
		<path class="st14" d="M-291.2,193.3c6.4,0,12.7,0,19.1,0c0.9,0,1.2-0.2,1.3-1.2c0.3-4.5,0.8-9,1.2-13.5c0.1-0.8-0.1-1.1-1-1.1
			c-6.5,0-12.9,0-19.4,0c-0.4,0-0.8,0-1.2-0.1c0-5.1,0-10.1,0-15.2c0.3,0,0.6-0.1,0.9-0.1c12.1,0,24.2,0,36.4,0c1,0,1.3,0.3,1.2,1.2
			c-0.5,5.5-1,10.9-1.5,16.4c-0.5,5.3-0.9,10.7-1.4,16c-0.6,6.3-1.1,12.6-1.7,18.9c-0.5,5.4-1,10.8-1.4,16.2
			c-0.3,2.9-0.5,5.8-0.8,8.8c0,0.6-0.2,0.9-0.8,1.1c-10,2.7-20,5.5-29.9,8.3c-0.2,0-0.4,0.1-0.6,0.1c-0.4-0.3-0.3-0.8-0.3-1.2
			c0-4.9,0-9.7,0-14.6c5.3-1.4,10.7-2.9,16-4.3c0.8-0.2,1.2-0.5,1.2-1.5c0.5-6,1-11.9,1.6-17.9c0.1-0.8-0.1-1-0.9-1
			c-5.6,0-11.2,0-16.7,0c-0.4,0-0.8,0-1.2,0C-291.2,203.5-291.2,198.4-291.2,193.3z"/>
		<path class="st14" d="M-146.1,233.3c5.3-1.4,10.6-2.9,15.9-4.3c0.9-0.2,1.3-0.5,1.4-1.6c0.5-6,1.1-12,1.6-18.1
			c0.1-0.8-0.4-0.7-0.9-0.7c-5.6,0-11.3,0-16.9,0c-0.4,0-0.7,0-1.1,0c0-5.1,0-10.2,0-15.3c3.4,0,6.8,0,10.3,0c8.1,0,16.2,0,24.3,0
			c1.1,0,1.2,0.3,1.1,1.3c-0.9,9.5-1.8,19-2.6,28.5c-0.5,5.4-1,10.8-1.4,16.2c-0.1,1-0.4,1.4-1.4,1.6c-9.7,2.6-19.4,5.3-29.1,8
			c-0.3,0.1-0.6,0.1-1,0.2c-0.4-0.3-0.3-0.7-0.3-1.1C-146.2,243.1-146.1,238.2-146.1,233.3z"/>
		<path class="st14" d="M-146.2,177.5c0-5.1,0-10.1,0-15.2c0.3,0,0.7-0.1,1-0.1c12.1,0,24.2,0,36.4,0c0.9,0,1.2,0.2,1.1,1.2
			c-0.4,4.5-0.8,8.9-1.2,13.4c-0.1,1-0.7,0.8-1.3,0.8c-10.6,0-21.1,0-31.7,0C-143.3,177.5-144.7,177.5-146.2,177.5z"/>
	</g>
</g>
<g id="js" class="st0">
	<g class="st7">
		<path class="st15" d="M-190.1,81.3c0,2.5,0,5,0,7.4c0,0.5-0.2,0.6-0.6,0.6c-3.8,0.1-7.6,0.2-11.5,0.3c-0.3,0-0.6,0-0.9,0
			c0,0.3,0.3,0.5,0.4,0.6c4.2,4.5,8.4,9.1,12.6,13.6c0.3,0.3,0.4,0.6,0.4,1c0,2,0,3.9,0,5.9c0,0.5-0.1,0.6-0.6,0.6
			c-9.1,0-18.1,0-27.2,0c-0.5,0-0.6-0.2-0.6-0.6c0-2.3,0-4.6,0-6.8c0-0.6,0.2-0.6,0.7-0.6c3.2,0,6.5,0,9.7,0c1,0,1.9-0.1,3.1-0.2
			c-0.9-1-1.6-1.9-2.3-2.7c-3.6-3.9-7.1-7.8-10.7-11.7c-0.3-0.4-0.5-0.7-0.5-1.2c0-1.8,0-3.7,0-5.5c0-0.2,0-0.4,0.1-0.7
			C-208.6,81.3-199.4,81.3-190.1,81.3z"/>
		<path class="st15" d="M-222.7,81.3c0,0.2,0,0.4,0,0.6c0,9.5,0,19.1,0,28.6c0,0.6-0.1,0.7-0.7,0.7c-7.7,0-15.5,0-23.2,0
			c-0.6,0-0.7-0.1-0.7-0.7c0-3,0-5.9,0-8.9c0-0.5,0.2-0.6,0.7-0.6c4.4,0,8.7,0,13.1,0c0.6,0,0.7-0.2,0.7-0.7c0-6.1,0-12.2,0-18.4
			c0-0.2,0-0.5,0-0.7C-229.5,81.3-226.1,81.3-222.7,81.3z"/>
		<path class="st16" d="M-298.1,125.9c0.2-0.1,0.3-0.2,0.5-0.1c0.2,0.2,0.2,0.4,0.2,0.6c0.2,4.1,0.6,8.2,1,12.3
			c0.3,3.8,0.7,7.6,1,11.4c0.3,3.8,0.7,7.6,1,11.4c0.3,3.7,0.7,7.5,1,11.2c0.3,3.7,0.6,7.4,1,11.2c0.2,2.7,0.5,5.5,0.7,8.2
			c0.3,3.2,0.6,6.5,0.9,9.7c0.3,3.2,0.6,6.4,0.9,9.6c0.3,3.3,0.6,6.5,0.9,9.8c0.3,3.2,0.6,6.4,0.9,9.6c0.3,3.2,0.6,6.4,0.9,9.6
			c0.3,3.2,0.6,6.4,0.9,9.6c0.2,2.7,0.5,5.4,0.7,8.1c0.2,2.7,0.5,5.5,0.7,8.2c0.2,2.7,0.5,5.3,0.7,8c0.2,2.8,0.5,5.5,0.7,8.3
			c0.1,1.1,0.2,2.3,0.3,3.4c0,0.3,0.1,0.6-0.2,0.9c-0.3-0.6-0.3-1.2-0.4-1.8c-0.2-2.2-0.5-4.4-0.7-6.6c-0.2-1.7-0.3-3.4-0.4-5.1
			c-0.1-1.6-0.3-3.3-0.5-4.9c-0.1-1.2-0.2-2.4-0.3-3.5c-0.2-1.7-0.3-3.4-0.5-5.2c-0.1-1.1-0.2-2.2-0.3-3.3c-0.2-1.8-0.3-3.6-0.5-5.4
			c-0.1-1.2-0.2-2.3-0.3-3.5c-0.2-1.7-0.3-3.5-0.5-5.2c-0.1-1.1-0.2-2.2-0.3-3.3c-0.2-1.9-0.3-3.7-0.5-5.6c-0.1-1.2-0.2-2.3-0.3-3.5
			c-0.2-1.7-0.3-3.5-0.5-5.2c-0.1-1.2-0.2-2.3-0.3-3.5c-0.2-1.8-0.3-3.6-0.5-5.4c-0.1-1.1-0.2-2.2-0.3-3.3c-0.1-1.9-0.3-3.8-0.5-5.6
			c-0.1-1.2-0.2-2.5-0.3-3.7c-0.2-1.7-0.3-3.4-0.5-5.2c-0.1-1.2-0.2-2.4-0.3-3.6c-0.2-1.7-0.3-3.5-0.5-5.2c-0.1-1.2-0.2-2.4-0.3-3.5
			c-0.2-1.8-0.3-3.7-0.5-5.5c-0.1-1.1-0.2-2.2-0.3-3.3c-0.1-1.9-0.3-3.8-0.5-5.6c-0.1-1.2-0.2-2.4-0.3-3.5c-0.2-1.8-0.3-3.6-0.5-5.4
			c-0.1-1.2-0.2-2.3-0.3-3.5c-0.2-1.9-0.3-3.7-0.5-5.6c-0.1-1.2-0.2-2.4-0.3-3.6c-0.2-1.8-0.3-3.7-0.5-5.5c-0.1-1.1-0.2-2.2-0.3-3.3
			c-0.2-1.9-0.4-3.8-0.5-5.7c-0.1-1.3-0.2-2.6-0.3-3.9c-0.1-1.3-0.1-2.5-0.4-3.8C-298.1,126.7-298.1,126.3-298.1,125.9z"/>
		<path class="st17" d="M-283.5,286.8c0-1.9-0.3-3.8-0.5-5.7c-0.1-1.7-0.3-3.5-0.5-5.2c-0.2-2.3-0.4-4.6-0.6-6.8
			c-0.2-1.7-0.3-3.4-0.4-5.1c-0.2-2.2-0.4-4.5-0.6-6.7c-0.2-1.7-0.3-3.4-0.4-5.1c-0.2-2.2-0.4-4.5-0.6-6.7c-0.2-1.7-0.3-3.4-0.4-5.1
			c-0.2-2.3-0.4-4.6-0.6-6.9c-0.2-2.2-0.4-4.3-0.6-6.5c-0.2-2.3-0.4-4.6-0.6-6.8c-0.2-2.2-0.4-4.3-0.6-6.5c-0.2-2.3-0.4-4.5-0.6-6.8
			c-0.2-1.7-0.3-3.4-0.4-5.1c-0.2-2.3-0.4-4.5-0.6-6.8c-0.2-1.7-0.3-3.4-0.4-5.1c-0.2-2.3-0.4-4.5-0.6-6.8c-0.2-1.7-0.3-3.4-0.4-5.1
			c-0.2-2.3-0.4-4.6-0.6-6.9c-0.2-1.7-0.3-3.4-0.4-5.1c-0.2-2.3-0.4-4.6-0.6-6.9c-0.2-1.7-0.3-3.5-0.4-5.2c-0.2-2.3-0.4-4.6-0.6-6.9
			c-0.2-1.7-0.3-3.5-0.4-5.2c-0.2-2.3-0.4-4.7-0.6-7c-0.2-1.8-0.3-3.6-0.4-5.4c-0.1-1.1-0.1-2.2-0.2-3.2c-0.1-0.7,0.3-0.6,0.8-0.6
			c45.1,0,90.2,0,135.3,0c7.1,0,14.3,0,21.4,0c0.5,0,0.7,0.1,0.7,0.7c0,2.3-0.3,4.5-0.5,6.7c-0.1,1.8-0.3,3.5-0.5,5.3
			c-0.2,2.4-0.4,4.8-0.6,7.2c-0.1,1.7-0.3,3.3-0.4,5c-0.2,2.4-0.4,4.8-0.6,7.2c-0.2,2.2-0.4,4.4-0.6,6.6c-0.2,2.3-0.4,4.6-0.6,6.9
			c-0.2,1.7-0.3,3.4-0.4,5.1c-0.2,2.3-0.4,4.7-0.6,7c-0.1,1.7-0.3,3.4-0.4,5.1c-0.2,2.3-0.4,4.7-0.6,7c-0.1,1.7-0.3,3.4-0.4,5.1
			c-0.2,2.3-0.4,4.7-0.6,7c-0.1,1.7-0.3,3.3-0.4,5c-0.2,2.3-0.4,4.6-0.6,6.8c-0.1,1.7-0.3,3.3-0.4,5c-0.2,2.3-0.4,4.6-0.6,6.9
			c-0.1,1.6-0.3,3.3-0.4,4.9c-0.2,2.3-0.4,4.7-0.6,7c-0.2,2.2-0.4,4.4-0.6,6.5c-0.2,2.3-0.4,4.6-0.6,6.8c-0.1,1.6-0.3,3.3-0.4,4.9
			c-0.2,2.3-0.4,4.5-0.6,6.8c-0.2,2.2-0.4,4.3-0.6,6.5c-0.2,2.7-0.5,5.4-0.8,8.1c-0.1,1.1-0.3,2.2-0.3,3.4c0,0.8-0.3,1.3-1,1.6
			c-2,0.9-4.1,1.5-6.2,2.1c-15.2,4.4-30.4,8.6-45.7,12.7c-4.1,1.1-8.2,2.2-12.3,3.2c-0.4,0.1-0.8,0-1.2-0.1
			c-8.7-2.3-17.4-4.7-26.1-7.2c-12.3-3.5-24.6-6.9-37-10.3C-283.3,287.5-283.4,287.2-283.5,286.8z"/>
		<path class="st18" d="M-229.4,145.5c3.4,0,6.8,0,10.1,0c0.6,0,0.8-0.2,0.8-0.8c0-2,0-4,0-6c0-0.6,0.2-0.8,0.8-0.8
			c21.1,0,42.1,0,63.2,0c0.5,0,0.7,0.1,0.7,0.7c0,2.2-0.2,4.3-0.4,6.4c-0.1,1.4-0.2,2.7-0.3,4.1c-0.2,1.9-0.4,3.7-0.5,5.6
			c-0.1,1.2-0.2,2.3-0.3,3.5c-0.2,1.9-0.3,3.8-0.5,5.8c-0.1,1.1-0.2,2.2-0.3,3.3c-0.2,1.9-0.4,3.8-0.5,5.8c-0.1,1.2-0.2,2.5-0.3,3.7
			c-0.2,1.7-0.3,3.4-0.5,5.2c-0.1,1.2-0.2,2.4-0.3,3.6c-0.2,1.7-0.3,3.5-0.5,5.2c-0.1,1.2-0.2,2.3-0.3,3.5c-0.2,1.8-0.3,3.6-0.5,5.4
			c-0.1,1.2-0.2,2.3-0.3,3.5c-0.2,1.7-0.3,3.5-0.5,5.2c-0.1,1.1-0.2,2.3-0.3,3.4c-0.2,1.8-0.3,3.6-0.5,5.4c-0.1,1.1-0.2,2.1-0.3,3.2
			c-0.2,1.8-0.3,3.6-0.5,5.4c-0.1,1.2-0.2,2.3-0.3,3.5c-0.2,1.7-0.3,3.4-0.5,5.1c-0.1,1.1-0.2,2.1-0.3,3.2c-0.2,1.8-0.3,3.5-0.5,5.3
			c-0.1,1.6-0.3,3.2-0.4,4.8c-0.2,1.7-0.3,3.3-0.5,5c-0.1,1.1-0.2,2.1-0.3,3.2c-0.2,1.7-0.3,3.4-0.5,5c-0.1,1.1-0.2,2.2-0.3,3.3
			c-0.2,1.6-0.3,3.2-0.5,4.8c-0.1,1.5-0.3,2.9-0.4,4.4c-0.1,0.9-0.2,1.9-0.3,2.8c-0.1,0.5-0.3,0.8-0.8,0.9c-2.6,0.8-5.3,1.6-8,2.4
			c-3.6,1-7.2,2.1-10.8,3.1c-5.8,1.6-11.5,3.2-17.3,4.8c-4.7,1.3-9.5,2.6-14.3,3.9c-0.8,0.2-0.9,0.1-1-0.7c-0.2-2.8,0-5.6-0.2-8.4
			c-0.2-3.4,0-6.8-0.1-10.3c0-0.4-0.1-0.6-0.4-0.7c0.1-0.3,0.4-0.3,0.7-0.4c7.8-1.9,15.4-4.1,23.1-6.2c5.1-1.4,10.2-2.9,15.2-4.5
			c1.9-0.6,1.9-0.6,2.1-2.8c0.2-2.4,0.5-4.8,0.7-7.2c0.3-3,0.6-6,0.9-9c0.2-2.2,0.4-4.4,0.6-6.6c0.2-2.2,0.4-4.5,0.6-6.7
			c0.1-1.7,0.3-3.5,0.5-5.2c0.2-2.2,0.4-4.4,0.6-6.6c0.2-1.7,0.3-3.3,0.4-5c0.1-1.5,0.3-3.1,0.4-4.6c0.2-2.2,0.4-4.5,0.7-6.7
			c0-0.3-0.1-0.4-0.3-0.5c-0.8-0.2-1.7-0.3-2.6-0.3c-1.9,0-3.8-0.2-5.7-0.2c-12.1,0-24.2,0-36.3,0c-0.4,0-0.9,0.1-1.3-0.2
			c-0.3-0.5-0.2-1-0.2-1.5c0-8.4,0-16.7,0-25.1c0-1.2,0-2.5,0-3.7c0-0.4,0-0.7,0.3-1c0.3-0.2,0.6-0.2,1-0.2c1.5,0,3-0.1,4.5,0
			c2.6,0.1,5.2,0.2,7.7,0.3c2.2,0.1,4.4,0.2,6.7,0.4c1,0.1,2.1,0.2,3.1,0.3c0.7,0.1,1,0.4,1.1,1.1c0.3,2.1,0.5,4.3,0.8,6.4
			c0.2,2,0.4,4.1,0.6,6.1c0.1,1.5,0.3,3,0.4,4.5c0,0.1,0,0.2,0.1,0.3c0,0.3,0,0.7,0,1c0,0.3,0.1,0.5,0.3,0.7
			c0.9,0.3,1.8,0.3,2.7,0.3c5.5,0,11.1,0,16.6,0c0.7,0,0.7,0,0.6-0.7c-0.2-1.6-0.4-3.1-0.4-4.7c-0.2-1.7-0.3-3.5-0.5-5.2
			c-0.1-1.2-0.2-2.4-0.3-3.5c-0.1-1.7-0.3-3.4-0.5-5.1c-0.1-1.2-0.2-2.4-0.3-3.6c-0.2-1.8-0.3-3.6-0.5-5.4c-0.1-1.2-0.2-2.4-0.3-3.6
			c-0.1-1.3-0.3-2.6-0.4-3.9c-0.1-1.3-0.2-2.5-0.3-3.7c-0.1-0.8-0.1-1.6-0.2-2.4c-0.1-0.5-0.4-0.7-0.8-0.7c-2.3,0-4.6,0-6.9,0
			c-11.3-0.3-22.5,0-33.8-0.1c-3.6,0-7.2,0-10.7,0C-228.7,145.9-229.2,146-229.4,145.5z"/>
		<path class="st19" d="M-192.8,186.4c-0.1-1.3-0.3-2.5-0.4-3.8c-0.3-3.4-0.6-6.8-1-10.1c-0.1-1.1-0.3-2.3-0.4-3.4
			c0-0.5-0.3-0.7-0.7-0.7c-1.6-0.3-3.2-0.4-4.8-0.5c-6.1-0.3-12.1-0.6-18.2-0.6c-3.7,0-7.4,0.2-11.1,0.3c-2.1,0-4.2,0.1-6.3,0.2
			c-1.2,0-1.2,0.1-1.4,1.3c-0.4,3.8-0.8,7.6-1.1,11.3c-0.3,3.6-0.7,7.1-1,10.7c-0.2,2-0.4,4-0.6,6.1c-0.1,1.1-0.1,1.1,1,1.1
			c6.2,0,12.4,0,18.6,0c0.4,0,0.8-0.1,1.2,0.2c0.2,0.4,0.2,0.8,0.2,1.2c0,5.7,0,11.4,0,17.1c0,1.3,0,1.3,1.3,1.3
			c7.3,0,14.6,0,21.9,0c0.4,0,0.8,0,1.2,0.1c0.5,0.5,0.5,0.7,0,1c-0.4-0.2-0.9-0.2-1.4-0.2c-7.2,0-14.4,0-21.6,0
			c-0.4,0-0.8,0.1-1.2-0.2c-0.3,0-0.6,0-0.9,0c-14,0-28.1,0-42.1,0c-0.7,0-0.9-0.2-0.8-0.8c0.2-2,0.3-4,0.5-6.1
			c0.1-1.8,0.3-3.6,0.4-5.3c0.2-2.3,0.4-4.7,0.6-7c0.2-1.7,0.3-3.4,0.4-5.1c0.2-2.3,0.4-4.6,0.6-6.9c0.2-2.2,0.4-4.3,0.6-6.5
			c0.2-2.2,0.4-4.5,0.6-6.7c0.2-1.7,0.3-3.3,0.4-5c0.2-2.2,0.4-4.5,0.6-6.7c0.2-2.1,0.4-4.2,0.6-6.3c0.2-2,0.4-4,0.6-6
			c0.1-1.1,0.2-2.3,0.3-3.4c0-0.6,0.3-0.8,0.9-0.9c4.4-0.4,8.7-0.2,13.1-0.3c4.2,0,8.3-0.1,12.5-0.1c0.2,0.1,0.5,0.1,0.7,0.1
			c14.4,0,28.7,0.1,43.1,0.1c3,0,6.1,0.1,9.1,0.1c0.4,0,0.6,0.1,0.6,0.6c0.4,4.8,0.9,9.5,1.3,14.3c0.3,3.7,0.6,7.4,1,11.1
			c0.3,3.7,0.7,7.3,1,11c0,0.1,0,0.3,0,0.4c-0.2,0.1-0.4,0-0.5-0.3c-0.3-1.3-0.3-2.6-0.5-3.9c-0.3-3.2-0.6-6.4-0.9-9.6
			c-0.3-2.7-0.5-5.5-0.7-8.2c-0.2-2.7-0.5-5.4-0.7-8.1c-0.2-1.8-0.3-3.6-0.5-5.4c-0.1-0.9-0.2-1-1.1-1.1c-1.6-0.2-3.1-0.2-4.7-0.2
			c-11.6,0-23.2,0-34.8,0c-1.2,0-1.2,0-1.2,1.2c0,6,0,12,0,18c0,1,0,1,1.1,1.1c2.9,0.1,5.8,0.2,8.7,0.4c1.2,0.1,2.4,0.1,3.6,0.2
			c3.3,0.1,6.7,0.3,10,0.7c0.9,0.1,1,0.3,1.1,1.1c0.3,3.5,0.6,7,0.9,10.5c0.2,1.9,0.3,3.8,0.5,5.7c0,0.2,0,0.3,0,0.5
			C-192.5,185.9-192.5,186.2-192.8,186.4z"/>
		<path class="st19" d="M-194.3,219.2c0.2-0.3,0.1-0.6,0-0.9c0.6-0.1,0.7,0,0.6,0.5c-0.3,1.7-0.4,3.5-0.6,5.3
			c-0.2,2.3-0.4,4.6-0.6,6.9c-0.4,4.1-0.6,8.1-1.4,12.2c-0.1,0.8-0.5,1.3-1.3,1.6c-2.8,1-5.7,1.8-8.6,2.6c-3.9,1.1-7.8,2.1-11.7,3.1
			c-0.8,0.2-0.9,0.3-0.9,1.2c0,3.1-0.1,6.1,0,9.2c0.1,2.2,0,4.4,0.1,6.6c0,0.8,0.1,1.5,0.2,2.3c0.1,0.7,0.2,0.7,0.9,0.6
			c2.7-0.7,5.5-1.4,8.2-2.2c6.7-1.8,13.5-3.7,20.2-5.6c3.3-0.9,6.5-1.9,9.8-2.8c0.7-0.2,1-0.6,1.1-1.3c0.3-3.2,0.7-6.3,1-9.5
			c0.2-2.6,0.5-5.1,0.7-7.7c0.2-2.7,0.5-5.3,0.7-8c0.2-2.7,0.5-5.5,0.7-8.2c0.2-2.1,0.4-4.3,0.6-6.4c0.2-2.4,0.4-4.7,0.6-7.1
			c0.2-2.6,0.5-5.2,0.7-7.8c0.1-1.3,0.2-2.6,0.4-4c0-0.3,0.1-0.6,0.3-0.8c0.3,0,0.4,0.2,0.4,0.5c-0.5,3.7-0.7,7.3-1.1,11
			c-0.3,3.1-0.6,6.3-0.8,9.4c-0.3,3.7-0.7,7.5-1,11.2c-0.2,2.7-0.5,5.4-0.7,8c-0.3,3.1-0.6,6.2-0.9,9.2c-0.3,2.8-0.6,5.6-0.8,8.4
			c-0.1,0.7-0.2,1.5-0.3,2.2c0,0.5-0.4,0.5-0.7,0.7c-2.5,0.9-5.1,1.6-7.6,2.4c-8.9,2.6-17.8,5.1-26.7,7.4c-2,0.5-4.1,1-6.1,1.6
			c-1.4-0.4-2.8-0.7-4.1-1.1c-11-3-22.1-6.1-33.1-9.3c-0.8-0.2-1.6-0.5-2.5-0.8c-0.5-0.1-0.7-0.4-0.8-0.9c-0.3-1.9-0.6-3.8-0.8-5.8
			c-0.3-2.7-0.6-5.4-0.9-8.1c-0.2-2.1-0.4-4.2-0.6-6.3c-0.2-2.7-0.5-5.4-0.6-8.1c0-0.6,0-1.3-0.1-1.9c0-0.4,0.1-0.5,0.5-0.5
			c1.2,0,2.4,0,3.6,0c5.1,0,10.3,0,15.4,0c0.6,0,0.8,0.2,0.9,0.8c0.2,2.2,0.4,4.3,0.6,6.5c0.2,1.7,0.3,3.4,0.4,5.1
			c0.1,1,0.2,2,0.3,3c0,0.4,0.4,0.4,0.6,0.4c2.9,0.8,5.7,1.6,8.6,2.4c3.8,1,7.7,2.1,11.6,3c0.2,0,0.4,0.1,0.6,0.1
			c0.5,0.2,0.9-0.2,1.4-0.3c6.6-1.5,13.2-3.3,19.7-5.2c0.8-0.2,1.2-0.7,1.3-1.5c0.4-3.6,0.7-7.2,1.1-10.7c0.4-3.9,0.6-7.9,1.2-11.8
			C-194.6,219.8-194.6,219.4-194.3,219.2z"/>
		<path class="st18" d="M-194.3,219.2c-0.4,2-0.5,4-0.7,5.9c-0.1,1.7-0.4,3.4-0.5,5c-0.2,1.8-0.2,3.5-0.4,5.3
			c-0.3,2.7-0.5,5.4-0.9,8.1c-0.1,0.5-0.4,0.6-0.8,0.7c-2.5,0.8-5,1.5-7.6,2.2c-4.2,1.1-8.3,2.3-12.5,3.2c-0.5,0.1-1,0.3-1.5,0.1
			c0.4,0,0.5-0.3,0.5-0.6c0.1-0.4,0.2-0.7,0.1-1.1c-0.1-1.1,0.2-2.2,0.2-3.3c0-8.7,0-17.3,0-26c3.5,0,7,0,10.4,0c4.4,0,8.7,0,13.1,0
			C-194.7,218.8-194.3,218.6-194.3,219.2z"/>
		<path class="st14" d="M-172.5,199c-0.2,1.9-0.5,3.8-0.7,5.7c-0.2,1.7-0.3,3.3-0.4,5c-0.2,1.7-0.3,3.4-0.5,5.2
			c-0.1,1.2-0.2,2.4-0.3,3.5c-0.2,1.8-0.3,3.5-0.5,5.3c-0.1,1.2-0.2,2.3-0.3,3.5c-0.2,1.9-0.3,3.7-0.5,5.6c-0.1,1.2-0.2,2.3-0.3,3.5
			c-0.2,1.7-0.3,3.5-0.5,5.2c-0.1,1.1-0.2,2.2-0.3,3.3c-0.2,1.7-0.3,3.4-0.5,5.2c-0.1,1.5-0.3,3.1-0.4,4.6c-0.2,1.5-0.4,3-0.5,4.6
			c-0.1,0.4-0.4,0.5-0.7,0.6c-2.8,0.8-5.5,1.6-8.3,2.4c-4,1.1-8,2.2-11.9,3.3c-3.7,1-7.4,2-11.1,3c-2.6,0.7-5.1,1.3-7.7,2
			c-0.5,0.1-0.6-0.1-0.7-0.5c-0.2-1.4-0.2-2.8-0.3-4.3c-0.1-4.8-0.1-9.6-0.1-14.4c0-0.7,0.2-0.9,0.8-1.1c3.1-0.8,6.2-1.6,9.2-2.4
			c3.9-1.1,7.8-2.1,11.6-3.4c0.5-0.2,0.7-0.4,0.8-0.9c0.5-2.3,0.7-4.7,0.9-7.1c0.3-2.5,0.5-5.1,0.7-7.6c0.2-2.4,0.4-4.8,0.7-7.1
			c0.1-1,0.2-1.9,0.4-2.9c0.1-0.5-0.1-0.5-0.4-0.5c-7.9,0-15.8,0-23.7,0c-0.9,0-0.9,0-0.9-0.9c0-6.3,0-12.6,0-18.8
			c0.2-0.2,0.3-0.2,0.5,0c6.6,0,13.3,0,19.9,0c6.2,0,12.5,0,18.7,0.1c2.4,0,4.7,0,7.1,0.3C-172.7,198.9-172.6,198.9-172.5,199z"/>
		<path class="st20" d="M-218.5,198.4c-0.2,0-0.4,0-0.5,0c-2.6,0-5.1,0-7.7,0c-4.2,0-8.5,0-12.7,0c-0.5,0-0.8-0.1-0.7-0.7
			c0.2-2.1,0.4-4.3,0.6-6.4c0.2-2.1,0.4-4.1,0.6-6.2c0.2-2.2,0.4-4.3,0.6-6.5c0.2-2,0.4-4,0.6-6.1c0.2-1.5,0.3-3,0.5-4.5
			c0-0.4,0.1-0.5,0.5-0.5c1.2,0,2.4-0.1,3.6-0.2c3.9-0.1,7.9-0.2,11.8-0.3c0.8,0,1.6-0.1,2.4-0.1c0.2,0,0.5-0.1,0.6,0.2
			c-0.2,0.3-0.1,0.5-0.1,0.8c0,9.8,0,19.6,0,29.4C-218.5,197.8-218.4,198.1-218.5,198.4z"/>
		<path class="st21" d="M-192.8,186.4c0-0.3,0-0.6,0.3-0.7c0.5,0.4,0.3,0.9,0.4,1.4c0.2,0.8,0.2,0.9,1.1,0.9c5.8,0,11.6,0,17.4,0
			c0.9,0,0.9-0.1,0.8-0.9c-0.2-1.1-0.3-2.2-0.4-3.3c0-0.3-0.1-0.5,0.1-0.8c0.1,0,0.2,0.1,0.4,0.1c0.1,1.6,0.3,3.2,0.4,4.8
			c0.2,0.5-0.1,0.7-0.5,0.8c-4.6,0-9.1,0-13.7,0c-1.7,0-3.3,0.1-5-0.1c-0.4,0-0.8-0.1-1.1-0.3c-0.2-0.5-0.1-1.1-0.3-1.7
			C-192.8,186.6-192.8,186.5-192.8,186.4z"/>
		<path class="st19" d="M-192.8,186.6c0.3,0.5,0.3,1.1,0.3,1.7C-193,187.8-192.7,187.2-192.8,186.6z"/>
		<path class="st19" d="M-172.7,188.8c0.3-0.2,0.6-0.4,0.5-0.8C-172,188.8-172,188.8-172.7,188.8z"/>
		<path class="st14" d="M-173,183.1c0.1,1.4,0.2,2.8,0.5,4.2c0.2,0.9,0.1,1-0.8,1c-6,0-12,0-18,0c-0.7,0-0.9-0.2-0.9-0.9
			c0-0.6-0.2-1.1-0.3-1.7c-0.2-1.7-0.3-3.4-0.5-5c-0.1-1.2-0.2-2.5-0.3-3.7c-0.2-2-0.3-3.9-0.5-5.9c-0.1-0.8-0.1-1.6-0.1-2.4
			c0-0.4-0.1-0.6-0.5-0.6c-1-0.1-1.9-0.3-2.9-0.3c-2.7-0.1-5.4-0.4-8-0.4c-2-0.1-4.1-0.2-6.1-0.3c-2.1-0.1-4.3-0.2-6.4-0.2
			c-0.3,0-0.5-0.1-0.4-0.4c0-0.1,0-0.2,0-0.3c0-6.4,0-12.8,0-19.2c0-0.6,0.1-0.8,0.8-0.8c12,0,24,0,35.9,0c1.6,0,3.3,0,4.9,0.3
			c0.5,0.1,0.6,0.3,0.6,0.8c0.2,2.5,0.4,5.1,0.6,7.6c0.1,1.8,0.3,3.5,0.4,5.3c0.2,1.7,0.4,3.4,0.5,5.2c0.1,1.2,0.2,2.5,0.3,3.7
			c0.2,1.7,0.4,3.4,0.5,5c0.1,1,0.2,2.1,0.3,3.1c0.2,1.9,0.3,3.8,0.5,5.7C-173,182.8-173,183-173,183.1z"/>
	</g>
</g>
<g id="ps_id_ai" class="st0">
	<g class="st7">
		<path class="st22" d="M-322.8,235.1c-10,0-20.1,0-30.1,0c-8.1,0-14.9-5.5-16.6-13.4c-0.2-1.1-0.4-2.2-0.4-3.3c0-19.5,0-39,0-58.5
			c0-7.8,5.6-14.7,13.2-16.3c1.2-0.3,2.4-0.4,3.7-0.4c20.1,0,40.2,0,60.2,0c8.3,0,15.3,5.9,16.7,14.1c0.2,0.9,0.2,1.8,0.2,2.7
			c0,19.4,0,38.8,0,58.2c0,8.3-6,15.3-14.1,16.7c-0.9,0.2-1.9,0.2-2.8,0.2C-302.7,235.1-312.7,235.1-322.8,235.1z"/>
		<path class="st23" d="M-350.9,188.5c0-6.6,0-13.3,0-19.9c0-0.5,0-0.4,0.5-0.4c5.1,0,10.2,0,15.2,0c6.7,0.1,12.4,5.1,13.5,11.7
			c1.2,7-2.9,13.6-9.6,15.8c-1.4,0.4-2.8,0.6-4.2,0.6c-2.1,0-4.2,0-6.4,0c-0.3,0-0.4,0.1-0.4,0.4c0,4,0,8,0,12
			c0,0.3-0.1,0.4-0.4,0.4c-2.6,0-5.2,0-7.9,0c-0.3,0-0.4-0.1-0.4-0.4C-350.9,201.9-350.9,195.2-350.9,188.5z"/>
		<path class="st23" d="M-296.4,186.7c-1-0.5-2.1-1-3.2-1.3c-1.8-0.6-3.7-1.1-5.7-1c-0.8,0-1.5,0.1-2.2,0.4
			c-1.4,0.6-1.6,2.1-0.6,3.2c0.6,0.6,1.3,0.9,2,1.2c1.3,0.6,2.6,0.9,3.9,1.5c2,0.9,3.8,2,5.3,3.6c1.4,1.6,2.2,3.4,2.2,5.5
			c0,2.2-0.7,4.1-2,5.8c-1.7,2.3-4.1,3.5-6.8,4c-4.6,1-9.1,0.4-13.5-1.5c-0.2-0.1-0.2-0.2-0.2-0.4c0-2.2,0-4.4,0-6.7
			c0-0.2,0.1-0.2,0.3-0.2c2,0.6,4,1.3,6.1,1.6c1.8,0.3,3.5,0.5,5.3,0.2c0.6-0.1,1.2-0.3,1.7-0.8c0.6-0.6,0.7-1.3,0.3-2.1
			c-0.4-0.8-1.1-1.3-1.9-1.7c-1.1-0.6-2.4-1-3.6-1.4c-1.8-0.6-3.4-1.4-4.9-2.6c-4.8-3.8-4.7-11.1,0.3-14.7c1.5-1.1,3.2-1.7,5-2
			c4-0.7,7.9-0.3,11.7,1.3c0.5,0.2,0.5,0.2,0.5,0.7c0,2.3,0,4.5,0,6.8C-296.3,186.4-296.3,186.5-296.4,186.7z"/>
		<path class="st24" d="M-342.3,182.1c0-2.1,0-4.2,0-6.3c0-0.3,0-0.4,0.3-0.4c1.8,0,3.5,0,5.3,0c3.2,0,5.8,2.2,6.5,5.3
			c0.8,3.9-2.1,7.7-6,7.9c-2,0.1-3.9,0-5.9,0c-0.3,0-0.2-0.1-0.2-0.3C-342.3,186.4-342.3,184.3-342.3,182.1z"/>
	</g>
	<g class="st7">
		<path class="st25" d="M-83.3,234.9C-83.3,234.9-83.3,234.9-83.3,234.9c-21,0.1-41.9,0.1-62.9,0.1c0,0,0-0.1,0-0.1
			c0.1-0.2,0.3-0.2,0.5-0.2c0.2,0,0.4,0,0.5,0c20.3,0,40.5,0,60.8,0C-84,234.7-83.6,234.6-83.3,234.9z"/>
		<path class="st25" d="M-67.5,219.5L-67.5,219.5L-67.5,219.5c-0.2-0.1-0.2-0.3-0.3-0.5c0-0.2,0-0.4,0-0.5c0-19.5,0-39.1,0-58.6
			c0-0.3-0.1-0.7,0.2-1c0,0,0.1,0,0.1,0C-67.5,179-67.5,199.2-67.5,219.5z"/>
		<path class="st26" d="M-67.6,158.7c0,0.3,0,0.6,0,0.9c0,19.6,0,39.2,0,58.9c0,0.3,0,0.6,0,0.9c-0.5,6-3.4,10.5-8.7,13.5
			c-2.2,1.2-4.5,1.9-7.1,2c-0.2,0-0.3,0-0.5,0c-20.5,0-40.9,0-61.4,0c-0.3,0-0.7,0-1,0c-3.9-0.3-7.3-1.8-10.2-4.5
			c-3.5-3.3-5.3-7.5-5.3-12.3c0-19.4,0-38.7,0-58.1c0-7.9,5.3-14.6,12.9-16.4c1.2-0.3,2.5-0.4,3.8-0.4c20.2,0,40.5,0,60.7,0
			c8.3,0,15.3,6,16.5,14.2C-67.7,157.9-67.7,158.3-67.6,158.7z"/>
		<path class="st27" d="M-123.3,198.2c-2.3,0-4.5,0-6.8,0c-0.4,0-0.6,0.1-0.7,0.5c-0.9,2.8-1.8,5.7-2.7,8.5
			c-0.2,0.7-0.3,0.7-1.1,0.7c-2.3,0-4.5,0-6.8,0c-0.9,0-1-0.2-0.7-1c3.3-9.5,6.6-19,9.9-28.5c1-2.8,2-5.6,2.9-8.4
			c0.3-0.9,0.4-1.8,0.3-2.7c0-0.5,0.2-0.6,0.6-0.6c3.2,0,6.5,0,9.7,0c0.4,0,0.6,0.1,0.7,0.5c4.7,13.3,9.4,26.6,14.1,39.8
			c0.1,0.2,0.1,0.3,0.1,0.5c0,0.3-0.1,0.4-0.4,0.5c-0.1,0-0.2,0-0.3,0c-2.6,0-5.2,0-7.9,0c-0.5,0-0.6-0.3-0.8-0.7
			c-0.8-2.3-1.6-4.5-2.3-6.8c-0.2-0.6-0.5-1.3-0.7-1.9c-0.1-0.3-0.2-0.4-0.6-0.4C-118.8,198.3-121.1,198.2-123.3,198.2z"/>
		<path class="st27" d="M-99.5,192.3c0-5,0-9.9,0-14.9c0-0.7,0-0.8,0.7-0.8c2.4,0,4.9,0,7.3,0c0.6,0,0.7,0.1,0.7,0.7
			c0,10,0,19.9,0,29.9c0,0.7-0.1,0.7-0.7,0.7c-2.4,0-4.8,0-7.3,0c-0.6,0-0.8-0.1-0.8-0.8C-99.5,202.3-99.5,197.3-99.5,192.3z"/>
		<path class="st27" d="M-95.1,173.4c-3-0.1-4.9-2.1-4.8-5.3c0.1-2.6,2.3-4.7,5.1-4.6c3,0.1,4.8,2.1,4.7,5.3
			C-90.2,171.5-92.4,173.5-95.1,173.4z"/>
		<path class="st26" d="M-123.4,174c1.5,5.5,3.3,10.9,5,16.3c-3.3,0-6.6,0-9.8,0C-126.7,184.8-124.8,179.5-123.4,174z"/>
	</g>
	<g class="st7">
		<path class="st28" d="M-171.6,158.8c0,20.1,0,40.1,0,60.2c-0.1,0.2,0,0.4,0,0.6c0.1,2.3-0.7,4.4-1.7,6.4c-0.8,1.6-1.9,3.1-3.2,4.3
			c-2.5,2.4-5.4,3.9-8.8,4.4c-0.7,0.1-1.4,0.1-2.1,0.1c-20.7,0-41.4,0-62.2,0c-3.9,0-7.2-1.4-10.1-3.9c-3.1-2.6-5-5.9-5.7-9.9
			c-0.1-0.6,0-1.3-0.2-1.9c0-20.2,0-40.3,0-60.5c0.1-0.6,0.1-1.2,0.2-1.9c0.5-2.9,1.7-5.6,3.7-7.8c2.4-2.8,5.4-4.6,8.9-5.5
			c0.8-0.2,1.6-0.2,2.3-0.3c0.2,0,0.4,0.1,0.6,0c20.9,0,41.9,0,62.8,0c0.5,0.1,1.1,0,1.6,0.1c1.5,0.1,2.9,0.6,4.2,1.2
			c2,0.9,3.7,2.1,5.2,3.6c2.2,2.3,3.6,4.9,4.4,8c0.2,0.7,0.2,1.3,0.2,2C-171.7,158.3-171.7,158.6-171.6,158.8z"/>
		<path class="st29" d="M-187.4,234.9C-187.4,234.9-187.4,234.9-187.4,234.9c-20.8,0.1-41.7,0.1-62.5,0.1c0,0,0-0.1,0-0.1
			c0.3,0,0.7,0,1,0c20.1,0,40.3,0,60.4,0C-188.1,234.9-187.7,234.9-187.4,234.9z"/>
		<path class="st30" d="M-196.3,183.2c0,5.3,0,10.6,0,15.8c0,2.1,0.1,4.3,0.2,6.4c0,0.5-0.1,0.7-0.5,0.9c-2.2,0.9-4.5,1.5-6.9,1.9
			c-2.1,0.3-4.3,0.5-6.4,0.4c-2.9-0.1-5.7-0.8-8.3-2.3c-3.5-2-5.6-5-6.6-8.9c-0.5-1.9-0.7-3.9-0.5-5.8c0.5-6.4,3.6-11,9.3-13.9
			c1.8-0.9,3.7-1.3,5.6-1.6c1.7-0.2,3.4-0.3,5.1-0.1c0.2,0,0.3,0,0.3-0.3c0-0.1,0-0.2,0-0.4c0-3.7,0-7.4,0-11.1c0-0.1,0-0.3,0-0.4
			c0-0.6,0.1-0.7,0.7-0.7c2.5,0,5,0,7.5,0c0.1,0,0.1,0,0.2,0c0.3,0,0.4,0.1,0.4,0.4c0,0.1,0,0.3,0,0.4
			C-196.3,170.5-196.3,176.8-196.3,183.2z"/>
		<path class="st30" d="M-231.5,187.5c0,6.5,0,13,0,19.5c0,0.2,0,0.4,0,0.6c0,0.4-0.2,0.5-0.6,0.6c-0.1,0-0.2,0-0.3,0
			c-2.4,0-4.7,0-7.1,0c-0.1,0-0.2,0-0.3,0c-0.4,0-0.5-0.2-0.5-0.5c0-0.1,0-0.2,0-0.4c0-13.3,0-26.5,0-39.8c0-0.1,0-0.2,0-0.3
			c0-0.3,0.2-0.5,0.5-0.5c0.1,0,0.2,0,0.4,0c2.4,0,4.7,0,7.1,0c0.7,0,0.8,0.1,0.8,0.8C-231.5,174.2-231.5,180.8-231.5,187.5z"/>
		<path class="st28" d="M-205,192.3c0,2.7,0,5.4,0,8c0,0.5,0,0.5-0.6,0.6c-0.4,0.1-0.9,0-1.3,0.1c-1,0.1-1.9,0.1-2.9-0.1
			c-1.7-0.3-3.2-0.9-4.3-2.1c-0.9-0.9-1.4-2-1.8-3.2c-0.6-2-0.7-4.1-0.2-6.1c0.5-2.1,1.8-3.6,3.6-4.8c1.9-1.2,4-1.6,6.3-1.4
			c0.3,0,0.6,0.1,0.8,0.1c0.4,0.1,0.4,0.1,0.4,0.5c0,0.3,0,0.7,0,1C-205,187.4-205,189.8-205,192.3z"/>
	</g>
</g>
<g id="Layer_7" class="st0">
	<g class="st7">
		<g>
			<path class="st31" d="M-225.3,150.3c0,25.8,0,51.6,0,77.4c-0.1,0.4,0,0.8-0.1,1.2c-0.3,3-1.4,5.8-3.1,8.3
				c-3.4,5.1-8.1,8.2-14.1,9.3c-0.9,0.2-1.8,0.2-2.7,0.2c-26.2,0-52.3,0-78.5,0c-4.5,0-8.5-1.6-12.1-4.3c-4.3-3.4-7-7.8-7.9-13.3
				c-0.1-0.6-0.1-1.2-0.1-1.8c-0.1-25.6-0.1-51.2,0-76.8c0-2.4,0.7-4.7,1.7-7c2-4.5,5.2-7.9,9.5-10.1c2.5-1.4,5.2-2.3,8.2-2.2
				c0.1,0,0.3,0.1,0.4-0.1c26.4,0,52.8,0,79.1,0c0.7,0.1,1.5,0,2.2,0.1c3.7,0.6,6.9,2,9.8,4.4c3.7,3,6.2,6.9,7.3,11.6
				c0.2,0.8,0.2,1.7,0.2,2.5C-225.3,150-225.4,150.2-225.3,150.3z"/>
			<path class="st32" d="M-245.1,246.7c0,0,0,0.1,0,0.1c-26.3,0-52.6,0-78.9,0c0,0,0-0.1,0-0.1c0.5,0,0.9,0,1.4,0
				c25.4,0,50.8,0,76.2,0C-246,246.7-245.5,246.7-245.1,246.7z"/>
			<path class="st32" d="M-344,151c0.2-0.2,0-0.5,0.2-0.7c0.1,0.7-0.1,1.3-0.1,2c0,24.4,0,48.8,0,73.1c0,0.7,0.1,1.3,0.1,2
				c-0.2-0.2,0-0.5-0.2-0.7C-344,201.6-344,176.3-344,151z"/>
			<path class="st33" d="M-225.4,149.8C-225.4,149.8-225.3,149.8-225.4,149.8c0.1,0.2,0.1,0.4,0.1,0.6
				C-225.5,150.2-225.4,150-225.4,149.8z"/>
			<path class="st34" d="M-315.6,186.7c0-8.3,0-16.7,0-25c0-1,0-1,1-1c3.6-0.1,7.1-0.2,10.7-0.2c2.1,0,4.3-0.1,6.4,0
				c3.2,0.1,6.4,0.7,9.4,2c4,1.8,7,4.6,8.6,8.8c1,2.5,1.4,5.1,1.2,7.8c-0.1,1.8-0.3,3.6-0.9,5.4c-1.3,3.9-3.8,6.7-7.2,8.8
				c-2.1,1.2-4.4,1.9-6.8,2.4c-3.2,0.6-6.5,0.6-9.8,0.5c-0.5,0-1.1,0-1.6-0.1c-0.2,0-0.4,0.1-0.3,0.3c0,0.1,0,0.3,0,0.5
				c0,4.9,0,9.8,0,14.7c0,0.2,0,0.3,0,0.5c0,0.4-0.2,0.6-0.7,0.7c-0.1,0-0.2,0-0.3,0c-2.9,0-5.9,0-8.8,0c-0.1,0-0.2,0-0.2,0
				c-0.6,0-0.7-0.1-0.7-0.7c0-0.2,0-0.4,0-0.6C-315.6,203.2-315.6,195-315.6,186.7z"/>
			<path class="st34" d="M-260.9,178.5c0.3-0.1,0.4-0.3,0.5-0.5c2.4-2.5,5.1-4.3,8.5-5.1c1.2-0.3,2.4-0.4,3.7-0.5
				c0.6,0,0.8,0.2,0.8,0.8c0,0.8,0,1.6,0,2.4c0,2.2,0,4.4,0,6.5c0,0.1,0,0.3,0,0.4c0,0.6-0.1,0.8-0.8,0.8c-0.4,0-0.8,0-1.1,0
				c-2.9,0.1-5.6,0.7-8.3,1.8c-0.8,0.4-1.6,0.9-2.2,1.5c-0.3,0.2-0.4,0.5-0.4,0.9c0,4.5,0,9,0,13.5c0,3.4,0,6.9,0,10.3
				c0,0.2,0,0.3,0,0.5c0,0.9-0.1,1-1,1c-2.1,0-4.3,0-6.4,0c-1,0-1.9,0-2.9,0c-0.7,0-0.9-0.2-0.9-0.9c0-0.4,0-0.7,0-1.1
				c0-9.5,0-19.1,0-28.6c0-2.1-0.1-4.1-0.1-6.2c0-0.7-0.1-1.3-0.2-2c-0.1-0.6,0.1-0.8,0.7-0.8c2.7,0,5.4,0,8.1,0
				c0.9,0,1.2,0.2,1.5,1.1c0.3,1.1,0.4,2.2,0.5,3.3C-260.9,177.9-260.9,178.1-260.9,178.5z"/>
			<path class="st31" d="M-301.2,170.3c1.3,0,2.6-0.1,3.8,0c1.5,0.2,2.9,0.5,4.2,1.1c2.2,1,3.5,2.7,4,5.1c0.3,1.7,0.3,3.4-0.3,5
				c-0.6,1.9-2,3.1-3.7,4.1c-1.1,0.6-2.4,0.9-3.6,1.1c-1.3,0.3-2.5,0.4-3.8,0.3c-1.3,0-2.6,0.1-3.8-0.1c-0.5,0-0.4,0-0.4-0.5
				c0-5.2,0-10.4,0-15.6c0-0.5,0-0.5,0.5-0.5C-303.3,170.3-302.3,170.3-301.2,170.3z"/>
		</g>
		<g>
			<path class="st35" d="M-212.4,228.1c0-26.1,0-52.1,0-78.2c0.2-1.3,0.2-2.6,0.6-3.9c2.6-7.8,7.9-12.7,15.9-14.7
				c1.2-0.3,2.5-0.3,3.7-0.3c26.2,0,52.4,0,78.5,0c5,0,9.3,1.8,13,5c3.3,2.8,5.5,6.4,6.7,10.6c0.4,1.5,0.5,3,0.5,4.5
				c0,25.3,0,50.6,0,75.8c0,5.1-1.9,9.4-5.3,13.2c-2.9,3.2-6.4,5.3-10.6,6.5c-1.1,0.3-2.2,0.2-3.3,0.4c-27,0-54,0-81,0
				c-1.2-0.2-2.5-0.2-3.7-0.6c-7.8-2.5-12.7-7.7-14.8-15.6C-212.3,229.9-212.2,229-212.4,228.1z"/>
			<path class="st36" d="M-173.9,160.9c2,0,4,0,5.9,0c0.6,0,0.9,0.2,1.1,0.8c5.9,16.6,11.9,33.2,17.8,49.8c0.4,1,0.2,1.2-0.9,1.2
				c-3.1,0-6.3,0-9.4,0c-0.7,0-1.1-0.3-1.3-1c-1.2-3.5-2.4-6.9-3.5-10.4c-0.2-0.6-0.4-0.9-1.2-0.9c-5.6,0-11.3,0-16.9,0
				c-0.6,0-0.8,0.2-1,0.7c-1.1,3.5-2.3,7.1-3.4,10.6c-0.2,0.8-0.6,1.1-1.5,1.1c-2.8,0-5.6,0-8.4,0c-1.2,0-1.3-0.2-0.9-1.3
				c4.5-12.9,9-25.9,13.6-38.8c0.7-2.1,1.4-4.2,2.2-6.3c0.6-1.5,0.9-3,0.8-4.6c0-0.6,0.2-0.8,0.8-0.8
				C-178,160.9-175.9,160.9-173.9,160.9z"/>
			<path class="st36" d="M-114,207.1c0,1.1,0,2.3,0,3.4c0,0.8-0.3,1.2-1.1,1.5c-2.5,1-5.1,1.5-7.7,1.7c-3.8,0.3-7.5,0.3-11.2-0.9
				c-5.7-1.8-9.5-5.6-11.4-11.2c-2.3-6.9-1.8-13.6,1.8-20c2.3-4.1,5.7-7,10.3-8.2c3.8-1,7.7-1,11.6,0.2c5.8,1.8,9,6,10.5,11.7
				c0.7,2.8,0.6,5.7,0.4,8.6c-0.2,2,0,1.8-2.2,2c-2.7,0.3-5.4-0.1-8.1-0.1c-4.5,0-9.1,0-13.6,0c-0.6,0-0.8,0.1-0.6,0.7
				c1.1,5,3.9,6.8,8.4,7.6c2.9,0.6,5.8,0.1,8.6-0.4c1.3-0.2,2.5-0.5,3.7-1c0.5-0.2,0.7-0.1,0.7,0.4C-114,204.7-114,205.9-114,207.1z
				"/>
			<path class="st31" d="M-174,170c1.4,5,3.1,9.9,4.6,14.8c0.5,1.7,1.1,3.5,1.7,5.2c0.1,0.4,0.1,0.5-0.4,0.5c-3.8,0-7.7,0-11.5,0
				c-0.8,0-0.4-0.4-0.3-0.7c1.8-5.7,3.6-11.4,5.2-17.1C-174.5,171.9-174.3,170.9-174,170z"/>
			<path class="st31" d="M-128.7,188.7c-2.1,0-4.1,0-6.2,0c-0.3,0-0.6,0.1-0.5-0.4c0.5-2.8,1.8-5.7,5.3-6.6c4.4-1.2,7.9,1,8.9,4.6
				c0.1,0.2,0.1,0.5,0.1,0.7c0.2,1.4,0,1.7-1.4,1.7C-124.6,188.7-126.6,188.7-128.7,188.7C-128.7,188.7-128.7,188.7-128.7,188.7z"/>
		</g>
	</g>
</g>
<g id="Layer_19">
	<g transform="matrix(1, 0, 0, 1, 0, 0)" class="st0">
		<circle id="Ellipse_2-2" class="st37" cx="189.2" cy="189.1" r="189.1"/>
	</g>
	<g transform="matrix(1, 0, 0, 1, 0, 0)">
		<circle id="Ellipse_2-2_00000181046586170677664860000017216589004201268139_" class="st38" cx="189.2" cy="189.1" r="189.1"/>
	</g>
	<g transform="matrix(1, 0, 0, 1, 0, 0)" class="st0">
		<circle id="Ellipse_2-2_00000003078129872650700100000003394337218131796621_" class="st39" cx="189.2" cy="189.1" r="189.1"/>
	</g>
</g>
<g id="experiences" class="st0">
	<path class="st40" d="M382.9,63.4c0.1-6.5-1.2-12.7-3.5-18.7C372.2,26.2,359.7,13,341.6,5c-5.3-2.3-10.8-4-16.6-4.6
		c-2.1-0.2-4.2-0.1-6.2-0.4c-86.3,0-172.7,0-259,0c-0.5,0.3-1.1,0.2-1.6,0.2c-6.1,0-12,1.2-17.7,3.3C28.2,8,17.9,15.4,9.8,25.7
		C0.6,37.4-4.7,50.7-4.7,65.8c0,82.1,0,164.3,0,246.4c0,2.7,0,5.4,0.4,8c2,14.2,8.2,26.3,17.8,36.7c6.4,7,14.1,12.3,22.8,16.1
		c5.6,2.4,11.3,4.3,17.3,4.8c2,0.2,4.1,0.1,6.1,0.4c86.3,0,172.7,0,259,0c0.3-0.2,0.6-0.2,0.9-0.2c6.5,0.1,12.7-1.2,18.7-3.6
		c18.5-7.1,31.7-19.7,39.6-37.8c2.3-5.3,4-10.8,4.6-16.6c0.2-2.1,0.1-4.2,0.4-6.2c0-83.2,0-166.3,0-249.5
		C382.8,64.1,382.9,63.7,382.9,63.4z"/>
	<path class="st41" d="M382.9,63.4c0.1-6.5-1.2-12.7-3.5-18.7C372.2,26.2,359.7,13,341.6,5c-5.3-2.3-10.8-4-16.6-4.6
		c-2.1-0.2-4.2-0.1-6.2-0.4c-86.3,0-172.7,0-259,0c-0.5,0.3-1.1,0.2-1.6,0.2c-6.1,0-12,1.2-17.7,3.3C28.2,8,17.9,15.4,9.8,25.7
		C0.6,37.4-4.7,50.7-4.7,65.8c0,82.1,0,164.3,0,246.4c0,2.7,0,5.4,0.4,8c2,14.2,8.2,26.3,17.8,36.7c6.4,7,14.1,12.3,22.8,16.1
		c5.6,2.4,11.3,4.3,17.3,4.8c2,0.2,4.1,0.1,6.1,0.4c86.3,0,172.7,0,259,0c0.3-0.2,0.6-0.2,0.9-0.2c6.5,0.1,12.7-1.2,18.7-3.6
		c18.5-7.1,31.7-19.7,39.6-37.8c2.3-5.3,4-10.8,4.6-16.6c0.2-2.1,0.1-4.2,0.4-6.2c0-83.2,0-166.3,0-249.5
		C382.8,64.1,382.9,63.7,382.9,63.4z"/>
	<path class="st42" d="M382.9,63.4c0.1-6.5-1.2-12.7-3.5-18.7C372.2,26.2,359.7,13,341.6,5c-5.3-2.3-10.8-4-16.6-4.6
		c-2.1-0.2-4.2-0.1-6.2-0.4c-86.3,0-172.7,0-259,0c-0.5,0.3-1.1,0.2-1.6,0.2c-6.1,0-12,1.2-17.7,3.3C28.2,8,17.9,15.4,9.8,25.7
		C0.6,37.4-4.7,50.7-4.7,65.8c0,82.1,0,164.3,0,246.4c0,2.7,0,5.4,0.4,8c2,14.2,8.2,26.3,17.8,36.7c6.4,7,14.1,12.3,22.8,16.1
		c5.6,2.4,11.3,4.3,17.3,4.8c2,0.2,4.1,0.1,6.1,0.4c86.3,0,172.7,0,259,0c0.3-0.2,0.6-0.2,0.9-0.2c6.5,0.1,12.7-1.2,18.7-3.6
		c18.5-7.1,31.7-19.7,39.6-37.8c2.3-5.3,4-10.8,4.6-16.6c0.2-2.1,0.1-4.2,0.4-6.2c0-83.2,0-166.3,0-249.5
		C382.8,64.1,382.9,63.7,382.9,63.4z"/>
	<path class="st39" d="M382.9,63.4c0.1-6.5-1.2-12.7-3.5-18.7C372.2,26.2,359.7,13,341.6,5c-5.3-2.3-10.8-4-16.6-4.6
		c-2.1-0.2-4.2-0.1-6.2-0.4c-86.3,0-172.7,0-259,0c-0.5,0.3-1.1,0.2-1.6,0.2c-6.1,0-12,1.2-17.7,3.3C28.2,8,17.9,15.4,9.8,25.7
		C0.6,37.4-4.7,50.7-4.7,65.8c0,82.1,0,164.3,0,246.4c0,2.7,0,5.4,0.4,8c2,14.2,8.2,26.3,17.8,36.7c6.4,7,14.1,12.3,22.8,16.1
		c5.6,2.4,11.3,4.3,17.3,4.8c2,0.2,4.1,0.1,6.1,0.4c86.3,0,172.7,0,259,0c0.3-0.2,0.6-0.2,0.9-0.2c6.5,0.1,12.7-1.2,18.7-3.6
		c18.5-7.1,31.7-19.7,39.6-37.8c2.3-5.3,4-10.8,4.6-16.6c0.2-2.1,0.1-4.2,0.4-6.2c0-83.2,0-166.3,0-249.5
		C382.8,64.1,382.9,63.7,382.9,63.4z"/>
</g>
<g id="cmd" class="st0">
	<g class="st7">
		<path d="M188.3,335.3c-18.4,0-36.7-0.3-55.1,0.1c-7.4,0.2-10-2.6-9.7-9.9c0.4-8.4-0.1-16.8,0.2-25.2c0.2-4.6-0.9-7.3-6.1-6.5
			c-1.2,0.2-2.5,0-3.7,0c-16.1,0-16.4,0-17.1-16.2c-0.2-5.3-2.5-5.8-6.9-6c-20.2-0.5-20.1-0.6-20.1-20.6c0-11.8,0.2-23.7-0.1-35.5
			c-0.2-6.7,2.1-9.5,9.1-9.6c17.2-0.3,17.2-0.5,17.9-17.9c1.7-44,33.8-81.2,76-88.5c3.7-0.6,9.7,1.8,10.5-4.6c0.7-5.7,1-10.9-6-14.7
			c-9.3-5-11.4-17.1-6.6-26.3c4.7-9,14.7-13.2,24.6-10.3c9.5,2.8,15.8,12.2,14.7,22.2c-0.7,6.6-3.7,12.5-9.6,15.1
			c-7.3,3.2-5.4,8.9-5.2,14.1c0.3,5.7,5.5,3.9,8.7,4.3c43.3,6.5,76,43.6,77.9,88.5c0.1,1.6,0,3.1,0.1,4.7c0.1,13.5,0.1,13.5,14,13.5
			c13,0,13,0,13,13.1c0,14.3-0.3,28.7,0.1,43c0.2,7.3-2.6,10.4-9.9,9.7c-1.5-0.2-3.1,0-4.7,0c-12.2,0-12.6,0-12.4,12.2
			c0.1,7.9-3.2,10.1-10.7,10c-16.8-0.2-16.6,0.1-16.8,17c-0.2,28.5,3.7,23.9-24.1,24.3C216.3,335.5,202.3,335.3,188.3,335.3z"/>
		<path class="st43" d="M189,282.5c-24.3,0-48.5-0.2-72.8,0.2c-6.7,0.1-8.2-2.1-8.2-8.4c0.3-27.7-0.1-55.3,0.2-83
			c0.4-45.6,36.3-81.6,81-81.5c44.8,0.1,80.5,36.1,80.7,81.7c0.1,27.7-0.2,55.3,0.2,83c0.1,6.6-1.9,8.3-8.4,8.2
			C237.5,282.3,213.3,282.5,189,282.5z"/>
		<path class="st44" d="M188.8,303.1c-15.9,0-31.7-0.1-47.6,0c-3.8,0-6.6,0-6.4-5.2c0.2-5.3,3.7-4,6.5-4c31.7-0.1,63.5-0.1,95.2,0
			c2.9,0,6.4-1.1,6.5,4.1c0.2,5.3-3,5.1-6.6,5.1C220.6,303.1,204.7,303.1,188.8,303.1z"/>
		<path class="st45" d="M189.1,314.6c15.8,0,31.6,0,47.5,0c3.7,0,6.7-0.1,6.5,5.2c-0.2,5.1-3.6,4.1-6.5,4.1c-31.9,0-63.9,0-95.8,0.1
			c-3.4,0-5.9,0-5.9-4.7c0-4.8,2.6-4.7,6-4.7C156.9,314.7,173,314.6,189.1,314.6z"/>
		<path class="st46" d="M96.6,238.9c0,4-0.6,8.1,0.1,12.1c1.6,9.2-3.3,10-10.5,9.6c-4.2-0.3-5.2-1.9-5.1-5.7
			c0.2-10.5,0.4-21.1-0.1-31.6c-0.3-6.5,3.7-5.8,7.8-5.8c3.9,0.1,8.4-1,7.9,5.6C96.3,228.3,96.6,233.6,96.6,238.9z"/>
		<path class="st46" d="M297.2,239.1c0,4,0,8,0,12c0,8.9-3.9,11.6-12.5,9.3c-3.1-0.8-2.9-2.8-2.9-4.8c0-11.1,0.1-22.2-0.1-33.4
			c-0.1-6.3,4.5-4.5,7.8-4.6c3.4-0.1,7.9-1.5,7.6,4.8C297,227.9,297.2,233.5,297.2,239.1z"/>
		<path class="st47" d="M198.5,63.1c-0.4,5.9-3.6,9.6-9.3,9.8c-5.3,0.2-9-2.9-9.4-8.4c-0.4-5.8,2.6-9.6,8.6-10
			C194.4,54,197.4,57.6,198.5,63.1z"/>
		<path class="st48" d="M188.6,271.8c-16.5,0-33,0.1-49.5,0c-14.6-0.1-22.3-8-23-22.3c-1.4-30.6,3.5-38.9,36.8-37.8
			c27.7,0.9,55.4,0.2,83,0.2c18.4,0,25.2,7.6,26,26.2c1.1,25.2-5.3,35.5-33.3,33.8C215.4,271.2,202,271.8,188.6,271.8z"/>
		<path class="st49" d="M156.6,174c9.7,0.2,18.1,7.7,19,17c0.4,3.8-0.6,7-4.7,7.8c-3.6,0.7-6-1.1-6.6-4.8c-0.8-4.7-2.9-8.4-8.2-8.4
			c-5.2,0-7.4,3.4-8.1,8.3c-0.5,3.5-2.9,5.5-6.6,4.9c-4.4-0.7-4.9-4.1-4.6-7.8C137.4,181.6,146.4,173.8,156.6,174z"/>
		<path class="st50" d="M222,174c10.1-0.1,19,7.8,19.6,17.3c0.2,3.4-0.3,6.4-4,7.3c-4,1-6.7-0.9-7.3-4.9c-0.7-5-3.1-8.2-8.3-8.1
			c-4.8,0.1-7.1,3.4-7.9,7.7c-0.7,4-2.9,6.4-7,5.4c-4.7-1.1-4.9-4.9-4.2-8.9C204.4,180.8,212.7,174.1,222,174z"/>
		<path class="st51" d="M188.5,260.4c-15.9,0-31.7,0.1-47.6,0c-10.4,0-13-2.7-13.1-13.4c-0.3-23.6-0.3-23.6,23.6-23.6
			c28,0,56,0,83.9,0c12.5,0,15.1,2.6,15.1,15.4c0.1,21.6,0.1,21.6-21.8,21.6C215.2,260.4,201.8,260.4,188.5,260.4z"/>
		<path class="st52" d="M147.5,234c-0.7,2.3-1.8,4.1-4.5,3.7c-2.6-0.3-3.7-2.3-3.4-4.5c0.2-1.8,1.8-3.3,3.9-3.2
			C145.9,230.2,147.3,231.6,147.5,234z"/>
		<path class="st53" d="M136.6,252.8c-2.5,0.2-3.9-1.1-4.3-3c-0.5-2.5,0.7-4.2,3.3-4.6c2.2-0.3,3.7,0.9,4.1,2.9
			C140.1,250.6,138.8,252.2,136.6,252.8z"/>
		<path class="st54" d="M162.6,233.8c-0.4,2.4-1.6,4.1-4.2,4c-2.2-0.1-3.4-1.6-3.5-3.6c-0.2-2.1,0.9-3.6,3.1-3.9
			C160.7,229.8,162,231.3,162.6,233.8z"/>
		<path class="st55" d="M177.8,233.8c-0.8,2.9-2.3,4.3-4.8,3.8c-2.1-0.4-3.1-2.1-2.9-4.1c0.3-2.6,2.1-3.7,4.6-3.3
			C176.8,230.7,177.4,232.4,177.8,233.8z"/>
		<path class="st56" d="M204.4,237.8c-2.4-0.1-4.1-1.3-4.1-3.9c0-2.1,1.3-3.4,3.3-3.7c2.1-0.2,3.7,0.8,4.1,2.8
			C208.2,235.5,206.9,237.2,204.4,237.8z"/>
		<path class="st57" d="M218.9,237.8c-2.5-0.5-3.9-2.1-3.5-4.6c0.3-2,1.9-3.2,4-3c2.6,0.2,3.9,2,3.4,4.4
			C222.5,236.7,221,237.8,218.9,237.8z"/>
		<path class="st58" d="M154.9,249.2c-0.6,2.5-2,3.9-4.6,3.5c-2-0.4-3.1-2-2.9-4c0.2-2,1.3-3.4,3.5-3.4
			C153.6,245.3,154.7,246.9,154.9,249.2z"/>
		<path class="st59" d="M166.3,252.7c-2.4-0.2-3.6-1.5-3.7-3.5c-0.1-2.5,1.1-4.1,3.8-3.9c2.1,0.1,3.4,1.5,3.5,3.4
			C170.1,251.2,168.6,252.5,166.3,252.7z"/>
		<path class="st60" d="M185.2,248.6c-0.1,2.5-1.4,4-3.9,4.1c-2.1,0.1-3.4-1.3-3.6-3.3c-0.2-2,0.8-3.6,2.8-4
			C183,244.9,184.5,246.3,185.2,248.6z"/>
		<path class="st61" d="M211.4,245.2c2.1,0,3.6,1.1,3.9,3.1c0.3,2.4-1,4.2-3.5,4.3c-2.5,0.1-4-1.5-3.9-4
			C208,246.6,209.4,245.5,211.4,245.2z"/>
		<path class="st62" d="M188.9,237.7c-2.2-0.3-3.5-1.4-3.6-3.5c-0.1-2.6,1.3-4,3.9-4c2.1,0.1,3.5,1.3,3.6,3.4
			C192.8,236.2,191.2,237.5,188.9,237.7z"/>
		<path class="st63" d="M238,233.4c-0.1,2.7-1.2,4.3-3.8,4.3c-2.1,0-3.5-1.3-3.6-3.4c-0.2-2.6,1.3-4,3.8-4
			C236.5,230.2,237.6,231.5,238,233.4z"/>
		<path class="st64" d="M200.2,249.1c-0.4,2.5-1.8,3.9-4.3,3.6c-1.9-0.2-3.2-1.6-3.1-3.7c0.1-2.6,1.7-3.8,4.2-3.6
			C199,245.6,200.1,247,200.2,249.1z"/>
		<path class="st64" d="M230.5,248.7c-0.1,2.4-1.3,3.9-3.8,3.9c-2.1,0-3.4-1.3-3.6-3.3c-0.2-2.5,1.2-4,3.7-4
			C228.9,245.3,230.1,246.6,230.5,248.7z"/>
		<path class="st57" d="M245.5,249.4c-0.4,2-1.5,3.3-3.6,3.3c-2.5-0.1-4-1.6-3.7-4c0.3-2.4,2-3.7,4.5-3.2
			C244.7,245.8,245.6,247.3,245.5,249.4z"/>
	</g>
</g>
<g id="d_drive" class="st0">
	<g class="st7">
		<path class="st65" d="M140.1,235.2c-4.9-3.8-10.6-1.3-16-2c-7-0.9-7.4-1.2-6-7.6c1.5-6.8,1.7-13.6-0.9-20.3
			c-2.2-5.6-2.1-11.3,0.2-17c1.5-3.6,4.6-4.6,7.9-5.2c3.1-0.6,4.4,2.1,5.7,4.3c3.3,5.6,3.8,11.9,5.1,18c0.5,2.5,0.9,5,1.4,7.5
			c1.2,2.4,4.5,3.4,4.2,7c-0.4-4.5,3.2-3.6,5.3-4.6c3-0.4,1-4.3,3.5-5c1.2-0.8,2.8,1.5,3.7-0.4c1-2.2-1.5-2.9-2.2-4.4
			c0-0.6,0-1.2,0-1.9c2.2-5.2,1.5-7.3-3.7-10.5c-6.6-8.3-16.1-12-25.4-16c-2.6-1.1-5.5-0.3-8.1-0.8c-2-0.4-5,0.8-5.5-2.1
			c-0.6-3.3,2.9-3.5,4.8-4c12.3-3.1,23.8-1,33.8,6.8c7.4,5.8,14.9,11.8,17.4,21.6c3.1,12,1.2,27.7-11.5,32.4c-2.2,0.8-4.5,1.3-6.7,2
			C144.4,233,141.9,232.9,140.1,235.2z"/>
		<path class="st66" d="M216.8,175.3c2.1,3.9,2.1,7.8,0.5,11.9c-2,5.2-5.5,7.8-12.5,6c5.9,7.4,8,15.4,13.3,21.6
			c0.3,0.3,0.4,0.7,0.7,1c1.9,1.6,6.5,1.3,4.2,5.8c-2.2,4.4-2.5,9.3-10,10.2c-6.6,0.8-10.5,1-12.9-5.9c-1-2.8-2.4-4.7-6.2-1.3
			c-2.6,2.3-7.9,3-11.5-0.8c-1.3-1.4-0.8-3-0.7-4.6c-0.6-3.7,1.1-7.9-2.9-10.7c-5.1-8.2-5.9-17.1-3.8-26.3c2.1-1.6,2.9-4.7,6.2-4.7
			c4.3-0.5,6.1,1.7,6.7,5.6c0.2,1.6,0.4,3.1,1,4.6c2.5,3.7,3.5,8.5,7.9,11.1c0.5-2.1-0.3-4.1,0.6-6c2-2.6,5.9-3.7,6.1-7.8
			c0.7-2.5,1-5.3,3.5-6.8c-2.6-1.5-6.9-0.7-8-4.5c-0.5-1.7,2-2,3.5-2.2c1.1-0.1,2.2,0,3.3,0.2C209.3,173.5,213.7,172.5,216.8,175.3z
			"/>
		<path class="st67" d="M266.6,178.9c1.3,2.3,2.5,4.6,3.8,6.9c3.3,2.5,1.8,6.6,3.2,9.7c0.5,2.5,3.2,2.8,4.5,4.6
			c0.9,1.7,1,3.7,1.4,5.5c0.1,4,3,7.2,3.2,11.1c-1.4,1.6-0.1,3.3-0.3,5c-0.3,3.9-2.6,5.7-6.2,5.1c-3.9-0.7-7.9-0.9-11.8-0.6
			c-4.1,0.2-4.7-2.7-3.9-4.8c1.1-3.1,0.2-5.2-0.3-8.1c-2-12.1-8.3-23.1-8.8-35.5c-0.2-5.3,1.7-8,7-8.4
			C260.2,173.3,262.8,176.6,266.6,178.9z"/>
		<path class="st68" d="M242.7,202.2c0.8,4.8,1.4,9.7,2.4,14.5c0.9,4.1-1.2,6.7-5.2,6.2c-11.4-1.6-12.3-2.8-9.9-14.5
			c-0.1-3.2,1.1-6.4-0.1-9.6c-1-6.6-2.6-13.1-2-19.9c0.2-1.9,0.4-3.9,0.6-5.8c0.2-3.1,2.5-4.2,4.8-5.3c3.1-1.5,2.8,1.7,3.9,3
			c1.1,1.3,3.5,1.1,3.6,3.4c3.7,5.3,2.7,11.5,3,17.3C243.9,194.9,243.5,198.6,242.7,202.2z"/>
		<path class="st69" d="M92.6,139.6c3.8-0.5,7.3,1.2,8,5.4c0.8,4.4,3.7,9.2-2.5,13.1c-2.5,1.6-2.8,7.1-3.2,10.9
			c-0.2,1.8,0.1,3.2-1.9,4.1c-1.2,0.6-2.5,1.1-3.3,0.3c-1.1-1.2-1.8-2.9-0.5-4.7c1.1-1.5,0.8-2-1.1-3.2c-2.7-1.6-4.2-5-6.7-6.9
			c-3.4-2.7-3.2-6.1-2.4-9.4C80.5,142.9,85.3,139.6,92.6,139.6z"/>
		<path class="st70" d="M182.6,164.3c5.1-1.3,9.3,2.2,14.2,2.5c0.4,0.4,0.7,0.8,0.8,1.3c0.1,1.3-0.5,2.5-0.5,3.8
			c1.4,5.3-2.6,5.6-5.9,5.9c-4.6,0.4-9.3-0.3-14-0.1c-2.3,0.1-4.6,0.7-6.9,0.5c-2.2,0.2-3.3-0.9-3.6-3c-0.4-2.2,1.4-2.4,2.6-3.3
			c2.4-1.7,5.5-2.4,7.5-4.6C178.4,165.6,180.1,164.2,182.6,164.3z"/>
		<path class="st71" d="M277.9,195.1c5.7-8.8,11.5-17.5,18.8-25.2c2.8-2.9,6.1-4.7,10.4-4.2c3.2,5.4-1.9,6.4-4.6,8.7
			c-1.3,1-2.2,2.4-3.3,3.7c-3.7,2.9-0.7,7.9-3.5,11.1c-6,0.1-10.1,3.4-13.5,8C280.3,197.5,278.8,197,277.9,195.1z"/>
		<path class="st72" d="M282.1,196.5c1.3-5.6,8.5-9.6,12.9-7.1c2.4,2.4,2.4,5.2,1.3,8.2c-0.1,0.3-0.2,0.6-0.1,0.9
			c-1.1,3.2-1.9,6.4-4.9,8.5c-0.4,0.4-0.7,0.8-1.1,1.1c-3.9,2.4-6-0.7-8.4-2.8c-1.4-1.8-2.7-3.7-4.4-5.3c-2.1-0.5-4.4-0.7-4.6-3.7
			C275.9,196.3,278.9,198.6,282.1,196.5z"/>
		<path class="st73" d="M169.2,177.7c7.4-2.1,15-1.3,22.6-1.4c3.3-0.1,4.6-1.5,4-4.7c2.7-1.7,5.2-2.5,7.2,1c-1,0.4-2.4-0.2-3.2,1.1
			c2.7,1.2,6.8,1.9,7.6,3.9c0.9,2.2-2.3,5.3-2.3,8.4c-0.9,0.2-1.5-0.3-2-0.9c-2.7-4-5.7-6.9-10.6-2.9c-0.4,0.3-1.1,0.1-1.7,0
			c-0.5-0.1-1-0.3-1.5-0.6c-2.2-2.1-4.1-5-7.8-2.8c-2.8-0.1-3.7,3-6.2,3.4c1.5-6.8-3.8-2.2-5.6-3.4
			C169.2,178.5,169.1,178.1,169.2,177.7z"/>
		<path class="st74" d="M80.7,212c0-8.1,0.5-16.3-3.8-23.7c1.2-0.9,2.5-1.9,4.4-3.3c1.8,5.2,6.1,9.7,1.3,15.4c-0.9,1-1,2,0.1,3
			C83.2,203.8,81.4,211.1,80.7,212z"/>
		<path class="st75" d="M39.1,231.8c5.9,0.9,11.8,1.7,17.8,2.6c-0.2,5.1-3.8,4.3-7.1,4.1c-5.7-0.4-9.9-5.1-15.6-5.4
			c-0.3-0.4-0.3-0.9-0.1-1.4c0.4-0.6,1-1.1,1.7-1.3C37.1,230.4,38,231.5,39.1,231.8z"/>
		<path class="st76" d="M242.7,202.2c-2.3-2.8,0.1-5.6,0.1-8.4c0.1-6.7-0.3-13.3-2.1-19.8c6.6,3.8,3.2,10.6,4.3,16
			c0.7,3.3-0.2,7.4,0.3,11.1C245.6,203.8,243.9,202.6,242.7,202.2z"/>
		<path class="st77" d="M296.3,197.6c-1.5-2.6-0.2-5.6-1.3-8.2c2.3-3.7-2.6-9.6,3.6-12.1c1,0.4,1.4,1.3,1.8,2.2c0.2,1-0.7,2-0.2,3.1
			C298,187.4,300.8,193.5,296.3,197.6z"/>
		<path class="st78" d="M311.9,191.7c1.9,0.7,1.3,2.2,0.9,3.5c-1.5,5.5-1.2,11.2-1,16.8C306.7,207.1,306.8,196.7,311.9,191.7z"/>
		<path class="st79" d="M342.4,178.6c-7-3.9-14.1-3.8-21.2-0.1c0.8-4.1,2.7-5.4,7.4-5.2c6.8,0.3,12.7,2.7,19.5,4.7
			C345.8,179.2,344.1,178.8,342.4,178.6z"/>
		<path class="st73" d="M216.8,175.3c-3.7-0.4-7.6-0.1-10.8-2.6c-1.1-1-3.1-0.9-3.6-2.7c1.5-3.8,5-2.3,7.7-2.8
			c1.5,0,2.7,0.6,3.2,2.1C214.2,171.5,217.6,172.1,216.8,175.3z"/>
		<path class="st80" d="M59.5,171.4c-6.5,4.4-12.4-0.6-19-0.2c1.1-2.7,3.5-1.4,4.3-2.9C49.9,168.7,54.9,169.1,59.5,171.4z"/>
		<path class="st81" d="M169.2,177.7c0.1,0.4,0.2,0.7,0.3,1c-0.8,1.4-1.9,2.8-3.7,1.8c-1.5-0.8-0.1-2.1-0.1-3.1
			c-0.4-6.1,3.6-8.5,8.5-10c1.5-1.6,2.4-0.5,3.3,0.7c-1.8,3.1-5.2,3.4-8,4.5C165.3,174.5,166.5,175.9,169.2,177.7z"/>
		<path class="st82" d="M266.6,178.9c-5.4-0.2-8.2-3.4-8.2-9.6c2.6-1.2,5.1-0.1,5.5,2.3C264.4,174.3,266.3,176.3,266.6,178.9z"/>
		<path class="st83" d="M282.6,216.8c-2.9-3.1-4.6-6.5-3.9-10.9c0.7-0.7,1.5-0.8,2.5-0.7c3.7,1.9,4.7,5.1,4.3,9
			C286,216.7,284.2,216.7,282.6,216.8z"/>
		<path class="st84" d="M34,232.3c0.1,0.3,0.2,0.6,0.2,0.8c-2.5,0.2-5.1,3.2-7.3,0.1c-1.8-2.4-3.4-5.3-0.7-8.3
			c1.6,0.1,3.3-0.5,4.6,0.9C30.2,228.8,33.4,229.9,34,232.3z"/>
		<path class="st85" d="M148.3,193.4c5.2-4.1,3.8,2.9,6,4.1c2,1.1,1.9,5.3-2.2,6.4C150.7,200.4,149.5,196.9,148.3,193.4z"/>
		<path class="st86" d="M183.7,218.9c-0.4,1.6-0.8,3.2-1.2,4.8c-1.2,0.5-2.4,2.6-3.4-0.4c-1.2-3.8-1.9-7.5-1.4-11.5
			c2.2,0.5,4.7,0.5,3.9,4C181.3,217.4,182.5,218.2,183.7,218.9z"/>
		<path class="st87" d="M282.1,196.5c-3.2,4.5-6.2,1-9.3-0.1c-0.8-3.5-1.6-7.1-2.4-10.6c5-0.5,2.8,3.6,3.4,5.6
			c0.7,2.4,0,5.5,4.2,3.7C279.3,195.6,280.7,196.1,282.1,196.5z"/>
		<path class="st88" d="M301.1,173.7c1.8-2.8,7.9-2.3,6-7.9c5,3.7,4.9,4.5-0.9,8.2c-1.6,0.9-1.5,3.9-4.1,3.6
			C300.9,176.5,300.3,175.3,301.1,173.7z"/>
		<path class="st89" d="M285.5,214.2c-2.4-2.3-1-6.6-4.4-8.3c-0.3-1,0-1.4,1-1.1c2.8,0.8,4.7,3.8,8,3.3
			C289.5,210.9,287,212.1,285.5,214.2z"/>
		<path class="st90" d="M147,215.5c0,1.9-10.2,0.8-1,5.2c-4.6,1.1-4.2,0.9-6.1-3.2c-0.6-1.3-3.3-1.8-2.4-4.3
			C140.2,215.9,143.7,215.4,147,215.5z"/>
		<path class="st91" d="M209.9,168.2c-2.1,1.5-5.5-1-7.1,2.2c-2.3,0.4-4.4,0.4-5.7-2c-0.1-0.5-0.2-1.1-0.3-1.6
			c1.1-0.9,3.8,0.8,3.6-2.2C203.8,165,207.3,165.3,209.9,168.2z"/>
		<path class="st92" d="M183.7,218.9c-1.8,0.1-3.7-0.8-3.2-2.4c1.2-3.2-1.8-3.2-2.7-4.7c-0.5-1.4,0.1-2.5,1.1-3.4
			c5.4-1.3,3.5,3.6,4.1,5.6C183.4,215.3,183,217.3,183.7,218.9z"/>
		<path class="st93" d="M152,205.7c5.7,1.4,5.9,2.5,1.9,8.2c-1.6-0.6-1.4-3.1-3.3-3.4C151,208.9,151.5,207.3,152,205.7z"/>
		<path class="st94" d="M209.9,168.2c-3.2-1.2-6.3-2.4-9.5-3.6c4.4-0.8,8.6,0.6,12.8,1.2c3.1,0.4,1.3,2.3,0.1,3.5
			C212.2,168.9,211.4,167.5,209.9,168.2z"/>
		<path class="st95" d="M352.1,182.4c-0.8,0.7-1.6,1.5-2.4,2.2c-0.8,0.7-1.5,0.7-2.2,0c-0.7-0.7,2.6-1.7-0.2-2.1
			c-2.8-0.4-5.4-2-8.4-1.6c-0.7,0.1-2-0.5-1.3-1.8c0.1-0.3,1-0.1,1.6-0.2C343.4,180.6,348.1,180.2,352.1,182.4z"/>
		<path class="st96" d="M353.3,217.8c-5,3.4-15.6,3.5-19,0.2C340.7,220.9,347,217.4,353.3,217.8z"/>
		<path class="st97" d="M229.8,198.7c2.6,2.9,2.7,7.5,0.1,9.6C227.4,205.2,229.5,201.9,229.8,198.7z"/>
		<path class="st98" d="M177.5,168.2c-1.1-0.2-2.2-0.5-3.3-0.7c1.9-3.4,3.9-6.5,8.4-3.2C180.9,165.6,179.2,166.9,177.5,168.2z"/>
		<path class="st99" d="M291.3,207c1.7-2.8,2.2-6.3,4.9-8.5C298.1,203.4,296.8,206.4,291.3,207z"/>
		<path class="st100" d="M302.3,177.5c1.5-0.9,1.7-3.3,3.9-3.5c-0.6,3.9-2.2,7-6,8.6c-1.5-0.8-0.5-1.8-0.3-2.8
			C299.5,177.8,300.9,177.7,302.3,177.5z"/>
		<path class="st96" d="M356.9,221.3c-1.2-1.5,7-3.4-0.2-4.7c0.9-0.4,1.7-1,2.6-1.1c1.5-0.2,3.5-0.8,4.2,0.9c0.9,2-1.5,2.4-2.6,3.1
			C359.7,220.2,358.7,221.7,356.9,221.3z"/>
		<path class="st101" d="M140.1,235.2c1.4-3.8,3.5-5.4,6.9-1.9C144.9,235,142.8,236.1,140.1,235.2z"/>
		<path class="st102" d="M77,188.2c-4.3-7.2-9.3-13.7-17.4-16.9c-5.1,1.3-10-0.9-15-1l0.3-2.2c-6.2-4.8-12.6-3-19.6-0.4
			c5.9-1.3,4.2,3.5,3.2,4.3c-3.4,2.6-4.6,8.6-10.8,7.2c-0.9-0.2-2.8,0.2-3.1,2.2c1.2,1.3,2.4,0.4,3.7,0c2.7-0.9,5.2-0.3,6.9,2
			c2.5,3.5-2,1.4-2.4,2.7c-0.2,0.7,0.1,0.9,0.4,1.4c1.3,2,3.1,4.2,3.3,6.4c1,10.3,1.1,20.7-0.3,31c1.2,1.4,2.9,1.5,4.5,2.1
			c1.3,0.4,2.6,0.8,3.9,1.2c4.4-1.4,2.7,3.7,5,4.6c5.7,2,11.4,3.1,17.4,1.6c1.2-0.8,2.5-1,3.8-1.3c11.7-2.3,18.9-10,20-21.2
			c1.1-4.9,0.5-9.9,0.8-14.9C81.8,193.7,80.4,190.2,77,188.2z M61.6,214.7c-4.6,5-11.8,6.2-19.1,3.2c-0.9-0.8-1.2-1.9-1.3-3
			c0.1-5.9-1.6-11.9,1.3-17.6c0-2.2,0.4-4.4,0-6.4c-0.9-4.9,1.4-6.2,5.8-5.7c8.5,1,13.8,6.6,17.2,13.5
			C68.2,204.3,65.9,210,61.6,214.7z"/>
		<path class="st103" d="M42.4,197.3c0,6.1,0,12.2,0,18.3c-2.6,0-3.5-2.2-5.1-3.6c-1.3-2.5-1.4-4.8,1.6-6.2c0.1-2.5,0.1-5,0.2-7.4
			C39.3,195.4,41.1,197.1,42.4,197.3z"/>
		<path class="st104" d="M37.9,211.9c2.7-0.2,2.6,3,4.5,3.8c0,0.8,0,1.5,0,2.3c-3.8,0.4-6.9-0.2-6.7-5.1
			C36.3,212.3,37,211.9,37.9,211.9z"/>
		<path class="st105" d="M34,232.3c-2.6-1.4-6.9-1.9-3.2-6.4c1.2,0.4,2.5,0.9,3.7,1.3c2,0.9,2.9,2,1,3.8
			C35,231.5,34.5,231.9,34,232.3z"/>
		<path class="st106" d="M37.9,211.9c-0.4,0.9-1.3,1-2.1,1c-1.1-4.1,1.3-7.9,0.9-12.2c3,1.1-0.3,4.3,2.3,5.2
			C37.8,207.7,36.9,209.6,37.9,211.9z"/>
		<path class="st107" d="M35.5,231.1c-0.6-1.2,1-3-1-3.8c2.4,0.4,5-0.7,7.1,1.1c0.6,2.3-4.4,0.3-2.5,3.5
			C37.9,231.6,36.7,231.3,35.5,231.1z"/>
		<path class="st108" d="M356.7,216.6c-1.4-0.3-2.4,0.5-3.4,1.2c-6.3,1.9-12.7,3.6-19,0.2c-4.2-7.2-3.8-7.6,4.2-8.4
			c19.9-2,27.4-14.9,18.2-31.9c-1.8,1.3-1.8,4.5-4.6,4.7c-1.4,0.2-2.1,1.5-3,2.4c-0.4,0.8-0.5,1.7-0.6,2.6c0.5,0.1,0.9,0.4,1.4,0.7
			c0.8,0.5,1,1.5,0.2,1.8c-4.7,2.2-9.4,4.4-15.3,4.4c1.5-3.9,4.4-5.4,7.8-6.3c1.3-0.2,2.6-0.7,3.8-0.8c0.7-0.5,1.4-1,2-1.7
			c0.4-1.4,3.8-3.1-0.7-3.8c-2.9-0.4-6.2,0.1-8.4-2.7c1-0.1,2.1-0.2,3.1-0.3c-5.1-5.4-15.4-5.4-21.2-0.1c-4.9,3.2-6.9,8.3-9.3,13.3
			c-1.3,6.7-3.3,13.5-0.1,20.3c0,4.1,7.2,13.4,11.4,13.9c11.6,1.4,23.3,3.1,33.7-4.6c1.5-1.3,4.2-2,3.4-4.5
			C359.8,215.5,358,216,356.7,216.6z"/>
		<path class="st109" d="M349.9,188c-2.4,0-4.9,0-7.3-0.1c1.7-1.1,3.3-2.3,5-3.4c0.7,0,1.5,0,2.2,0
			C349.8,185.8,349.8,186.9,349.9,188z"/>
		<path class="st110" d="M189.8,181.2c-0.7,7.8,0.1,9,8.2,11.8c0.9,2.8-0.4,5.7,2,9.2c-7.4-3-9.2-8.7-11.6-14
			c-0.5-2.5-1.9-5.2,0.9-7.3L189.8,181.2z"/>
		<path class="st70" d="M189.4,180.9c-1.8,2.3-0.6,4.9-0.9,7.3c-3-1-1.5-3.8-1.8-5.6c-0.7-3.3-2.2-4.3-5.2-3.9
			C184.8,176.5,187.5,177.3,189.4,180.9z"/>
		<path class="st82" d="M197,168.3c1.9,0.7,3.8,1.3,5.7,2c1.4,0.4,2.7,0.8,3.3,2.3c-1,0-2.1,0-3.1,0c-2.2-2-4.9,0-7.2-1
			C195.6,170.3,196,169.2,197,168.3z"/>
		<path class="st111" d="M282.2,204.8c-0.4,0.4-0.7,0.7-1,1.1c-0.8,0-1.6,0-2.4,0.1c-2-1.6-1-3.9-1.4-5.8
			C280.4,200.2,281.7,202.1,282.2,204.8z"/>
		<path class="st112" d="M302.3,177.5c-0.8,0.8-1.6,1.6-2.4,2.3c-1.1-0.5-1.1-1.6-1.3-2.5c0.7-1.3,0.8-3,2.5-3.6
			C301.5,175,301.9,176.2,302.3,177.5z"/>
	</g>
</g>
<g id="rsg" class="st0">
	<g class="st7">
		<path class="st113" d="M314.4,101.1c6.7,10.1,12.6,20.5,17.1,31.8c2.2,5.4,1.9,5.3-3.7,6.3c-14.6,2.6-29,6.5-43,11.6
			c-22.7,8.1-44.2,18.8-64.4,31.8c-10.6,6.8-20.5,14.8-30.1,23c-17.7,15.1-33.2,32.1-46.5,51.2c-4.1,5.8-7.6,12-11.5,18
			c-0.8,1.8-2.2,3.3-3.1,5.1c-1.4,2.6-2.9,5.2-4.7,8.5c-1.6-4.2-1.7-8.1-1.8-11.7c-1.1-25.5,0.3-50.8,5.9-75.9
			c10.3-46.6,32.3-86.7,64.9-121.3c13-13.8,27.5-25.8,42.8-36.9c2.3-1.7,4.2-1.8,6.8-0.5c24.2,11.4,44.7,27.4,62.3,47.4
			C308.7,93.1,311.7,97,314.4,101.1z"/>
		<path class="st114" d="M325.4,194.2c0.2,26.1-5.1,48.2-16.4,68.6c-23.2,41.8-58.6,66.3-106,73c-21.6,3.1-42.8,0.5-63.5-6.7
			c-3-1-3.4-2-2-4.9c22.6-47.4,55.4-86.3,98.2-116.6c25.3-18,53-31.4,82.7-40.7c2.9-0.9,3.9-0.2,4.4,2.6
			C324.6,178.6,325.6,187.7,325.4,194.2z"/>
		<path class="st115" d="M101.7,308.5c-41.4-29.3-71.9-93.1-47.4-159.7c24.3-65.9,88-94.8,137.7-90.9
			c-36.8,30.9-63.5,68.2-79.6,112.8C96.3,215.3,93.2,261.1,101.7,308.5z"/>
		<path class="st116" d="M314.4,101.1c-3.4-3.6-6.5-7.4-9-11.7C309.5,92.5,312.5,96.4,314.4,101.1z"/>
		<path class="st117" d="M129.3,279.8c0.4-2.1,1.1-4,3.1-5.1C132.7,277.2,131,278.6,129.3,279.8z"/>
	</g>
</g>
<g id="cx" class="st0">
	<g class="st7">
		<path class="st118" d="M246.6,214.3c-1.5,0-3,0-4.5,0c-1.8-4.3-0.5-8.8-0.8-13.1c-0.3-3.6,0.3-7.3-0.3-10.9
			c-0.4-2.5-1.1,0.5-1.7,0c-2.6,6.9-5.3,13.8-7.9,20.8c-0.5,1.3-0.4,3-2.2,3.2c-2.3,0.2-2.1-2-2.6-3.3c-3.4-8.8-6.6-17.6-10.7-26.3
			c0,8.5-0.2,17,0.1,25.5c0.1,3.6-1.3,4.6-4.5,4.2c-0.3-0.4-0.7-0.7-0.7-1.3c-0.1-15.8-0.1-31.6,0-47.4c0-0.6,0.5-0.9,0.8-1.3
			c3-0.1,3,2.6,3.6,4.3c4.5,11.8,8.9,23.7,13.7,36.8c3.1-8.2,5.9-15.4,8.5-22.6c1.9-5.2,3.7-10.4,5.7-15.5c0.6-1.5,1-4.3,3.8-2
			c1.2,6.5,0.3,13.1,0.5,19.7c0.2,8.3,0.1,16.7,0,25C247.5,211.4,248.3,213.2,246.6,214.3z"/>
		<path class="st119" d="M187.6,164.1c7.8,0,12.7,3.7,13.7,10.2c0.3,1.7,0.4,3.1-1.8,3.5c-2.2,0.4-2.5-0.7-2.8-2.6
			c-0.9-5.3-4.5-6.9-9.5-6.8c-4.6,0.1-7.8,1.8-8.8,6.5c-1.1,4.9,1.3,8.1,5.4,10.1c3.4,1.7,7.1,2.9,10.5,4.6
			c6.2,3.2,8.9,9.3,7.3,15.7c-1.6,6.1-7,9.9-14.3,9.9c-7.3,0-12.5-3.7-14.2-10c-0.6-2.2-1-4.1,2.1-4.7c3.3-0.7,2.2,1.8,2.4,3.2
			c0.7,4.2,3.2,6.5,7.4,6.7c4.6,0.3,9.6,0.6,11.4-5c1.3-4.1,1.2-8.3-3-11.2c-3.4-2.3-7.3-3.2-11-4.8c-4.8-2.1-8.3-5.2-8.8-10.7
			C172.8,169.5,178,164.1,187.6,164.1z"/>
		<path class="st120" d="M150.4,164.1c7.4,0,12.9,3.7,13.6,9.5c0.2,1.5,1.1,3.7-1.6,4.2c-2.4,0.5-2.2-1.3-2.7-2.8
			c-1.7-5.3-4.6-7-10.8-6.6c-4.3,0.3-6.9,2.6-7.7,6.6c-1,5,1.6,8.3,6.1,10.3c3.3,1.5,6.8,2.7,10.1,4.3c6.3,3.2,8.7,8.9,7,15.7
			c-1.6,6.2-6.4,9.7-13.6,9.9c-7.2,0.2-13-3.4-14.5-9.5c-0.5-1.9-1.5-4.3,1.5-5.2c3.6-1,2.4,2.2,2.8,3.6c1.5,5.5,5.5,6.5,10.5,6.5
			c4.4,0,7.5-1.8,8.8-5.9c1.5-4.8-0.3-9-5-11.3c-3.3-1.6-6.8-2.7-10.1-4.3c-6.9-3.2-9.4-8.4-7.8-15.8
			C138.1,167.6,143.2,164.1,150.4,164.1z"/>
		<path class="st119" d="M23.6,189.6c0-4.5-0.2-9,0-13.6c0.3-6.2,4.4-10.8,10-11.7c8.7-1.4,14.8,1.1,17.3,7.2c0.5,1.3,0.7,2.7,0.9,4
			c0.2,1.5-0.2,2.7-2,3.1c-2.1,0.4-2-1-2.4-2.4c-1.7-6.7-3.8-8.1-10.8-7.8c-5.3,0.2-8,2.8-8,8.1c-0.1,8.5,0,17,0,25.6
			c0,4.7,2,7.6,6.9,8.2c6.8,0.9,10.4-1.2,12-6.4c0.4-1.3-1.1-4.1,2.2-3.6c3.2,0.5,2.4,3,2.1,4.9c-1,6.2-7.6,10.3-15.2,9.8
			c-7.3-0.5-12.4-5.2-12.8-12C23.4,198.6,23.6,194.1,23.6,189.6z"/>
		<path class="st118" d="M325.8,165c3.3-1.3,5-0.3,6.3,2.7c1.8,4.1,4.1,8,6,12.1c1.5,3.2,2.6,2.7,3.9-0.1c2-4.2,4.3-8.3,6.2-12.6
			c1.1-2.4,3-3.5,4.9-2.4c2.1,1.2-0.3,2.9-0.9,4.2c-3.1,6.7-8.9,13.4-8.9,20.1c0.1,6.7,6,13.3,9.3,19.9c0.8,1.5,1.4,3.1,2.2,4.7
			c-4.4,0.7-4.4,0.7-6.2-2.8c-2.8-5.5-5.6-11.1-8.7-17c-3.1,6.1-6,11.5-8.6,17.2c-1.3,3-3.1,3.9-6.4,2.8c3.6-7.3,7.1-14.6,10.9-21.8
			c1.3-2.4,1.3-4.3,0-6.7C332.4,178.7,329.2,171.9,325.8,165z"/>
		<path class="st121" d="M290.1,165.3c0.1,16.3,0.2,32.6,0.3,49c-1.5-0.8-1.4-2.3-1.4-3.6c0-14,0-28,0-42
			C289,167.4,289,166.2,290.1,165.3z"/>
		<path class="st122" d="M294.9,214.3c0.1-5.5,0.2-11.1,0.2-16.6c0.1-5.1,1.1-5.7,6.5-3.1c-4.4-0.7-5.4,1.3-5.5,5.5
			C296.1,204.8,298,209.8,294.9,214.3z"/>
		<path class="st121" d="M308.9,164.5c-5.9-0.1-11.9-0.1-17.8-0.2C297.1,162.7,303,162.4,308.9,164.5z"/>
		<path class="st123" d="M260.7,205c-0.3-2.1,1.1-2.2,2.6-2.1c4.3,0.1,8.7,0.2,13,0.3c-3.3,1.6-6.7,0.5-10.1,0.7
			C264.3,204,262.4,204,260.7,205z"/>
		<path class="st124" d="M306.7,193.5c5.7-1.2,10.6-3.8,11.4-9.6c1.2-9.1,1.5-14.7-9.2-19.4c-5.9-1.2-11.9-1-17.8-0.2
			c-0.3,0.3-0.7,0.7-1,1c-0.6,0.7-0.5,1.6-0.5,2.5c0,14.6,0,29.1,0,43.7c0,1-0.3,2.1,0.8,2.8c1.5,0,3,0,4.5,0
			c2-4.9,0.6-10.1,0.8-15.1c0.3-5.6,0.1-5.6,5.9-4.7c3.6,5.5,7.4,10.8,10.8,16.5c1.7,2.8,3.6,4,7.2,2.9
			C315.4,207.2,311.2,200.5,306.7,193.5z M299.5,187.8c-2.6,0-3.9-0.6-3.7-3.5c0.2-3.6,0.2-7.3,0-10.9c-0.2-2.9,1.2-3.5,3.8-3.4
			c3.1,0,6.3,0.5,9.4-0.3c7.5,4.5,7.5,14,0,18.4C305.8,187.4,302.6,187.8,299.5,187.8z"/>
		<path class="st125" d="M308.9,169.7c-1.5,1.4-3.3,0.8-5,0.9c-1.4,0.1-2.8,0-4.2,0c-5.2,0.1-3.7,4.2-3.2,6.5
			c0.8,3.4-3.6,8.8,3.2,10.2c3,0.6,6.2-0.8,9.2,0.9c-13.7,2-13.7,2-13.7-11.3c0-7.6,0-7.7,7.5-7.6
			C304.8,169.2,306.9,169.5,308.9,169.7z"/>
		<path class="st120" d="M79.9,197.5c-1.8-2.7-2.5-4,1.5-5.3c6.4-2.2,9.2-8.6,8-16.4c-1-6.5-5.7-10.9-12.5-11.3
			c-4.2-0.2-8.4,0-12.6-0.1c-2.2-0.1-3.1,0.8-3.1,3c0,14.6,0,29.2,0,43.8c0,1.4-0.2,2.9,2,3c2.4,0.1,2.3-1.6,2.3-3.1
			c0-4.3-0.1-8.7,0.1-13c0.1-1.7-1.1-4.1,1.8-4.7c2.5-0.5,4.7-0.1,6.2,2.5c3.1,5.2,6.6,10.2,9.7,15.5c1.6,2.7,3.5,3.6,6.9,2.4
			C86.8,208.3,83.5,202.8,79.9,197.5z M65.6,178.9c0-9.9,0-9.9,10.1-9.7c6.6,0.1,8.8,2.5,8.9,9.3c0,7.3-2.2,9.8-8.8,10
			C65.6,188.8,65.6,188.8,65.6,178.9z"/>
		<path class="st120" d="M126.4,176.7c-0.1-7.8-4.6-12.3-12.3-12.6c-9.8-0.4-15.5,3.6-15.9,11.8c-0.4,9-0.4,18.1,0,27.1
			c0.3,7.8,6.3,12.4,14.8,12.2c8.1-0.2,13.2-5.1,13.4-12.9c0.1-4.2,0-8.3,0-12.5C126.5,185.4,126.5,181.1,126.4,176.7z M122,203.2
			c-0.2,5.2-4.1,7.5-10.6,7.3c-5.4-0.2-8.1-2.7-8.2-7.9c-0.1-4.3,0-8.7,0-13c0-4.3-0.1-8.7,0-13c0.1-5.1,3-7.9,8.1-8.1
			c6.4-0.3,10.5,2.1,10.7,7.2C122.3,184.8,122.3,194,122,203.2z"/>
		<path class="st126" d="M271.8,170.1c-0.2-0.8-0.4-1.7-0.7-2.5c-0.5-1.2-0.4-3.1-2.2-3c-1.9,0.1-1.6,2-2,3.2
			c-4.3,14.4-8.6,28.8-12.9,43.2c-0.3,1.1-1.8,2.8,0.8,3.1c1.6,0.2,3.1,0.3,3.7-1.9c0.6-2.5,1.6-4.9,2.4-7.4c1-2,2.8-1.5,4.5-1.6
			c3.7-0.1,7.5,0.3,11.2-0.3c1.9,2.2,2,5.1,2.7,7.7c0.8,3.3,2.4,4.3,5.6,3C280.4,199.2,276.1,184.7,271.8,170.1z M265.5,187.4
			c1-3.4,1.9-6.8,2.9-10.5c0.6,0.7,1.1,1,1.3,1.4c1.9,6.6,3.8,13.2,5.7,19.8C262,199.5,262,199.5,265.5,187.4z"/>
	</g>
</g>
<g id="deka">
	<g>
		<path class="st127" d="M208.9,189.4c-2.2,6.1-4.3,12.2-6.8,19.2c-2.4-6.8-4.6-12.9-6.8-19.1c-0.2,0-0.4,0-0.5,0
			c-0.5,4.3-1,8.7-1.4,13c-0.5,5.1-0.5,5.1-5.4,4.6c-2.3-0.3-5.4,0.7-6.7-0.9c-1.3-1.7,0.1-4.5,0.4-6.8c1.3-9.7,2.7-19.4,4-29.2
			c0.3-2,1-2.5,2.9-2.5c8.5-0.1,8.5-0.2,11.1,7.8c0.8,2.5,1.6,5,2.7,8.3c1.6-4.9,3.1-9.2,4.4-13.6c0.5-1.9,1.4-2.6,3.4-2.6
			c8.7,0,8.6-0.1,9.6,8.4c1.1,9.4,2.1,18.9,3.3,28.3c0.2,1.9-0.2,2.3-2,2.4c-2.3,0.1-4.7,0.1-7,0.6c-2.6,0.5-3.3-0.6-3.4-3
			c-0.3-5-0.8-9.9-1.3-14.9C209.2,189.4,209,189.4,208.9,189.4z"/>
		<path class="st127" d="M314.3,189.7c0,4.9,0,9.7,0,14.6c0,1.5-0.3,2.2-2,2.3c-2.9,0.1-5.7,0.5-8.5,0.8c-1.5,0.2-1.9-0.4-1.9-1.8
			c0-11.8,0-23.5,0-35.3c0-1.3,0.2-2.1,1.8-2.1c2.9-0.1,5.7-0.3,8.6-0.7c1.7-0.2,2.1,0.4,2.1,2c-0.1,4.2,0,8.4,0.4,12.7
			c1.6-4,3.3-7.9,4.6-11.9c0.8-2.6,2.2-3.2,4.7-2.8c2.5,0.4,5.1,0.6,7.6,0.7c1.9,0.1,1.9,0.8,1.2,2.3c-1.8,4-3.4,8.1-5.4,12
			c-1.1,2.3-1,4.1,0,6.3c2.3,5,4.3,10.2,6.6,15.2c0.9,2,0.4,2.5-1.6,2.5c-1.3,0-2.6,0.2-4,0.3c-7.3,0.5-7.3,0.5-9.9-6.6
			c-1.3-3.6-2.5-7.1-3.8-10.7C314.7,189.7,314.5,189.7,314.3,189.7z"/>
		<path class="st128" d="M342,193.2c0-4-0.1-8,0-11.9c0-1.6-0.5-2.1-2.1-2.1c-2-0.1-4.9,1.1-5.9-0.7c-0.7-1.3,0.6-3.8,1.1-5.8
			c0.2-0.9,0.5-1.8,0.6-2.7c0.2-1.6,0.9-2.2,2.6-2.2c6.9,0.1,13.9,0.1,20.8,0c2,0,2.5,0.7,2.3,2.5c-0.1,0.9,0,1.8,0,2.8
			c0,1.9,0.5,4.3-0.4,5.7c-0.9,1.4-3.4,0.5-5.2,0.5c-1.8,0-1.5,1.2-1.5,2.3c0,7.4-0.1,14.7,0.1,22.1c0,2.2-0.6,3.1-2.8,3.1
			c-2.4,0.1-4.9,0.4-7.3,0.8c-1.9,0.3-2.5-0.4-2.4-2.3C342.1,201.2,342,197.2,342,193.2z"/>
		<path class="st129" d="M52.3,187.2c0-1.8,0.1-3.7,0-5.5c-0.3-2.5,1-2.7,2.9-2.3c4.2,0.9,6.4,3.8,6.2,8.5c-0.2,4.2-2.7,6.9-6.7,7.4
			c-1.7,0.2-2.5-0.2-2.4-2C52.4,191.3,52.3,189.3,52.3,187.2C52.3,187.2,52.3,187.2,52.3,187.2z"/>
		<path class="st130" d="M159.5,179.5c0.9,3.7,1.7,6.7,2.4,9.8c0.2,1,0.1,1.4-1.1,1.6c-4.2,0.6-4.6,0.2-3.6-3.9
			c0.5-2.1,1.1-4.1,1.6-6.2C159,180.6,159.1,180.4,159.5,179.5z"/>
		<path class="st127" d="M181.2,132.5c-30.3-4.7-60.6-9.6-90.9-14.4c-11.9-1.9-23.8-3.8-35.7-5.7c-1.9-0.3-2.9-0.1-3.2,2.2
			c-2.6,17-5.2,33.9-8,50.9c-0.4,2.2,0.5,2.3,2.2,2.3c3.7,0,7.4-0.1,11,0.2c9.8,0.7,16.7,7.9,17.2,17.9c0.6,10.6-5.5,18.8-15.3,20.5
			c-5.3,0.9-10.6,0.1-15.9,0.4c-2.2,0.1-2.5-0.8-2.5-2.7c0.1-4.7,0-9.4,0-14.1c-0.2,0-0.4,0-0.6,0.1c-2.7,17.1-5.4,34.3-8.2,51.4
			c-0.5,2.8,0.2,3.5,3,4c34.4,5.4,68.9,10.9,103.3,16.3c7.8,1.2,15.5,2.5,23.3,3.7c1.2,0.2,2.6,0.9,3-1.3
			c2.8-18.3,5.7-36.6,8.7-54.8c0.3-2.1-0.3-2.9-2.4-2.3c-2.6,0.7-4.3,0.1-4.5-2.9c-0.2-2.9-1.8-4.1-4.7-3.5c-0.6,0.1-1.2,0-1.8,0
			c-4.8,0-4.9,0-6.2,4.7c-0.5,1.9-1.5,2.3-3.3,2.1c-2.6-0.3-5.3-0.6-7.9-0.7c-1.7-0.1-2.5-0.4-1.8-2.6c4-11.4,7.8-22.8,11.6-34.2
			c0.6-1.7,1.4-2.2,3.1-2.1c3.2,0.1,6.4,0.2,9.5,0c2.1-0.1,3,0.5,3.7,2.6c2,6.4,4.2,12.8,6.4,19.2c0.2,0.6,0,1.5,1.1,1.5
			c2.9-18.3,5.7-36.6,8.8-54.8C184.6,133.5,183.7,132.9,181.2,132.5z M101.4,198.3c-1.8,8.5-1.7,8.5-10.4,8.5c-3.7,0-7.4-0.1-11,0
			c-2.1,0.1-2.8-0.4-2.7-2.7c0.2-5.6,0.1-11.2,0.1-16.9c0-5.6,0.1-11.2,0-16.9c0-1.9,0.4-2.7,2.5-2.7c5.6,0.1,11.2,0,16.9,0
			c0.8,0,1.9-0.4,2.2,0.5c0.8,2.9,1.5,5.9,2,8.9c0.2,1.1-1,0.8-1.6,0.8c-2.5,0-4.9,0-7.4,0c-1.3,0-2.4-0.1-2.4,1.8
			c0,1.8,0.8,1.9,2.2,1.9c5.1,0.1,5.1,0.1,5.1,5.4c0,0.3-0.1,0.6,0,0.9c0.6,3.2-0.8,4.1-3.8,3.8c-1.3-0.1-3.7-1.2-3.6,2
			c0.1,1.5,0.5,1.9,2,1.9c2.6-0.1,5.1,0.1,7.7-0.1C101.1,195.8,101.9,196,101.4,198.3z M126.2,207.4c-1.7,0.2-1.8-1-2.1-2
			c-1.9-5.3-3.9-10.7-6.4-15.9c0,4.8-0.1,9.7,0,14.5c0.1,1.9-0.5,2.5-2.4,2.6c-2.6,0.1-5.3,0.4-7.9,0.8c-1.7,0.3-2.1-0.4-2-2
			c0-11.7,0-23.3,0-35c0-1.6,0.5-2.1,2.1-2.2c2.7-0.1,5.3-0.3,7.9-0.6c1.8-0.2,2.3,0.3,2.3,2.1c-0.1,4.2,0,8.4,0.5,12.7
			c1.6-4.1,3.4-8.2,4.9-12.5c0.7-2,1.5-2.8,3.7-2.5c2.7,0.4,5.5,0.6,8.2,0.8c1.8,0.1,2,0.7,1.3,2.3c-2,4.3-3.8,8.8-5.9,13.1
			c-0.7,1.5-0.6,2.6,0,4c2.7,6.1,5.2,12.2,8,18.6C134.1,206.7,130.1,207,126.2,207.4z"/>
		<path class="st127" d="M298,204.2c-1.9-4.2-3.7-8.4-5.5-12.6c-0.5-1-0.9-1.8,0.4-2.8c4.6-3.3,5.5-7.9,4.1-13.1
			c-1.4-5-5.4-6.9-10.2-7.5c-5.8-0.7-11.6-0.3-17.5-0.4c-1.6,0-1.8,0.8-1.8,2.1c0,12,0,23.9,0,35.9c0,1.8,0.7,2,2.2,1.9
			c2.6-0.3,5.3-0.5,7.9-0.6c1.8,0,2.2-0.7,2.2-2.4c-0.1-4,0-7.9,0-11.9c0.2,0,0.4,0,0.6,0c1.5,4.2,3.1,8.4,4.5,12.6
			c0.6,2,1.6,2.5,3.5,2.1c2.7-0.5,5.5-0.8,8.2-1.1C298.4,206.3,298.7,205.8,298,204.2z M283.6,186.8c-0.9,0.7-2,1.3-3.1,0.9
			c-1.3-0.4-0.5-1.7-0.6-2.7c-0.1-1.1-0.2-2.3,0-3.3c0.2-1-0.9-2.7,0.9-3c1.6-0.3,3,0.5,3.8,2c0.4,0.7,0.5,1.5,0.7,2.1
			C285.1,184.5,284.9,185.9,283.6,186.8z"/>
		<path class="st127" d="M264.8,204.5c-4-11.6-7.8-23.2-11.6-34.9c-0.5-1.4-1.1-1.9-2.6-1.9c-3.7,0.1-7.4,0.1-11,0
			c-1.4,0-2,0.6-2.4,1.8c-3.9,11.7-7.9,23.4-11.9,35.1c-0.5,1.5-0.2,2,1.3,2.1c2.8,0.2,5.5,0.3,8.2,0.8c2.2,0.3,3.6-0.2,3.8-2.6
			c0.3-3.6,2.2-4.9,5.7-4.2c0.2,0,0.4,0,0.6,0c5,0,5,0,6.5,4.7c0.5,1.5,1,2.4,2.6,1.9c3.2-0.3,6.2-0.5,9.3-0.7
			C264.7,206.5,265.5,206.4,264.8,204.5z M245.1,190.7c-0.9-0.2-3,1.1-2.8-1c0.4-2.9,1.4-5.8,2.2-8.7c0.3,0,0.5,0,0.8,0
			c0.7,2.8,1.5,5.6,2.1,8.4C247.7,191.6,245.9,190.9,245.1,190.7z"/>
	</g>
</g>
<g id="brick_zero" class="st0">
	<path class="st131" d="M324,188.8c0-22.6-0.2-45.1,0.1-67.7c0.1-7.3-2.3-11.6-8.7-15.3C276,83.4,236.7,60.7,197.6,37.8
		c-6.1-3.5-10.7-3.5-16.7,0C141.7,60.7,102.5,83.4,63,105.9c-6.4,3.6-8.8,7.8-8.8,15.2c0.3,45.1,0.3,90.3,0,135.4
		c-0.1,7.8,2.5,12.2,9.2,16c39.4,22.5,78.7,45.2,117.9,68.1c5.6,3.3,10.2,3.4,15.8,0.1c39.5-23,79.1-45.9,118.7-68.6
		c6-3.4,8.4-7.6,8.3-14.5C323.8,234.6,324,211.7,324,188.8z M177.9,317.1c-34.9-19.2-69.5-39-103.4-59.9
		c-1.3-16.9-1.5-33.9,0.1-50.8c34.7,19.6,69.5,38.9,103.3,60C179.5,283.4,179.6,300.3,177.9,317.1z M177.9,244.3
		c-34.9-19.2-69.4-39-103.4-59.8c-1.2-17-1.5-33.9,0.1-50.9c34.7,19.5,69.5,38.9,103.3,60C179.5,210.6,179.6,227.5,177.9,244.3z
		 M195.1,175.3c-3.2,1.9-5.8,3.6-10,1.1c-34.2-20-68.6-39.8-103.9-60.2c35.6-20.5,70.2-40.4,104.6-60.5c4-2.3,6.3-0.3,9,1.3
		c33.8,19.5,67.5,39,102.5,59.2c-15,8.7-29.3,17-43.7,25.3C234.1,152.8,214.6,164,195.1,175.3z M202.2,293c-2-1-3-2.7-3-4.8
		c0.5-31.5-1.2-62.9,0.8-94.4c29.2-17.2,58.3-34.3,87.7-51.6c1.9,3.7-1,5.3-2.2,7.3c-25.7,44.8-51.5,89.6-77.4,134.4
		C206.4,287,204.2,290,202.2,293z M299.1,260.9c-27.3,15.7-54.5,31.4-81.8,47.1c-0.5-0.6-0.9-1.1-1.4-1.7c28.3-49,56.6-98,84.9-147
		c0.7,0.2,1.3,0.4,2,0.6c0,31.5,0,63,0,94.5C302.8,257.5,301.7,259.4,299.1,260.9z"/>
</g>
<g id="deen" class="st0">
	<g class="st7">
		<path class="st132" d="M189.3,95.8c56.1,0,112.3,0,168.4,0c1.6,0,2.1,0.4,2.1,2.1c0,43.1-0.1,86.1,0,129.2c0,1.6-0.5,2-2,2
			c-112.4,0-224.8,0-337.2,0c-1.6,0-1.9-0.5-1.9-2c0-43,0-86,0-129c0-1.8,0.5-2.2,2.3-2.2C77,95.8,133.1,95.8,189.3,95.8z"/>
		<path class="st133" d="M359.6,267.3c0.2,4.1,0.2,8.3,0,12.4c0.1,2.5,0,2.5-2.4,2.5c-110.6,0-221.2,0-331.8,0c-1.7,0-3.5-0.1-5.2,0
			c-1,0.1-1.4-0.2-1.4-1.3c0-12.5,0-25.1,0-37.6c0-1.3,0.6-1.6,1.7-1.6c111,0,221.9,0,332.9,0c1.4,0,2.9,0.1,4.3,0
			c1.3-0.1,1.7,0.6,1.8,1.6c0,0.4,0.1,0.7,0.1,1.1C359.6,252.1,359.7,259.7,359.6,267.3z"/>
		<path class="st134" d="M359.6,267.3c-0.3-4.3-0.1-8.7-0.1-13.1c0-3.2,0-6.3,0-9.5c0-2.2-0.5-2.7-2.6-2.7c-38.3,0-76.7,0-115,0
			c-72.3,0-144.7,0-217,0c-1.4,0-2.8,0.4-4.2,0.1c-1.1-0.3-1.6,0.4-1.6,1.5c0,3.2,0,6.4,0,9.7c0,9,0,17.9,0,26.9c0,1.5,0.3,2.1,2,2
			c3-0.1,5.9,0,8.9,0c107.7,0,215.5,0,323.2,0c1.2,0,2.4-0.1,3.6,0c2.4,0.1,2.7-0.1,3-2.4c0,0.5,0.1,0.9,0.1,1.4
			c0.1,1-0.2,1.4-1.3,1.3c-1.1-0.1-2.3,0-3.4,0c-111.5,0-223,0-334.5,0c-1.5,0-2-0.2-2-1.9c0.1-12.4,0.1-24.7,0-37.1
			c0-1.5,0.4-1.9,1.9-1.9c112.4,0,224.8,0,337.2,0c1.8,0,2.1,0.5,2.1,2.2c-0.1,7.2,0,14.3,0,21.5C359.7,266,359.7,266.6,359.6,267.3
			z"/>
		<path class="st14" d="M313.3,173.1c0-1.2,0-2,0-2.8c0-14.7,0-29.4,0-44.1c0-1.8,0.5-2.2,2.2-2.1c5,0.1,9.9,0.1,14.9,0
			c1.2,0,1.5,0.3,1.5,1.5c0,24.5,0,49,0,73.4c0,1.1-0.3,1.5-1.4,1.4c-6.8,0-13.6,0-20.4,0c-1,0-1.5-0.3-2-1.1
			c-7.1-11.6-14.2-23.2-21.3-34.8c-2.6-4.2-5.2-8.4-7.8-12.7c-0.2-0.4-0.6-0.7-1.2-1.5c0,1.2,0,1.9,0,2.7c0,15.2,0,30.3,0,45.5
			c0,1.4-0.3,2-1.9,1.9c-5-0.1-10-0.1-15,0c-1.2,0-1.6-0.3-1.6-1.6c0-24.4,0-48.8,0-73.3c0-1.3,0.5-1.6,1.7-1.6c6.9,0,13.7,0,20.6,0
			c1.2,0,1.9,0.4,2.6,1.4c9.5,15.6,19,31.1,28.5,46.6C312.7,172.4,312.8,172.5,313.3,173.1z"/>
		<path class="st14" d="M46.3,162.3c0-12.1,0-24.1,0-36.2c0-1.6,0.4-2,2-2c10.1,0.2,20.2-0.3,30.3,0.3c7,0.5,13.7,2,19.9,5.3
			c8.2,4.3,14,10.7,16.6,19.7c3.3,11.7,2.9,23-3.9,33.5c-4.6,7.2-11.4,11.7-19.4,14.6c-6.1,2.2-12.4,3.1-18.8,3
			c-8.3,0-16.6,0-24.9,0c-1.3,0-1.8-0.3-1.8-1.8C46.3,186.6,46.3,174.5,46.3,162.3C46.3,162.3,46.3,162.3,46.3,162.3z"/>
		<path class="st135" d="M127.3,162.3c0-12.1,0-24.2,0-36.4c0-1.4,0.4-1.8,1.8-1.8c16.3,0,32.6,0.1,48.9,0c1.6,0,2,0.4,2,2
			c-0.1,4.5-0.1,9,0,13.4c0,1.5-0.4,1.9-1.9,1.9c-10.1-0.1-20.2,0-30.3-0.1c-1.6,0-2.1,0.4-2,2c0.1,2.7,0.1,5.4,0,8.1
			c-0.1,1.5,0.5,1.7,1.8,1.7c9.5,0,19,0,28.5-0.1c1.4,0,2,0.3,1.9,1.8c-0.1,4.5-0.1,9.1,0,13.6c0,1.5-0.5,1.9-1.9,1.8
			c-9.5-0.1-19,0-28.5-0.1c-1.4,0-1.8,0.4-1.8,1.8c0.1,3.2,0.1,6.3,0,9.5c0,1.3,0.4,1.7,1.7,1.7c10.8-0.1,21.6,0,32.4,0
			c2.3,0,2.3,0,1.6,2.1c-1.5,4.5-3,8.9-4.4,13.4c-0.4,1.5-1.2,1.8-2.5,1.8c-13.3,0-26.6,0-39.9,0c-1.9,0-3.8-0.1-5.7,0
			c-1.4,0.1-1.7-0.4-1.7-1.7C127.3,186.6,127.3,174.5,127.3,162.3C127.3,162.3,127.3,162.3,127.3,162.3z"/>
		<path class="st14" d="M193.2,162.4c0-12.1,0-24.2,0-36.4c0-1.4,0.3-1.9,1.9-1.9c16.4,0.1,32.8,0.1,49.3,0c1.6,0,2,0.3,1.4,1.9
			c-1.6,4.6-3.2,9.2-4.6,13.9c-0.4,1.2-0.9,1.5-2.1,1.5c-8.4,0-16.8,0-25.3-0.1c-1.4,0-2,0.3-1.9,1.9c0.1,2.7,0.1,5.5,0,8.2
			c-0.1,1.4,0.4,1.7,1.7,1.7c9.6-0.1,19.1,0,28.7-0.1c1.4,0,2,0.3,1.9,1.8c-0.1,4.5-0.1,9,0,13.4c0,1.5-0.3,2-1.9,2
			c-9.4-0.1-18.9,0-28.3-0.1c-1.7,0-2.1,0.6-2,2.1c0.1,2.9,0.1,5.9,0,8.8c-0.1,1.6,0.3,2.1,2,2.1c10.7-0.1,21.4,0,32.1-0.1
			c1.4,0,1.9,0.3,1.9,1.8c-0.1,4.7-0.1,9.3,0,14c0,1.2-0.3,1.5-1.5,1.5c-17.1,0-34.3,0-51.4,0c-1.4,0-1.7-0.5-1.7-1.8
			C193.2,186.7,193.2,174.6,193.2,162.4z"/>
		<path class="st136" d="M181,258.2c-0.9,2.6-1.8,5.1-2.7,7.7c-0.4,1.2-1,2.5-1.3,3.7c-0.3,1.4-1,1.9-2.5,1.8
			c-1.1-0.1-1.5-0.5-1.8-1.5c-1.3-4-2.6-7.9-4.3-11.8c0,3.9-0.1,7.8,0,11.6c0.1,1.8-0.9,1.6-2,1.5c-1-0.1-2.2,0.5-2.2-1.5
			c0.1-5.2,0.1-10.4,0-15.6c0-1.2,0.2-1.6,1.5-1.6c4.7,0,4.7,0,6.2,4.4c0.8,2.4,1.7,4.8,2.8,7.7c1.4-3.9,2.7-7.3,3.8-10.7
			c0.3-1,0.7-1.5,1.9-1.4c1.6,0.2,3.6-0.7,4.6,0.4c0.9,1,0.3,3,0.3,4.5c0,4.1-0.1,8.1,0,12.2c0.1,2.5-1.7,1.3-2.7,1.6
			c-1.3,0.3-1.5-0.4-1.5-1.6c0.1-3.8,0-7.6,0-11.5C181.2,258.3,181.1,258.2,181,258.2z"/>
		<path class="st137" d="M303.9,258.8c0,3.6-0.1,7.2,0,10.8c0.1,1.6-0.7,1.8-1.9,1.6c-1.1-0.1-2.4,0.5-2.3-1.6
			c0.1-5.1,0-10.3-0.1-15.4c0-1.2,0.3-1.5,1.6-1.7c3-0.4,4.9,0.6,6.3,3.4c1.5,3.1,3.5,5.9,5.4,9c0.5-0.6,0.3-1.2,0.3-1.7
			c0-3,0-6.1,0-9.1c0-1.1,0.2-1.7,1.5-1.5c0.4,0.1,0.8,0.1,1.3,0c1.1-0.1,1.6,0.2,1.6,1.5c-0.1,5.2-0.1,10.5,0,15.7
			c0,1.1-0.4,1.3-1.4,1.4c-2.9,0.4-4.7-0.5-6.1-3.2c-1.6-3.3-3.8-6.3-5.7-9.4C304.2,258.7,304,258.8,303.9,258.8z"/>
		<path class="st138" d="M153.9,263.7c1.5,2.4,2.9,4.9,4.6,7.6c-1.7,0-3.1,0-4.5,0c-0.7,0-0.8-0.6-1.1-1c-0.9-1.7-1.9-3.5-2.7-5.2
			c-0.4-0.9-0.9-1.3-1.9-1.2c-1.2,0.2-0.6,1.1-0.6,1.7c-0.1,1.5-0.1,3,0,4.5c0.1,1-0.2,1.3-1.3,1.3c-2.9,0-2.9,0.1-2.9-2.9
			c0-4.8,0-9.5,0-14.3c0-1.2,0.3-1.5,1.5-1.5c2.3,0.1,4.5,0,6.8,0c4.2,0.2,6.3,2.5,6,6.3C157.5,261.1,156.7,262.1,153.9,263.7z"/>
		<path class="st137" d="M216.5,261.9c0-2.6,0-5.2,0-7.9c0-1,0.3-1.4,1.3-1.3c2.4,0.1,4.8-0.1,7.2,0.1c4.4,0.2,6.7,3.5,5.5,7.4
			c-0.4,1.2-1,2.4-2.3,2.8c-1.4,0.5-1.1,1.1-0.5,2c1.1,1.6,2.1,3.3,3.1,5c0.5,0.8,0.7,1.2-0.6,1.4c-2.6,0.3-4.3-0.3-5.2-3
			c-0.4-1.3-1.4-2.5-1.9-3.8c-0.4-0.9-1.1-0.8-1.8-0.7c-0.8,0.1-0.5,0.8-0.5,1.3c0,1.6-0.1,3.2,0,4.8c0,1-0.3,1.4-1.3,1.3
			c-0.4,0-0.7,0-1.1,0c-1.4,0.2-1.9-0.3-1.8-1.7C216.6,267,216.5,264.5,216.5,261.9C216.5,261.9,216.5,261.9,216.5,261.9z"/>
		<path class="st139" d="M254.1,252.9c-2.4,2.5-4.5,5-6.9,7.2c-1.2,1.1-0.9,1.7,0,2.7c2.5,2.7,5,5.5,7.8,8.6c-3-0.1-5.8,1-7.8-2.2
			c-1.4-2.2-3.4-4.1-5.5-6.5c0,2.7-0.1,4.9,0,7c0.1,1.3-0.3,1.8-1.7,1.7c-2.5-0.1-2.5,0-2.5-2.4c0-4.8,0.1-9.7,0-14.5
			c0-1.5,0.5-1.8,1.8-1.7c1.2,0.1,2.6-0.4,2.3,1.8c-0.2,1.7,0,3.4,0.4,5.4c1.4-1.5,3.1-2.9,4.3-4.6
			C248.3,252.4,250.9,252.3,254.1,252.9z"/>
		<path class="st137" d="M123.3,262c0-2.7,0-5.4,0-8.1c0-0.9,0.2-1.3,1.2-1.2c3.4,0.1,6.8,0.1,10.2,0c1.5,0,1.3,0.9,1.2,1.8
			c-0.1,0.8,0.7,2.2-1.2,2.1c-2-0.1-4.1,0.1-6.1,0c-1.5-0.1-1.2,0.9-1.3,1.7c0,0.9-0.1,1.8,1.3,1.7c1.8-0.1,3.7,0,5.5,0
			c0.9,0,1.3,0.2,1.3,1.2c0.1,2.7,0.1,2.7-2.6,2.7c-1.4,0-2.9,0.1-4.3,0c-1.3-0.1-1.4,0.7-1.2,1.6c0.1,0.8-0.7,2.2,1.2,2.2
			c2.1,0,4.3,0,6.4,0c1,0,1.4,0.1,1.1,1.3c-0.7,2.5-0.6,2.5-3.2,2.5c-2.7,0-5.5,0-8.2,0c-1,0-1.3-0.3-1.3-1.3
			C123.3,267.4,123.3,264.7,123.3,262z"/>
		<path class="st140" d="M286,271.3c-1.7,0-3.5,0-5.2,0c-0.9,0-1.3-0.1-1.3-1.2c0-5.4,0-10.9,0-16.3c0-0.8,0.2-1.2,1.1-1.2
			c3.5,0,6.9,0,10.4,0c0.9,0,1.1,0.2,0.9,1.1c-0.7,2.6-0.6,2.6-3.4,2.6c-1,0-2,0.1-3,0c-1.6-0.2-1.9,0.6-1.8,2
			c0,1.1,0.3,1.6,1.5,1.5c1.8-0.1,3.6,0,5.4,0c1.3-0.1,1.3,0.8,1.2,1.6c-0.1,0.8,0.7,2.2-1.1,2.2c-1.9,0-3.8,0.1-5.7,0.1
			c-1.5,0-1.2,1-1.2,1.8c0,0.8-0.4,1.9,1.1,1.9c2.2-0.1,4.4,0.1,6.6,0c1.7-0.1,1.2,1.1,1.2,1.9c0,0.9,0.4,2-1.2,1.9
			C289.5,271.2,287.8,271.3,286,271.3z"/>
		<path class="st139" d="M79.2,259.3c0-1.7,0.1-3.5,0-5.2c-0.1-1.1,0.3-1.6,1.4-1.4c0.5,0.1,1,0.1,1.4,0c1-0.1,1.3,0.3,1.3,1.3
			c0,3.1,0,6.2,0,9.3c0,1,0,1.9,0.6,2.8c0.9,1.5,2.2,2.1,4,1.8c1.7-0.3,2.8-1.7,2.9-3.6c0.1-3.3,0.2-6.6,0-9.8
			c-0.1-2.1,1.2-1.6,2.4-1.7c1.4-0.2,2,0.2,1.9,1.8c-0.1,3.2,0,6.4,0,9.7c-0.1,4.8-3,7.6-7.8,7.6c-5,0-7.9-2.8-7.9-7.7
			C79.2,262.6,79.2,261,79.2,259.3z"/>
		<path class="st141" d="M191.4,271.3c0.2-1.5,0.9-2.6,1.4-3.8c1.9-4.6,4-9.1,5.8-13.6c0.5-1.2,1.3-1.2,2.3-1.2
			c0.9,0,1.8-0.1,2.3,1.1c2.3,5.4,4.7,10.8,7.1,16.2c0.5,1.1,0.2,1.4-0.9,1.3c-0.4,0-0.8-0.1-1.3,0c-1.6,0.3-2.5-0.4-2.8-1.9
			c-0.3-1.7-1.3-2.4-3-2.1c-0.4,0.1-0.8,0.1-1.3,0c-2.5-0.4-4.5,0.1-4.9,3c-0.1,0.7-0.5,1-1.3,0.9
			C193.7,271.3,192.6,271.3,191.4,271.3z"/>
		<path class="st137" d="M102.6,262c0-2.7,0-5.4,0-8c0-0.6-0.1-1.3,0.8-1.2c3,0.1,6-0.3,8.9,0.3c2.9,0.6,4.2,2.3,4.3,5.3
			c0,3.1-1.3,4.8-4.2,5.5c-1.4,0.3-2.8,0.3-4.3,0.3c-1,0-1.4,0.2-1.3,1.3c0.1,1.5,0,3.1,0,4.6c0,1-0.3,1.4-1.3,1.3
			c-3.5-0.1-2.8,0.5-2.9-2.8C102.6,266.4,102.6,264.2,102.6,262C102.6,262,102.6,262,102.6,262z"/>
		<path class="st141" d="M66.7,252.3c1.7,0,3.3,0.4,4.8,1.3c0.7,0.4,0.8,0.8,0.2,1.4c-0.4,0.4-0.8,0.8-1.2,1.3
			c-0.6,0.8-1.1,0.9-2,0.3c-1-0.7-2.3-0.6-3.5-0.2c-0.7,0.2-1.1,0.7-1.2,1.4c-0.1,0.7,0.3,1.2,0.9,1.6c1,0.6,2.2,0.8,3.4,1.2
			c2.9,1,4.2,2.6,4.2,5.1c0,2.8-1.7,4.9-4.5,5.7c-2.7,0.7-5.3,0.5-7.8-1c-1-0.6-1.3-1.2-0.3-2c0.4-0.3,0.8-0.8,1.1-1.2
			c0.6-0.8,1-0.9,1.8-0.2c1.2,1,2.7,1.3,4.2,0.7c0.7-0.3,1.2-0.8,1.2-1.6c0-0.7-0.4-1.3-1-1.6c-1-0.4-2-0.8-3-1.2
			c-3.8-1.3-5-2.9-4.6-6.2c0.4-2.6,2.9-4.6,6.1-4.9C66,252.4,66.3,252.4,66.7,252.3z"/>
		<path class="st142" d="M268.1,263.8c0,2-0.1,4.1,0,6.1c0,1.1-0.3,1.6-1.4,1.4c-0.5-0.1-1-0.1-1.4,0c-1.1,0.1-1.4-0.3-1.4-1.4
			c0-4.1,0-8.1,0-12.2c0-1.2-0.4-1.6-1.5-1.5c-0.5,0.1-1.1,0-1.6,0c-2.3,0-2.3,0-2.2-2.4c0-1.1,0.4-1.3,1.4-1.3
			c4.1,0,8.1,0.1,12.2,0c1.6,0,1.3,0.9,1.3,1.8c0,0.9,0.3,1.9-1.3,1.9c-1.3-0.1-3-0.6-3.7,0.3c-0.6,0.8-0.2,2.5-0.3,3.8
			C268.1,261.6,268.1,262.7,268.1,263.8z"/>
		<path class="st143" d="M336.1,257.8c2.3,0,4.3,1.8,4.3,4.1c0.1,2.3-1.8,4.2-4.1,4.3c-2.3,0.1-4.3-1.8-4.3-4.1
			C331.9,259.7,333.8,257.8,336.1,257.8z"/>
		<path class="st137" d="M46.3,262.3c-0.1,2.4-2,4.1-4.4,4c-2.3-0.1-4-2-4-4.4c0.1-2.3,2-4,4.4-4C44.8,258.1,46.5,259.9,46.3,262.3z
			"/>
		<path class="st132" d="M64.8,162.4c0-6.4,0-12.8,0-19.2c0-1.5,0.5-1.9,1.9-1.9c5.9,0.1,11.8-0.3,17.5,1.7
			c6.2,2.2,11,5.9,12.7,12.5c2.2,8.3,0.6,19.4-8.4,24.1c-3.9,2.1-8.2,3.2-12.6,3.4c-3.2,0.1-6.4,0-9.7,0.1c-1.2,0-1.5-0.3-1.5-1.5
			C64.9,175.3,64.8,168.9,64.8,162.4C64.8,162.4,64.8,162.4,64.8,162.4z"/>
		<path class="st144" d="M149.7,260.4c-0.6-0.2-1.7,0.5-2-0.5c-0.3-1.1-0.1-2.2,0-3.4c0-0.3,0.5-0.3,0.7-0.3c1,0,2,0,3,0.1
			c1.1,0.1,1.9,0.7,1.9,2c0,1.3-0.8,1.9-2,2C150.9,260.4,150.3,260.4,149.7,260.4z"/>
		<path class="st145" d="M222.8,260.4c-0.7-0.2-1.8,0.4-1.9-0.3c-0.3-1.1-0.1-2.3-0.1-3.5c0-0.3,0.4-0.4,0.7-0.3c1,0,2,0,3,0.1
			c1.2,0.2,2,0.8,1.9,2.1c-0.1,1.2-0.9,1.7-2,1.8C223.9,260.3,223.3,260.4,222.8,260.4z"/>
		<path class="st146" d="M200.9,258.3c0.7,1.8,1.2,3.2,1.8,4.5c0.4,1,0,1.1-0.8,1.1c-3.3,0.2-3.3,0.2-2.1-2.9
			C200.1,260.2,200.4,259.5,200.9,258.3z"/>
		<path class="st147" d="M106.8,258.1c-0.1-0.9-0.3-2,1.7-1.9c2.7,0.2,3.8,0.7,3.8,2.2c0,1.5-1.1,2.2-3.6,2.2
			C106.8,260.7,106.8,260.7,106.8,258.1z"/>
	</g>
</g>
<g id="webequity" class="st0">
	<path class="st148" d="M329.4,139.1c0-6.9-0.6-13.5-2.9-20c-3.6-10-9.9-17.9-18.4-23.9c-8-5.6-16.6-10.3-25.2-15.1
		c-7.2-4-14.3-8.4-21.5-12.5c-11.6-6.5-22.9-13.3-34.5-19.8c-5.4-3-10.7-6.3-16.2-9c-3.5-1.7-7.2-2.2-10.8-3.4c-7.6,0-15.2,0-22.8,0
		c-0.8,0.7-1.9,0.6-2.9,0.7c-3.3,0.4-6.5,1.4-9.3,3c-12.4,7-24.8,14.1-37.1,21.3c-16.2,9.5-32.5,18.7-48.7,28.2
		c-6.2,3.6-12.5,7.1-17.3,12.7c-1,1.7-2.1,3.4-3.3,5c-6.2,8.6-9.7,18.2-9.7,29c0.1,35.1,0.1,70.2,0,105.3c0,9.3,2,18,7,25.9
		c4.5,7.1,10,13.2,17.3,17.6c2.8,1.7,6,2.7,8.1,5.6c4.6,3.1,9.7,5.5,14.5,8.3c10.5,6.3,21.2,12.3,31.8,18.4c2.7,0.3,4.6,2.4,6.9,3.5
		c6.2,3,12.1,6.5,18,10.2c12.1,7.6,24.6,13.7,39.5,12.6c7.7-0.5,15-2.2,21.8-5.8c8.2-4.5,16.2-9.4,24.4-14
		c9.6-5.5,19.3-10.9,28.8-16.5c9.9-5.9,20.2-11.3,30.1-17.4c6.4-3.9,12.9-7.5,18.2-12.9c9.3-9.6,14.3-20.9,14.3-34.2
		C329.4,207.5,329.3,173.3,329.4,139.1z M246.8,132.8c7.2-0.1,14.4,0,21.6,0c0,0,0,0,0,0c7.3,0,14.6,0.1,21.9,0
		c2.5,0,3.3,0.8,3.2,3.3c-0.2,4-0.1,8,0,12c0,2-0.7,2.9-2.8,2.9c-14.7-0.1-29.4,0-44.1-0.1c-5,0-9-4.1-9.1-8.9
		C237.6,136.9,241.5,132.9,246.8,132.8z M209.4,241.2c-12.8,4.8-25.6,4.7-38.2-0.3c-4.1-1.6-7.5-4.6-10.5-7.8
		c-2.1-2.2-2.1-2.1-4.1,0.2c-3.5,4-7.9,7.2-12.9,8.8c-13.5,4.4-26.8,3.7-39.8-2.3c-1.7-0.8-3.2-2-4.7-3.1
		c-9.4-7.3-14.1-17.1-14.3-28.8c-0.3-16.4-0.2-32.8-0.2-49.2c0-7.3,0-14.6,0-21.9c0-3.3,0.7-4,4.1-4c5,0,10,0,15,0
		c4,0,4.5,0.4,4.5,4.5c0,21.7,0,43.4,0,65.1c0,6,1.1,11.8,6,16c5.9,5.1,12.8,5.4,19.8,3.7c6.9-1.7,10.5-6.7,12.1-13.5
		c0.8-3.3,1-6.7,1-10.1c0-20.4,0-40.8,0-61.2c0-4.5,0.2-4.7,4.8-4.7c4.7,0,9.4,0,14.1,0c4.2,0,4.6,0.4,4.6,4.7c0,20.3,0,40.6,0,60.9
		c0,4.8,0.5,9.6,2.3,14.1c2,5,5.5,8.3,10.7,9.6c8.8,2.3,20,0.1,24-9c1.2-2.8,1.9-5.7,2-8.7c0-4.2,0-8.4-0.1-12.6
		c-0.4-18.5-0.5-37-0.4-55.5c0-2.4,1.1-3.4,3.5-3.4c5.7,0,11.4,0,17.1,0c2.2,0,3.2,0.9,3.2,3.3c-0.1,23.9,0.3,47.8-0.2,71.7
		C232.3,222.7,224,235.7,209.4,241.2z M293.6,241.7c0.1,2.1-0.6,3.1-2.9,3.1c-16.6-0.1-33.2,0-49.8-0.1c-4.9,0-8.6-2.9-9.6-7
		c-0.9-3.7,0.9-7.5,4.3-9.7c1.7-1.1,3.6-1.2,5.5-1.2c8.1,0,16.2,0,24.3,0c8.3,0,16.6,0.1,24.9,0c2.5,0,3.4,0.8,3.3,3.3
		C293.4,233.9,293.5,237.8,293.6,241.7z M293.6,194.6c0.1,2.3-0.7,3.2-3.1,3.2c-14.4-0.1-28.8,0-43.2-0.1c-5.7,0-9.8-4-9.7-9.2
		c0.1-5.1,4.1-8.7,9.8-8.8c7.1-0.1,14.2,0,21.3,0c7.2,0,14.4,0.1,21.6,0c2.4,0,3.5,0.6,3.3,3.2C293.4,186.8,293.5,190.7,293.6,194.6
		z"/>
</g>
<g id="kruidvat" class="st0">
	<g class="st7">
		<path class="st149" d="M189.2,235.5c-42.6,0-85.3,0-127.9,0c-7.1,0-13.9-1.4-20.3-4.5c-13.3-6.6-21.8-17.2-25.3-31.6
			c-1.3-5.2-1.5-10.4-0.8-15.7c2.2-19,16-34.8,34.6-39.6c3.8-1,7.7-1.4,11.7-1.4c85.4,0,170.9,0,256.3,0c20.5,0,38.4,13.2,44.5,32.7
			c1.8,5.9,2.4,12,1.8,18.1c-1.9,19.4-15.8,35.8-34.7,40.6c-3.9,1-7.8,1.4-11.8,1.4C274.5,235.5,231.8,235.5,189.2,235.5z"/>
		<path class="st14" d="M96.4,189.1c0,19-15.5,34.4-34.4,34.4c-19,0-34.4-15.5-34.4-34.4c0-19,15.4-34.3,34.4-34.4
			C80.9,154.7,96.4,170.2,96.4,189.1z"/>
		<path class="st14" d="M114.9,191.1c0,0.3,0,0.5,0,0.6c0,6.2,0,12.4,0,18.6c0,1.5-0.1,1.6-1.6,1.6c-2.3,0-4.5,0-6.8,0
			c-0.9,0-1.2-0.2-1.2-1.2c0-4.4,0-8.7,0-13.1c0-10.5,0-21,0-31.5c0-1.6,0.1-1.7,1.7-1.7c2.2,0,4.3,0,6.5,0c1.1,0,1.4,0.2,1.4,1.4
			c0,6.3,0,12.6,0,18.9c0,0.2,0,0.4,0,0.6c0.2,0,0.2-0.2,0.3-0.3c4.8-6.7,9.6-13.3,14.4-20c0.9-1.3,1-1.3,2.5-0.6
			c1.6,0.8,3.2,1.6,4.8,2.4c0.2,0.1,0.4,0.2,0.6,0.3c0.4,0.3,0.5,0.6,0.3,1.1c-0.1,0.1-0.2,0.3-0.3,0.4c-4.7,6.2-9.4,12.5-14,18.7
			c-0.2,0.3-0.2,0.5,0,0.8c5.2,6.5,10.4,12.9,15.6,19.4c0.2,0.3,0.5,0.5,0.6,0.9c0.3,0.6,0.2,0.9-0.4,1.2c-0.6,0.3-1.2,0.7-1.9,1
			c-1.3,0.7-2.6,1.3-3.9,2c-0.5,0.2-0.9,0.4-1.4,0.5c-0.2,0.1-0.5,0-0.6-0.2c-0.2-0.3-0.5-0.5-0.7-0.8c-5.2-6.8-10.3-13.6-15.5-20.4
			C115.2,191.5,115.1,191.4,114.9,191.1z"/>
		<path class="st14" d="M238.5,178.6c0-3.1,0-6.2,0-9.3c0-1.6,0-3.2,0-4.9c0-0.7,0.1-0.9,0.8-1c2.4-0.5,4.7-1,7.1-1.4
			c0.6-0.1,0.8,0.1,0.9,0.7c0,0.3,0,0.5,0,0.8c0,13.5,0,26.9,0,40.4c0,1.9,0.3,3.7,1.2,5.4c0.4,0.8,0.3,1-0.5,1.4
			c-1.8,0.7-3.6,1.5-5.4,2.2c-1,0.4-1.4,0.2-1.9-0.7c-0.4-0.7-0.6-1.4-0.8-2.2c-0.1-0.4-0.2-0.4-0.5-0.2c-1.8,1.4-3.8,2.5-6.1,3.1
			c-3,0.7-5.9,0.6-8.5-1.1c-2.1-1.4-3.4-3.4-4.3-5.6c-1.1-2.9-1.6-5.9-1.6-8.9c-0.1-3.5,0.1-7,1-10.4c0.9-3.2,2.5-6,5.2-7.9
			c3.7-2.6,7.6-2.7,11.7-1C237.3,178,237.9,178.3,238.5,178.6z"/>
		<path class="st14" d="M185.5,209.1c-0.4,0.4-0.8,0.7-1.2,1c-2.4,2.1-5.3,3.1-8.5,3c-2.1-0.1-4.2-0.4-6-1.6
			c-2.1-1.4-3.4-3.3-3.7-5.9c-0.3-2.1-0.3-4.2-0.3-6.3c0-6.6,0-13.1,0-19.7c0-0.2,0-0.3,0-0.5c0-0.7,0.1-0.8,0.8-1
			c2.2-0.5,4.5-1,6.7-1.5c1-0.2,1.3,0,1.3,1.1c0,4.3,0,8.5,0,12.8c0,3.3,0,6.6,0,9.9c0,1.1,0.1,2.2,0.5,3.2c0.5,1.5,1.5,2.2,3,2.3
			c1.9,0.2,3.5-0.4,5-1.4c1.4-1,1.4-1,1.4-2.7c0-7.4,0-14.9,0-22.3c0-1.3,0-1.3,1.3-1.6c2.2-0.5,4.3-1,6.5-1.4
			c0.7-0.1,0.9,0.1,0.9,0.8c0,0.3,0,0.6,0,0.8c0,8.5,0,17,0,25.4c0,2.2,0.2,4.4,1.3,6.5c0.1,0.1,0.1,0.3,0.1,0.5
			c0.1,0.4-0.1,0.7-0.5,0.8c-1.9,0.4-3.8,0.9-5.7,1.3c-1.2,0.3-1.6,0.1-2.1-1c-0.2-0.4-0.4-0.8-0.5-1.3
			C185.8,210.1,185.7,209.6,185.5,209.1z"/>
		<path class="st14" d="M302.1,209c-0.7,0.7-1.4,1.3-2.2,1.9c-2.4,1.8-5.1,2.3-8,2c-1.6-0.1-3.1-0.6-4.5-1.4
			c-2.2-1.3-3.5-3.2-4.1-5.7c-0.6-2.3-0.6-4.6,0-6.8c0.7-2.9,2.6-4.9,5.3-6.2c2.4-1.1,4.9-1.7,7.5-1.9c1.5-0.1,3-0.2,4.5-0.2
			c0.2,0,0.3,0,0.3-0.2c0-1.4,0.1-2.8-0.2-4.2c-0.4-1.9-1.4-2.8-3.5-2.9c-2.5-0.2-4.8,0.4-7,1.2c-0.6,0.2-1.3,0.5-1.9,0.7
			c-0.6,0.2-0.8,0-1-0.6c-0.5-1.5-1.1-3-1.6-4.5c-0.2-0.7,0-1.1,0.6-1.4c1.1-0.6,2.4-1,3.6-1.3c3.1-0.8,6.3-1.2,9.5-0.9
			c2.2,0.2,4.2,0.7,6,1.9c2.1,1.4,3.3,3.5,3.6,6c0.2,1.2,0.1,2.4,0.1,3.5c0,4.3,0,8.6,0,12.9c0,2.9,0.4,5.6,1.7,8.2
			c0.4,0.7,0.2,1.1-0.6,1.4c-1.8,0.7-3.5,1.4-5.3,2.2c-0.8,0.3-1.1,0.2-1.6-0.5c-0.5-0.9-0.8-1.9-1.1-2.9
			C302.2,209.3,302.2,209.2,302.1,209z"/>
		<path class="st14" d="M318.7,194.6c0-3.3,0-6.6,0-10c0-0.5-0.1-0.5-0.5-0.5c-1.4,0-2.9,0-4.3,0c-0.9,0-1-0.2-1-1
			c0-1.5,0-2.9,0-4.4c0-0.8,0.1-1,1-1c1.4,0,2.8,0,4.3,0c0.7,0,0.6,0.1,0.6-0.6c0-2.6,0-5.1,0-7.7c0-0.2,0-0.5,0-0.7
			c0-0.5,0.2-0.8,0.7-0.9c1.7-0.3,3.5-0.5,5.2-0.8c0.7-0.1,1.3-0.2,2-0.3c0.5-0.1,0.8,0.1,0.8,0.6c0,0.3,0,0.6,0,0.8
			c0,3,0,5.9,0,8.9c0,0.4,0.1,0.6,0.6,0.6c2.4,0,4.8,0,7.2,0c1.3,0,1.5,0.2,1.2,1.5c-0.3,1.3-0.6,2.6-0.9,3.9c-0.2,0.8-0.4,1-1.2,1
			c-2.1,0-4.3,0-6.4,0c-0.3,0-0.4,0-0.4,0.4c0,5.9,0,11.7,0,17.6c0,0.6,0.1,1.2,0.2,1.8c0.3,0.9,0.8,1.3,1.7,1.4
			c1.8,0.2,3.4-0.4,5-1.1c0.9-0.4,1.2-0.2,1.5,0.8c0.4,1.7,0.8,3.4,1.2,5.1c0.1,0.6-0.1,1-0.7,1.3c-1.2,0.5-2.4,0.9-3.6,1.2
			c-2.2,0.5-4.4,0.7-6.6,0.4c-4.1-0.5-7-3.4-7.4-7.6c-0.2-2.9-0.1-5.8-0.1-8.6C318.7,196.1,318.7,195.4,318.7,194.6z"/>
		<path class="st14" d="M266.5,203.9c0.2-0.8,0.3-1.6,0.5-2.4c0.9-4.6,2.4-9,3.7-13.5c1-3.3,2-6.5,3-9.8c0.3-0.8,0.3-0.9,1.2-0.8
			c2,0.2,4,0.5,5.9,0.7c1,0.1,1.2,0.4,0.8,1.4c-2.6,7.3-5.1,14.6-7.7,21.9c-1.3,3.7-2.6,7.3-3.8,11c-0.3,0.7-0.4,0.8-1.2,0.8
			c-1.9,0-3.8,0-5.7,0c-1,0-1.1-0.1-1.4-1c-2.8-8-5.5-16-8.3-24c-1-3-2.1-6-3.1-9.1c-0.2-0.7-0.1-1,0.6-1.1c1.5-0.2,2.9-0.3,4.4-0.5
			c1-0.1,2-0.2,3-0.4c0.6-0.1,0.8,0.1,1,0.7c0.6,2.2,1.3,4.4,1.9,6.6c1.2,4.1,2.4,8.2,3.4,12.4C265.5,199.3,265.9,201.6,266.5,203.9
			z"/>
		<path class="st14" d="M150.6,182c0.8-0.9,1.6-1.8,2.4-2.6c1.2-1.2,2.4-2.1,4.1-2.5c1.5-0.4,3-0.4,4.6,0.1c0.2,0.1,0.4,0.1,0.6,0.2
			c1,0.5,1.1,0.8,0.8,1.8c-0.6,1.8-1.3,3.6-2,5.3c-0.3,0.9-0.5,0.9-1.4,0.6c-2-0.8-3.8-0.7-5.5,0.7c-0.7,0.6-1.3,1.2-1.9,1.8
			c-0.2,0.2-0.3,0.5-0.3,0.8c0,7.3,0,14.7,0,22c0,0.3,0,0.6,0,0.9c0,0.6-0.2,0.8-0.8,0.8c-0.1,0-0.3,0-0.4,0c-2.1,0-4.2,0-6.3,0
			c-1,0-1.2-0.1-1.2-1.2c0-3.1,0-6.2,0-9.3c0-4,0-8.1,0-12.1c0-3-0.6-5.9-1.8-8.7c-0.6-1.4-0.5-1.6,0.9-2.1c1.5-0.5,3.1-1.1,4.6-1.6
			c0.2-0.1,0.5-0.1,0.7-0.2c0.5-0.1,0.9,0,1.2,0.4c0.4,0.5,0.7,1.2,1,1.8C150.1,179.9,150.4,180.9,150.6,182z"/>
		<path class="st14" d="M212.7,194.9c0,5.2,0,10.4,0,15.7c0,1.3-0.1,1.4-1.4,1.4c-2,0-4,0-5.9,0c-1.4,0-1.4-0.1-1.4-1.4
			c0-7.2,0-14.5,0-21.7c0-1.4,0-2.8,0-4.2c0-0.4-0.1-0.5-0.5-0.5c-1.4,0-2.8,0-4.2,0c-1,0-1.2-0.2-1.2-1.2c0-1.4,0-2.8,0-4.2
			c0-0.9,0.2-1.1,1.1-1.1c4.1,0,8.3,0,12.4,0c1,0,1.1,0.2,1.1,1.2C212.7,184.3,212.7,189.6,212.7,194.9z"/>
		<path class="st14" d="M208.1,173.3c-3.1,0-5.6-2.5-5.6-5.6c0-3.1,2.5-5.5,5.6-5.5c3.1,0,5.6,2.5,5.6,5.6
			C213.7,170.8,211.2,173.3,208.1,173.3z"/>
		<path class="st128" d="M90,189.1c0,15.4-12.6,28-28,27.9c-15.5,0-28-12.6-28-28.1c0-15.4,12.6-27.9,28.1-27.8
			C77.4,161.2,90,173.7,90,189.1z"/>
		<path class="st128" d="M238.5,194.4c0,3,0,6.1,0,9.1c0,0.3-0.1,0.5-0.3,0.7c-1.7,1.5-3.7,2.3-6,2c-1.5-0.2-2.6-1-3.3-2.3
			c-0.7-1.3-1-2.8-1.2-4.3c-0.3-3.1-0.3-6.2,0-9.3c0.1-1.4,0.4-2.7,1-3.9c0.8-1.7,2.1-2.6,4-2.8c1.9-0.1,3.7,0.2,5.4,1
			c0.3,0.1,0.3,0.3,0.3,0.6C238.5,188.3,238.5,191.4,238.5,194.4z"/>
		<path class="st128" d="M300.9,200.3c0,1.1,0,2.3,0,3.4c0,0.2,0,0.4-0.1,0.5c-1.3,1.4-2.9,2.5-5,2.5c-2.3,0.1-4.1-1.5-4.5-3.7
			c-0.5-2.9,0.7-5,3.6-5.9c1.9-0.6,3.8-0.7,5.7-0.7c0.3,0,0.3,0.2,0.3,0.4C300.9,198,300.9,199.1,300.9,200.3z"/>
		<path class="st14" d="M62.7,180.9c0,2.7-2.2,4.8-4.8,4.8c-2.7,0-4.8-2.2-4.8-4.8c0-2.7,2.2-4.8,4.8-4.8
			C60.6,176.1,62.7,178.3,62.7,180.9z"/>
		<path class="st14" d="M51.9,189.1c0,2.7-2.2,4.8-4.8,4.8c-2.7,0-4.8-2.2-4.8-4.8c0-2.7,2.2-4.8,4.8-4.8
			C49.7,184.3,51.9,186.4,51.9,189.1z"/>
		<path class="st14" d="M57.9,192.5c2.7,0,4.8,2.1,4.9,4.8c0,2.7-2.2,4.8-4.8,4.8c-2.7,0-4.9-2.1-4.9-4.8
			C53.1,194.6,55.2,192.5,57.9,192.5z"/>
		<path class="st14" d="M63.9,172.7c0-2.7,2.2-4.8,4.8-4.8c2.7,0,4.8,2.2,4.8,4.9c0,2.6-2.2,4.8-4.9,4.8
			C66,177.6,63.9,175.4,63.9,172.7z"/>
		<path class="st14" d="M68.7,210.3c-2.7,0-4.8-2.1-4.8-4.8c0-2.7,2.1-4.8,4.8-4.8c2.7,0,4.8,2.1,4.8,4.8
			C73.6,208.1,71.4,210.3,68.7,210.3z"/>
	</g>
</g>
<g id="suns_garden" class="st0">
	<g class="st7">
		<defs>
			<path id="SVGID_1_" d="M382.9,63.4c0.1-6.5-1.2-12.7-3.5-18.7C372.2,26.2,359.7,13,341.6,5c-5.3-2.3-10.8-4-16.6-4.6
				c-2.1-0.2-4.2-0.1-6.2-0.4c-86.3,0-172.7,0-259,0c-0.5,0.3-1.1,0.2-1.6,0.2c-6.1,0-12,1.2-17.7,3.3C28.2,8,17.9,15.4,9.8,25.7
				C0.6,37.4-4.7,50.7-4.7,65.8c0,82.1,0,164.3,0,246.4c0,2.7,0,5.4,0.4,8c2,14.2,8.2,26.3,17.8,36.7c6.4,7,14.1,12.3,22.8,16.1
				c5.6,2.4,11.3,4.3,17.3,4.8c2,0.2,4.1,0.1,6.1,0.4c86.3,0,172.7,0,259,0c0.3-0.2,0.6-0.2,0.9-0.2c6.5,0.1,12.7-1.2,18.7-3.6
				c18.5-7.1,31.7-19.7,39.6-37.8c2.3-5.3,4-10.8,4.6-16.6c0.2-2.1,0.1-4.2,0.4-6.2c0-83.2,0-166.3,0-249.5
				C382.8,64.1,382.9,63.7,382.9,63.4z"/>
		</defs>
		<clipPath id="SVGID_00000057868877389506387580000000973561249209613735_">
			<use xlink:href="#SVGID_1_"  style="overflow:visible;"/>
		</clipPath>
		
			<g transform="matrix(1 0 0 1 0 1.862645e-09)" style="clip-path:url(#SVGID_00000057868877389506387580000000973561249209613735_);">
			
				<image style="overflow:visible;" width="860" height="400" xlink:href="../fotos/08A1F958-E343-45DD-BC6E-2504E129EF10.jpeg"  transform="matrix(0.9454 0 0 0.9454 -87.781 3.125000e-02)">
			</image>
		</g>
	</g>
</g>
</svg>
