<?xml version="1.0" encoding="utf-8"?>
<!-- Generator: Adobe Illustrator 26.1.0, SVG Export Plug-In . SVG Version: 6.00 Build 0)  -->
<svg version="1.1" xmlns="http://www.w3.org/2000/svg" xmlns:xlink="http://www.w3.org/1999/xlink" x="0px" y="0px"
	 viewBox="0 0 387.9 378.2" style="enable-background:new 0 0 387.9 378.2;" xml:space="preserve">
<style type="text/css">
	.st0{fill:#6D72B1;}
	.st1{display:none;fill:#FFCFCB;}
	.st2{display:none;fill:#ADC553;}
	.st3{display:none;}
	.st4{display:inline;fill:#460136;}
	.st5{display:inline;fill:#FE61F5;}
	.st6{display:inline;fill:#470137;}
	.st7{display:inline;fill:#00A0D2;}
	.st8{display:inline;fill:#FFFFFF;}
	.st9{display:inline;}
	.st10{fill:#264DE3;}
	.st11{fill:#E34D26;}
	.st12{fill:#2965F0;}
	.st13{fill:#EAEAEA;}
	.st14{fill:#F06529;}
	.st15{fill:#EAE9E9;}
	.st16{fill:#FEFEFE;}
	.st17{fill:#0E0E0F;}
	.st18{fill:#EAEBEB;}
	.st19{fill:#E2A026;}
	.st20{fill:#EFBD25;}
	.st21{fill:#E9EAEB;}
	.st22{fill:#E3A026;}
	.st23{fill:#EAEBEC;}
	.st24{fill:#001E35;}
	.st25{fill:#30A7FE;}
	.st26{fill:#001E36;}
	.st27{fill:#987F7F;}
	.st28{fill:#330000;}
	.st29{fill:#FE9900;}
	.st30{fill:#49021F;}
	.st31{fill:#C2AAB4;}
	.st32{fill:#FF3366;}
	.st33{fill:#00005B;}
	.st34{fill:#AAAAC8;}
	.st35{fill:#8F88B3;}
	.st36{fill:#9999FF;}
	.st37{fill:#00005A;}
	.st38{fill:#9898FE;}
	.st39{fill:#303F4C;}
	.st40{fill:#1B2B3C;}
	.st41{fill:#8CD001;}
	.st42{fill:#FFFFFF;}
	.st43{fill:#8BD002;}
	.st44{fill:#C8E78A;}
	.st45{fill:#A1A7AD;}
	.st46{fill:#C4E685;}
	.st47{fill:#939BA1;}
	.st48{fill:#D5EFAE;}
	.st49{fill:#BCE073;}
	.st50{fill:#C9E792;}
	.st51{fill:#9DA5AB;}
	.st52{fill:#9DA5AA;}
	.st53{fill:#D0EB9F;}
	.st54{fill:#C1E57E;}
	.st55{fill:#B1B6BD;}
	.st56{fill:#C8E790;}
	.st57{fill:#C5E787;}
	.st58{fill:#949EA2;}
	.st59{fill:#C0E47B;}
	.st60{fill:#8AD000;}
	.st61{fill:#8CD000;}
	.st62{fill:#969FA5;}
	.st63{fill:#AAB3BA;}
	.st64{fill:#B70050;}
	.st65{fill:#B70150;}
	.st66{fill:#B70250;}
	.st67{display:inline;fill:#ADC553;stroke:#BE1622;stroke-miterlimit:10;}
</style>
<g id="Layer_6">
	<path class="st0" d="M387.6,63.4c0.1-6.5-1.2-12.7-3.5-18.7C377,26.2,364.4,13,346.3,5c-5.3-2.3-10.8-4-16.6-4.6
		c-2.1-0.2-4.2-0.1-6.2-0.4c-86.3,0-172.7,0-259,0c-0.5,0.3-1.1,0.2-1.6,0.2c-6.1,0-12,1.2-17.7,3.3C33,8,22.7,15.4,14.6,25.7
		C5.4,37.4,0.1,50.7,0.1,65.8c0,82.1,0,164.3,0,246.4c0,2.7,0,5.4,0.4,8c2,14.2,8.2,26.3,17.8,36.7c6.4,7,14.1,12.3,22.8,16.1
		c5.6,2.4,11.3,4.3,17.3,4.8c2,0.2,4.1,0.1,6.1,0.4c86.3,0,172.7,0,259,0c0.3-0.2,0.6-0.2,0.9-0.2c6.5,0.1,12.7-1.2,18.7-3.6
		c18.5-7.1,31.7-19.7,39.6-37.8c2.3-5.3,4-10.8,4.6-16.6c0.2-2.1,0.1-4.2,0.4-6.2c0-83.2,0-166.3,0-249.5
		C387.5,64.1,387.6,63.7,387.6,63.4z"/>
	<path class="st1" d="M387.6,63.4c0.1-6.5-1.2-12.7-3.5-18.7C377,26.2,364.4,13,346.3,5c-5.3-2.3-10.8-4-16.6-4.6
		c-2.1-0.2-4.2-0.1-6.2-0.4c-86.3,0-172.7,0-259,0c-0.5,0.3-1.1,0.2-1.6,0.2c-6.1,0-12,1.2-17.7,3.3C33,8,22.7,15.4,14.6,25.7
		C5.4,37.4,0.1,50.7,0.1,65.8c0,82.1,0,164.3,0,246.4c0,2.7,0,5.4,0.4,8c2,14.2,8.2,26.3,17.8,36.7c6.4,7,14.1,12.3,22.8,16.1
		c5.6,2.4,11.3,4.3,17.3,4.8c2,0.2,4.1,0.1,6.1,0.4c86.3,0,172.7,0,259,0c0.3-0.2,0.6-0.2,0.9-0.2c6.5,0.1,12.7-1.2,18.7-3.6
		c18.5-7.1,31.7-19.7,39.6-37.8c2.3-5.3,4-10.8,4.6-16.6c0.2-2.1,0.1-4.2,0.4-6.2c0-83.2,0-166.3,0-249.5
		C387.5,64.1,387.6,63.7,387.6,63.4z"/>
	<path class="st2" d="M387.6,63.4c0.1-6.5-1.2-12.7-3.5-18.7C377,26.2,364.4,13,346.3,5c-5.3-2.3-10.8-4-16.6-4.6
		c-2.1-0.2-4.2-0.1-6.2-0.4c-86.3,0-172.7,0-259,0c-0.5,0.3-1.1,0.2-1.6,0.2c-6.1,0-12,1.2-17.7,3.3C33,8,22.7,15.4,14.6,25.7
		C5.4,37.4,0.1,50.7,0.1,65.8c0,82.1,0,164.3,0,246.4c0,2.7,0,5.4,0.4,8c2,14.2,8.2,26.3,17.8,36.7c6.4,7,14.1,12.3,22.8,16.1
		c5.6,2.4,11.3,4.3,17.3,4.8c2,0.2,4.1,0.1,6.1,0.4c86.3,0,172.7,0,259,0c0.3-0.2,0.6-0.2,0.9-0.2c6.5,0.1,12.7-1.2,18.7-3.6
		c18.5-7.1,31.7-19.7,39.6-37.8c2.3-5.3,4-10.8,4.6-16.6c0.2-2.1,0.1-4.2,0.4-6.2c0-83.2,0-166.3,0-249.5
		C387.5,64.1,387.6,63.7,387.6,63.4z"/>
</g>
<g id="xd" class="st3">
	<path class="st4" d="M387.9,64.4c0,83.2,0,166.3,0,249.5c-0.3,2.1-0.2,4.2-0.4,6.2c-0.6,5.8-2.3,11.3-4.6,16.6
		c-8,18.1-21.2,30.7-39.7,37.8c-6,2.3-12.3,3.6-18.7,3.6c-0.3,0-0.6-0.1-0.9,0.2c-86.4,0-172.8,0-259.2,0c-2.1-0.3-4.2-0.2-6.2-0.4
		c-6-0.6-11.6-2.4-17-4.8c-8.7-3.7-16.3-9.1-22.7-15.9C9,347.2,3,335.6,0.6,322.2c-0.4-2.2-0.4-4.4-0.5-6.6c0-0.6,0.2-1.2-0.2-1.7
		C0,230.6,0,147.3,0,64c0.3-1.9,0.2-3.8,0.4-5.8c0.3-4.2,1.4-8.2,2.8-12.1C10.9,25,25.4,10.6,46.6,3C52,1.1,57.5,0.1,63.2,0.2
		c0.4,0,0.8,0.1,1.1-0.2c86.4,0,172.8,0,259.2,0c2.1,0.3,4.2,0.2,6.2,0.4c5.8,0.5,11.3,2.3,16.6,4.6c18.1,8,30.7,21.2,37.8,39.7
		c2.3,6,3.6,12.3,3.6,18.7C387.7,63.7,387.6,64.1,387.9,64.4z"/>
	<path class="st5" d="M330.5,166.1c0,22.2,0,44.4,0,66.6c0,7.9,0.4,15.7,0.9,23.6c0.2,2.6-0.2,3.1-2.6,4.1
		c-17.5,7.1-35.8,10.1-54.6,9.4c-13.6-0.5-26.5-3.9-37.9-11.6c-13.3-9-21.2-21.7-24.1-37.5c-2.2-12.3-2.6-24.7,1.3-36.8
		c7.7-24.2,24.3-39.3,48.7-45.9c10-2.7,20.3-3.4,30.6-2.4c1.4,0.1,1.9-0.2,1.9-1.7c-0.1-16.1,0-32.2,0-48.3c0-2.6,0.2-2.7,2.8-2.7
		c10.2,0,20.5,0,30.7,0c2.4,0,2.6,0.2,2.6,2.6C330.5,112.4,330.5,139.3,330.5,166.1z"/>
	<path class="st5" d="M129.9,203.2c-1.1,2.2-2.1,4.3-3.2,6.4c-9.8,18.5-19.5,37-29.6,55.3c-0.7,1.2-1.5,1.9-2.9,1.9
		c-4.5,0-9,0.1-13.6,0.1c-7.3,0-14.7,0-22,0c-0.7,0-1.5,0.4-1.9-0.3c-0.4-0.8,0-1.6,0.5-2.4c2.3-3.8,4.6-7.6,7-11.4
		c14-23,28-45.9,42-68.9c0.7-1.2,0.8-2,0.1-3.3c-16-26.9-31.9-53.9-47.8-80.8c-1.2-2-0.8-2.7,1.6-2.7c12,0,24,0,36,0
		c1.8,0,3.4,0.4,4.2,2.3c6.6,14.7,14.7,28.6,22.7,42.5c3.3,5.8,6.4,11.8,9.4,17.8c0.2,0.3,0.4,0.6,0.6,1c0.2-0.2,0.4-0.4,0.4-0.5
		c9.7-20.2,21-39.6,31.2-59.6c1.4-2.7,2.9-3.6,5.9-3.5c10.7,0.2,21.3,0.1,32,0.1c0.7,0,1.3,0,1.7,0.6c0.4,0.7,0,1.2-0.3,1.8
		c-15.9,26.2-31.8,52.4-47.7,78.6c-0.5,0.9-0.6,1.5,0,2.4c16.8,27.5,33.6,55,50.3,82.5c0,0,0.1,0.1,0.1,0.1c0.6,0.9,1.3,1.8,0.8,2.8
		c-0.5,0.9-1.7,0.4-2.5,0.4c-12.4,0-24.8,0-37.2,0c-2.6,0-4.2-1-5.4-3.4c-9.8-19.9-20.6-39.3-31.4-58.7
		C130.7,204,130.6,203.5,129.9,203.2z"/>
	<path class="st6" d="M294.5,202.2c0,11.3,0,22.6,0,33.9c0,1.2-0.3,1.8-1.5,1.9c-9.8,1.2-19.6,1.4-28.8-3.1
		c-7-3.4-11.4-9.1-14.1-16.3c-3.3-9-3.7-18.3-1.5-27.5c2.9-12.2,11.4-19.4,22.7-23.6c7-2.6,14.3-2.7,21.6-1.4
		c1.1,0.2,1.4,0.6,1.4,1.8C294.4,179.4,294.5,190.8,294.5,202.2z"/>
</g>
<g id="wp" class="st3">
	<path class="st7" d="M387.6,63.4c0.1-6.5-1.2-12.7-3.5-18.7C377,26.2,364.4,13,346.3,5c-5.3-2.3-10.8-4-16.6-4.6
		c-2.1-0.2-4.2-0.1-6.2-0.4c-86.3,0-172.7,0-259,0c-0.5,0.3-1.1,0.2-1.6,0.2c-6.1,0-12,1.2-17.7,3.3C33,8,22.7,15.4,14.6,25.7
		C5.4,37.4,0.1,50.7,0.1,65.8c0,82.1,0,164.3,0,246.4c0,2.7,0,5.4,0.4,8c2,14.2,8.2,26.3,17.8,36.7c6.4,7,14.1,12.3,22.8,16.1
		c5.6,2.4,11.3,4.3,17.3,4.8c2,0.2,4.1,0.1,6.1,0.4c86.3,0,172.7,0,259,0c0.3-0.2,0.6-0.2,0.9-0.2c6.5,0.1,12.7-1.2,18.7-3.6
		c18.5-7.1,31.7-19.7,39.6-37.8c2.3-5.3,4-10.8,4.6-16.6c0.2-2.1,0.1-4.2,0.4-6.2c0-83.2,0-166.3,0-249.5
		C387.5,64.1,387.6,63.7,387.6,63.4z"/>
	<path class="st7" d="M387.6,63.4c0.1-6.5-1.2-12.7-3.5-18.7C377,26.2,364.4,13,346.3,5c-5.3-2.3-10.8-4-16.6-4.6
		c-2.1-0.2-4.2-0.1-6.2-0.4c-86.3,0-172.7,0-259,0c-0.5,0.3-1.1,0.2-1.6,0.2c-6.1,0-12,1.2-17.7,3.3C33,8,22.7,15.4,14.6,25.7
		C5.4,37.4,0.1,50.7,0.1,65.8c0,82.1,0,164.3,0,246.4c0,2.7,0,5.4,0.4,8c2,14.2,8.2,26.3,17.8,36.7c6.4,7,14.1,12.3,22.8,16.1
		c5.6,2.4,11.3,4.3,17.3,4.8c2,0.2,4.1,0.1,6.1,0.4c86.3,0,172.7,0,259,0c0.3-0.2,0.6-0.2,0.9-0.2c6.5,0.1,12.7-1.2,18.7-3.6
		c18.5-7.1,31.7-19.7,39.6-37.8c2.3-5.3,4-10.8,4.6-16.6c0.2-2.1,0.1-4.2,0.4-6.2c0-83.2,0-166.3,0-249.5
		C387.5,64.1,387.6,63.7,387.6,63.4z"/>
	<path class="st8" d="M194.5,53.2C119.2,53,58,113.7,57.9,188.8c-0.1,75.2,60.8,136.3,135.8,136.3c75.2,0.1,136.2-60.8,136.2-135.9
		C330,114.3,269.2,53.3,194.5,53.2z M81.6,141c2.9,3.8,53.5,140.6,58,157C87.6,274.3,53.7,205.7,81.6,141z M229.9,306
		c-21.8,6.4-43.6,7.2-65.7,1.6c-3-0.8-4.9-1.2-3.5-5.3c11.6-33.2,23-66.6,34.5-99.9c0.1-0.3,0.5-0.6,1.2-1.4
		c3.8,10.4,7.5,20.6,11.2,30.7c8.3,22.7,16.5,45.4,25,68C234,303.5,233.8,304.9,229.9,306z M254.4,261.3
		c-7.1-21.2-14.2-42.3-21.3-63.4c-6.8-20.1-13.4-40.3-20.4-60.4c-1.4-4.2-1.5-6.3,3.7-6.1c2.5,0.1,4.9-0.5,7.4-0.8
		c3.4-0.4,5.7-2,5.3-5.7c-0.3-3.4-2.8-4.4-5.8-4.3c-4.3,0.2-8.6,0.2-12.9,0.6c-16.1,1.6-32.1,0.3-48.2-0.5c-3.7-0.2-7.9-0.7-8.3,4.5
		c-0.4,5.1,3.7,5.7,7.5,5.5c7.3-0.3,11.1,2.8,13.3,10.1c3.9,13,9.1,25.5,13.7,38.3c0.8,2.3,2,4.5,1.1,7.2
		c-8.5,25.2-16.9,50.5-26.1,77.8c-15.1-44.9-29.6-88.1-44.4-132c4.3-0.5,8.3-1,12.3-1.3c3.7-0.3,6.3-1.9,6-5.8
		c-0.3-3.7-3.2-4.4-6.5-4.3c-11.8,0.5-23.5,1-35.3,1.4c-0.8,0-1.7-0.2-2.7-0.3c33.6-57.3,123.8-77.1,182.5-23.4
		c-12.4,1.4-19.4,8.2-20.9,20.2c-0.8,6.3,1.3,12.1,4.3,17.5c3.2,6,6.8,11.7,10.1,17.7c7.5,13.9,9.9,28.6,5.4,43.9
		c-6,20.8-12.3,41.6-18.4,62.4C255.8,260.6,255.2,260.7,254.4,261.3z M255.7,294c4.1-11.7,7.9-22.7,11.7-33.7
		c9.1-26.2,18.1-52.5,27.3-78.7c5.5-15.6,8.4-31.4,6.5-49.7C331.7,185.1,314.2,260.8,255.7,294z"/>
</g>
<g id="html_css" class="st3">
	<g class="st9">
		<path class="st10" d="M23.3,122.3c0.5,0,1-0.1,1.6-0.1c51,0,102,0,153.1,0c1.9,0,1.8,0,1.7,1.8c-1,11.6-2.1,23.2-3.1,34.8
			c-1.1,12.2-2.2,24.3-3.3,36.5c-1,11.1-1.9,22.2-2.9,33.4c-0.9,10.1-1.8,20.2-2.7,30.2c-0.6,6.9-1.2,13.9-1.8,20.8
			c-0.1,1.4-0.5,2.2-2.1,2.7c-20.3,5.5-40.5,11.2-60.8,16.8c-0.9,0.3-1.8,0.2-2.8,0c-20.4-5.7-40.8-11.3-61.2-17
			c-0.9-0.2-1.4-0.6-1.4-1.6c-0.9-10.5-1.8-20.9-2.8-31.4c-0.9-10.1-1.8-20.2-2.7-30.2c-0.9-10.1-1.8-20.2-2.7-30.3
			c-0.9-10.1-1.8-20.2-2.7-30.2c-0.8-9-1.5-18-2.4-27c-0.2-2.6-0.3-5.2-0.8-7.7C23.3,123.2,23.3,122.8,23.3,122.3z"/>
		<path d="M321.6,78.8c0,0.5-0.1,1-0.1,1.5c0,8.9,0,17.7,0,26.6c0,1.5-0.4,1.8-1.8,1.7c-2.3-0.1-4.5-0.1-6.8,0c-1,0-1.4-0.2-1.3-1.3
			c0.1-4.1,0-8.2,0-12.4c0-0.2,0-0.4,0-0.7c-0.1,0-0.2-0.1-0.3-0.1c-2.2,3.4-4.4,6.8-6.7,10.3c-2.3-3.5-4.5-6.9-6.7-10.3
			c-0.5,0.3-0.2,0.7-0.2,1c0,4.1,0,8.1,0,12.2c0,0.9-0.2,1.2-1.2,1.2c-2.5-0.1-5,0-7.5,0c-0.8,0-1.1-0.1-1.1-1c0-9.5,0-19,0-28.5
			c0-0.1,0-0.2,0.1-0.3c3.4,0,6.8,0,10.2,0c0.6,0.3,1,0.8,1.3,1.4c1.6,2.8,3.3,5.5,5.1,8.3c1.5-2.5,3.1-4.9,4.6-7.4
			c0.5-0.8,0.9-1.8,1.8-2.3C314.5,78.8,318,78.8,321.6,78.8z"/>
		<path d="M251.6,78.8c0,0.7,0.1,1.4,0.1,2.1c0,8.8,0,17.5,0,26.3c0,1.1-0.2,1.5-1.4,1.4c-2.4-0.1-4.8-0.1-7.2,0
			c-1.2,0.1-1.4-0.4-1.4-1.4c0.1-2.5,0-5,0-7.5c0-0.8-0.2-1.1-1-1.1c-2.4,0.1-4.7,0.1-7.1,0c-0.8,0-1,0.2-1,1c0,2.6,0,5.1,0,7.7
			c0,0.9-0.2,1.3-1.2,1.3c-2.5-0.1-5-0.1-7.5,0c-1,0-1.3-0.3-1.2-1.3c0-9.2,0-18.5,0-27.7c0-0.3-0.1-0.6-0.1-0.8c3.3,0,6.6,0,9.9,0
			c0.5,0.5,0.4,1.2,0.4,1.9c0,2,0,4.1,0,6.1c0,1.1,0.4,1.6,1.5,1.5c1.7,0,3.5,0,5.2,0c1.1,0,1.5-0.5,1.5-1.5c0-2,0-4.1,0-6.1
			c0-0.7,0-1.3,0.4-1.9C245,78.8,248.3,78.8,251.6,78.8z"/>
		<path d="M112.3,78.8c0,2.5,0,5,0,7.5c0,0.9-0.2,1.1-1.1,1.1c-3.8-0.1-7.7,0-11.5,0c-0.6,0-1.2-0.2-1.2,0.9c0,1,0.6,0.9,1.2,0.9
			c3.8,0,7.7,0,11.5,0c0.8,0,1.1,0.2,1.1,1.1c0,5.9,0,11.8,0,17.7c0,0.8-0.1,1-1,1c-7.2,0-14.5,0-21.7,0c-0.8,0-1-0.3-1-1
			c0-2.3,0.1-4.6,0-7c0-0.9,0.3-1.1,1.1-1.1c3.8,0,7.7,0,11.5,0c0.6,0,1.2,0.1,1.2-0.9c0-1-0.6-0.9-1.2-0.9c-3.8,0-7.7,0-11.5,0
			c-0.6,0-1.1,0.2-1.1-0.8c0.1-6.2,0.1-12.4,0.1-18.6C96.6,78.8,104.5,78.8,112.3,78.8z"/>
		<path d="M140.8,78.8c0,2.5,0,5,0.1,7.5c0,0.9-0.2,1.1-1.1,1.1c-3.8-0.1-7.7,0-11.5,0c-0.6,0-1.2-0.1-1.2,0.9c0,1,0.6,0.8,1.2,0.8
			c3.8,0,7.6,0,11.4,0c1,0,1.2,0.3,1.2,1.3c0,5.8,0,11.6,0,17.3c0,0.9-0.2,1.3-1.2,1.3c-7.1-0.1-14.2,0-21.3,0
			c-0.9,0-1.2-0.2-1.2-1.1c0.1-2.2,0.1-4.5,0-6.7c-0.1-1.1,0.4-1.3,1.4-1.3c3.7,0.1,7.5,0,11.2,0c0.6,0,1.2,0.2,1.2-0.8
			c0-1-0.5-0.9-1.2-0.9c-3.8,0-7.7,0-11.5,0c-0.7,0-1.1,0-1.1-0.9c0.1-6.2,0.1-12.3,0.1-18.5C125,78.8,132.9,78.8,140.8,78.8z"/>
		<path d="M83.9,78.8c0,2.9,0,5.9,0,8.8c0,1-0.3,1.2-1.2,1.2c-3.8,0-7.7,0-11.5,0c-0.9,0-1.2,0.2-1.2,1.2c0.1,2.5,0.1,5,0,7.5
			c0,1.2,0.4,1.3,1.4,1.3c3.7-0.1,7.5,0,11.2,0c0.9,0,1.3,0.1,1.3,1.2c-0.1,2.6-0.1,5.2,0,7.8c0,0.7-0.2,1-1,1c-7.3,0-14.6,0-21.9,0
			c-0.6,0-0.9-0.2-0.9-0.9c0-9.6,0-19.1,0-28.7c0-0.1,0.1-0.2,0.1-0.3C68.2,78.8,76,78.8,83.9,78.8z"/>
		<path d="M283.5,78.8c0,3,0,6,0.1,8.9c0,0.9-0.4,1-1.1,1c-2.2,0-4.4,0-6.5,0c-1,0-1.2,0.3-1.2,1.2c0,5.8,0,11.5,0,17.3
			c0,1.1-0.2,1.5-1.4,1.4c-2.5-0.1-4.9-0.1-7.4,0c-1,0-1.2-0.3-1.2-1.3c0-5.8,0-11.5,0-17.3c0-1-0.2-1.4-1.3-1.3
			c-2.2,0.1-4.4,0-6.5,0c-0.6,0-1-0.1-0.9-0.8c0.1-3,0.1-6,0.1-9.1C265.3,78.8,274.4,78.8,283.5,78.8z"/>
		<path d="M336.3,78.8c0,6.2,0,12.3,0,18.5c0,1.3,0.4,1.5,1.6,1.5c3.8-0.1,7.6,0,11.4,0c0.9,0,1.1,0.2,1.1,1.1
			c-0.1,2.6-0.1,5.2,0,7.8c0,0.8-0.2,1-1,1c-7.3,0-14.6,0-21.9,0c-1.2,0-1-0.6-1-1.3c0-9.5,0-19,0-28.5
			C329.7,78.8,333,78.8,336.3,78.8z"/>
		<path class="st11" d="M286.4,122.2c25.5,0,51,0,76.5,0c1.4,0,1.8,0.4,1.6,1.7c-0.6,6.8-1.2,13.6-1.8,20.4
			c-0.6,6.9-1.2,13.8-1.9,20.6c-0.7,8.1-1.5,16.2-2.2,24.3c-0.7,7.8-1.4,15.6-2.1,23.5c-0.7,8.1-1.5,16.2-2.2,24.3
			c-0.7,7.9-1.4,15.8-2.1,23.8c-0.6,6.6-1.2,13.3-1.7,19.9c-0.1,0.9-0.5,1.3-1.3,1.5c-11.3,3.1-22.7,6.3-34,9.4c-9,2.5-18,5-27,7.5
			c-1.3,0.4-2.4,0.3-3.7-0.1c-20.2-5.6-40.3-11.2-60.5-16.8c-1.1-0.3-1.5-0.8-1.6-2c-1.1-13.3-2.4-26.6-3.6-39.9
			c-1.2-13.3-2.3-26.6-3.5-39.9c-1.3-14.9-2.7-29.8-4-44.7c-1-10.9-1.9-21.8-3-32.7c-0.1-1.1,0.4-1,1.1-1c4.6,0,9.3,0,13.9,0
			C244.3,122.2,265.4,122.2,286.4,122.2z"/>
		<path class="st12" d="M52.6,156.4c-0.4-1.6-0.4-1.7,1.2-1.7c15.3,0,30.6,0,45.9,0c1.8,0,1.8,0,1.8-1.9c0-5.3,0-10.7,0-16
			c0-1.1,0.3-1.4,1.5-1.4c20.4,0,40.7,0,61.1,0c1.5,0,1.5,0.2,1.3,1.7c-0.3,2.7-0.5,5.4-0.8,8.1c-0.4,3.7-0.7,7.5-1.1,11.2
			c-0.2,2.5-0.4,5.1-0.6,7.6c-0.4,3.9-0.7,7.9-1.1,11.8c-0.2,2.4-0.4,4.8-0.6,7.2c-0.4,4-0.7,8-1.1,11.9c-0.2,2.5-0.4,5.1-0.6,7.6
			c-0.3,3.8-0.7,7.6-1.1,11.4c-0.2,2.4-0.4,4.8-0.6,7.2c-0.4,4-0.7,8-1.1,11.9c-0.2,2.6-0.4,5.2-0.6,7.7c-0.3,3.8-0.7,7.7-1.1,11.5
			c-0.2,2.4-0.4,4.9-0.6,7.3c-0.3,3.7-0.6,7.3-0.9,11c-0.1,0.8-0.5,1.4-1.4,1.6c-11.1,3-22.2,6.1-33.2,9.2
			c-5.2,1.5-10.4,2.9-15.7,4.4c-1.6,0.5-1.7,0.4-1.7-1.2c0-6.2,0-12.4,0-18.6c0.1-0.3,0.2-0.5,0.5-0.6c6-1.9,12.1-3.4,18.2-5.1
			c6.4-1.8,12.8-3.5,19.2-5.3c1.8-0.5,2-0.8,2.1-2.7c0.4-5.9,1-11.8,1.5-17.7c0.4-4.8,0.9-9.6,1.3-14.4c0.5-6,1.1-12,1.6-17.9
			c0.5-5.7,1-11.4,1.5-17.1c0.5-5.9,1-11.9,1.6-17.8c0.3-3.3,0.6-6.6,0.9-9.9c0.2-1.6-0.1-1.8-1.8-1.9c-12.5,0-25,0-37.5,0
			c-3.1,0-6.2,0-9.2,0c-4.3,0.1-8.5,0-12.8,0c-11.1,0-22.1,0-33.2,0C54.3,155.4,53.3,155.5,52.6,156.4z"/>
		<path class="st13" d="M101.9,265.5c-0.1,0.1-0.2,0.2-0.3,0.3c-7.7-2.2-15.5-4.4-23.2-6.5c-5.2-1.5-10.5-2.9-15.7-4.3
			c-1-0.3-1.3-0.8-1.4-1.7c-0.8-9.5-1.7-18.9-2.5-28.4c-0.1-0.7,0.1-1,0.9-1c5.9,0,11.8,0,17.8,0c1.1,0,1,0.7,1.1,1.4
			c0.3,3.6,0.7,7.2,0.9,10.7c0.2,3.5,0.2,3.5,3.6,4.4c6.2,1.7,12.4,3.3,18.6,4.9c0.1,0.1,0.1,0.1,0.2,0.2c0.3,0.5,0.3,1.1,0.3,1.7
			c0,5.8,0,11.5,0,17.3C102,264.8,101.9,265.1,101.9,265.5z"/>
		<path class="st13" d="M52.6,156.4c-0.1-0.9-0.1-1.5,1.3-1.5c15.7,0.1,31.3,0,47,0c0.2,0,0.5,0,0.7,0.1c0.5,0.5,0.5,1.2,0.5,1.9
			c0,5.2,0,10.5,0,15.7c0,0.6,0,1.2-0.4,1.8c-0.4,0.2-0.8,0.1-1.3,0.1c-14.9,0-29.8,0-44.7,0c-0.6,0-1.4,0.2-1.5-0.8
			C53.6,167.9,53.1,162.1,52.6,156.4z"/>
		<path class="st13" d="M101.5,214.1c-4.8,0-9.7,0-14.5-0.1c-9.3,0-18.7,0-28,0c-1,0-1.4-0.2-1.5-1.3c-0.5-5.7-1-11.5-1.6-17.2
			c-0.1-1.2,0.5-1.1,1.3-1.1c14.2,0,28.3,0,42.5,0c0.6,0,1.1,0,1.7-0.1c0.1,0.1,0.1,0.1,0.2,0.2c0.3,0.5,0.3,1.1,0.3,1.7
			c0,5.3,0,10.6,0,16c0,0.6,0,1.1-0.3,1.7C101.7,214,101.6,214,101.5,214.1z"/>
		<path class="st12" d="M101.5,245.2c0-10.4,0-20.8,0-31.1c0,0,0-0.1,0-0.1c0.6-0.4,1.3-0.4,1.9-0.4c6.8,0,13.5,0,20.3,0
			c2.2,0,2.3,0.1,2.1,2.3c-0.6,7.4-1.3,14.8-2,22.2c-0.1,1.3-0.7,1.9-1.9,2.3c-6.2,1.6-12.4,3.3-18.6,5c-0.6,0.2-1.2,0.4-1.8,0.1
			L101.5,245.2z"/>
		<path class="st12" d="M54.1,173.7c0.3,0.9,1,0.7,1.6,0.7c11.4,0,22.7,0,34.1,0c3.9,0,7.8,0,11.8-0.1c0.5-0.5,1.2-0.5,1.9-0.5
			c7.9,0,15.9,0,23.8,0c2.1,0,2.3,0.4,2.1,2.5c-0.5,5.5-0.9,11-1.5,16.5c-0.2,1.8-0.4,2.1-2.3,2.1c-7.4,0-14.9,0-22.3,0
			c-0.6,0-1.2,0-1.8-0.4c0,0,0-0.1,0-0.1c0-6.1,0-12.2,0-18.3c0-1.3-0.4-1.6-1.6-1.6c-14.8,0-29.6,0-44.4,0
			C54.9,174.6,54,174.9,54.1,173.7z"/>
		<path class="st14" d="M237.3,155.8c-0.4-0.8-0.2-1.2,0.7-1.1c0.3,0,0.7,0,1,0c15.2,0,30.4,0,45.6,0c1.4,0,1.7-0.4,1.7-1.8
			c-0.1-5.4,0-10.8-0.1-16.2c0-1.2,0.4-1.4,1.5-1.4c20.4,0,40.7,0,61.1,0c1.3,0,1.6,0.5,1.4,1.6c-0.6,5.3-1,10.7-1.5,16
			c-0.4,4.2-0.8,8.4-1.1,12.6c-0.5,5.8-1.1,11.5-1.7,17.3c-0.3,3.7-0.6,7.5-0.9,11.3c-0.3,3.6-0.8,7.2-1.1,10.8
			c-0.2,2.7-0.4,5.3-0.6,8c-0.3,3.7-0.7,7.5-1.1,11.2c-0.2,2.5-0.4,5-0.6,7.5c-0.3,3.8-0.7,7.7-1.1,11.5c-0.2,2.4-0.4,4.9-0.6,7.3
			c-0.4,3.9-0.7,7.9-1.1,11.8c-0.2,2.6-0.5,5.2-0.6,7.9c-0.1,1.2-0.4,1.7-1.6,2.1c-11.7,3.2-23.4,6.5-35.1,9.8
			c-4.5,1.3-9.1,2.5-13.6,3.8c-1.6,0.5-1.7,0.4-1.7-1.2c0-6.2,0-12.4,0-18.6c0.1-0.3,0.2-0.5,0.5-0.6c6.2-1.9,12.5-3.5,18.7-5.2
			c6.2-1.7,12.3-3.4,18.5-5.1c2-0.5,2.1-0.7,2.3-2.8c0.6-5.9,1.1-11.8,1.6-17.7c0.5-5.8,1-11.6,1.5-17.4c0.5-5.8,1-11.6,1.6-17.4
			c0.1-1.2,0.1-2.4,0.3-3.5c0.1-0.8-0.3-1.2-1-1.2c-0.5,0-1,0-1.6,0c-13.3,0-26.6,0-39.9,0c-0.8,0-1.6,0.1-2.4-0.2
			c-0.2-0.1-0.3-0.2-0.3-0.4c-0.3-0.7-0.2-1.5-0.2-2.2c0-5,0-10,0-15c0-1.8-0.1-1.9-1.9-1.9c-7.6,0-15.2,0-22.9,0
			c-0.8,0-1.6,0.2-2.3-0.4c0.2-1,1-0.7,1.6-0.7c2.2-0.1,4.4,0,6.7,0c6.4,0,12.8-0.1,19.3,0c9-0.1,18,0,27,0c6,0,11.9,0,17.9,0
			c2,0,2,0,2.2-2c0.5-4.8,0.9-9.5,1.3-14.3c0.2-2,0.1-2.1-1.9-2.1c-14.9,0-29.8,0-44.8,0c-0.6,0-1.1,0-1.7,0c-4.3,0.1-8.5,0-12.8,0
			c-11.1,0-22.2,0-33.2,0C239.3,155.4,238.3,155.5,237.3,155.8z"/>
		<path class="st15" d="M237.3,155.8c0-0.6,0.1-1,0.9-0.9c0.1,0,0.3,0,0.4,0c15.7,0,31.3,0,47,0c0.2,0,0.5,0,0.7,0.1
			c0.5,0.6,0.5,1.2,0.5,1.9c0,5.2,0,10.4,0,15.6c0,0.7,0,1.3-0.5,1.9c-8.7,0-17.3,0-26,0.1c-0.5,0-1-0.2-1.5,0.2
			c0.8,2.1,0.7,4.4,0.9,6.6c0.4,3.6,0.7,7.2,1,10.9c0.2,1.9,0.3,2,2.3,2c7,0,14.1,0,21.1,0c0.7,0,1.5-0.1,2.2,0.4l0,0.1
			c0.5,0.4,0.5,1,0.5,1.6c0,5.5,0,10.9,0,16.4c0,0.5,0,0.9-0.2,1.4c-0.1,0.1-0.1,0.1-0.2,0.2c-2.6,0-5.1,0-7.7,0
			c-11.6,0-23.1,0-34.7,0c-1,0-1.4-0.1-1.5-1.3c-0.9-10.6-1.8-21.2-2.8-31.8C238.9,172.6,238.1,164.2,237.3,155.8z"/>
		<path class="st13" d="M286.6,265.5c-0.1,0.1-0.2,0.2-0.3,0.2c-6.7-1.9-13.4-3.8-20-5.6c-6.3-1.8-12.6-3.5-19-5.2
			c-0.8-0.2-1.1-0.6-1.2-1.4c-0.5-5.8-1-11.7-1.6-17.5c-0.3-3.7-0.6-7.3-1-11c-0.1-0.9,0.1-1.2,1-1.2c5.8,0,11.6,0,17.5,0
			c1,0,1.2,0.4,1.3,1.2c0.4,4.5,0.8,8.9,1.2,13.4c0.1,0.6,0.1,1,0.9,1.2c6.7,1.8,13.3,3.6,20,5.4c0.1,0,0.3,0,0.4,0
			c0.3,0.1,0.7,0.1,0.9,0.5c0.2,0.5,0.2,1,0.2,1.5c0,5.8,0,11.5,0,17.3C286.8,264.8,286.7,265.2,286.6,265.5z"/>
		<path class="st14" d="M286.3,245.4c-0.2-0.1-0.4-0.2-0.7-0.3c1-0.2,0.6-1,0.6-1.6c0-9.8,0-19.6,0-29.3c0,0,0-0.1,0-0.1
			c0.6-0.4,1.3-0.4,1.9-0.4c6.8,0,13.5,0,20.3,0c2.2,0,2.3,0.2,2.2,2.4c-0.5,7-1.3,13.9-1.8,20.9c-0.2,2.7-0.4,2.9-3.1,3.6
			c-5.5,1.5-11,3-16.6,4.5C288.3,245.2,287.3,245.8,286.3,245.4z"/>
		<path class="st16" d="M101.5,194.5c8.1,0,16.2-0.1,24.3,0c1.2,0,1.6-0.2,1.7-1.5c0.4-5.8,1-11.5,1.6-17.2c0.1-1.1-0.1-1.4-1.2-1.4
			c-8.2,0-16.5,0-24.7,0c-0.5,0-1,0-1.6-0.1c0-6.5,0-12.9,0-19.4c0.4,0,0.8-0.1,1.1-0.1c15.4,0,30.9,0,46.3,0c1.3,0,1.6,0.3,1.5,1.6
			c-0.7,7-1.3,13.9-1.9,20.9c-0.6,6.8-1.2,13.6-1.8,20.4c-0.7,8-1.4,16-2.2,24c-0.6,6.9-1.2,13.8-1.8,20.6c-0.3,3.7-0.7,7.4-1,11.2
			c-0.1,0.7-0.3,1.2-1.1,1.4c-12.7,3.5-25.4,7-38.1,10.5c-0.2,0.1-0.5,0.1-0.7,0.1c-0.5-0.4-0.3-1.1-0.3-1.6c0-6.2,0-12.4,0-18.6
			c6.8-1.8,13.6-3.7,20.4-5.5c1.1-0.3,1.5-0.7,1.6-1.9c0.6-7.6,1.3-15.2,2-22.7c0.1-1.1-0.2-1.2-1.1-1.2c-7.1,0-14.2,0-21.3,0
			c-0.5,0-1,0-1.6-0.1C101.5,207.5,101.5,201,101.5,194.5z"/>
		<path class="st16" d="M286.3,245.4c6.7-1.8,13.5-3.7,20.2-5.4c1.2-0.3,1.7-0.7,1.8-2c0.6-7.7,1.3-15.3,2.1-23
			c0.1-1.1-0.6-0.9-1.1-0.9c-7.2,0-14.4,0-21.6,0c-0.5,0-0.9,0-1.4-0.1c0-6.5,0-13,0-19.5c4.4,0,8.7,0,13.1-0.1c10.3,0,20.7,0,31,0
			c1.4,0,1.5,0.4,1.4,1.6c-1.1,12.1-2.2,24.2-3.3,36.3c-0.6,6.9-1.2,13.8-1.8,20.6c-0.1,1.2-0.5,1.7-1.8,2.1
			c-12.4,3.4-24.7,6.8-37,10.2c-0.4,0.1-0.8,0.2-1.2,0.3c-0.5-0.4-0.3-0.9-0.3-1.4C286.3,257.8,286.3,251.6,286.3,245.4z"/>
		<path class="st16" d="M286.3,174.3c0-6.5,0-12.9,0-19.4c0.4,0,0.8-0.1,1.3-0.1c15.4,0,30.9,0,46.3,0c1.2,0,1.5,0.2,1.4,1.5
			c-0.6,5.7-1,11.4-1.5,17.1c-0.1,1.2-0.9,1-1.6,1c-13.4,0-26.9,0-40.3,0C290,174.4,288.1,174.3,286.3,174.3z"/>
	</g>
</g>
<g id="js" class="st3">
	<g class="st9">
		<path class="st17" d="M232.2,39.2c0,3.3,0,6.6,0,10c0,0.6-0.2,0.8-0.8,0.8c-5.1,0.1-10.2,0.2-15.4,0.3c-0.4,0-0.8,0-1.2,0
			c0.1,0.5,0.4,0.6,0.6,0.9c5.6,6.1,11.3,12.2,16.9,18.2c0.4,0.4,0.5,0.8,0.5,1.3c0,2.6,0,5.3,0,7.9c0,0.6-0.2,0.8-0.8,0.8
			c-12.1,0-24.3,0-36.4,0c-0.6,0-0.8-0.2-0.8-0.8c0-3.1,0-6.1,0-9.2c0-0.8,0.3-0.9,0.9-0.8c4.4,0,8.7,0,13.1,0
			c1.3,0,2.6-0.1,4.1-0.2c-1.2-1.4-2.1-2.5-3.1-3.6c-4.8-5.2-9.5-10.4-14.3-15.7c-0.4-0.5-0.6-0.9-0.6-1.6c0-2.5,0-4.9,0-7.4
			c0-0.3,0-0.6,0.1-0.9C207.5,39.2,219.8,39.2,232.2,39.2z"/>
		<path class="st17" d="M188.5,39.2c0,0.3,0,0.5,0,0.8c0,12.8,0,25.6,0,38.4c0,0.8-0.1,1-1,1c-10.4,0-20.7,0-31.1,0
			c-0.7,0-0.9-0.2-0.9-0.9c0-4,0-7.9,0-11.9c0-0.7,0.2-0.9,0.9-0.8c5.9,0,11.7,0,17.6,0c0.8,0,0.9-0.2,0.9-0.9c0-8.2,0-16.4,0-24.6
			c0-0.3,0-0.6,0-1C179.5,39.2,184,39.2,188.5,39.2z"/>
		<path class="st18" d="M87.5,98.9c0.2-0.1,0.4-0.2,0.7-0.2c0.3,0.2,0.3,0.5,0.3,0.8c0.2,5.5,0.8,11,1.3,16.6
			c0.4,5.1,0.9,10.1,1.3,15.2c0.4,5.1,0.9,10.2,1.3,15.3c0.4,5,0.9,10,1.3,15c0.4,5,0.9,10,1.3,14.9c0.3,3.7,0.7,7.3,1,11
			c0.4,4.3,0.8,8.7,1.1,13c0.4,4.3,0.8,8.6,1.2,12.9c0.4,4.4,0.8,8.7,1.2,13.1c0.4,4.3,0.8,8.6,1.2,12.8c0.4,4.3,0.7,8.6,1.1,12.8
			c0.4,4.3,0.8,8.6,1.2,12.9c0.3,3.6,0.6,7.3,1,10.9c0.3,3.7,0.7,7.3,1,11c0.3,3.6,0.6,7.1,1,10.7c0.3,3.7,0.7,7.4,1,11.1
			c0.1,1.5,0.2,3.1,0.4,4.6c0,0.4,0.1,0.8-0.2,1.2c-0.4-0.8-0.4-1.6-0.5-2.5c-0.3-3-0.6-5.9-0.9-8.9c-0.2-2.3-0.3-4.6-0.6-6.9
			c-0.2-2.2-0.5-4.4-0.7-6.6c-0.2-1.6-0.2-3.2-0.4-4.8c-0.2-2.3-0.5-4.6-0.7-6.9c-0.1-1.5-0.3-3-0.4-4.5c-0.2-2.4-0.5-4.9-0.7-7.3
			c-0.1-1.6-0.2-3.1-0.4-4.7c-0.2-2.3-0.5-4.7-0.7-7c-0.1-1.5-0.3-3-0.4-4.5c-0.2-2.5-0.5-5-0.7-7.5c-0.1-1.6-0.2-3.1-0.4-4.7
			c-0.2-2.3-0.5-4.7-0.7-7c-0.1-1.6-0.3-3.1-0.4-4.7c-0.2-2.4-0.5-4.9-0.7-7.3c-0.1-1.5-0.3-2.9-0.4-4.4c-0.2-2.5-0.4-5-0.7-7.6
			c-0.2-1.6-0.2-3.3-0.4-4.9c-0.2-2.3-0.5-4.6-0.7-6.9c-0.1-1.6-0.2-3.2-0.4-4.8c-0.2-2.3-0.5-4.7-0.7-7c-0.1-1.6-0.3-3.2-0.4-4.8
			c-0.2-2.5-0.5-4.9-0.7-7.4c-0.1-1.5-0.3-2.9-0.4-4.4c-0.2-2.5-0.4-5-0.7-7.6c-0.2-1.6-0.2-3.2-0.4-4.8c-0.2-2.4-0.5-4.9-0.7-7.3
			c-0.1-1.6-0.2-3.1-0.4-4.7c-0.2-2.5-0.5-5-0.7-7.5c-0.1-1.6-0.2-3.2-0.4-4.8c-0.2-2.5-0.5-4.9-0.7-7.4c-0.1-1.5-0.3-3-0.4-4.5
			c-0.2-2.5-0.5-5.1-0.7-7.6c-0.1-1.7-0.2-3.5-0.4-5.2c-0.2-1.7-0.2-3.4-0.5-5.1C87.5,100,87.5,99.5,87.5,98.9z"/>
		<path class="st19" d="M107.1,314.6c-0.1-2.6-0.4-5.1-0.6-7.7c-0.2-2.3-0.4-4.6-0.6-7c-0.3-3.1-0.6-6.1-0.8-9.2
			c-0.2-2.3-0.4-4.6-0.6-6.9c-0.3-3-0.6-6-0.8-9c-0.2-2.3-0.4-4.6-0.6-6.9c-0.3-3-0.6-6-0.8-9c-0.2-2.3-0.4-4.5-0.6-6.8
			c-0.3-3.1-0.6-6.1-0.8-9.2c-0.3-2.9-0.5-5.8-0.8-8.7c-0.3-3.1-0.6-6.1-0.8-9.2c-0.3-2.9-0.5-5.8-0.8-8.7c-0.3-3-0.6-6.1-0.8-9.1
			c-0.2-2.3-0.4-4.6-0.6-6.9c-0.3-3-0.6-6.1-0.8-9.1c-0.2-2.3-0.4-4.6-0.6-6.9c-0.3-3-0.6-6.1-0.8-9.1c-0.2-2.3-0.4-4.5-0.6-6.8
			c-0.3-3.1-0.6-6.2-0.8-9.3c-0.2-2.3-0.4-4.6-0.6-6.9c-0.3-3.1-0.6-6.2-0.8-9.3c-0.2-2.3-0.4-4.7-0.6-7c-0.3-3.1-0.6-6.2-0.8-9.3
			c-0.2-2.3-0.4-4.7-0.6-7c-0.3-3.2-0.6-6.3-0.8-9.4c-0.2-2.4-0.4-4.8-0.6-7.2c-0.1-1.4-0.1-2.9-0.2-4.3c-0.1-0.9,0.5-0.9,1.1-0.9
			c60.5,0,120.9,0,181.4,0c9.6,0,19.1,0,28.7,0c0.7,0,1,0.2,1,0.9c0,3-0.4,6-0.6,9c-0.2,2.4-0.4,4.7-0.6,7.1
			c-0.3,3.2-0.6,6.5-0.9,9.7c-0.2,2.2-0.4,4.5-0.6,6.7c-0.3,3.2-0.6,6.4-0.9,9.6c-0.3,2.9-0.5,5.9-0.8,8.8c-0.3,3.1-0.6,6.2-0.8,9.3
			c-0.2,2.3-0.4,4.5-0.6,6.8c-0.3,3.1-0.6,6.2-0.8,9.4c-0.2,2.3-0.4,4.5-0.6,6.8c-0.3,3.1-0.6,6.2-0.8,9.4c-0.2,2.3-0.4,4.5-0.6,6.8
			c-0.3,3.1-0.6,6.2-0.8,9.4c-0.2,2.2-0.4,4.5-0.6,6.7c-0.3,3.1-0.6,6.1-0.8,9.2c-0.2,2.2-0.4,4.5-0.6,6.7c-0.3,3.1-0.6,6.2-0.8,9.3
			c-0.2,2.2-0.4,4.4-0.6,6.6c-0.3,3.1-0.6,6.2-0.8,9.4c-0.3,2.9-0.5,5.8-0.8,8.7c-0.3,3.1-0.6,6.1-0.8,9.2c-0.2,2.2-0.4,4.4-0.6,6.6
			c-0.3,3-0.6,6.1-0.8,9.1c-0.3,2.9-0.5,5.8-0.8,8.7c-0.3,3.6-0.7,7.2-1,10.9c-0.1,1.5-0.3,3-0.4,4.5c0,1-0.4,1.7-1.4,2.1
			c-2.7,1.2-5.5,2-8.3,2.8c-20.3,6-40.8,11.5-61.3,17.1c-5.5,1.5-11,3-16.5,4.3c-0.6,0.1-1,0-1.5-0.2c-11.7-3.1-23.3-6.4-34.9-9.6
			c-16.5-4.6-33-9.3-49.5-13.8C107.3,315.6,107.2,315.2,107.1,314.6z"/>
		<path class="st20" d="M179.6,125.3c4.5,0,9.1,0,13.6,0c0.8,0,1.1-0.2,1-1c-0.1-2.7,0-5.3,0-8c0-0.8,0.2-1.1,1.1-1.1
			c28.2,0,56.5,0,84.7,0c0.7,0,1,0.2,1,0.9c0,2.9-0.3,5.8-0.5,8.6c-0.2,1.8-0.2,3.6-0.4,5.5c-0.2,2.5-0.5,5-0.7,7.5
			c-0.1,1.6-0.3,3.1-0.4,4.7c-0.2,2.6-0.5,5.2-0.7,7.7c-0.1,1.5-0.2,2.9-0.4,4.4c-0.2,2.6-0.5,5.2-0.7,7.7c-0.1,1.6-0.2,3.3-0.4,4.9
			c-0.2,2.3-0.5,4.6-0.7,6.9c-0.1,1.6-0.2,3.2-0.4,4.8c-0.2,2.3-0.5,4.7-0.7,7c-0.1,1.6-0.3,3.1-0.4,4.7c-0.2,2.4-0.5,4.9-0.7,7.3
			c-0.1,1.6-0.2,3.1-0.4,4.7c-0.2,2.3-0.5,4.7-0.7,7c-0.1,1.5-0.3,3.1-0.4,4.6c-0.2,2.4-0.5,4.8-0.7,7.2c-0.1,1.4-0.3,2.9-0.4,4.3
			c-0.2,2.4-0.5,4.9-0.7,7.3c-0.1,1.6-0.2,3.1-0.4,4.7c-0.2,2.3-0.5,4.6-0.7,6.8c-0.1,1.4-0.3,2.9-0.4,4.3c-0.2,2.4-0.5,4.7-0.7,7.1
			c-0.2,2.1-0.4,4.3-0.6,6.4c-0.2,2.2-0.5,4.4-0.7,6.7c-0.1,1.4-0.3,2.9-0.4,4.3c-0.2,2.3-0.5,4.5-0.7,6.8c-0.1,1.5-0.2,2.9-0.4,4.4
			c-0.2,2.1-0.5,4.3-0.7,6.4c-0.2,2-0.4,3.9-0.6,5.9c-0.1,1.3-0.3,2.5-0.4,3.8c-0.1,0.7-0.5,1-1.1,1.2c-3.5,1.1-7.1,2.2-10.7,3.2
			c-4.8,1.4-9.6,2.8-14.5,4.1c-7.7,2.2-15.4,4.3-23.2,6.4c-6.4,1.7-12.7,3.5-19.1,5.2c-1.1,0.3-1.2,0.1-1.3-1
			c-0.2-3.8,0-7.5-0.2-11.3c-0.2-4.6-0.1-9.2-0.1-13.8c0-0.5-0.2-0.8-0.6-1c0.2-0.4,0.6-0.4,0.9-0.5c10.4-2.6,20.7-5.5,31-8.4
			c6.8-1.9,13.6-3.9,20.4-6c2.5-0.8,2.6-0.8,2.9-3.8c0.3-3.2,0.6-6.4,1-9.6c0.4-4,0.8-8.1,1.2-12.1c0.3-3,0.5-5.9,0.8-8.9
			c0.3-3,0.6-6,0.8-9c0.2-2.3,0.4-4.6,0.6-7c0.2-2.9,0.5-5.9,0.8-8.8c0.2-2.2,0.4-4.5,0.6-6.7c0.2-2.1,0.4-4.1,0.6-6.2
			c0.3-3,0.5-6,0.9-9c0.1-0.4-0.1-0.5-0.4-0.6c-1.1-0.3-2.3-0.4-3.4-0.4c-2.5,0-5.1-0.2-7.6-0.2c-16.2,0-32.4,0-48.6,0
			c-0.6,0-1.2,0.1-1.7-0.2c-0.4-0.6-0.3-1.3-0.3-2c0-11.2,0-22.4,0-33.6c0-1.7,0-3.3,0-5c0-0.5,0-1,0.4-1.3c0.4-0.3,0.8-0.2,1.3-0.2
			c2,0,4-0.1,6,0c3.5,0.2,6.9,0.2,10.4,0.4c3,0.1,6,0.3,8.9,0.5c1.4,0.1,2.8,0.2,4.2,0.5c0.9,0.1,1.3,0.6,1.4,1.4
			c0.4,2.9,0.7,5.8,1,8.6c0.3,2.7,0.5,5.5,0.8,8.2c0.2,2,0.4,4.1,0.5,6.1c0,0.2,0.1,0.3,0.1,0.5c0,0.4,0,0.9,0,1.3
			c0,0.4,0.1,0.7,0.5,0.9c1.2,0.4,2.4,0.4,3.6,0.4c7.4,0,14.9,0,22.3,0c1,0,1,0,0.8-1c-0.3-2.1-0.5-4.2-0.6-6.3
			c-0.3-2.3-0.4-4.6-0.7-7c-0.2-1.6-0.3-3.2-0.4-4.8c-0.2-2.3-0.4-4.6-0.6-6.9c-0.2-1.6-0.3-3.2-0.4-4.9c-0.2-2.4-0.4-4.8-0.6-7.2
			c-0.2-1.6-0.3-3.2-0.4-4.8c-0.2-1.8-0.3-3.5-0.5-5.3c-0.1-1.7-0.3-3.3-0.4-5c-0.1-1.1-0.2-2.1-0.3-3.2c-0.1-0.7-0.5-0.9-1.1-0.9
			c-3.1,0-6.2,0-9.2,0c-15.1-0.3-30.2-0.1-45.3-0.1c-4.8,0-9.6,0-14.4,0C180.5,125.7,179.9,125.9,179.6,125.3z"/>
		<path class="st21" d="M228.6,180.1c-0.2-1.7-0.3-3.4-0.5-5.1c-0.4-4.5-0.8-9.1-1.4-13.6c-0.2-1.5-0.4-3-0.6-4.6
			c-0.1-0.7-0.4-0.9-1-1c-2.1-0.4-4.3-0.5-6.4-0.6c-8.1-0.4-16.3-0.8-24.4-0.8c-5,0-9.9,0.2-14.9,0.3c-2.8,0.1-5.6,0.2-8.4,0.3
			c-1.5,0.1-1.7,0.2-1.8,1.7c-0.5,5.1-1.1,10.1-1.5,15.2c-0.4,4.8-0.9,9.5-1.3,14.3c-0.2,2.7-0.5,5.4-0.8,8.1
			c-0.1,1.5-0.1,1.5,1.4,1.5c8.3,0,16.6,0,25,0c0.6,0,1.1-0.1,1.6,0.3c0.3,0.5,0.2,1,0.2,1.6c0,7.6,0,15.3,0,22.9
			c0,1.7,0,1.7,1.7,1.7c9.8,0,19.6,0,29.4,0c0.5,0,1.1-0.1,1.6,0.1c0.6,0.6,0.6,1,0,1.4c-0.6-0.3-1.2-0.3-1.8-0.2
			c-9.7,0-19.3,0-29,0c-0.5,0-1.1,0.1-1.5-0.3c-0.4,0-0.8,0-1.2,0c-18.8,0-37.6,0-56.4,0c-0.9,0-1.2-0.2-1.1-1.1
			c0.3-2.7,0.4-5.4,0.7-8.1c0.2-2.4,0.4-4.8,0.6-7.2c0.3-3.1,0.6-6.2,0.8-9.4c0.2-2.3,0.4-4.6,0.6-6.9c0.3-3.1,0.6-6.2,0.8-9.3
			c0.3-2.9,0.5-5.8,0.8-8.7c0.3-3,0.6-6,0.8-9c0.2-2.2,0.4-4.5,0.6-6.7c0.3-3,0.6-6,0.8-9c0.3-2.8,0.5-5.6,0.8-8.4
			c0.3-2.7,0.6-5.4,0.8-8.1c0.2-1.5,0.3-3.1,0.4-4.6c0-0.8,0.4-1.1,1.2-1.2c5.9-0.5,11.7-0.3,17.6-0.4c5.6-0.1,11.2-0.1,16.8-0.1
			c0.3,0.2,0.6,0.1,1,0.1c19.2,0,38.5,0.1,57.7,0.1c4.1,0,8.1,0.1,12.2,0.1c0.6,0,0.8,0.1,0.8,0.8c0.5,6.4,1.1,12.8,1.7,19.2
			c0.4,5,0.9,10,1.3,14.9c0.4,4.9,0.9,9.8,1.4,14.8c0,0.2,0,0.4,0,0.5c-0.3,0.1-0.5-0.1-0.7-0.3c-0.4-1.7-0.4-3.5-0.6-5.2
			c-0.4-4.3-0.8-8.6-1.2-12.9c-0.3-3.7-0.7-7.4-1-11.1c-0.3-3.6-0.6-7.3-1-10.9c-0.2-2.4-0.4-4.8-0.6-7.3c-0.1-1.2-0.2-1.3-1.5-1.5
			c-2.1-0.3-4.2-0.3-6.3-0.3c-15.5-0.1-31.1,0-46.6,0c-1.5,0-1.5,0-1.5,1.6c0,8.1,0,16.1,0,24.2c0,1.4,0,1.4,1.4,1.4
			c3.9,0.2,7.7,0.3,11.6,0.5c1.6,0.1,3.3,0.1,4.9,0.2c4.5,0.2,8.9,0.4,13.4,0.9c1.1,0.1,1.3,0.4,1.4,1.5c0.4,4.7,0.7,9.4,1.2,14.1
			c0.2,2.6,0.5,5.1,0.7,7.7c0,0.2,0,0.4,0,0.6C229,179.3,229,179.8,228.6,180.1z"/>
		<path class="st21" d="M226.6,223.9c0.3-0.4,0.2-0.8,0-1.2c0.7-0.2,1,0,0.8,0.7c-0.4,2.3-0.6,4.7-0.8,7.1c-0.3,3.1-0.5,6.2-0.8,9.3
			c-0.5,5.5-0.9,10.9-1.8,16.3c-0.2,1.1-0.7,1.8-1.8,2.2c-3.8,1.3-7.6,2.4-11.5,3.4c-5.2,1.4-10.4,2.8-15.6,4.2
			c-1.1,0.3-1.2,0.4-1.2,1.6c0,4.1-0.1,8.2,0,12.3c0.1,3,0.1,5.9,0.2,8.9c0,1,0.1,2.1,0.3,3.1c0.1,0.9,0.3,1,1.2,0.8
			c3.7-0.9,7.3-1.9,11-2.9c9-2.4,18.1-4.9,27.1-7.5c4.4-1.2,8.8-2.6,13.1-3.8c1-0.3,1.4-0.8,1.5-1.8c0.5-4.2,0.9-8.5,1.3-12.7
			c0.3-3.4,0.7-6.9,1-10.3c0.3-3.6,0.6-7.1,1-10.7c0.3-3.7,0.6-7.3,1-11c0.3-2.9,0.5-5.7,0.8-8.6c0.3-3.2,0.6-6.3,0.8-9.5
			c0.3-3.5,0.6-7,1-10.4c0.2-1.8,0.3-3.5,0.6-5.3c0.1-0.4,0.1-0.8,0.4-1.1c0.4,0,0.5,0.3,0.5,0.7c-0.6,4.9-1,9.8-1.5,14.7
			c-0.4,4.2-0.8,8.4-1.1,12.6c-0.5,5-0.9,10-1.4,15c-0.3,3.6-0.6,7.2-0.9,10.8c-0.4,4.1-0.8,8.2-1.2,12.4c-0.4,3.8-0.7,7.5-1.1,11.3
			c-0.1,1-0.3,2-0.3,3c-0.1,0.6-0.5,0.7-1,0.9c-3.4,1.2-6.8,2.2-10.2,3.2c-11.9,3.5-23.8,6.8-35.8,10c-2.7,0.7-5.4,1.4-8.1,2.1
			c-1.8-0.5-3.7-0.9-5.5-1.4c-14.8-4.1-29.6-8.2-44.3-12.4c-1.1-0.3-2.2-0.7-3.3-1c-0.7-0.2-0.9-0.5-1-1.2c-0.5-2.6-0.8-5.1-1.1-7.7
			c-0.4-3.6-0.8-7.3-1.2-10.9c-0.3-2.8-0.5-5.7-0.8-8.5c-0.3-3.6-0.6-7.2-0.8-10.9c0-0.9,0-1.7-0.1-2.6c0-0.5,0.2-0.7,0.7-0.7
			c1.6,0,3.2,0,4.8,0c6.9,0,13.7,0,20.6,0c0.8,0,1.1,0.2,1.2,1.1c0.2,2.9,0.5,5.8,0.8,8.7c0.2,2.3,0.4,4.5,0.6,6.8
			c0.1,1.3,0.3,2.6,0.3,4c0,0.6,0.5,0.5,0.8,0.6c3.8,1.1,7.7,2.1,11.5,3.2c5.2,1.4,10.3,2.8,15.5,4c0.3,0.1,0.5,0.1,0.8,0.1
			c0.7,0.2,1.3-0.2,1.9-0.4c8.9-2,17.7-4.4,26.4-7c1.1-0.3,1.5-0.9,1.7-2c0.6-4.8,1-9.6,1.4-14.4c0.5-5.3,0.8-10.6,1.6-15.8
			C226.2,224.8,226.2,224.3,226.6,223.9z"/>
		<path class="st20" d="M226.6,223.9c-0.5,2.6-0.7,5.3-1,8c-0.2,2.3-0.5,4.5-0.7,6.8c-0.2,2.4-0.3,4.7-0.6,7.1
			c-0.4,3.6-0.7,7.3-1.2,10.9c-0.1,0.7-0.6,0.8-1,0.9c-3.3,1.1-6.7,2-10.1,2.9c-5.6,1.5-11.2,3-16.8,4.3c-0.7,0.1-1.4,0.4-2.1,0.1
			c0.6,0.1,0.6-0.4,0.7-0.7c0.1-0.5,0.2-1,0.2-1.5c-0.1-1.5,0.2-2.9,0.2-4.4c0-11.6,0-23.2,0-34.8c4.7,0,9.3,0,14,0
			c5.9,0,11.7,0,17.6,0C226.1,223.4,226.6,223.2,226.6,223.9z"/>
		<path class="st16" d="M255.9,196.9c-0.3,2.5-0.6,5.1-0.9,7.6c-0.2,2.2-0.4,4.5-0.6,6.7c-0.2,2.3-0.5,4.6-0.7,6.9
			c-0.1,1.6-0.2,3.2-0.4,4.8c-0.2,2.4-0.5,4.7-0.7,7.1c-0.1,1.6-0.3,3.1-0.4,4.7c-0.2,2.5-0.5,5-0.7,7.5c-0.1,1.6-0.2,3.1-0.4,4.7
			c-0.2,2.3-0.5,4.7-0.7,7c-0.1,1.5-0.2,3-0.4,4.5c-0.2,2.3-0.5,4.6-0.7,6.9c-0.2,2.1-0.4,4.1-0.6,6.2c-0.2,2-0.5,4.1-0.7,6.1
			c-0.1,0.6-0.5,0.7-1,0.8c-3.7,1.1-7.4,2.2-11.1,3.3c-5.3,1.5-10.7,3-16,4.5c-4.9,1.4-9.9,2.7-14.8,4.1c-3.4,0.9-6.9,1.8-10.3,2.7
			c-0.7,0.2-0.9-0.1-0.9-0.7c-0.3-1.9-0.3-3.8-0.4-5.7c-0.1-6.4-0.2-12.8-0.2-19.3c0-0.9,0.3-1.3,1.1-1.5c4.1-1.1,8.3-2.1,12.4-3.3
			c5.2-1.4,10.4-2.8,15.5-4.6c0.6-0.2,0.9-0.6,1.1-1.2c0.6-3.2,0.9-6.3,1.2-9.5c0.3-3.4,0.6-6.8,0.9-10.2c0.2-3.2,0.6-6.4,0.9-9.6
			c0.1-1.3,0.3-2.6,0.6-3.8c0.2-0.7-0.1-0.7-0.6-0.7c-10.6,0-21.2,0-31.8,0c-1.2,0-1.2,0-1.2-1.2c0-8.4,0-16.8,0-25.2
			c0.2-0.2,0.5-0.2,0.7-0.1c8.9,0,17.8,0,26.7,0c8.4,0,16.7,0,25.1,0.1c3.2,0,6.3-0.1,9.5,0.4C255.6,196.8,255.7,196.8,255.9,196.9z
			"/>
		<path class="st22" d="M194.2,196.2c-0.2,0-0.5,0-0.7,0.1c-3.4,0-6.9,0-10.3,0c-5.7,0-11.4,0-17,0c-0.7,0-1-0.1-0.9-0.9
			c0.3-2.8,0.6-5.7,0.8-8.5c0.3-2.8,0.5-5.5,0.8-8.3c0.3-2.9,0.6-5.8,0.8-8.7c0.3-2.7,0.5-5.4,0.8-8.1c0.2-2,0.5-4,0.7-6.1
			c0-0.5,0.2-0.7,0.7-0.7c1.6-0.1,3.2-0.2,4.8-0.2c5.3-0.2,10.5-0.3,15.8-0.4c1.1,0,2.1-0.1,3.2-0.1c0.3,0,0.7-0.1,0.8,0.3
			c-0.2,0.3-0.2,0.7-0.2,1.1c0,13.1,0,26.3,0,39.4C194.2,195.4,194.4,195.8,194.2,196.2z"/>
		<path class="st23" d="M228.6,180.1c0-0.3-0.1-0.8,0.4-0.9c0.6,0.5,0.5,1.2,0.6,1.9c0.2,1.1,0.3,1.2,1.4,1.2c7.8,0,15.6,0,23.4,0
			c1.1,0,1.2-0.1,1.1-1.2c-0.2-1.5-0.4-2.9-0.5-4.4c0-0.4-0.1-0.7,0.2-1c0.2,0.1,0.3,0.1,0.5,0.2c0.2,2.1,0.4,4.2,0.6,6.4
			c0.3,0.7-0.1,1-0.7,1.1c-6.1,0-12.2,0-18.3,0c-2.2,0-4.4,0.1-6.6-0.2c-0.5-0.1-1.1-0.1-1.5-0.4c-0.3-0.7-0.1-1.5-0.4-2.3
			C228.7,180.3,228.7,180.2,228.6,180.1z"/>
		<path class="st21" d="M228.7,180.4c0.4,0.7,0.4,1.5,0.4,2.3C228.4,182,228.8,181.1,228.7,180.4z"/>
		<path class="st21" d="M255.5,183.2c0.4-0.3,0.9-0.5,0.7-1.1C256.5,183.2,256.5,183.3,255.5,183.2z"/>
		<path class="st16" d="M255.2,175.6c0.2,1.9,0.3,3.7,0.7,5.6c0.2,1.2,0.1,1.3-1.1,1.3c-8,0-16.1,0-24.1,0c-0.9,0-1.2-0.3-1.2-1.1
			c0-0.8-0.2-1.5-0.3-2.3c-0.2-2.3-0.5-4.5-0.7-6.8c-0.2-1.6-0.3-3.3-0.4-4.9c-0.2-2.6-0.5-5.3-0.7-7.9c-0.1-1.1-0.2-2.2-0.2-3.3
			c0-0.6-0.2-0.8-0.7-0.9c-1.3-0.1-2.6-0.4-3.9-0.4c-3.6-0.2-7.2-0.5-10.8-0.6c-2.7-0.1-5.5-0.2-8.2-0.3c-2.9-0.1-5.7-0.3-8.6-0.3
			c-0.4,0-0.6-0.2-0.6-0.6c0-0.1,0-0.3,0-0.4c0-8.6,0-17.1,0-25.7c0-0.8,0.2-1.1,1-1.1c16.1,0,32.1,0,48.2,0.1c2.2,0,4.4,0,6.5,0.5
			c0.6,0.1,0.8,0.4,0.9,1c0.3,3.4,0.6,6.8,0.9,10.2c0.2,2.3,0.3,4.7,0.6,7c0.2,2.3,0.5,4.6,0.7,6.9c0.2,1.6,0.2,3.3,0.4,4.9
			c0.2,2.3,0.5,4.5,0.7,6.8c0.1,1.4,0.3,2.8,0.4,4.1c0.2,2.6,0.4,5.1,0.7,7.6C255.2,175.3,255.2,175.4,255.2,175.6z"/>
	</g>
</g>
<g id="ps_id_ai" class="st3">
	<g class="st9">
		<g>
			<path class="st24" d="M75.6,241.3c-11.4,0-22.8,0-34.2,0c-9.2,0-17-6.3-18.9-15.3c-0.3-1.2-0.4-2.5-0.4-3.7c0-22.2,0-44.3,0-66.5
				c0-8.8,6.4-16.7,15.1-18.5c1.4-0.3,2.8-0.4,4.2-0.4c22.8,0,45.7,0,68.5,0c9.4,0,17.4,6.7,19,16c0.2,1,0.3,2,0.3,3.1
				c0,22.1,0,44.1,0,66.2c0,9.4-6.8,17.4-16.1,19c-1.1,0.2-2.1,0.3-3.2,0.3C98.4,241.3,87,241.3,75.6,241.3z"/>
			<path class="st25" d="M43.6,188.4c0-7.6,0-15.1,0-22.7c0-0.6-0.1-0.5,0.5-0.5c5.8,0,11.6-0.1,17.3,0c7.6,0.1,14.1,5.8,15.3,13.3
				c1.3,7.9-3.3,15.5-11,17.9c-1.6,0.5-3.2,0.7-4.8,0.7c-2.4,0-4.8,0-7.2,0c-0.3,0-0.4,0.1-0.4,0.4c0,4.6,0,9.1,0,13.7
				c0,0.3-0.1,0.4-0.4,0.4c-3,0-6,0-8.9,0c-0.3,0-0.4-0.1-0.4-0.4C43.6,203.6,43.6,196,43.6,188.4z"/>
			<path class="st25" d="M105.6,186.3c-1.2-0.6-2.4-1.1-3.6-1.5c-2.1-0.7-4.2-1.2-6.5-1.2c-0.9,0-1.7,0.2-2.5,0.5
				c-1.6,0.7-1.9,2.4-0.7,3.6c0.6,0.6,1.5,1,2.3,1.4c1.4,0.7,3,1.1,4.4,1.7c2.3,1,4.3,2.3,6,4.1c1.6,1.8,2.5,3.9,2.5,6.3
				c0,2.5-0.8,4.7-2.3,6.6c-2,2.6-4.7,3.9-7.8,4.6c-5.3,1.1-10.4,0.4-15.3-1.7c-0.2-0.1-0.3-0.2-0.3-0.4c0-2.5,0-5,0-7.6
				c0-0.3,0.1-0.3,0.3-0.2c2.3,0.6,4.6,1.4,6.9,1.9c2,0.4,4,0.5,6.1,0.2c0.7-0.1,1.4-0.3,2-0.9c0.7-0.7,0.8-1.5,0.3-2.4
				c-0.5-0.9-1.2-1.5-2.1-1.9c-1.3-0.7-2.7-1.1-4.1-1.6c-2-0.7-3.9-1.6-5.6-3c-5.5-4.4-5.3-12.6,0.4-16.7c1.7-1.2,3.6-1.9,5.7-2.2
				c4.6-0.8,9-0.3,13.3,1.4c0.5,0.2,0.6,0.3,0.6,0.8c0,2.6,0,5.2,0,7.7C105.7,186.1,105.7,186.2,105.6,186.3z"/>
			<path class="st26" d="M53.4,181.2c0-2.4,0-4.7,0-7.1c0-0.3,0-0.4,0.4-0.4c2,0,4,0,6,0c3.6,0,6.6,2.4,7.4,6c1,4.4-2.3,8.8-6.8,9
				c-2.2,0.1-4.5,0-6.7,0c-0.3,0-0.3-0.2-0.3-0.4C53.4,186,53.4,183.6,53.4,181.2z"/>
		</g>
		<g>
			<path class="st27" d="M347.8,241.2C347.8,241.2,347.8,241.2,347.8,241.2c-23.8,0.1-47.7,0.1-71.5,0.1c0,0,0-0.1,0-0.1
				c0.2-0.2,0.4-0.2,0.6-0.2c0.2,0,0.4,0,0.6,0c23,0,46.1,0,69.1,0C347,241,347.4,240.8,347.8,241.2z"/>
			<path class="st27" d="M365.7,223.6L365.7,223.6l-0.1,0c-0.2-0.2-0.2-0.4-0.2-0.6c0-0.2,0-0.4,0-0.6c0-22.2,0-44.4,0-66.7
				c0-0.4-0.1-0.8,0.2-1.2c0,0,0.1,0,0.1,0C365.7,177.6,365.7,200.6,365.7,223.6z"/>
			<path class="st28" d="M365.6,154.6c0,0.4,0,0.7,0,1.1c0,22.3,0,44.6,0,66.9c0,0.4,0,0.7,0,1.1c-0.6,6.8-3.9,11.9-9.8,15.3
				c-2.5,1.4-5.2,2.1-8,2.3c-0.2,0-0.4,0-0.6,0c-23.3,0-46.5,0-69.8,0c-0.4,0-0.8,0-1.2,0c-4.4-0.3-8.3-2-11.5-5.1
				c-4-3.8-6-8.5-6-14c0-22,0-44,0-66c0-9,6-16.6,14.7-18.6c1.4-0.3,2.9-0.5,4.3-0.5c23,0,46,0,69,0c9.4,0,17.4,6.9,18.8,16.1
				C365.6,153.6,365.6,154.1,365.6,154.6z"/>
			<path class="st29" d="M302.3,199.5c-2.6,0-5.1,0-7.7,0c-0.5,0-0.6,0.2-0.8,0.6c-1,3.2-2.1,6.5-3.1,9.7c-0.2,0.8-0.4,0.8-1.2,0.8
				c-2.6,0-5.1,0-7.7,0c-1,0-1.1-0.2-0.8-1.1c3.8-10.8,7.5-21.6,11.3-32.5c1.1-3.2,2.3-6.4,3.3-9.6c0.3-1,0.4-2,0.4-3.1
				c0-0.5,0.2-0.7,0.7-0.7c3.7,0,7.4,0,11.1,0c0.5,0,0.7,0.2,0.8,0.6c5.3,15.1,10.7,30.2,16,45.3c0.1,0.2,0.1,0.4,0.2,0.5
				c0.1,0.3-0.1,0.5-0.4,0.5c-0.1,0-0.3,0-0.4,0c-3,0-6,0-8.9,0c-0.5,0-0.7-0.3-0.9-0.7c-0.9-2.6-1.8-5.1-2.6-7.7
				c-0.3-0.7-0.5-1.5-0.8-2.2c-0.1-0.4-0.3-0.5-0.7-0.5C307.5,199.5,304.9,199.5,302.3,199.5z"/>
			<path class="st29" d="M329.4,192.8c0-5.6,0-11.3,0-16.9c0-0.8,0-0.9,0.8-0.9c2.8,0,5.5,0,8.3,0c0.7,0,0.8,0.1,0.8,0.8
				c0,11.3,0,22.7,0,34c0,0.7-0.1,0.8-0.8,0.8c-2.8,0-5.5,0-8.3,0c-0.7,0-0.9-0.2-0.9-0.9C329.4,204.1,329.4,198.4,329.4,192.8z"/>
			<path class="st29" d="M334.4,171.3c-3.4-0.1-5.6-2.4-5.5-6c0.1-3,2.6-5.3,5.8-5.2c3.4,0.1,5.5,2.4,5.4,6
				C340,169.1,337.5,171.4,334.4,171.3z"/>
			<path class="st28" d="M302.2,171.9c1.7,6.3,3.8,12.4,5.7,18.5c-3.8,0-7.5,0-11.2,0C298.5,184.3,300.6,178.2,302.2,171.9z"/>
		</g>
		<g>
			<path class="st30" d="M247.4,154.7c0,22.8,0,45.6,0,68.5c-0.1,0.2,0,0.5-0.1,0.7c0.1,2.6-0.8,5-1.9,7.3c-0.9,1.8-2.2,3.5-3.7,4.9
				c-2.8,2.7-6.2,4.4-10,5c-0.8,0.1-1.6,0.1-2.4,0.1c-23.6,0-47.1,0-70.7,0c-4.4,0-8.2-1.6-11.5-4.4c-3.5-2.9-5.6-6.7-6.5-11.2
				c-0.1-0.7,0-1.4-0.2-2.2c0-22.9,0-45.8,0-68.8c0.2-0.7,0.1-1.4,0.2-2.1c0.6-3.3,2-6.3,4.2-8.9c2.7-3.2,6.1-5.3,10.1-6.3
				c0.9-0.2,1.8-0.3,2.7-0.3c0.2,0,0.4,0.1,0.6,0c23.8,0,47.6,0,71.4,0c0.6,0.1,1.2,0.1,1.8,0.1c1.7,0.2,3.2,0.7,4.8,1.4
				c2.2,1,4.2,2.3,5.9,4.1c2.5,2.6,4.1,5.6,5,9.1c0.2,0.7,0.2,1.5,0.2,2.3C247.4,154.1,247.3,154.4,247.4,154.7z"/>
			<path class="st31" d="M229.5,241.1C229.5,241.2,229.5,241.2,229.5,241.1c-23.7,0.1-47.4,0.1-71,0.1c0,0,0-0.1,0-0.1
				c0.4,0,0.8,0,1.2,0c22.9,0,45.8,0,68.7,0C228.7,241.1,229.1,241.1,229.5,241.1z"/>
			<path class="st32" d="M219.4,182.4c0,6,0,12,0,18c0,2.4,0.1,4.8,0.2,7.3c0,0.6-0.1,0.8-0.6,1c-2.5,1-5.2,1.8-7.9,2.2
				c-2.4,0.4-4.9,0.6-7.3,0.5c-3.3-0.1-6.5-0.9-9.4-2.6c-3.9-2.3-6.4-5.7-7.5-10.1c-0.5-2.2-0.7-4.4-0.6-6.6
				c0.5-7.3,4.1-12.5,10.6-15.8c2-1,4.2-1.5,6.4-1.8c1.9-0.2,3.9-0.3,5.8-0.1c0.2,0,0.4,0,0.3-0.3c0-0.1,0-0.3,0-0.4
				c0-4.2,0-8.4,0-12.6c0-0.2,0-0.3,0-0.5c0-0.7,0.1-0.8,0.8-0.8c2.8,0,5.7,0,8.5,0c0.1,0,0.2,0,0.3,0c0.3,0,0.4,0.1,0.4,0.4
				c0,0.2,0,0.3,0,0.5C219.4,168,219.4,175.2,219.4,182.4z"/>
			<path class="st32" d="M179.3,187.2c0,7.4,0,14.8,0,22.2c0,0.2,0,0.5,0,0.7c0,0.4-0.2,0.6-0.6,0.6c-0.1,0-0.2,0-0.3,0
				c-2.7,0-5.4,0-8,0c-0.1,0-0.2,0-0.3,0c-0.4,0-0.6-0.2-0.6-0.6c0-0.1,0-0.3,0-0.4c0-15.1,0-30.2,0-45.2c0-0.1,0-0.2,0-0.3
				c0-0.4,0.2-0.5,0.6-0.6c0.1,0,0.3,0,0.4,0c2.7,0,5.4,0,8,0c0.8,0,0.9,0.1,0.9,0.9C179.3,172.1,179.3,179.7,179.3,187.2z"/>
			<path class="st30" d="M209.5,192.7c0,3,0,6.1,0,9.1c0,0.6,0,0.6-0.6,0.7c-0.5,0.1-1,0.1-1.5,0.1c-1.1,0.1-2.2,0.1-3.3-0.1
				c-1.9-0.3-3.6-1-4.9-2.4c-1-1-1.6-2.2-2-3.6c-0.7-2.3-0.7-4.6-0.2-7c0.5-2.4,2-4.1,4.1-5.4c2.2-1.4,4.6-1.8,7.2-1.6
				c0.3,0,0.6,0.1,1,0.1c0.4,0.1,0.4,0.1,0.4,0.5c0,0.4,0,0.7,0,1.1C209.5,187.2,209.5,189.9,209.5,192.7z"/>
		</g>
	</g>
</g>
<g id="pr_ae" class="st3">
	<g class="st9">
		<g>
			<path class="st33" d="M185.3,138.7c0,33.6,0,67.2,0,100.8c-0.2,0.5,0,1.1-0.1,1.6c-0.4,4-1.9,7.5-4,10.8
				c-4.4,6.6-10.5,10.7-18.3,12.1c-1.2,0.2-2.3,0.2-3.5,0.2c-34.1,0-68.2,0-102.3,0c-5.9,0-11.1-2.1-15.7-5.7
				c-5.6-4.4-9.1-10.2-10.3-17.3c-0.1-0.8-0.2-1.6-0.2-2.3c-0.1-33.3-0.1-66.7,0-100c0-3.2,0.9-6.2,2.2-9.1
				c2.6-5.8,6.7-10.2,12.3-13.2c3.3-1.8,6.8-2.9,10.7-2.9c0.2,0,0.4,0.1,0.6-0.1c34.4,0,68.7,0,103.1,0c0.9,0.1,1.9,0,2.8,0.2
				c4.8,0.7,9,2.6,12.8,5.7c4.9,3.9,8.1,9,9.6,15.1c0.3,1.1,0.3,2.2,0.3,3.3C185.3,138.1,185.1,138.4,185.3,138.7z"/>
			<path class="st34" d="M159.6,264.2c0,0,0,0.1,0,0.1c-34.3,0-68.5,0-102.8,0c0,0,0-0.1,0-0.1c0.6,0,1.2,0,1.8,0
				c33.1,0,66.2,0,99.3,0C158.4,264.2,159,264.2,159.6,264.2z"/>
			<path class="st34" d="M30.8,139.5c0.2-0.2,0.1-0.6,0.3-0.9c0.1,0.9-0.1,1.8-0.1,2.6c0,31.8,0,63.5,0,95.3c0,0.9,0.2,1.8,0.1,2.6
				c-0.2-0.3,0-0.6-0.3-0.9C30.8,205.4,30.8,172.5,30.8,139.5z"/>
			<path class="st35" d="M185.2,137.9c0,0,0.1,0,0.1,0c0,0.2,0,0.5,0,0.7C185.1,138.4,185.1,138.2,185.2,137.9z"/>
			<path class="st36" d="M67.6,186c0-10.9,0-21.7,0-32.6c0-1.3,0-1.3,1.3-1.3c4.6-0.1,9.3-0.2,13.9-0.3c2.8-0.1,5.6-0.1,8.4,0
				c4.2,0.2,8.3,0.9,12.2,2.7c5.2,2.3,9.1,6,11.2,11.4c1.3,3.3,1.8,6.7,1.6,10.2c-0.1,2.4-0.4,4.7-1.2,7c-1.6,5-4.9,8.7-9.4,11.4
				c-2.7,1.6-5.7,2.5-8.8,3.1c-4.2,0.8-8.5,0.8-12.7,0.7c-0.7,0-1.4,0-2.1-0.1c-0.3,0-0.5,0.1-0.4,0.4c0,0.2,0,0.4,0,0.6
				c0,6.4,0,12.7,0,19.1c0,0.2,0,0.4,0,0.6c0,0.6-0.3,0.8-0.9,0.9c-0.1,0-0.2,0-0.4,0c-3.8,0-7.6,0-11.5,0c-0.1,0-0.2,0-0.3,0
				c-0.7,0-0.9-0.2-0.9-0.9c0-0.3,0-0.5,0-0.8C67.6,207.5,67.6,196.8,67.6,186z"/>
			<path class="st36" d="M139,175.3c0.4-0.2,0.5-0.4,0.7-0.6c3.1-3.2,6.7-5.5,11-6.7c1.6-0.4,3.2-0.6,4.8-0.6c0.8,0,1.1,0.3,1.1,1
				c0,1,0,2.1,0,3.1c0,2.8,0,5.7,0,8.5c0,0.2,0,0.3,0,0.5c0,0.8-0.2,1-1.1,1c-0.5,0-1,0-1.5,0c-3.7,0.1-7.3,0.8-10.8,2.3
				c-1.1,0.5-2.1,1.1-2.9,1.9c-0.4,0.3-0.5,0.7-0.5,1.2c0,5.9,0,11.8,0,17.6c0,4.5,0,9,0,13.4c0,0.2,0,0.4,0,0.7
				c0,1.2-0.1,1.3-1.3,1.3c-2.8,0-5.5,0-8.3,0c-1.2,0-2.5,0-3.7,0c-0.9,0-1.2-0.3-1.2-1.2c0-0.5,0-0.9,0-1.4c0-12.4,0-24.9,0-37.3
				c0-2.7-0.1-5.4-0.2-8.1c0-0.9-0.1-1.8-0.2-2.6c-0.1-0.8,0.1-1,0.9-1c3.5,0,7.1,0,10.6,0c1.2,0,1.6,0.3,1.9,1.5
				c0.4,1.4,0.6,2.9,0.7,4.3C139,174.6,139,174.9,139,175.3z"/>
			<path class="st33" d="M86.4,164.6c1.7-0.1,3.3-0.2,5,0c1.9,0.2,3.7,0.6,5.4,1.4c2.8,1.3,4.6,3.6,5.2,6.6c0.5,2.2,0.3,4.4-0.3,6.5
				c-0.8,2.5-2.6,4.1-4.8,5.3c-1.5,0.8-3.1,1.1-4.7,1.5c-1.6,0.3-3.3,0.5-5,0.4c-1.7,0-3.3,0.1-5-0.1c-0.6-0.1-0.6,0-0.6-0.7
				c0-6.8,0-13.6,0-20.3c0-0.7,0-0.7,0.7-0.7C83.7,164.6,85,164.6,86.4,164.6z"/>
		</g>
		<g>
			<path class="st37" d="M202.1,240c0-33.9,0-67.9,0-101.8c0.3-1.7,0.2-3.4,0.8-5.1c3.4-10.2,10.3-16.6,20.7-19.2
				c1.6-0.4,3.2-0.4,4.8-0.4c34.1,0,68.2,0,102.3,0c6.5,0,12.1,2.3,17,6.5c4.3,3.7,7.2,8.4,8.7,13.9c0.5,1.9,0.7,3.9,0.7,5.8
				c0,32.9,0,65.9,0,98.8c0,6.6-2.5,12.3-6.8,17.2c-3.7,4.2-8.3,6.9-13.7,8.4c-1.4,0.4-2.9,0.3-4.3,0.5c-35.2,0-70.3,0-105.5,0
				c-1.6-0.3-3.2-0.3-4.8-0.8c-10.2-3.2-16.6-10-19.3-20.3C202.2,242.3,202.4,241.1,202.1,240z"/>
			<path class="st38" d="M252.3,152.4c2.6,0,5.2,0,7.7,0c0.8,0,1.1,0.2,1.4,1c7.7,21.6,15.5,43.2,23.2,64.8c0.5,1.4,0.3,1.6-1.1,1.6
				c-4.1,0-8.2,0-12.3,0c-1,0-1.4-0.4-1.7-1.3c-1.5-4.5-3.1-9-4.6-13.5c-0.3-0.8-0.6-1.1-1.5-1.1c-7.4,0.1-14.7,0-22.1,0
				c-0.7,0-1,0.2-1.3,0.9c-1.4,4.6-3,9.2-4.4,13.8c-0.3,1-0.8,1.4-1.9,1.4c-3.6-0.1-7.3,0-10.9,0c-1.5,0-1.7-0.3-1.2-1.7
				c5.9-16.9,11.8-33.7,17.7-50.6c1-2.7,1.9-5.5,2.9-8.2c0.7-2,1.1-4,1.1-6c0-0.8,0.3-1.1,1.1-1.1
				C246.9,152.4,249.6,152.4,252.3,152.4z"/>
			<path class="st38" d="M330.3,212.6c0,1.5-0.1,3,0,4.4c0.1,1.1-0.4,1.6-1.4,2c-3.2,1.3-6.6,1.9-10.1,2.2
				c-4.9,0.4-9.8,0.3-14.6-1.1c-7.4-2.3-12.4-7.3-14.8-14.6c-2.9-9-2.3-17.8,2.4-26c3-5.3,7.4-9.1,13.4-10.7
				c5-1.3,10.1-1.3,15.1,0.2c7.6,2.3,11.7,7.8,13.6,15.2c1,3.7,0.8,7.5,0.5,11.2c-0.2,2.7,0,2.3-2.9,2.7c-3.5,0.4-7-0.1-10.5-0.1
				c-5.9,0-11.8,0-17.7,0c-0.8,0-1,0.1-0.8,1c1.4,6.5,5.1,8.8,10.9,9.9c3.8,0.7,7.5,0.2,11.2-0.5c1.7-0.3,3.3-0.7,4.8-1.3
				c0.7-0.3,0.9-0.1,0.8,0.6C330.3,209.4,330.3,211,330.3,212.6z"/>
			<path class="st33" d="M252.1,164.3c1.9,6.5,4,12.9,6,19.3c0.7,2.3,1.4,4.5,2.2,6.8c0.2,0.5,0.1,0.7-0.5,0.7c-5,0-10,0-15,0
				c-1,0-0.5-0.5-0.4-0.9c2.4-7.4,4.6-14.8,6.8-22.2C251.5,166.7,251.8,165.5,252.1,164.3z"/>
			<path class="st33" d="M311.2,188.7c-2.7,0-5.3,0-8,0c-0.4,0-0.8,0.1-0.7-0.5c0.6-3.6,2.4-7.4,6.9-8.6c5.7-1.6,10.3,1.3,11.6,6
				c0.1,0.3,0.1,0.6,0.2,0.9c0.3,1.8,0,2.2-1.9,2.2C316.5,188.7,313.8,188.6,311.2,188.7C311.2,188.6,311.2,188.6,311.2,188.7z"/>
		</g>
	</g>
</g>
<g id="node_express">
	<g>
		<path class="st39" d="M73.4,143.8c0,6.1,0,12.2,0,18.3c0,2.3-0.8,2.8-2.8,1.7c-4.6-2.6-9.2-5.2-13.7-7.9c-1.2-0.7-1.7-1.7-1.7-3
			c0-5.5,0-11,0-16.6c0-1.8-0.6-3.1-2.2-3.9c-1.8-1-3.6-2-5.4-3.1c-1.3-0.9-2.5-0.6-3.7,0.1c-1.8,1-3.6,2.1-5.4,3.1
			c-1.4,0.8-2,1.9-2,3.5c0,5.5,0,11,0,16.6c0,1.6-0.5,2.7-1.9,3.5c-4.5,2.6-9.1,5.1-13.6,7.8c-1.6,1-2.7,0.4-2.7-1.7
			c0-8.9,0-17.7,0-26.6c0-3.2,0-6.4-0.1-9.6c-0.1-2,0.7-3.2,2.4-4.2c7.5-4.3,15-8.6,22.5-13c1.9-1.1,3.4-1.1,5.3,0
			c7.5,4.4,15.1,8.8,22.7,13.2c1.4,0.8,2.2,1.9,2.1,3.7C73.4,131.6,73.5,137.7,73.4,143.8C73.4,143.8,73.4,143.8,73.4,143.8z"/>
		<path class="st40" d="M212.4,200.9c2.5,0,5,0,7.5,0c1.5,0,2.1,0.5,2.1,2c0,2.9,0,5.8,0,8.6c0,1.3-0.6,1.7-1.8,1.7
			c-4.9,0-9.7,0-14.6,0c-2.2,0-2.2,0-2.2,2.3c0,4.7,0,9.4,0,14.2c0,2-0.6,2.6-2.6,2.6c-2.5,0-4.9,0-7.4,0c-1.9,0-2.4-0.5-2.4-2.3
			c0-4.9,0-9.8,0-14.7c0-1.8-0.2-2-1.9-2c-4.8,0-9.6,0-14.4,0c-2.3,0-2.6-0.4-2.6-2.7c0-2.4,0-4.8,0-7.2c0-1.8,0.7-2.5,2.5-2.5
			c5,0,9.9-0.1,14.9,0c1.3,0,1.7-0.4,1.7-1.7c-0.1-5,0-9.9,0-14.9c0-1.9,0.3-2.2,2.1-2.2c2.5,0,5,0,7.5,0c2.4,0,2.7,0.4,2.7,2.8
			c0,4.8,0,9.5-0.1,14.3c0,1.2,0.2,1.7,1.6,1.6C207.4,200.8,209.9,200.9,212.4,200.9C212.4,200.9,212.4,200.9,212.4,200.9z"/>
		<path class="st41" d="M354.2,133.7c0-0.1,0-0.2-0.1-0.2c-0.7-2-2.4-2.6-4.2-2.8c-1.6-0.2-3.3,0-4.9,0c-0.7,0-1.3,0.2-1.9,0.5
			c-1.3,0.6-2.1,1.7-2,2.8c0.1,1.1,1.1,2,2.6,2.3c2.5,0.5,5.1,0.8,7.6,1.2c1.6,0.2,3.2,0.7,4.7,1.3c3.5,1.5,3.8,4.2,3.3,7.5
			c-0.4,2.3-2.1,3.7-4.1,4.5c-5.1,2-10.2,1.9-15.2-0.2c-1.3-0.6-2.2-1.7-3.1-2.6c-0.6-1-0.8-2.1-0.9-3.2c-0.1-1,0.3-1.5,1.3-1.6
			c1.9-0.3,2.4,0,3.1,1.8c0.2,0.5,0.3,1.1,0.9,1.4c1.1,1.3,2.7,1.7,4.2,1.8c2.4,0.2,4.9,0.4,7.3-0.5c1.6-0.5,2.3-1.6,2.3-3.3
			c-0.1-1.2-1-2.1-2.5-2.4c-2.7-0.6-5.4-0.8-8.1-1.2c-1.7-0.2-3.4-0.7-4.9-1.6c-2.3-1.3-3.2-3.8-2.5-6.9c0.6-2.7,2.5-4.3,4.9-5
			c4-1.1,8.2-1.2,12.2,0.3c1.7,0.6,2.9,1.8,3.6,3.4c0.2,0.8,0.9,1.5,0.8,2.5c-0.1,1.3-0.3,1.7-1.6,1.7c-0.6,0-1.1,0-1.7-0.1
			C354.5,135,354.4,134.4,354.2,133.7z"/>
		<path class="st42" d="M264.9,291.5c-3.8,0-7.4-0.6-10.6-2.9c-2-1.4-3.2-3.3-3.9-5.7c-0.5-1.5-0.8-2.9-0.7-4.4
			c0-0.5-0.3-1.3,0.6-1.3c0.9-0.1,1,0.6,1,1.4c0,1.7,0.5,3.3,1.2,4.9c1.3,3.1,3.8,4.9,6.9,5.7c4.4,1.2,8.8,1.1,13-0.5
			c4.3-1.6,6.7-5.9,5.4-10.3c-0.7-2.4-2.7-4-5-5c-3.6-1.4-7.4-2.1-11.1-3.1c-2.1-0.6-4.2-1.2-6.1-2.1c-3.5-1.7-5.3-6.1-4.2-9.9
			c1.2-4.2,4.1-6.3,8.2-7.4c3.7-1,7.4-0.9,10.9,0.1c5.1,1.5,8.2,5.1,8.3,10.6c0,0.6,0,1.2-0.7,1.3c-0.7,0-0.8-0.6-0.9-1.1
			c-0.2-1.2-0.2-2.4-0.7-3.6c-1.6-3.5-4.3-5.5-8.1-6c-3.9-0.6-7.8-0.7-11.3,1.3c-5.8,3.3-5.2,10.6-0.6,13.1c2,1.1,4.4,1.7,6.6,2.3
			c4.3,1.1,8.7,2,12.7,4.1c3.8,2,5.3,7.5,3.4,11.7c-1.5,3.2-4.2,4.9-7.4,6C269.4,291.4,267.2,291.5,264.9,291.5z"/>
		<path class="st42" d="M293.3,266.6c2,1.1,4.3,1.7,6.5,2.2c4.3,1.1,8.7,2,12.7,4c3.9,2,5.5,7.5,3.6,11.6c-1.9,4.1-5.4,6.1-9.7,6.7
			c-4.3,0.6-8.6,0.6-12.6-1.2c-3.1-1.4-5.4-3.7-6.3-7.1c-0.4-1.4-0.7-2.8-0.7-4.3c0-0.6-0.2-1.3,0.6-1.3c0.9,0,0.8,0.7,0.8,1.3
			c0.2,2.6,0.9,5,2.5,7.1c1.5,1.9,3.4,2.9,5.6,3.6c4.2,1.2,8.4,1,12.5-0.3c2.5-0.8,4.6-2.3,5.6-4.7c2-5,0-9-4.6-10.9
			c-3.5-1.4-7.2-1.9-10.8-3c-2.6-0.7-5.2-1.4-7.5-2.9c-3.6-2.4-4-7.7-2.5-10.8c1.6-3.2,4.3-4.9,7.7-5.8c2.4-0.6,4.9-0.6,7.3-0.4
			c4.5,0.4,8.5,2,10.6,6.5c0.7,1.5,1.3,3,1.1,4.7c0,0.5-0.1,1-0.7,1.1c-0.6,0.1-0.8-0.4-0.9-0.9c-0.2-0.6-0.2-1.3-0.3-1.9
			c-1-4.3-4.2-7.1-8.6-7.7c-2.6-0.4-5.2-0.3-7.7,0.1c-5.7,1-9.2,5.6-6.9,11.6C291,265.2,292.2,265.8,293.3,266.6z"/>
		<path class="st42" d="M111.3,290c0.1-0.1,0.2-0.3,0.3-0.5c2.5-3.2,5.1-6.4,7.6-9.7c2.2-2.9,4.4-5.9,6.7-8.7c0.5-0.6,0.5-1.2,0-1.9
			c-4.2-5.5-8.3-11.1-12.4-16.6c-0.4-0.5-1-1-0.3-1.5c0.7-0.5,1.3,0,1.8,0.6c1.2,1.6,2.3,3.2,3.5,4.8c2.8,3.7,5.6,7.6,8.3,11.4
			c0.6,0.8,1,0.8,1.6,0c3.9-5.2,7.8-10.4,11.7-15.5c0.1-0.2,0.3-0.4,0.4-0.6c0.5-0.6,1.2-1.2,1.8-0.7c0.7,0.6-0.2,1.1-0.5,1.6
			c-4.1,5.4-8.2,10.9-12.3,16.3c-0.6,0.8-0.7,1.4,0,2.3c2.9,3.6,5.5,7.3,8.4,10.8c1.8,2.2,3.5,4.5,5.3,6.8c0.4,0.5,1.1,1,0.4,1.5
			c-0.7,0.5-1.3,0-1.8-0.6c-1.6-2.1-3.2-4.3-4.8-6.4c-2.9-3.8-5.9-7.7-8.9-11.5c-0.5-0.7-0.9-0.1-1.2,0.3c-2.3,3-4.6,6-6.8,9
			c-2.2,2.8-4.3,5.7-6.5,8.5c-0.4,0.6-1,1-1.8,0.8C111.5,290.6,111.3,290.4,111.3,290z"/>
		<path class="st43" d="M272.3,139c0,0.8,0,1.2,0,1.5c0.1,1.2-0.1,2.2-1.5,2.6c-0.2,0.1-0.4,0.2-0.6,0.3c-1.1,0.5-2,1.8-3.2,1.5
			c-1.7-0.4-3.1-1.5-4.5-2.5c-0.4-0.3-0.5-0.6-0.5-1.1c0-0.2,0-0.5,0-0.7c-0.1-4.5,0-4.4,3.9-6.5c1-0.5,1.9-0.6,2.8,0.1
			c0.2,0.2,0.5,0.3,0.7,0.4C271.4,135.5,273.1,136.7,272.3,139z"/>
		<path class="st42" d="M192.8,260c2.1-6.6,7.9-9.6,13.6-9.8c0.2,0,0.5,0,0.7,0c0.4,0.1,0.9,0.1,0.9,0.7c0,0.5-0.4,0.9-0.9,0.9
			c-0.9,0.1-1.9,0.1-2.8,0.2c-6.1,0.8-10,5.8-11.2,11.3c-1,4.5-0.4,9-0.5,13.5c-0.1,4.1,0,8.2,0,12.3c0,0.6,0.2,1.4-0.7,1.4
			c-0.9,0-0.8-0.7-0.8-1.5c0-11.8,0-23.7,0-35.5c0-0.6,0-1.1,0.1-1.7c0-0.5,0.3-0.8,0.8-0.8c0.6,0,0.7,0.5,0.7,0.9
			c0,2.1,0,4.2,0,6.4C192.5,258.9,192.3,259.4,192.8,260z"/>
		<path class="st42" d="M178.6,256.1c3.1,4.2,4.3,8.9,4.3,14.1c0,4.4-0.5,8.6-2.6,12.5c-1.1,1.9-2.1,4-4.2,5.1
			c-3.7,2.9-8,3.8-12.6,3.2c-3.8-0.5-6.9-2.3-9.5-5.1c-0.9-0.6-1.5-1.4-1.6-2.5c0.6-1.3,1.1-0.2,1.4,0.2c1.2,1.7,2.7,3.2,4.5,4.2
			c5.1,2.7,10.4,3.2,15.4,0.1c3.2-2,5.3-5.1,6.5-8.8c1-2.9,1.6-5.9,1.5-9c-0.1-3.4-1-6.6-2.1-9.7c-0.1-0.3-0.3-0.5-0.6-0.6
			c-0.4-0.3-0.6-0.6-0.7-1.1c-1.1-2.9-3.3-4.7-6-5.8c-6.5-2.7-13-1-17.5,4.2c-0.9,1.1-1.6,2.4-2.3,3.7c-0.2,0.4-0.4,0.9-0.8,0.8
			c-0.6-0.1-0.5-0.7-0.5-1.1c1.5-3.6,3.8-6.6,7.3-8.5c3.7-2,7.6-2.3,11.7-1.4C173.6,251.5,176.4,253.4,178.6,256.1z"/>
		<path class="st44" d="M92.4,154.8c-0.4-1-0.5-2.1-0.5-3.2c0-6.6,0-13.2,0-19.8c0-2.3,0.1-4.7,0.2-7c0-1.2,0.7-2,1.6-2.5
			c8.2-4.8,16.4-9.5,24.6-14.2c1.3-0.7,2.5-0.5,3.7,0.2c4.5,2.6,9.1,5.3,13.6,7.9c3.3,1.9,6.7,3.8,10,5.8c1.4,0.8,2.1,2.1,2.1,3.9
			c-0.1,8.9,0,17.8,0,26.7c0,1.9-0.5,3.4-2.5,4.1c-0.1-0.1-0.2-0.3-0.1-0.4c1.8-1.7,1.7-3.9,1.7-6.2c0-6.4,0-12.7,0-19.1
			c0-2.1-0.3-4.1-0.3-6.2c0-1-0.5-1.6-1.3-2c-8-4.4-15.7-9.2-23.7-13.6c-1.1-0.6-2.2-0.6-3.3,0c-7.4,4.3-14.7,8.6-22.2,12.8
			c-2.2,1.2-3.2,2.8-3.1,5.5c0.2,8,0.1,16,0.1,24.1C92.7,152.6,93.2,153.8,92.4,154.8z"/>
		<path class="st45" d="M173.4,119.5c3.1-2.1,6.4-3.8,9.7-5.7c2.8-1.6,5.5-3.2,8.3-4.8c1.6-0.9,3-1.1,4.6,0c1.6,1.1,3.3,2,5,2.9
			c0.9,0.5,1.5,0.2,1.7-0.9c0-0.4,0-0.8,0-1.1c0-11.5,0-23,0-34.6c0-0.4,0-0.9,0-1.3c0.1-2,1.4-2.7,3.1-1.7
			c3.7,2.1,7.5,4.2,11.2,6.3c0.4,0.2,0.7,0.4,1.1,0.6c2.3,1.1,3.4,2.7,3.4,5.5c-0.1,23-0.1,46-0.1,69c0,0.9,0.2,1.9-0.9,2.5
			c-0.1-0.1-0.2-0.3-0.2-0.4c0.5-1.9,0.4-3.8,0.4-5.8c0-21.7,0-43.3,0-65c0-2.3-0.8-3.7-2.8-4.8c-3.9-2.1-7.7-4.3-11.6-6.5
			c-2.1-1.2-2.7-0.9-2.7,1.5c0,11.3,0,22.5,0,33.8c0,0.7,0,1.4-0.1,2.1c-0.3,1.6-1.5,2.2-2.9,1.5c-1.6-0.8-3.1-1.6-4.6-2.6
			c-1.5-1-2.9-1.1-4.5-0.2c-5.3,3.1-10.6,6-15.8,9.1c-0.6,0.4-1.2,0.8-1.9,0.7C173.6,119.8,173.5,119.7,173.4,119.5z"/>
		<path class="st46" d="M332.6,163.7c1-1.2,2.2-0.9,3.3-0.3c1.2,0.7,2.4,1.3,3.5,2.1c1.2,0.8,2.2,0.7,3.4,0c6.6-4,13.3-8,20.1-11.6
			c2.2-1.2,2.2-3,2-4.9c-0.3-3.2-0.1-6.3-0.2-9.5c0-4.4,0-8.8,0-13.2c0-1-0.3-1.6-1.2-2c-4.7-2.7-9.3-5.4-14-8.1
			c-2.3-1.4-4.7-2.6-7-4.1c-1.1-0.7-1.9-0.6-3,0c-2.7,1.6-5.5,3.2-8.3,4.8c-0.2,0.1-0.5,0.2-0.8,0.3c0-0.1-0.1-0.1-0.1-0.2
			c0.1-0.7,0.7-1,1.2-1.3c2.8-1.6,5.6-3.3,8.5-4.9c0.8-0.5,1.6-0.3,2.4,0.1c6.8,4,13.6,7.9,20.5,11.8c2.4,1.4,3.1,3,3.1,5.6
			c-0.2,7.4-0.1,14.7,0,22.1c0,1.9-0.7,3-2.3,3.9c-4.7,2.6-9.2,5.4-13.8,8c-2.4,1.3-4.6,2.7-6.9,4.1c-1.2,0.7-2.3,0.7-3.5,0.1
			c-1.1-0.6-2.2-1.3-3.3-2c-0.9-0.6-1.9-0.9-2.9-0.7C333,164,332.8,163.9,332.6,163.7z"/>
		<path class="st42" d="M152.5,283.7c0.2,0.9,0.8,1.5,1.4,2.2c0.2,0.1,0.2,0.2,0,0.3c-1.5-0.5-1.5-2.1-2.4-3c-0.3-0.3-0.1-1-0.7-0.8
			c-0.5,0.2-0.2,0.8-0.2,1.2c0,6.2,0,12.5,0,18.7c0,0.4,0,0.8,0,1.1c0,0.6-0.2,1-0.9,1c-0.6,0-1.1-0.2-1.2-0.9c0-0.7,0-1.4,0-2.1
			c0-16,0-32.1,0-48.1c0-0.9-0.3-2.3,1.1-2.3c1.4,0,0.9,1.4,0.9,2.2c0.1,1.8,0,3.7,0,5.5c0,0.4-0.2,1,0.4,1.4
			c0.8-1.5,1.6-2.9,2.7-4.2c3-3.6,6.8-5.5,11.5-5.7c3.8-0.2,7.3,0.6,10.4,2.8c1.2,0.9,2.4,1.8,3,3.2c-1.5-0.9-2.4-2.3-3.9-3.2
			c-5.9-3.6-13.7-3.2-18.9,1.3c-2,1.7-3.5,3.9-4.4,6.4c-0.2,0.4,0,1.2-0.7,1.2c-0.7-0.1-0.8-0.8-0.8-1.3c-0.1-2.5,0-5.1-0.2-7.6
			c-0.1,16.6-0.1,33.2-0.1,50c0.3-0.7,0.2-1.3,0.2-1.8c0-6.2,0-12.4,0-18.7c0-0.8-0.3-2,0.7-2.2c1.1-0.2,1.2,1.1,1.6,1.8
			C152.3,282.5,152.2,283.1,152.5,283.7z"/>
		<path class="st47" d="M173.4,119.5c0.1,0,0.3,0.1,0.4,0.1c-0.2,0.9-1,1.3-1.6,1.6c-1.3,0.6-2.5,1.5-3.8,2.2
			c-1.1,0.6-1.6,1.5-1.6,2.8c0,9.1,0,18.1,0,27.2c0,1.5,0.6,2.4,1.8,3.1c6.1,3.7,12.4,7.1,18.5,10.7c1.6,0.9,3.2,1.7,4.8,2.8
			c1.1,0.7,2.2,0.8,3.3,0.1c4-2.3,7.9-4.6,11.9-6.9c4.2-2.4,8.3-4.8,12.5-7.2c0.3-0.2,0.6-0.3,0.9-0.2c0,0.1,0,0.3,0.1,0.4
			c-1.1,1.4-2.9,1.9-4.3,2.8c-6.7,4-13.5,7.8-20.3,11.8c-1.6,0.9-3,0.9-4.6-0.1c-6.8-4-13.7-7.9-20.5-11.8c-0.8-0.4-1.5-1-2.3-1.4
			c-1.9-1-2.7-2.5-2.6-4.7c0.1-8.6,0.1-17.3,0-25.9c0-2.3,0.8-3.7,2.8-4.7C170.3,121.3,171.7,120.2,173.4,119.5z"/>
		<path class="st48" d="M324.7,157c0.3,0,0.7,0,1,0c2.4,0,3.3-0.9,3.3-3.3c0-7.9,0-15.7,0-23.6c0-0.5,0-1,0.1-1.5
			c0.2-1.1,0.7-1.7,1.9-1.6c0.5,0,0.9,0,1.4,0c1.2-0.1,1.7,0.5,1.7,1.7c0,8.8,0.1,17.6-0.1,26.4c0,2.2-0.6,4.5-3.1,5.6
			c-0.1-0.1-0.2-0.3-0.1-0.5c0.1-0.5,0.5-0.9,0.8-1.3c0.5-0.7,1-1.5,1-2.3c0-2.6,0.7-5.1,0.2-7.7c0-0.1,0-0.2,0-0.3
			c0.2-4.9-0.2-9.8,0.1-14.7c0.1-1.7-0.2-3.4-0.3-5.1c0-0.7-0.5-0.8-1.1-0.8c-0.6,0-1.2,0.1-1.3,0.8c-0.1,0.6-0.1,1.1-0.1,1.7
			c0,7.5,0,15,0,22.5c0,1,0,2.1-0.6,3c-1,1.1-2.2,2-3.8,1.7C325.4,157.6,324.8,157.6,324.7,157z"/>
		<path class="st49" d="M332.6,163.7c0.2,0,0.4,0,0.6,0c0,0.1,0,0.3-0.1,0.4c-1.1,1.2-1.1,1.2,0.3,1.9c1.5,0.8,3,1.8,4.5,2.7
			c1.9,1.2,3.8,1.3,5.8,0.2c4.2-2.4,8.4-4.9,12.6-7.3c3-1.7,5.9-3.5,8.9-5.2c2-1.1,3-2.7,2.9-5.1c-0.1-8.4,0-16.9,0-25.3
			c0-0.7-0.1-1.4,0.3-2.1c0.1-0.1,0.3-0.1,0.4,0c0.5,1.3,0.4,2.8,0.4,4.2c0,4.1,0.1,8.2-0.1,12.3c-0.1,3,0.1,6,0.1,9
			c0,1.2-0.1,2.3-0.2,3.5c-0.2,2-1.4,3.2-3,4.1c-5.5,3.2-11,6.3-16.5,9.5c-2.1,1.2-4.1,2.5-6.2,3.6c-2.2,1.2-4.3,0.5-6.3-0.7
			c-1.9-1.2-3.8-2.4-5.7-3.5c-0.5-0.3-1.1-0.4-1.1-1.1c0-0.8,0.8-0.7,1.2-0.9C332,163.9,332.3,163.8,332.6,163.7z"/>
		<path class="st42" d="M293.3,266.6c-1.8-0.5-3.4-2.6-3.7-4.7c-0.7-5.1,2.4-8.7,7.3-9.8c3.7-0.8,7.4-0.9,11,0.5
			c3.8,1.5,5.8,4.3,6.4,8.2c0,0.1,0,0.3,0,0.4c0,0.5,0,1.2,0.7,1.2c0.6,0,0.5-0.7,0.4-1.2c-0.2-3.9-1.8-7.2-5.4-8.9
			c-5.3-2.6-10.8-2.8-16.2-0.2c-5.5,2.6-6.3,7.7-4.7,12c0.9,2.4,2.9,3.6,5.1,4.5c1.6,0.6,3.2,0.9,4.7,1.7c-5.3-1-9.9-2.4-10.9-8
			c-0.8-4,0.8-7.7,4.4-10c4-2.6,8.3-2.5,12.6-2.1c3.1,0.3,6.1,1.6,8.2,4.1c1.8,2.2,2.6,4.7,2.6,7.5c0,0.6-0.2,1.1-0.8,1.2
			c-0.7,0.1-1-0.4-1.2-0.9c-0.5-1.6-0.3-3.3-1.2-4.8c-1.7-2.8-4.1-4.6-7.4-5c-2.7-0.4-5.4-0.4-8,0.1c-5.9,1.2-8.8,5.9-6.3,11.7
			C291.5,265.3,292.8,265.5,293.3,266.6z"/>
		<path class="st50" d="M331,160.3c0,0.1,0,0.2,0,0.3c-1.8,1.6-4.2,1.5-6.2,1c-3.8-0.9-7.1-3.1-10.3-5.4c-1.9-1.3-1.9-3.5-1.9-5.5
			c-0.1-8,0-16,0-24c0-2.7,1-4.8,3.6-6.2c4-2.1,7.7-4.6,11.7-6.6c0.1,0.3,0,0.6-0.2,0.9c-2,1.7-4.5,2.8-6.7,4.2
			c-1.6,1-3.3,1.8-4.9,2.9c-1.6,1-2.3,2.3-2.3,4.2c0.1,8.6,0,17.2,0,25.8c0,2.1,0.8,3.6,2.7,4.6c2.2,1.2,4.4,2.6,6.7,3.7
			c2.1,1,4.3,0.9,6.5,0.3C330.1,160.4,330.5,160,331,160.3z"/>
		<path class="st51" d="M244,120.7c6.3-3.6,12.5-7.2,18.8-10.9c0.6-0.4,1.2-0.7,1.8-1.1c1.9-1.3,3.6-1.1,5.5,0.1
			c7.4,4.4,14.8,8.8,22.3,13.1c1.6,1,2.6,2.1,2.5,4.2c-0.2,1.8-0.1,3.7,0,5.5c0.1,1.7-0.6,2.8-2,3.6c-4.7,2.7-9.3,5.4-14,8.1
			c-0.9,0.5-1.7,0.6-2.3-0.4c0.1-0.1,0.2-0.2,0.4-0.2c1.8,0.2,3.1-1.1,4.5-1.8c3.5-2.1,7.1-4.1,10.6-6.2c1.5-0.9,2.1-2,2.1-3.7
			c-0.1-1.4-0.1-2.8,0-4.2c0.2-2.1-0.8-3.3-2.5-4.2c-7.5-4.2-14.8-8.7-22.2-13c-1.5-0.9-2.7-0.9-4.2,0c-5.8,3.4-11.6,6.7-17.4,10.1
			c-1.3,0.7-2.4,1.8-4,1.9C243.5,121,243.8,120.9,244,120.7z"/>
		<path class="st52" d="M259,133.5c-0.9,0.9-1.2,1.9-1.1,3.2c0.1,2,0.1,4,0,5.9c0,1.3,0.5,2.2,1.6,2.9c3.6,2,7.2,4.1,10.8,6.2
			c4.1,2.4,8.2,4.7,12.2,7.1c0.4,0.2,0.8,0.5,1.1,0.8c0.9,0.9,0.9,1.8-0.2,2.5c-1.3,0.9-2.7,1.6-4,2.4c-3.4,1.9-6.9,3.8-10.3,5.8
			c-1.4,0.8-2.7,0.7-4,0c-5.3-3.1-10.7-6.1-16-9.2c-0.5-0.3-1.1-0.2-1.4-0.8c-0.1-0.1-0.1-0.3,0-0.4c0.8-0.4,1.3,0.2,1.9,0.5
			c5.2,3.1,10.6,6,15.9,9c1.4,0.8,2.6,0.6,3.8-0.2c4.1-2.5,8.3-4.7,12.5-7c0.6-0.3,1.4-0.5,1.4-1.4c0-0.8-0.8-1.1-1.4-1.5
			c-4.9-2.7-9.7-5.5-14.5-8.3c-2.8-1.6-5.6-3.1-8.3-4.8c-1-0.6-1.6-1.4-1.7-2.6c0-2.8,0-5.6,0-8.4c0.1-0.8,0.3-1.5,1.1-1.9
			C258.6,133.2,258.8,133.3,259,133.5z"/>
		<path class="st53" d="M357.6,130.9c-1.9-2.8-4.8-3.8-8-4c-3.2-0.2-6.4-0.2-9.3,1.5c-2.4,1.4-3.6,4.2-3,7.2
			c0.4,2.2,2.6,3.9,5.1,4.4c3.4,0.7,6.9,0.7,10.3,1.6c2,0.5,2.7,1.2,2.7,2.7c0,2-0.7,3-2.6,3.6c-3.2,0.9-6.3,0.8-9.5-0.1
			c-0.8-0.2-1.6-0.6-2.1-1.4c-0.2-0.2-0.2-0.4,0-0.6c3.7,2.9,7.9,2.2,12,1.3c1.1-0.2,1.9-1.8,1.6-3c-0.3-1.3-1.2-1.7-2.4-2
			c-3.4-0.9-6.9-0.6-10.2-1.7c-2.3-0.7-4.4-1.6-5.3-4.2c-1.2-3.6,0.4-7.3,3.8-8.8c4.7-2,9.6-1.8,14.3,0.1c1.4,0.5,2.5,1.7,3,3.2
			C357.8,131.1,357.7,131.1,357.6,130.9z"/>
		<path class="st54" d="M337.3,147.9c3.6,4.3,8.6,4.1,13.5,3.8c2.2-0.1,4.2-0.8,6-2.1c2.5-1.8,2.8-4.3,2.5-6.9
			c-0.3-2.4-2.3-3.5-4.5-4.2c-3.4-1.1-7-1.2-10.5-1.9c-0.7-0.2-1.4-0.3-2-0.6c-1.5-0.7-1.9-2.3-1-3.7c0.5-0.8,1.3-1.5,2.2-1.7
			c2.9-0.4,5.9-0.9,8.7,0.4c1,0.4,2.1,1,1.9,2.5c-2.4-2.5-7.3-3.5-10.6-2.2c-1.1,0.5-2.1,1.2-2,2.6c0.1,1.5,1.3,1.9,2.5,2.1
			c2.9,0.5,5.7,0.9,8.6,1.5c1.2,0.2,2.4,0.5,3.5,1c3.7,1.6,4.3,4.5,3.5,8c-0.5,2.6-2.4,3.9-4.7,4.9c-3.8,1.5-7.6,1.4-11.5,0.7
			c-2.5-0.5-4.7-1.4-6.2-3.5c-0.1-0.2-0.2-0.3-0.1-0.5C337.2,147.9,337.2,147.9,337.3,147.9z"/>
		<path class="st55" d="M247.7,159.8c0,0.1,0,0.2-0.1,0.4c-2.3-1.3-4.5-2.5-6.8-3.8c-1.3-0.8-1.6-2.1-1.6-3.5c0-8.9,0-17.8,0-26.7
			c0-1.7,0.6-3.1,2.2-3.9c0.9-0.5,1.6-1.1,2.6-1.4c-0.1,0.2-0.2,0.4-0.3,0.6c0,0.8-0.7,1.1-1.3,1.4c-1.5,0.8-2,1.9-2,3.5
			c0.1,8.8,0.1,17.6,0,26.5c0,1.7,0.5,2.8,2,3.5c1.4,0.7,2.8,1.6,4.1,2.4C247.1,158.9,247.7,159.1,247.7,159.8z"/>
		<path class="st46" d="M324.7,157c1.8,0.8,3.3,0.2,4.6-1.1c0,1.2-0.8,2-2.2,2.3c-1.2,0.2-2.3,0-3.4-0.6c-2.1-1-4-2.4-6-3.5
			c-0.7-0.4-1.1-1.1-1.3-1.9c-0.2-0.8-0.3-1.7-0.3-2.5c0-7,0-14.1,0-21.1c0-0.4,0-0.8,0-1.1c0.1-1.9,0.8-3.2,2.5-4.2
			c3.4-1.8,6.6-3.9,9.9-5.7c0.5-0.3,1-0.7,1.7-0.4c0,0.1,0.1,0.1,0.1,0.2c-2.2,1.9-4.9,2.9-7.3,4.4c-1.6,1.1-3.3,1.9-5,2.9
			c-0.5,0.3-0.8,0.7-0.8,1.4c0,1-0.2,2-0.2,2.9c0,6.6,0,13.3,0,19.9c0,1,0.2,2.1,0.2,3.1c0,0.5,0.3,0.9,0.7,1.2
			C320.3,154.5,322.5,155.7,324.7,157z"/>
		<path class="st56" d="M327.6,114.5c0.1-0.2,0.2-0.4,0.3-0.6c3.7-2.2,7.3-4.4,11.1-6.4c1.6-0.9,3.5-0.5,5.1,0.4
			c6.3,3.6,12.6,7.2,18.9,11c1.8,1.1,3.8,1.8,5.3,3.5c0.5,0.5,0.8,1,0.8,1.7c-0.1,0-0.2,0-0.4,0c0,0-0.1,0-0.1,0
			c-1.9-2.6-4.8-3.7-7.4-5.2c-5.6-3.4-11.4-6.5-17-9.9c-1.9-1.2-3.8-1.4-5.9-0.1c-2.9,1.8-5.9,3.4-8.8,5.1
			C328.9,114.3,328.3,114.9,327.6,114.5z"/>
		<path class="st42" d="M76,261.8c-0.1,2.1-1.1,4-1.3,6.2c-0.3,4.5,0,8.8,1.6,13c1.3,3.6,3.4,6.6,6.8,8.4c1.7,0.9,3.5,1.4,5.3,1.6
			c6,0.7,11.4-0.4,15.8-5c1.1-1.2,1.9-2.5,2.7-3.9c0.1,1.6-1,2.6-1.9,3.6c-3.2,3.6-7.2,5.8-12.2,5.8c-2.4,0-4.8,0.1-7.2-0.6
			c-3.5-1.1-6.2-3.2-8.1-6.4c-2.6-4.3-3.6-9-3.5-14c0.1-2.9,0.6-5.7,1.5-8.4C75.6,262,75.8,261.8,76,261.8z"/>
		<path class="st57" d="M145.1,156.3c0,0.1,0,0.3,0,0.4c-4.5,2.9-9.1,5.4-13.7,8.1c-3.2,1.9-6.4,3.7-9.5,5.6c-1.4,0.9-2.7,0.8-4.1,0
			c-3.7-2.2-7.3-4.4-11-6.6c0.1-0.1,0.2-0.2,0.3-0.3c0.5-0.1,0.9,0.1,1.3,0.3c2.9,1.7,5.9,3.3,8.8,5c1.7,1.1,3.2,1.1,5.1,0
			c7-4.2,14.1-8.1,21.1-12.3C144,156.4,144.5,156,145.1,156.3z"/>
		<path class="st58" d="M259,133.5c-0.2,0-0.4,0-0.6,0c0-0.5,0.4-0.7,0.7-0.9c2.2-1.2,4.2-2.6,6.5-3.7c1.1-0.5,2.1-0.5,3.1,0.1
			c2.2,1.3,4.5,2.6,6.7,3.9c1.1,0.6,1.6,1.5,1.6,2.8c-0.1,2.4,0.1,4.9,0,7.3c-0.1,0-0.3,0-0.4,0.1c-0.6-0.4-0.5-1-0.5-1.5
			c0-1.9-0.1-3.8,0-5.6c0-1-0.4-1.7-1.2-2.2c-2.3-1.3-4.5-2.7-6.8-4c-1.1-0.6-2,0-2.9,0.6C263.1,131.2,261.1,132.3,259,133.5z"/>
		<path class="st42" d="M153.9,286.2c0-0.1,0-0.2,0-0.3c1.4,1.1,2.6,2.4,4.2,3.2c5,2.6,10,2.4,15.1,0.4c1-0.4,1.7-1.4,2.9-1.6
			c-1.7,1.9-4.1,2.9-6.5,3.3c-4.2,0.7-8.4,0.5-12.2-1.9C156,288.4,155,287.3,153.9,286.2z"/>
		<path class="st59" d="M107.3,163.7c-0.1,0-0.3,0.1-0.4,0.1c-4.5-2.3-8.7-5-13.1-7.5c-0.6-0.3-1.2-0.8-1.3-1.6c0-1.2,0-2.3,0.1-3.5
			c0.8,0.2,0.6,1,0.6,1.5c-0.1,1.4,0.5,2.3,1.7,3c2.8,1.6,5.5,3.3,8.3,4.8c1.3,0.7,2.4,1.5,3.6,2.2C107,163,107.3,163.3,107.3,163.7
			z"/>
		<path class="st54" d="M341.2,146c0,0.2,0,0.4,0,0.6c-0.7-0.4-0.9-1.2-1.1-1.9c-0.4-1.2-2.7-1.7-3.5-0.8c-0.3,0.3-0.2,0.7-0.1,1.1
			c0.3,1,0.5,2,0.8,3c0,0-0.1,0.1-0.1,0.1c-1.1-0.5-1-1.7-1.2-2.6c-0.1-0.6-0.2-1.3,0.1-1.9l0,0c1.2-0.8,2.4-0.4,3.6-0.3
			c0.7,0.1,0.7,0.9,0.9,1.4C340.8,145,341,145.5,341.2,146z"/>
		<path class="st42" d="M106.9,282.2c0.3-1.2,0.7-2.5,1-3.7c0.1-0.5,0.2-1-0.3-1.2c-0.6-0.2-0.7,0.5-0.9,0.9
			c-0.3,0.8-0.1,1.7-0.7,2.4c0-1.1-0.1-2.2,0.6-3.2c0.3-0.4,0.6-0.8,1.1-0.6c0.5,0.1,0.6,0.6,0.5,1
			C108.3,279.3,108.1,280.9,106.9,282.2z"/>
		<path class="st54" d="M357.6,130.9c0.1,0,0.2,0,0.3,0c0.2,0.4,0.4,0.7,0.6,1.1c0.2,0.9,0.6,1.9,0.2,2.9c-0.1,0.1-0.2,0.2-0.3,0.3
			c-1.2,0.3-2.3,0.8-3.4-0.3c0.4,0,0.7,0,1.1,0c2.1,0,2.6-0.6,1.8-2.7C357.8,131.8,357.7,131.4,357.6,130.9z"/>
		<path class="st53" d="M355.1,134.9c1.1,0.6,2.3,0.2,3.4,0.3c-1,1-2.2,0.6-3.3,0.4c-0.7-0.2-1.1-1-0.9-1.8
			C354.6,134,354.5,134.7,355.1,134.9z"/>
		<path class="st53" d="M336.1,143.4c0.1,1.6,0,3.2,1.1,4.6c0,0.2,0,0.4,0,0.6C335.9,147.3,335.4,145.1,336.1,143.4z"/>
		<path class="st53" d="M340.6,144.5c-0.9-1.6-2.1-1.9-4.6-1.2c1.1-1.1,2.5-0.5,3.8-0.4C340.5,143,340.7,143.8,340.6,144.5z"/>
		<path class="st53" d="M358.7,134.9c-0.1-0.9-0.2-1.9-0.2-2.9C359.1,132.9,359.3,133.9,358.7,134.9z"/>
		<path class="st42" d="M77.8,271.3c9.8,0,19.5,0,29.3,0c1.4,0,1.8-0.5,1.7-1.8c-0.1-1.6-0.2-3.1-0.5-4.6c-1-4.8-2.9-9-7.1-11.8
			c-4.7-3.2-9.7-3.7-14.9-1.9c-5.2,1.8-8.3,5.6-10.2,10.6c-0.7,2.1-1.4,4.2-1.6,6.4c-0.5,5.5,0.3,10.8,3,15.8c2.2,4,5.5,6.4,9.7,7.2
			c4.8,0.8,9.6,0.7,13.9-2.1c2.6-1.7,4.8-3.8,5.8-6.8l0,0c0.7-1.1,0.9-2.3,1.2-3.5c0.1-0.6,0.4-1.5-0.5-1.7
			c-0.8-0.2-0.9,0.7-1.1,1.2c-0.3,0.7-0.2,1.6-0.4,2.3c-0.1,0.3-0.3,0.6-0.4,0.9c-1,2.6-2.7,4.6-5,6.1c-3.4,2.2-7.2,2.8-11.1,2.4
			c-5.9-0.6-9.8-3.5-11.9-9.3c-0.9-2.4-1.3-4.8-1.5-7.3C75.9,271.4,76,271.3,77.8,271.3z M76.3,267.6c0.6-4.8,2.4-9,6.1-12.3
			c2.7-2.4,5.8-3.3,9.1-3.5c7.8,0,13.2,4.8,14.9,11.6c0.4,1.6,0.5,3.3,0.8,4.9c0.1,0.8-0.1,1.3-1,1.3c-0.6,0-1.2,0.1-1.8,0.1
			c-8.8,0-17.6,0-26.3,0C76,269.6,76,269.6,76.3,267.6z"/>
		<path class="st42" d="M178.5,258.7c-1.4-1.9-2.9-3.7-5-4.9c-7.5-4.3-17.8-1.3-21.3,7.6c-2.7,6.8-2.6,13.6,0.2,20.2
			c1.8,4.1,5.1,6.8,9.6,7.9c4.8,1.1,9.4,0.5,13.2-2.9c3-2.7,4.6-6.2,5.5-10.1c1-4.5,0.8-9-0.5-13.4c-0.4-1.2-0.8-2.4-1.2-3.6
			c1.1,0.3,0.8,1.4,1.1,2.1c1.2,3.1,1.8,6.3,1.7,9.6c-0.1,4.5-1.1,9-3.7,12.7c-3.9,5.6-9.4,7.8-16.6,5.8c-3.6-1-6.2-3.1-8.3-6
			c-0.2-0.2-0.5-1-0.8,0c-0.7-0.6-0.9-1.5-1.1-2.4c-0.1-0.4-0.2-1-0.7-0.9c-0.7,0.1-0.4,0.7-0.4,1.1c0,6.8,0,13.7,0,20.5
			c0,0.6,0.4,1.8-0.5,1.8c-1.1,0-0.6-1.2-0.6-1.8c0-16.2,0-32.4,0-48.7c0-0.7-0.4-1.8,0.6-1.8c0.8,0,0.5,1.2,0.5,1.8
			c0.1,2.4,0,4.7,0,7.1c0,0.4-0.1,1,0.3,1.1c0.7,0.2,0.4-0.7,0.8-0.9c0,0.3,0.1,0.6,0.1,1.2c0.9-1.2,1.3-2.5,2.1-3.5
			c3.1-4.6,7.4-6.9,12.9-6.9c3.3,0,6.4,0.9,8.9,3.1C176.7,255.6,178.2,256.7,178.5,258.7z"/>
		<path class="st60" d="M107.3,163.7c-2.7-2-5.7-3.5-8.6-5.2c-1.6-0.9-3.1-1.8-4.7-2.8c-0.9-0.5-1.2-1.4-1.3-2.4
			c0-0.7,0.2-1.4-0.2-2.1c0-8.3,0.1-16.5,0-24.8c0-2.2,0.9-3.6,2.7-4.5c6.8-3.6,13.2-7.9,20.1-11.4c0.8-0.4,1.6-1,2.4-1.5
			c1.4-1,2.7-1.1,4.2-0.2c7.2,4.2,14.5,8.5,21.8,12.7c0.5,0.3,1,0.6,1.5,0.8c1.3,0.6,1.8,1.5,1.9,3c0.3,8.9,0,17.8,0.1,26.7
			c0,1.7-0.2,3.4-2,4.3c-1.7,0.6-3.1,1.7-4.7,2.6c-6,3.4-12,6.7-17.9,10.3c-2.1,1.3-3.7,1-5.6-0.1c-3-1.8-6.1-3.5-9.1-5.3
			C107.7,163.8,107.5,163.8,107.3,163.7z"/>
		<path class="st61" d="M327.6,114.5c3.3-1.9,6.7-3.6,9.9-5.6c2.5-1.6,4.8-1.5,7.3,0.1c3.2,2.1,6.7,3.8,10,5.8
			c3.9,2.2,7.7,4.6,11.6,6.7c1,0.6,1.8,1.5,2.3,2.6c0,9.2,0,18.5,0.1,27.7c0,2.4-1.1,3.9-3,5c-6.5,3.8-13,7.5-19.4,11.3
			c-0.9,0.5-1.8,1.1-2.7,1.5c-1.7,0.8-3.3,0.9-5-0.1c-2.2-1.3-4.3-2.6-6.5-3.9c-0.9-0.5-0.9-0.8,0-1.2c0.4-0.2,0.8-0.5,1.2-0.7
			c1-0.5,1.8-0.2,2.6,0.3c1.3,0.8,2.6,1.6,4,2.4c0.9,0.5,1.7,0.5,2.6-0.1c5.3-3.1,10.8-6.1,16.1-9.3c1.8-1.1,3.7-2.1,5.5-3.2
			c0.9-0.6,1.5-1.4,1.5-2.7c-0.1-8.3-0.1-16.5,0-24.8c0-1-0.3-1.7-1.1-2.2c-5.1-2.9-10.2-5.8-15.3-8.8c-1.8-1-3.7-2-5.4-3.2
			c-1.7-1.2-3.3-1.4-5-0.2c-2.6,1.9-5.6,3.1-8.2,4.9c-0.1,0.1-0.1,0.1-0.2,0.2c-1.8,0.9-3.6,1.8-5.3,2.9c-2.3,1.4-4.7,2.8-7.1,4.1
			c-0.8,0.4-1.3,0.9-1.2,1.9c0,0.9-0.2,1.9-0.2,2.8c0,7.1,0,14.2,0,21.4c0,1.9,0.4,3.4,2.5,4.2c1.7,0.7,3.2,1.8,4.8,2.7
			c2.3,1.3,4.6,0.7,5.5-1.3c0.6-0.7,0.5-1.6,0.5-2.4c0-8,0-16,0-24c0-0.6-0.3-1.5,0.5-1.8c0.8-0.3,1.8-0.3,2.6,0
			c0.5,0.1,0.4,0.7,0.4,1.1c0,2.2,0,4.4,0.1,6.6c0.1,4.8-0.2,9.7,0.1,14.5c0.1,2,0,4-0.2,6.1c-0.1,1.8-1.1,3.2-2.3,4.4
			c-1.1,0.3-2,0.8-3.2,1c-3.3,0.3-5.8-1.3-8.4-2.7c-1.2-0.7-2.4-1.5-3.7-2.1c-1.5-0.8-2.3-2.1-2.3-3.6c-0.1-9.1,0-18.2,0-27.3
			c0-2.1,1.2-3.3,2.8-4.2c3.3-1.9,6.7-3.9,10-5.8C326.7,115.2,327.1,114.9,327.6,114.5z"/>
		<path class="st39" d="M276.9,142.8c-0.4-0.5-0.3-1.1-0.3-1.6c0-1.9,0-3.8,0-5.7c0-1.1-0.4-1.9-1.4-2.4c-2.2-1.3-4.4-2.5-6.6-3.9
			c-1.1-0.7-2.1-0.7-3.2-0.1c-2.4,1.4-4.8,2.8-7.1,4.3c-0.5,0.3-0.8,0.8-0.8,1.4c-0.2,3.1-0.2,6.1,0,9.2c0.1,0.9,0.6,1.3,1.3,1.7
			c7.6,4.4,15.2,8.7,22.8,13.1c0.2,0.1,0.4,0.1,0.5,0.3c0.6,0.5,1.5,0.6,1.5,1.7c0,1.1-1,1.3-1.7,1.6c-4.1,2.3-8.2,4.5-12.2,6.9
			c-1.8,1.1-3.3,1.1-5.1,0.1c-5.1-3-10.4-6-15.5-8.9c-0.4-0.3-0.9-0.4-1.4-0.6c-1.9-1.1-3.8-2.3-5.7-3.4c-1.4-0.8-2.1-1.9-2-3.5
			c0.1-8.9,0.1-17.8,0-26.8c0-1.9,0.6-3.1,2.3-3.8c0.5-0.3,1-0.7,1.5-1c2.1-0.8,3.9-2.1,5.8-3.1c5.4-3.1,10.7-6.2,16.1-9.3
			c1.1-0.7,2.2-0.6,3.3,0.1c7,4.1,14,8.3,21.1,12.3c5.3,3,4,2.6,4.4,7.9c0.2,3.4-0.9,5.4-4,6.9c-4.1,2-7.9,4.5-11.8,6.8
			C278.1,143.1,277.5,143.2,276.9,142.8z"/>
		<path class="st58" d="M257.6,144c-0.3-3.1-0.3-6.1,0-9.2C257.6,137.9,257.6,141,257.6,144z"/>
		<path class="st42" d="M212.9,271.3c4.9,0,9.8,0,14.7,0c5,0,9.9-0.1,14.9,0c1.5,0,1.8-0.6,1.8-1.8c-0.1-2.5-0.5-4.9-1.2-7.3
			c-1.7-5.4-5-9.3-10.5-11.1c-5.5-1.8-10.8-1-15.3,2.6c-4.9,3.8-6.9,9.2-7.4,15.3c-0.3,4.5,0.2,8.9,1.9,13c1.1,2.7,2.8,5.1,5.3,6.8
			c2.7,1.8,5.7,2.4,8.9,2.7c7.5,0.6,15.2-3.5,17.4-11.7c0.2-0.7,0.2-1.4,0.2-2.1c0-0.3-0.1-0.6-0.4-0.7c-0.3-0.1-0.5,0.1-0.7,0.3
			c-0.3,0.3-0.5,0.7-0.5,1.1c0,1.3-0.6,2.4-1.1,3.6c-1.7,3.8-4.7,6.1-8.5,7.3c-3.3,1-6.7,1-10,0.1c-3.2-0.9-5.8-2.6-7.6-5.5
			c-2.1-3.4-3-7.1-3.1-11C211.3,271.6,211.7,271.3,212.9,271.3z M211.7,267.8c0.6-5.2,2.6-9.7,6.8-13c3.2-2.4,6.9-3.1,10.8-2.6
			c6.3,0.8,10.7,5.5,12.2,11.7c0.3,1.3,0.4,2.7,0.7,4c0.2,1.1-0.2,1.4-1.3,1.4c-4.7,0-9.3,0-14,0c-4.6,0-9.2,0-13.7,0
			C211.9,269.4,211.6,268.9,211.7,267.8z"/>
		<path class="st39" d="M221,83.9c0-1.8-0.7-2.9-2.2-3.7c-4-2.2-8-4.4-12-6.7c-3.3-1.8-3.6-1.6-3.6,2.1c0,11.4,0,22.8,0,34.3
			c0,0.4,0,0.9,0,1.3c-0.2,1.4-1.2,1.9-2.4,1.2c-1.7-1-3.4-1.9-5.1-2.9c-1.1-0.7-2.3-0.9-3.5-0.2c-3.7,2.1-7.4,4.3-11.2,6.4
			c-2.4,1.4-4.8,2.7-7.2,4.1c-1.7,1.4-3.8,2.3-5.6,3.4c-1,0.6-1.7,1.3-1.7,2.7c0,9.4,0,18.8,0,28.2c0,1.2,0.5,2,1.4,2.6
			c4.3,2.5,8.5,4.9,12.8,7.4c3.8,2.2,7.5,4.4,11.3,6.6c1,0.6,2.1,0.7,3.2,0.1c1.7-0.9,3.3-2,5-2.9c6.8-3.9,13.6-7.7,20.3-11.8
			c0.3-0.8,0.6-1.6,0.6-2.6C221,130.1,221,107,221,83.9z M202,145.6c-0.6,0.5-1.4,0.7-2,1.3c-1.7,1-3.5,1.9-5.1,3
			c-0.7,0.5-1.5,0.5-2.2,0.1c-2.5-1.4-5-2.8-7.4-4.3c-0.6-0.4-0.9-1-0.9-1.8c0-2.7,0-5.4,0-8.1c0-0.8,0.3-1.4,1-1.9
			c1.6-1.1,3.4-1.8,4.9-3c0.2-0.1,0.5,0,0.6-0.3c2.1-1.7,4.1-1,6.1,0.4c1.5,1,3.2,1.8,4.7,2.8c0.7,0.4,1,0.9,1,1.7
			c0.1,2.9-0.2,5.8,0.1,8.7C202.9,144.9,202.4,145.3,202,145.6z"/>
		<path class="st62" d="M190.2,130.9c-0.8,1.2-2.1,1.7-3.3,2.3c-1.6,0.8-2.6,1.8-2.4,3.8c0.2,2.2,0.1,4.4,0,6.6c0,0.9,0.3,1.5,1,1.9
			c2.3,1.4,4.7,2.7,7.1,4.1c0.7,0.4,1.4,0.4,2.1,0c1.7-1,3.4-2,5.1-2.9c0.2-0.1,0.5-0.1,0.7,0.1c-1.8,1.5-4,2.4-6,3.6
			c-0.5,0.3-1.2,0.2-1.8-0.1c-2.6-1.5-5.2-2.9-7.7-4.4c-0.7-0.4-0.9-1-0.9-1.8c0-2.8,0-5.7,0-8.5c0-0.6,0.2-1.1,0.7-1.5
			C186.4,132.9,188.2,131.7,190.2,130.9z"/>
		<path class="st63" d="M200.4,146.8c-0.2,0-0.4,0-0.7-0.1c0,0,0.1-0.1,0.1-0.1c2.7-0.8,2.8-2.9,2.6-5.2c-0.2-1.9-0.1-3.8,0-5.6
			c0-0.8-0.2-1.3-0.9-1.7c-2.4-1.4-4.8-2.8-7.2-4.2c-0.6-0.4-1.2-0.1-1.7,0.1c-0.6,0.3-1.1,0.8-1.8,0.6c1.9-1.8,2.6-1.9,4.8-0.7
			c1.9,1.1,3.8,2.3,5.8,3.3c1.4,0.7,1.9,1.7,1.8,3.2c-0.1,2.4-0.2,4.9,0,7.3C203.3,145.7,201.7,146.1,200.4,146.8z"/>
	</g>
</g>
<g id="ejs" class="st3">
	<g class="st9">
		<path class="st64" d="M142.7,189.1c0-8.1,0.1-16.1-0.1-24.2c0-2.7,0.6-3.8,3.5-3.7c11.6,0.2,23.2,0.1,34.7,0
			c2.7,0,3.6,0.9,3.3,3.5c-0.1,1.1-0.1,2.2,0,3.2c0.3,2.7-1,3.4-3.5,3.4c-7.3-0.1-14.5,0.1-21.8-0.1c-2.9-0.1-4,0.7-3.9,3.8
			c0.1,8.5-0.1,8.5,8.5,8.5c4.7,0,9.4,0.1,14.1,0c2.3-0.1,3.6,0.6,3.3,3.2c-0.1,0.5,0,1.1,0,1.6c0,5.3,0,5.3-5.1,5.3
			c-5.9,0-11.8,0.1-17.8,0c-2.3,0-3,0.7-3,3c-0.4,10.5-0.5,10.5,9.8,10.5c5.7,0,11.3,0.1,17,0c2.8-0.1,4,0.9,3.7,3.7
			c-0.1,1.3-0.1,2.7,0,4c0.1,1.7-0.7,2.3-2.4,2.3c-12.7,0-25.3-0.1-38,0c-2.6,0-2.3-1.7-2.3-3.3
			C142.7,205.5,142.7,197.3,142.7,189.1z"/>
		<path class="st64" d="M256.7,217.8c-6.6-0.3-13-1.5-19.1-4.3c-2.6-1.2-3.4-2.7-1.8-5.3c0.5-0.8,0.9-1.7,1.2-2.6
			c0.8-2.9,2.1-3.3,4.9-1.8c5.8,3.2,12.1,4.4,18.7,3.5c3.4-0.5,6.7-1.4,7-5.4c0.3-3.9-3-5.1-6-6c-4.2-1.3-8.6-2.2-12.8-3.5
			c-9.6-2.9-13.4-7.4-13.2-15.4c0.2-7.6,5.2-13.4,13.9-15.6c8.6-2.2,17-1.2,25.3,2.2c2.4,1,2.9,2.1,1.9,4.6c-2.5,6.2-2.4,6.3-8.8,4
			c-4.4-1.6-8.9-2.2-13.5-1.4c-3.2,0.6-6.1,1.9-6.4,5.6c-0.4,3.7,2.5,4.8,5.2,5.6c4.5,1.4,9.1,2.4,13.6,3.7
			c9.5,2.8,13.5,7.3,13.3,14.8c-0.1,7.7-5.4,13.6-14.2,15.9C262.9,217.4,259.9,217.9,256.7,217.8z"/>
		<path class="st64" d="M225.5,182.1c0,6.2,0.4,12.4-0.1,18.5c-0.7,10.2-5.7,15.3-15.7,16.8c-7.2,1.1-13.9-0.6-19.6-5.3
			c-1.7-1.4-2.1-2.7-0.3-4.2c0.4-0.4,0.7-0.8,1-1.2c3.6-4.4,3.6-4.4,8.1-1.3c3.2,2.2,6.7,2.9,10.3,1.3c3.4-1.5,4.1-4.8,4.1-8.2
			c0-8.1-0.1-16.1,0.1-24.2c0-2.5-0.9-3.3-3.3-3.2c-4.3,0.1-8.6-0.1-12.9,0.1c-2.4,0.1-3.5-0.8-3.3-3.3c0.1-1.1,0.1-2.2,0-3.2
			c-0.4-2.9,0.9-3.7,3.6-3.6c8.2,0.2,16.4,0.2,24.6,0c2.7-0.1,3.8,0.7,3.7,3.6c-0.2,5.8-0.1,11.6-0.1,17.3
			C225.7,182.1,225.6,182.1,225.5,182.1z"/>
		<path class="st65" d="M365,200.2c-4.6-1.7-8.7-3.4-12.9-4.8c-2.1-0.7-2.6-1.8-2.6-3.8c0-2.1,0.6-2.6,2.6-1.9
			c5.7,2.3,11.5,4.5,17.3,6.6c2.1,0.7,2.5,2.1,2.5,4c0,1.9-0.3,3.3-2.4,4c-5.6,2-11,4.2-16.6,6.2c-1,0.4-2.7,2-3.1-0.4
			c-0.3-1.6-1-3.8,1.6-4.7c3.7-1.2,7.3-2.6,11-4C363.1,201.2,363.8,200.8,365,200.2z"/>
		<path class="st65" d="M24.6,200.3c4.9,1.8,9,3.4,13.1,4.8c1.7,0.6,2.8,1.3,2.7,3.4c-0.1,2.2-0.3,3.3-3,2.3
			c-5.6-2.3-11.2-4.4-16.9-6.4c-2.2-0.7-2.4-2.1-2.4-4c0-1.9,0.2-3.3,2.3-4c5.4-1.9,10.8-4.1,16.2-6c1.1-0.4,2.8-2.2,3.6,0.1
			c0.5,1.7,0.9,4-1.9,4.9C33.9,196.7,29.7,198.4,24.6,200.3z"/>
		<path class="st66" d="M312.1,216.4c4.2-6.1,8.3-12,12.3-18c2.7-4,5.4-8,8.2-12c2-2.9,2.1-2.9,6.7-2.1
			c-5.4,7.9-10.7,15.6-15.9,23.3c-1.4,2.1-2.9,4.2-4.3,6.3C316.8,217.3,316.8,217.3,312.1,216.4z"/>
		<path class="st66" d="M77.8,184.3c-3.5,5.2-7,10.3-10.5,15.3c-3.3,4.8-6.5,9.5-9.8,14.3c-2.2,3.2-2.2,3.2-7.1,2.6
			c4.6-6.7,9-13.2,13.5-19.7c2.3-3.3,4.7-6.5,6.8-10C72.4,184.2,74.4,183.1,77.8,184.3z"/>
		<path class="st64" d="M99.4,191.1c2.7,0,5.4,0.1,8.1,0c2.3-0.1,3.1,0.7,3,3c0,2.3-0.8,3.1-3.1,3c-5.5-0.1-11-0.1-16.5,0
			c-2.5,0-2.8-1.3-2.8-3.3c0-2.1,0.8-2.8,2.9-2.7C93.7,191.2,96.6,191.1,99.4,191.1z"/>
		<path class="st64" d="M99.3,208.9c-2.8,0-5.6-0.1-8.5,0c-2.2,0.1-2.8-0.9-2.7-2.9c0.1-1.8,0.2-3.2,2.5-3.1
			c5.8,0.1,11.5,0.1,17.3,0c2.3,0,2.5,1.4,2.5,3.1c0.1,2-0.6,3-2.7,2.8C104.9,208.8,102.1,208.9,99.3,208.9z"/>
		<path class="st66" d="M75.4,198.4c-4.5,0.1-7.8,3.7-7.9,8.9c-0.2,5.6,3.2,9.6,8,9.7c4.7,0,8.1-3.7,8.2-9.1
			C83.7,202.3,80.2,198.3,75.4,198.4z M75.4,212.8c-3.3,0-3.4-2.8-3.6-5.2c0.3-2.4,0.4-5.2,3.7-5.1c3.3,0,3.5,2.7,3.5,5.2
			C79,210.2,78.7,212.9,75.4,212.8z"/>
		<path class="st66" d="M337.2,198.4c-4.8-0.1-8.4,3.9-8.3,9.4c0,5.3,3.4,9.2,8.1,9.2c4.6,0,8-3.8,8.1-9.2
			C345.1,202.4,341.9,198.5,337.2,198.4z M336.9,212.8c-3.3-0.1-3.5-2.8-3.4-5.3c0-2.5,0.4-5.1,3.7-5c3.3,0.1,3.3,2.9,3.5,5.3
			C340.4,210.2,340.2,213,336.9,212.8z"/>
		<path class="st66" d="M53,183.7c-4.9,0-8,3.1-8.1,8.4c-0.1,5.4,3,9.3,7.7,9.4c4.7,0.2,8.3-3.6,8.4-8.9
			C61.1,187.3,57.9,183.8,53,183.7z M53,197.5c-3.3,0.1-3.7-2.6-3.7-5c0-2.4,0.5-4.8,3.5-4.9c3.3-0.1,3.6,2.5,3.7,5.2
			C56.3,194.9,56.1,197.4,53,197.5z"/>
		<path class="st65" d="M314.5,183.7c-5.1,0-8.2,3.3-8.2,8.8c0,5.4,3.3,9.1,8.1,9.1c4.5,0,7.9-3.7,8-8.8
			C322.5,187.2,319.5,183.8,314.5,183.7z M318,192.7c0,2.4-0.5,4.8-3.6,4.8c-3.3-0.1-3.5-2.7-3.7-5.1c0.2-2.5,0.6-4.9,3.6-4.9
			C317.6,187.6,318.1,190.2,318,192.7z"/>
	</g>
</g>
<g id="lines" class="st3">
	<line class="st67" x1="-24.2" y1="189.1" x2="414.2" y2="189.1"/>
	<line class="st67" x1="193.9" y1="443.8" x2="193.9" y2="-84.7"/>
</g>
</svg>
